999
dxflib 2.2.0.0
  0
SECTION
  2
HEADER
  9
$ACADVER
  1
AC1015
  9
$HANDSEED
  5
FFFF
  9
$DIMASZ
 40
2.5
  9
$MEASUREMENT
 70
1
  9
$DIMGAP
 40
0.625
  9
$DIMEXO
 40
0.625
  9
$INSUNITS
 70
4
  9
$DIMTXT
 40
2.5
  9
$DIMSTYLE
  2
Standard
  9
$PLIMMAX
 10
210.0
 20
297.0
  9
$PLIMMIN
 10
0.0
 20
0.0
  9
$DIMEXE
 40
1.25
  0
ENDSEC
  0
SECTION
  2
TABLES
  0
TABLE
  2
VPORT
  5
8
100
AcDbSymbolTable
 70
1
  0
VPORT
  5
30
100
AcDbSymbolTableRecord
100
AcDbViewportTableRecord
  2
*Active
 70
0
 10
0.0
 20
0.0
 11
1.0
 21
1.0
 12
286.3055555555554861
 22
148.5
 13
0.0
 23
0.0
 14
10.0
 24
10.0
 15
10.0
 25
10.0
 16
0.0
 26
0.0
 36
1.0
 17
0.0
 27
0.0
 37
0.0
 40
297.0
 41
1.92798353909465
 42
50.0
 43
0.0
 44
0.0
 50
0.0
 51
0.0
 71
0
 72
100
 73
1
 74
3
 75
1
 76
1
 77
0
 78
0
281
0
 65
1
110
0.0
120
0.0
130
0.0
111
1.0
121
0.0
131
0.0
112
0.0
122
1.0
132
0.0
 79
0
146
0.0
  0
ENDTAB
  0
TABLE
  2
LTYPE
  5
5
100
AcDbSymbolTable
 70
21
  0
LTYPE
  5
14
100
AcDbSymbolTableRecord
100
AcDbLinetypeTableRecord
  2
ByBlock
 70
0
  3

 72
65
 73
0
 40
0.0
  0
LTYPE
  5
15
100
AcDbSymbolTableRecord
100
AcDbLinetypeTableRecord
  2
ByLayer
 70
0
  3

 72
65
 73
0
 40
0.0
  0
LTYPE
  5
16
100
AcDbSymbolTableRecord
100
AcDbLinetypeTableRecord
  2
CONTINUOUS
 70
0
  3
Solid line
 72
65
 73
0
 40
0.0
  0
LTYPE
  5
31
100
AcDbSymbolTableRecord
100
AcDbLinetypeTableRecord
  2
DOT
 70
0
  3
Dot . . . . . . . . . . . . . . . . . . . . . .
 72
65
 73
2
 40
6.3499999999999996
 49
0.0
 74
0
 49
-6.3499999999999996
 74
0
  0
LTYPE
  5
32
100
AcDbSymbolTableRecord
100
AcDbLinetypeTableRecord
  2
DOT2
 70
0
  3
Dot (.5x) .....................................
 72
65
 73
2
 40
3.1749999999999998
 49
0.0
 74
0
 49
-3.1749999999999998
 74
0
  0
LTYPE
  5
33
100
AcDbSymbolTableRecord
100
AcDbLinetypeTableRecord
  2
DOTX2
 70
0
  3
Dot (2x) .  .  .  .  .  .  .  .  .  .  .  .  .
 72
65
 73
2
 40
12.6999999999999993
 49
0.0
 74
0
 49
-12.6999999999999993
 74
0
  0
LTYPE
  5
34
100
AcDbSymbolTableRecord
100
AcDbLinetypeTableRecord
  2
DASHED
 70
0
  3
Dashed __ __ __ __ __ __ __ __ __ __ __ __ __ _
 72
65
 73
2
 40
19.0500000000000007
 49
12.6999999999999993
 74
0
 49
-6.3499999999999996
 74
0
  0
LTYPE
  5
35
100
AcDbSymbolTableRecord
100
AcDbLinetypeTableRecord
  2
DASHED2
 70
0
  3
Dashed (.5x) _ _ _ _ _ _ _ _ _ _ _ _ _ _ _ _ _
 72
65
 73
2
 40
9.5250000000000004
 49
6.3499999999999996
 74
0
 49
-3.1749999999999998
 74
0
  0
LTYPE
  5
36
100
AcDbSymbolTableRecord
100
AcDbLinetypeTableRecord
  2
DASHEDX2
 70
0
  3
Dashed (2x) ____  ____  ____  ____  ____  ___
 72
65
 73
2
 40
38.1000000000000014
 49
25.3999999999999986
 74
0
 49
-12.6999999999999993
 74
0
  0
LTYPE
  5
37
100
AcDbSymbolTableRecord
100
AcDbLinetypeTableRecord
  2
DASHDOT
 70
0
  3
Dash dot __ . __ . __ . __ . __ . __ . __ . __
 72
65
 73
4
 40
25.3999999999999986
 49
12.6999999999999993
 74
0
 49
-6.3499999999999996
 74
0
 49
0.0
 74
0
 49
-6.3499999999999996
 74
0
  0
LTYPE
  5
38
100
AcDbSymbolTableRecord
100
AcDbLinetypeTableRecord
  2
DASHDOT2
 70
0
  3
Dash dot (.5x) _._._._._._._._._._._._._._._.
 72
65
 73
4
 40
12.6999999999999993
 49
6.3499999999999996
 74
0
 49
-3.1749999999999998
 74
0
 49
0.0
 74
0
 49
-3.1749999999999998
 74
0
  0
LTYPE
  5
39
100
AcDbSymbolTableRecord
100
AcDbLinetypeTableRecord
  2
DASHDOTX2
 70
0
  3
Dash dot (2x) ____  .  ____  .  ____  .  ___
 72
65
 73
4
 40
50.7999999999999972
 49
25.3999999999999986
 74
0
 49
-12.6999999999999993
 74
0
 49
0.0
 74
0
 49
-12.6999999999999993
 74
0
  0
LTYPE
  5
3A
100
AcDbSymbolTableRecord
100
AcDbLinetypeTableRecord
  2
DIVIDE
 70
0
  3
Divide ____ . . ____ . . ____ . . ____ . . ____
 72
65
 73
6
 40
31.75
 49
12.6999999999999993
 74
0
 49
-6.3499999999999996
 74
0
 49
0.0
 74
0
 49
-6.3499999999999996
 74
0
 49
0.0
 74
0
 49
-6.3499999999999996
 74
0
  0
LTYPE
  5
3B
100
AcDbSymbolTableRecord
100
AcDbLinetypeTableRecord
  2
DIVIDE2
 70
0
  3
Divide (.5x) __..__..__..__..__..__..__..__.._
 72
65
 73
6
 40
15.875
 49
6.3499999999999996
 74
0
 49
-3.1749999999999998
 74
0
 49
0.0
 74
0
 49
-3.1749999999999998
 74
0
 49
0.0
 74
0
 49
-3.1749999999999998
 74
0
  0
LTYPE
  5
3C
100
AcDbSymbolTableRecord
100
AcDbLinetypeTableRecord
  2
DIVIDEX2
 70
0
  3
Divide (2x) ________  .  .  ________  .  .  _
 72
65
 73
6
 40
63.5
 49
25.3999999999999986
 74
0
 49
-12.6999999999999993
 74
0
 49
0.0
 74
0
 49
-12.6999999999999993
 74
0
 49
0.0
 74
0
 49
-12.6999999999999993
 74
0
  0
LTYPE
  5
3D
100
AcDbSymbolTableRecord
100
AcDbLinetypeTableRecord
  2
CENTER
 70
0
  3
Center ____ _ ____ _ ____ _ ____ _ ____ _ ____
 72
65
 73
4
 40
50.7999999999999972
 49
31.75
 74
0
 49
-6.3499999999999996
 74
0
 49
6.3499999999999996
 74
0
 49
-6.3499999999999996
 74
0
  0
LTYPE
  5
3E
100
AcDbSymbolTableRecord
100
AcDbLinetypeTableRecord
  2
CENTER2
 70
0
  3
Center (.5x) ___ _ ___ _ ___ _ ___ _ ___ _ ___
 72
65
 73
4
 40
28.5749999999999993
 49
19.0500000000000007
 74
0
 49
-3.1749999999999998
 74
0
 49
3.1749999999999998
 74
0
 49
-3.1749999999999998
 74
0
  0
LTYPE
  5
3F
100
AcDbSymbolTableRecord
100
AcDbLinetypeTableRecord
  2
CENTERX2
 70
0
  3
Center (2x) ________  __  ________  __  _____
 72
65
 73
4
 40
101.5999999999999943
 49
63.5
 74
0
 49
-12.6999999999999993
 74
0
 49
12.6999999999999993
 74
0
 49
-12.6999999999999993
 74
0
  0
LTYPE
  5
40
100
AcDbSymbolTableRecord
100
AcDbLinetypeTableRecord
  2
BORDER
 70
0
  3
Border __ __ . __ __ . __ __ . __ __ . __ __ .
 72
65
 73
6
 40
44.4500000000000028
 49
12.6999999999999993
 74
0
 49
-6.3499999999999996
 74
0
 49
12.6999999999999993
 74
0
 49
-6.3499999999999996
 74
0
 49
0.0
 74
0
 49
-6.3499999999999996
 74
0
  0
LTYPE
  5
41
100
AcDbSymbolTableRecord
100
AcDbLinetypeTableRecord
  2
BORDER2
 70
0
  3
Border (.5x) __.__.__.__.__.__.__.__.__.__.__.
 72
65
 73
6
 40
22.2250000000000014
 49
6.3499999999999996
 74
0
 49
-3.1749999999999998
 74
0
 49
6.3499999999999996
 74
0
 49
-3.1749999999999998
 74
0
 49
0.0
 74
0
 49
-3.1749999999999998
 74
0
  0
LTYPE
  5
42
100
AcDbSymbolTableRecord
100
AcDbLinetypeTableRecord
  2
BORDERX2
 70
0
  3
Border (2x) ____  ____  .  ____  ____  .  ___
 72
65
 73
6
 40
88.9000000000000057
 49
25.3999999999999986
 74
0
 49
-12.6999999999999993
 74
0
 49
25.3999999999999986
 74
0
 49
-12.6999999999999993
 74
0
 49
0.0
 74
0
 49
-12.6999999999999993
 74
0
  0
ENDTAB
  0
TABLE
  2
LAYER
  5
2
100
AcDbSymbolTable
 70
1
  0
LAYER
  5
10
100
AcDbSymbolTableRecord
100
AcDbLayerTableRecord
  2
0
 70
0
 62
7
  6
CONTINUOUS
390
F
  0
ENDTAB
  0
TABLE
  2
STYLE
  5
3
100
AcDbSymbolTable
 70
1
  0
STYLE
  5
11
100
AcDbSymbolTableRecord
100
AcDbTextStyleTableRecord
  2
Standard
 70
0
 40
0.0
 41
0.75
 50
0.0
 71
0
 42
2.5
  3
txt
  4

  0
ENDTAB
  0
TABLE
  2
VIEW
  5
6
100
AcDbSymbolTable
 70
0
  0
ENDTAB
  0
TABLE
  2
UCS
  5
7
100
AcDbSymbolTable
 70
0
  0
ENDTAB
  0
TABLE
  2
APPID
  5
9
100
AcDbSymbolTable
 70
1
  0
APPID
  5
12
100
AcDbSymbolTableRecord
100
AcDbRegAppTableRecord
  2
ACAD
 70
0
  0
ENDTAB
  0
TABLE
  2
DIMSTYLE
  5
A
100
AcDbSymbolTable
 70
1
100
AcDbDimStyleTable
 71
0
  0
DIMSTYLE
105
27
100
AcDbSymbolTableRecord
100
AcDbDimStyleTableRecord
  2
Standard
 41
2.5
 42
0.625
 43
3.75
 44
1.25
 70
0
 73
0
 74
0
 77
1
 78
8
140
2.5
141
2.5
143
0.03937007874016
147
0.625
171
3
172
1
271
2
272
2
274
3
278
44
283
0
284
8
340
11
  0
ENDTAB
  0
TABLE
  2
BLOCK_RECORD
  5
1
100
AcDbSymbolTable
 70
1
  0
BLOCK_RECORD
  5
1F
100
AcDbSymbolTableRecord
100
AcDbBlockTableRecord
  2
*Model_Space
340
22
  0
BLOCK_RECORD
  5
1B
100
AcDbSymbolTableRecord
100
AcDbBlockTableRecord
  2
*Paper_Space
340
1E
  0
BLOCK_RECORD
  5
23
100
AcDbSymbolTableRecord
100
AcDbBlockTableRecord
  2
*Paper_Space0
340
26
  0
BLOCK_RECORD
  5
43
100
AcDbSymbolTableRecord
100
AcDbBlockTableRecord
  2
logo
340
0
  0
ENDTAB
  0
ENDSEC
  0
SECTION
  2
BLOCKS
  0
BLOCK
  5
20
100
AcDbEntity
  8
0
100
AcDbBlockBegin
  2
*Model_Space
 70
0
 10
0.0
 20
0.0
 30
0.0
  3
*Model_Space
  1

  0
ENDBLK
  5
21
100
AcDbEntity
  8
0
100
AcDbBlockEnd
  0
BLOCK
  5
1C
100
AcDbEntity
 67
1
  8
0
100
AcDbBlockBegin
  2
*Paper_Space
 70
0
 10
0.0
 20
0.0
 30
0.0
  3
*Paper_Space
  1

  0
ENDBLK
  5
1D
100
AcDbEntity
 67
1
  8
0
100
AcDbBlockEnd
  0
BLOCK
  5
24
100
AcDbEntity
  8
0
100
AcDbBlockBegin
  2
*Paper_Space0
 70
0
 10
0.0
 20
0.0
 30
0.0
  3
*Paper_Space0
  1

  0
ENDBLK
  5
25
100
AcDbEntity
  8
0
100
AcDbBlockEnd
  0
BLOCK
  5
44
100
AcDbEntity
  8
0
100
AcDbBlockBegin
  2
logo
 70
0
 10
0.0
 20
0.0
 30
0.0
  3
logo
  1

  0
SPLINE
  5
45
  8
0
 62
7
370
-1
  6
ByLayer
100
AcDbEntity
100
AcDbSpline
 70
8
 71
3
 72
8
 73
4
 74
0
 40
0.0
 40
0.0
 40
0.0
 40
0.0
 40
1.0
 40
1.0
 40
1.0
 40
1.0
 10
119.9994059814594323
 20
27.7075042490387773
 30
0.0
 10
118.3060719814594108
 20
28.2719482490387577
 30
0.0
 10
117.4594059814594118
 20
28.8363932490387356
 30
0.0
 10
116.6127389814593869
 20
30.2475042490387978
 30
0.0
  0
SPLINE
  5
46
  8
0
 62
7
370
-1
  6
ByLayer
100
AcDbEntity
100
AcDbSpline
 70
8
 71
3
 72
8
 73
4
 74
0
 40
0.0
 40
0.0
 40
0.0
 40
0.0
 40
1.0
 40
1.0
 40
1.0
 40
1.0
 10
116.6127389814594153
 20
53.7001702490387629
 30
0.0
 10
117.4594059814594118
 20
55.1112812490387682
 30
0.0
 10
117.741627981459402
 20
55.3935042490387559
 30
0.0
 10
118.8705169814593887
 20
55.6757262490387461
 30
0.0
  0
LWPOLYLINE
  5
47
  8
0
 62
7
370
-1
  6
ByLayer
100
AcDbEntity
100
AcDbPolyline
 90
5
 70
0
 10
116.6127389814593869
 20
30.2475042490387978
 10
116.3305169814594251
 20
31.3763932490386992
 10
116.3305169814593967
 20
42.1008372490387046
 10
116.3305169814594251
 20
52.2890592490387576
 10
116.6127389814594153
 20
53.7001702490387629
  0
SPLINE
  5
48
  8
0
 62
7
370
-1
  6
ByLayer
100
AcDbEntity
100
AcDbSpline
 70
8
 71
3
 72
8
 73
4
 74
0
 40
0.0
 40
0.0
 40
0.0
 40
0.0
 40
1.0
 40
1.0
 40
1.0
 40
1.0
 10
151.0720719814594304
 20
55.6757262490387461
 30
0.0
 10
152.2009609814593887
 20
55.3935042490388128
 30
0.0
 10
152.4831829814593789
 20
54.8290592490388349
 30
0.0
 10
152.7654059814593666
 20
53.9823932490387506
 30
0.0
  0
SPLINE
  5
49
  8
0
 62
7
370
-1
  6
ByLayer
100
AcDbEntity
100
AcDbSpline
 70
8
 71
3
 72
8
 73
4
 74
0
 40
0.0
 40
0.0
 40
0.0
 40
0.0
 40
1.0
 40
1.0
 40
1.0
 40
1.0
 10
152.7654059814593666
 20
53.9823932490387506
 30
0.0
 10
153.3298499814594038
 20
53.1357262490387825
 30
0.0
 10
153.6120719814594509
 20
52.8535042490387355
 30
0.0
 10
153.612071981459394
 20
46.0519482490387304
 30
0.0
  0
LWPOLYLINE
  5
4A
  8
0
 62
7
370
-1
  6
ByLayer
100
AcDbEntity
100
AcDbPolyline
 90
5
 70
0
 10
118.8705169814593887
 20
55.6757262490387461
 10
119.9994059814594323
 20
56.2401702490387834
 10
135.0136279814593934
 20
56.2401702490387834
 10
149.9431829814594153
 20
56.2401702490387834
 10
151.0720719814594304
 20
55.6757262490387461
  0
SPLINE
  5
4B
  8
0
 62
7
370
-1
  6
ByLayer
100
AcDbEntity
100
AcDbSpline
 70
8
 71
3
 72
8
 73
4
 74
0
 40
0.0
 40
0.0
 40
0.0
 40
0.0
 40
1.0
 40
1.0
 40
1.0
 40
1.0
 10
137.2996279814593947
 20
27.4252812490387328
 30
0.0
 10
128.2402949814594137
 20
27.4252812490387328
 30
0.0
 10
120.5638499814594411
 20
27.7075042490387773
 30
0.0
 10
119.9994059814594323
 20
27.7075042490387773
 30
0.0
  0
LWPOLYLINE
  5
4C
  8
0
 62
7
370
-1
  6
ByLayer
100
AcDbEntity
100
AcDbPolyline
 90
11
 70
0
 10
153.612071981459394
 20
46.0519482490387304
 10
153.612071981459394
 20
39.2786152490386939
 10
138.4285169814594383
 20
39.2786152490387508
 10
123.2731829814593993
 20
39.2786152490387508
 10
123.2731829814594278
 20
36.1741702490387524
 10
123.2731829814594278
 20
33.0697262490387516
 10
138.4285169814594383
 20
33.0697262490387516
 10
153.612071981459394
 20
33.0697262490387516
 10
153.612071981459394
 20
30.2475042490387978
 10
153.612071981459394
 20
27.4252812490387328
 10
137.2996279814593947
 20
27.4252812490387328
  0
LWPOLYLINE
  5
4D
  8
0
 62
7
370
-1
  6
ByLayer
100
AcDbEntity
100
AcDbPolyline
 90
2
 70
0
 10
119.9994059814594323
 20
27.7075042490387773
 10
119.9994059814594323
 20
27.7075042490387773
  0
SPLINE
  5
4E
  8
0
 62
7
370
-1
  6
ByLayer
100
AcDbEntity
100
AcDbSpline
 70
8
 71
3
 72
8
 73
4
 74
0
 40
0.0
 40
0.0
 40
0.0
 40
0.0
 40
1.0
 40
1.0
 40
1.0
 40
1.0
 10
123.0474059814593772
 20
48.3097262490387038
 30
0.0
 10
123.0474059814594057
 20
46.6163932490387651
 30
0.0
 10
123.0474059814594057
 20
45.48750424903875
 30
0.0
 10
123.0474059814594341
 20
45.2052812490387623
 30
0.0
  0
SPLINE
  5
4F
  8
0
 62
7
370
-1
  6
ByLayer
100
AcDbEntity
100
AcDbSpline
 70
8
 71
3
 72
8
 73
4
 74
0
 40
0.0
 40
0.0
 40
0.0
 40
0.0
 40
1.0
 40
1.0
 40
1.0
 40
1.0
 10
123.0474059814594341
 20
45.2052812490387623
 30
0.0
 10
123.2731829814594278
 20
44.9230592490387721
 30
0.0
 10
125.5309609814594296
 20
44.923059249038829
 30
0.0
 10
134.7878499814594306
 20
44.9230592490387721
 30
0.0
  0
LWPOLYLINE
  5
50
  8
0
 62
7
370
-1
  6
ByLayer
100
AcDbEntity
100
AcDbPolyline
 90
5
 70
0
 10
146.5565169814593673
 20
48.0275042490387705
 10
146.5565169814594242
 20
51.1601702490387993
 10
134.7878499814594306
 20
51.1601702490387424
 10
123.2731829814593993
 20
51.1601702490387424
 10
123.0474059814593772
 20
48.3097262490387038
  0
LWPOLYLINE
  5
51
  8
0
 62
7
370
-1
  6
ByLayer
100
AcDbEntity
100
AcDbPolyline
 90
4
 70
0
 10
134.7878499814594306
 20
44.9230592490387721
 10
146.5565169814593673
 20
44.923059249038829
 10
146.5565169814593673
 20
48.0275042490387705
 10
146.5565169814593673
 20
48.0275042490387705
  0
SPLINE
  5
52
  8
0
 62
7
370
-1
  6
ByLayer
100
AcDbEntity
100
AcDbSpline
 70
8
 71
3
 72
8
 73
4
 74
0
 40
0.0
 40
0.0
 40
0.0
 40
0.0
 40
1.0
 40
1.0
 40
1.0
 40
1.0
 10
183.5276279814594318
 20
52.2890592490387576
 30
0.0
 10
188.043182981459438
 20
46.616393249038822
 30
0.0
 10
191.9942949814594044
 20
41.5363932490387811
 30
0.0
 10
191.9942949814594044
 20
41.8186152490387713
 30
0.0
  0
SPLINE
  5
53
  8
0
 62
7
370
-1
  6
ByLayer
100
AcDbEntity
100
AcDbSpline
 70
8
 71
3
 72
8
 73
4
 74
0
 40
0.0
 40
0.0
 40
0.0
 40
0.0
 40
1.0
 40
1.0
 40
1.0
 40
1.0
 10
191.9942949814594044
 20
41.8186152490387713
 30
0.0
 10
191.9942949814594044
 20
41.8186152490387713
 30
0.0
 10
195.6631829814593857
 20
46.6163932490387651
 30
0.0
 10
200.1787389814593894
 20
52.2890592490387576
 30
0.0
  0
LWPOLYLINE
  5
54
  8
0
 62
7
370
-1
  6
ByLayer
100
AcDbEntity
100
AcDbPolyline
 90
5
 70
0
 10
168.2876279814594227
 20
45.2052812490388192
 10
168.2876279814594227
 20
63.0135042490387605
 10
171.9565169814594583
 20
63.0135042490387036
 10
175.3431829814593925
 20
63.0135042490387605
 10
183.5276279814594318
 20
52.2890592490387576
  0
SPLINE
  5
55
  8
0
 62
7
370
-1
  6
ByLayer
100
AcDbEntity
100
AcDbSpline
 70
8
 71
3
 72
8
 73
4
 74
0
 40
0.0
 40
0.0
 40
0.0
 40
0.0
 40
1.0
 40
1.0
 40
1.0
 40
1.0
 10
206.6698499814594356
 20
51.4423932490387301
 30
0.0
 10
206.1054059814593984
 20
50.5675042490387341
 30
0.0
 10
202.7187389814594098
 20
45.7697262490387402
 30
0.0
 10
199.0498499814594311
 20
40.9719482490388032
 30
0.0
  0
SPLINE
  5
56
  8
0
 62
7
370
-1
  6
ByLayer
100
AcDbEntity
100
AcDbSpline
 70
8
 71
3
 72
8
 73
4
 74
0
 40
0.0
 40
0.0
 40
0.0
 40
0.0
 40
1.0
 40
1.0
 40
1.0
 40
1.0
 10
199.0498499814594311
 20
40.9719482490388032
 30
0.0
 10
192.2765169814593946
 20
31.6586152490387462
 30
0.0
 10
192.2765169814593946
 20
31.6586152490387462
 30
0.0
 10
191.1476279814594363
 20
31.6586152490387462
 30
0.0
  0
SPLINE
  5
57
  8
0
 62
7
370
-1
  6
ByLayer
100
AcDbEntity
100
AcDbSpline
 70
8
 71
3
 72
8
 73
4
 74
0
 40
0.0
 40
0.0
 40
0.0
 40
0.0
 40
1.0
 40
1.0
 40
1.0
 40
1.0
 10
191.1476279814594363
 20
31.6586152490387462
 30
0.0
 10
190.5831829814594585
 20
31.6586152490386894
 30
0.0
 10
190.3009609814594114
 20
31.6586152490386894
 30
0.0
 10
183.8098499814593652
 20
40.6897262490386993
 30
0.0
  0
SPLINE
  5
58
  8
0
 62
7
370
-1
  6
ByLayer
100
AcDbEntity
100
AcDbSpline
 70
8
 71
3
 72
8
 73
4
 74
0
 40
0.0
 40
0.0
 40
0.0
 40
0.0
 40
1.0
 40
1.0
 40
1.0
 40
1.0
 10
183.8098499814593652
 20
40.6897262490386993
 30
0.0
 10
179.8587389814593962
 20
45.48750424903875
 30
0.0
 10
176.4720719814594077
 20
50.2852812490387464
 30
0.0
 10
176.1898499814594174
 20
51.1601702490387424
 30
0.0
  0
SPLINE
  5
59
  8
0
 62
7
370
-1
  6
ByLayer
100
AcDbEntity
100
AcDbSpline
 70
8
 71
3
 72
8
 73
4
 74
0
 40
0.0
 40
0.0
 40
0.0
 40
0.0
 40
1.0
 40
1.0
 40
1.0
 40
1.0
 10
176.1898499814594174
 20
51.1601702490387424
 30
0.0
 10
175.625405981459437
 20
52.0068372490387674
 30
0.0
 10
175.3431829814594494
 20
52.2890592490387576
 30
0.0
 10
175.3431829814593925
 20
52.5712812490387478
 30
0.0
  0
SPLINE
  5
5A
  8
0
 62
7
370
-1
  6
ByLayer
100
AcDbEntity
100
AcDbSpline
 70
8
 71
3
 72
8
 73
4
 74
0
 40
0.0
 40
0.0
 40
0.0
 40
0.0
 40
1.0
 40
1.0
 40
1.0
 40
1.0
 10
175.3431829814593925
 20
52.5712812490387478
 30
0.0
 10
175.3431829814593925
 20
52.5712812490387478
 30
0.0
 10
175.3431829814594494
 20
46.8986152490387553
 30
0.0
 10
175.3431829814594494
 20
39.8430592490387312
 30
0.0
  0
LWPOLYLINE
  5
5B
  8
0
 62
7
370
-1
  6
ByLayer
100
AcDbEntity
100
AcDbPolyline
 90
11
 70
0
 10
200.1787389814593894
 20
52.2890592490387576
 10
208.080960981459441
 20
63.0135042490388173
 10
211.4676279814594295
 20
63.0135042490387605
 10
214.8542949814594181
 20
63.0135042490387036
 10
214.8542949814594181
 20
45.2052812490387623
 10
214.8542949814594749
 20
27.4252812490387328
 10
211.1854059814593825
 20
27.4252812490387328
 10
207.2342949814594135
 20
27.4252812490387328
 10
207.2342949814594135
 20
40.1252812490387214
 10
207.5165169814594037
 20
52.8535042490387355
 10
206.6698499814594356
 20
51.4423932490387301
  0
SPLINE
  5
5C
  8
0
 62
7
370
-1
  6
ByLayer
100
AcDbEntity
100
AcDbSpline
 70
8
 71
3
 72
8
 73
4
 74
0
 40
0.0
 40
0.0
 40
0.0
 40
0.0
 40
1.0
 40
1.0
 40
1.0
 40
1.0
 10
225.5787389814594235
 20
27.4252812490387328
 30
0.0
 10
225.5787389814594235
 20
27.7075042490387204
 30
0.0
 10
230.0942949814594272
 20
35.609726249038772
 30
0.0
 10
235.4565169814594014
 20
45.4875042490386932
 30
0.0
  0
LWPOLYLINE
  5
5D
  8
0
 62
7
370
-1
  6
ByLayer
100
AcDbEntity
100
AcDbPolyline
 90
6
 70
0
 10
175.3431829814594494
 20
39.8430592490387312
 10
175.3431829814594494
 20
27.4252812490387328
 10
171.9565169814594583
 20
27.4252812490387328
 10
168.2876279814594227
 20
27.4252812490387896
 10
168.2876279814594227
 20
45.2052812490388192
 10
168.2876279814594227
 20
45.2052812490388192
  0
SPLINE
  5
5E
  8
0
 62
7
370
-1
  6
ByLayer
100
AcDbEntity
100
AcDbSpline
 70
8
 71
3
 72
8
 73
4
 74
0
 40
0.0
 40
0.0
 40
0.0
 40
0.0
 40
1.0
 40
1.0
 40
1.0
 40
1.0
 10
256.6231829814594221
 20
57.0868372490387515
 30
0.0
 10
258.8809609814594523
 20
53.7001702490387629
 30
0.0
 10
263.3965169814593992
 20
45.7697262490386834
 30
0.0
 10
267.9120719814594622
 20
39.560837249038741
 30
0.0
  0
SPLINE
  5
5F
  8
0
 62
7
370
-1
  6
ByLayer
100
AcDbEntity
100
AcDbSpline
 70
8
 71
3
 72
8
 73
4
 74
0
 40
0.0
 40
0.0
 40
0.0
 40
0.0
 40
1.0
 40
1.0
 40
1.0
 40
1.0
 10
267.9120719814594622
 20
39.560837249038741
 30
0.0
 10
270.1698499814594925
 20
33.0697262490387516
 30
0.0
 10
274.6854059814594393
 20
27.4252812490387328
 30
0.0
 10
274.6854059814594393
 20
27.4252812490387328
 30
0.0
  0
SPLINE
  5
60
  8
0
 62
7
370
-1
  6
ByLayer
100
AcDbEntity
100
AcDbSpline
 70
8
 71
3
 72
8
 73
4
 74
0
 40
0.0
 40
0.0
 40
0.0
 40
0.0
 40
1.0
 40
1.0
 40
1.0
 40
1.0
 10
274.6854059814594393
 20
27.4252812490387328
 30
0.0
 10
274.6854059814594393
 20
27.4252812490387328
 30
0.0
 10
272.4276279814594091
 20
27.4252812490386759
 30
0.0
 10
270.1698499814594925
 20
27.4252812490387896
 30
0.0
  0
LWPOLYLINE
  5
61
  8
0
 62
7
370
-1
  6
ByLayer
100
AcDbEntity
100
AcDbPolyline
 90
5
 70
0
 10
235.4565169814594014
 20
45.4875042490386932
 10
245.3342949814593794
 20
63.0135042490387605
 10
249.8498499814593856
 20
63.0135042490387605
 10
254.3654059814593609
 20
63.0135042490387036
 10
256.6231829814594221
 20
57.0868372490387515
  0
SPLINE
  5
62
  8
0
 62
7
370
-1
  6
ByLayer
100
AcDbEntity
100
AcDbSpline
 70
8
 71
3
 72
8
 73
4
 74
0
 40
0.0
 40
0.0
 40
0.0
 40
0.0
 40
1.0
 40
1.0
 40
1.0
 40
1.0
 10
229.5298499814593924
 20
27.4252812490387896
 30
0.0
 10
227.2720719814593622
 20
27.4252812490386759
 30
0.0
 10
225.5787389814594235
 20
27.4252812490387328
 30
0.0
 10
225.5787389814594235
 20
27.4252812490387328
 30
0.0
  0
LWPOLYLINE
  5
63
  8
0
 62
7
370
-1
  6
ByLayer
100
AcDbEntity
100
AcDbPolyline
 90
9
 70
0
 10
270.1698499814594925
 20
27.4252812490387896
 10
263.3965169814593992
 20
27.4252812490387328
 10
263.3965169814593992
 20
31.376393249038756
 10
261.1387389814594826
 20
35.3275042490387818
 10
249.8498499814594425
 20
35.3275042490388387
 10
238.5609609814594023
 20
35.3275042490387818
 10
235.7387389814593917
 20
31.376393249038756
 10
233.7631829814594084
 20
27.4252812490387328
 10
229.5298499814593924
 20
27.4252812490387896
  0
LWPOLYLINE
  5
64
  8
0
 62
7
370
-1
  6
ByLayer
100
AcDbEntity
100
AcDbPolyline
 90
2
 70
0
 10
225.5787389814594235
 20
27.4252812490387328
 10
225.5787389814594235
 20
27.4252812490387328
  0
SPLINE
  5
65
  8
0
 62
7
370
-1
  6
ByLayer
100
AcDbEntity
100
AcDbSpline
 70
8
 71
3
 72
8
 73
4
 74
0
 40
0.0
 40
0.0
 40
0.0
 40
0.0
 40
1.0
 40
1.0
 40
1.0
 40
1.0
 10
249.8498499814594425
 20
55.9579482490387363
 30
0.0
 10
249.8498499814593856
 20
55.6757262490386893
 30
0.0
 10
240.8187389814593757
 20
41.8186152490387144
 30
0.0
 10
240.8187389814594326
 20
41.5363932490387811
 30
0.0
  0
SPLINE
  5
66
  8
0
 62
7
370
-1
  6
ByLayer
100
AcDbEntity
100
AcDbSpline
 70
8
 71
3
 72
8
 73
4
 74
0
 40
0.0
 40
0.0
 40
0.0
 40
0.0
 40
1.0
 40
1.0
 40
1.0
 40
1.0
 10
240.8187389814594326
 20
41.5363932490387811
 30
0.0
 10
240.8187389814594326
 20
41.5363932490387811
 30
0.0
 10
245.3342949814593794
 20
41.5363932490387811
 30
0.0
 10
249.8498499814593856
 20
41.5363932490387242
 30
0.0
  0
SPLINE
  5
67
  8
0
 62
7
370
-1
  6
ByLayer
100
AcDbEntity
100
AcDbSpline
 70
8
 71
3
 72
8
 73
4
 74
0
 40
0.0
 40
0.0
 40
0.0
 40
0.0
 40
1.0
 40
1.0
 40
1.0
 40
1.0
 10
249.8498499814593856
 20
41.5363932490387242
 30
0.0
 10
254.3654059814593609
 20
41.5363932490387242
 30
0.0
 10
256.6231829814594221
 20
41.5363932490388379
 30
0.0
 10
256.6231829814594221
 20
41.8186152490387713
 30
0.0
  0
LWPOLYLINE
  5
68
  8
0
 62
7
370
-1
  6
ByLayer
100
AcDbEntity
100
AcDbPolyline
 90
2
 70
0
 10
256.6231829814594221
 20
41.8186152490387713
 10
249.8498499814594425
 20
55.9579482490387363
  0
LWPOLYLINE
  5
69
  8
0
 62
7
370
-1
  6
ByLayer
100
AcDbEntity
100
AcDbPolyline
 90
2
 70
0
 10
256.6231829814594221
 20
41.8186152490387713
 10
256.6231829814594221
 20
41.8186152490387713
  0
SPLINE
  5
6A
  8
0
 62
7
370
-1
  6
ByLayer
100
AcDbEntity
100
AcDbSpline
 70
8
 71
3
 72
8
 73
4
 74
0
 40
0.0
 40
0.0
 40
0.0
 40
0.0
 40
1.0
 40
1.0
 40
1.0
 40
1.0
 10
313.3498499814594425
 20
54.5468372490386741
 30
0.0
 10
306.5765169814594628
 20
50.0030592490386994
 30
0.0
 10
302.0609609814594023
 20
46.3341702490387775
 30
0.0
 10
302.0609609814594023
 20
46.3341702490387775
 30
0.0
  0
SPLINE
  5
6B
  8
0
 62
7
370
-1
  6
ByLayer
100
AcDbEntity
100
AcDbSpline
 70
8
 71
3
 72
8
 73
4
 74
0
 40
0.0
 40
0.0
 40
0.0
 40
0.0
 40
1.0
 40
1.0
 40
1.0
 40
1.0
 10
302.0609609814594023
 20
46.3341702490387775
 30
0.0
 10
302.0609609814594023
 20
46.0519482490386736
 30
0.0
 10
313.3498499814594425
 20
38.1497262490387357
 30
0.0
 10
322.3809609814594523
 20
31.0941702490387684
 30
0.0
  0
SPLINE
  5
6C
  8
0
 62
7
370
-1
  6
ByLayer
100
AcDbEntity
100
AcDbSpline
 70
8
 71
3
 72
8
 73
4
 74
0
 40
0.0
 40
0.0
 40
0.0
 40
0.0
 40
1.0
 40
1.0
 40
1.0
 40
1.0
 10
322.3809609814594523
 20
31.0941702490387684
 30
0.0
 10
326.8965169814593992
 20
29.4008372490387728
 30
0.0
 10
326.8965169814593992
 20
27.7075042490387773
 30
0.0
 10
326.8965169814593992
 20
27.4252812490387896
 30
0.0
  0
SPLINE
  5
6D
  8
0
 62
7
370
-1
  6
ByLayer
100
AcDbEntity
100
AcDbSpline
 70
8
 71
3
 72
8
 73
4
 74
0
 40
0.0
 40
0.0
 40
0.0
 40
0.0
 40
1.0
 40
1.0
 40
1.0
 40
1.0
 10
326.8965169814593992
 20
27.4252812490387896
 30
0.0
 10
326.8965169814593992
 20
27.4252812490387896
 30
0.0
 10
324.6387389814594826
 20
27.4252812490387896
 30
0.0
 10
322.3809609814594523
 20
27.4252812490387328
 30
0.0
  0
LWPOLYLINE
  5
6E
  8
0
 62
7
370
-1
  6
ByLayer
100
AcDbEntity
100
AcDbPolyline
 90
11
 70
0
 10
286.2565169814594128
 20
45.2052812490387623
 10
286.2565169814594128
 20
63.0135042490387605
 10
288.5142949814594431
 20
63.0135042490387605
 10
293.0298499814593924
 20
63.0135042490387605
 10
293.0298499814593924
 20
55.6757262490387461
 10
293.0298499814593924
 20
48.3097262490387038
 10
304.3187389814594326
 20
55.6757262490386893
 10
313.3498499814594425
 20
63.0135042490388173
 10
320.1231829814594221
 20
63.0135042490387605
 10
324.6387389814594826
 20
62.7312812490387159
 10
313.3498499814594425
 20
54.5468372490386741
  0
SPLINE
  5
6F
  8
0
 62
7
370
-1
  6
ByLayer
100
AcDbEntity
100
AcDbSpline
 70
8
 71
3
 72
8
 73
4
 74
0
 40
0.0
 40
0.0
 40
0.0
 40
0.0
 40
1.0
 40
1.0
 40
1.0
 40
1.0
 10
306.5765169814594628
 20
33.0697262490387516
 30
0.0
 10
304.3187389814594326
 20
35.8919482490387622
 30
0.0
 10
297.545405981459453
 20
39.560837249038741
 30
0.0
 10
297.545405981459453
 20
40.6897262490387561
 30
0.0
  0
LWPOLYLINE
  5
70
  8
0
 62
7
370
-1
  6
ByLayer
100
AcDbEntity
100
AcDbPolyline
 90
3
 70
0
 10
322.3809609814594523
 20
27.4252812490387328
 10
315.6076279814594727
 20
27.4252812490387896
 10
306.5765169814594628
 20
33.0697262490387516
  0
LWPOLYLINE
  5
71
  8
0
 62
7
370
-1
  6
ByLayer
100
AcDbEntity
100
AcDbPolyline
 90
8
 70
0
 10
297.545405981459453
 20
40.6897262490387561
 10
293.0298499814595061
 20
42.9475042490387295
 10
293.0298499814593924
 20
35.327504249038725
 10
293.0298499814593924
 20
27.4252812490387328
 10
288.5142949814594431
 20
27.4252812490387328
 10
286.2565169814594128
 20
27.4252812490387328
 10
286.2565169814594128
 20
45.2052812490387623
 10
286.2565169814594128
 20
45.2052812490387623
  0
LWPOLYLINE
  5
72
  8
0
 62
7
370
-1
  6
ByLayer
100
AcDbEntity
100
AcDbPolyline
 90
26
 70
0
 10
340.4431829814594721
 20
45.2052812490387623
 10
340.4431829814594721
 20
63.0135042490387605
 10
358.5054059814593757
 20
63.0135042490387036
 10
376.5676279814593954
 20
63.0135042490388173
 10
376.5676279814593954
 20
59.9090592490387621
 10
376.5676279814593954
 20
56.8046152490387612
 10
363.0209609814594387
 20
56.8046152490387612
 10
347.2165169814594492
 20
56.8046152490388181
 10
347.2165169814594492
 20
52.8535042490387355
 10
347.2165169814594492
 20
48.8741702490387411
 10
356.2476279814593454
 20
48.8741702490387979
 10
365.278738981459469
 20
48.8741702490387979
 10
365.2787389814593553
 20
45.7697262490387971
 10
365.278738981459469
 20
42.9475042490387295
 10
356.2476279814594591
 20
42.9475042490387864
 10
347.2165169814594492
 20
42.9475042490387864
 10
347.2165169814594492
 20
38.4319482490387827
 10
347.2165169814594492
 20
34.1986152490387667
 10
363.0209609814594387
 20
34.1986152490388235
 10
376.5676279814593954
 20
34.1986152490387667
 10
376.5676279814593954
 20
30.811948249038835
 10
376.5676279814593954
 20
27.4252812490387896
 10
358.5054059814594893
 20
27.4252812490387328
 10
340.4431829814594721
 20
27.4252812490387896
 10
340.4431829814594721
 20
45.2052812490387623
 10
340.4431829814594721
 20
45.2052812490387623
  0
SPLINE
  5
73
  8
0
 62
7
370
-1
  6
ByLayer
100
AcDbEntity
100
AcDbSpline
 70
8
 71
3
 72
8
 73
4
 74
0
 40
0.0
 40
0.0
 40
0.0
 40
0.0
 40
1.0
 40
1.0
 40
1.0
 40
1.0
 10
407.612071981459394
 20
63.0135042490387605
 30
0.0
 10
427.3676279814593499
 20
62.7312812490387728
 30
0.0
 10
427.3676279814593499
 20
63.0135042490387036
 30
0.0
 10
430.1898499814593606
 20
61.0379482490387204
 30
0.0
  0
SPLINE
  5
74
  8
0
 62
7
370
-1
  6
ByLayer
100
AcDbEntity
100
AcDbSpline
 70
8
 71
3
 72
8
 73
4
 74
0
 40
0.0
 40
0.0
 40
0.0
 40
0.0
 40
1.0
 40
1.0
 40
1.0
 40
1.0
 10
430.1898499814593606
 20
61.0379482490387204
 30
0.0
 10
430.1898499814593606
 20
59.6268372490387151
 30
0.0
 10
430.1898499814593606
 20
58.7801702490386901
 30
0.0
 10
430.1898499814593606
 20
51.1601702490386856
 30
0.0
  0
SPLINE
  5
75
  8
0
 62
7
370
-1
  6
ByLayer
100
AcDbEntity
100
AcDbSpline
 70
8
 71
3
 72
8
 73
4
 74
0
 40
0.0
 40
0.0
 40
0.0
 40
0.0
 40
1.0
 40
1.0
 40
1.0
 40
1.0
 10
430.1898499814593606
 20
51.1601702490386856
 30
0.0
 10
430.1898499814593606
 20
44.3586152490386212
 30
0.0
 10
430.1898499814593606
 20
44.3586152490386212
 30
0.0
 10
430.1898499814593606
 20
42.9475042490386727
 30
0.0
  0
SPLINE
  5
76
  8
0
 62
7
370
-1
  6
ByLayer
100
AcDbEntity
100
AcDbSpline
 70
8
 71
3
 72
8
 73
4
 74
0
 40
0.0
 40
0.0
 40
0.0
 40
0.0
 40
1.0
 40
1.0
 40
1.0
 40
1.0
 10
430.1898499814593606
 20
42.9475042490386727
 30
0.0
 10
427.3676279814593499
 20
41.2541702490387365
 30
0.0
 10
427.3676279814593499
 20
40.9719482490388032
 30
0.0
 10
421.7231829814594448
 20
40.9719482490388032
 30
0.0
  0
LWPOLYLINE
  5
77
  8
0
 62
7
370
-1
  6
ByLayer
100
AcDbEntity
100
AcDbPolyline
 90
3
 70
0
 10
392.3720719814593849
 20
45.4875042490388637
 10
392.3720719814593849
 20
63.0135042490387036
 10
407.612071981459394
 20
63.0135042490387605
  0
SPLINE
  5
78
  8
0
 62
7
370
-1
  6
ByLayer
100
AcDbEntity
100
AcDbSpline
 70
8
 71
3
 72
8
 73
4
 74
0
 40
0.0
 40
0.0
 40
0.0
 40
0.0
 40
1.0
 40
1.0
 40
1.0
 40
1.0
 10
427.3676279814593499
 20
34.4808372490387569
 30
0.0
 10
430.1898499814593606
 20
31.0941702490387684
 30
0.0
 10
435.8342949814594931
 20
28.2719482490387009
 30
0.0
 10
435.8342949814594931
 20
27.9897262490388243
 30
0.0
  0
SPLINE
  5
79
  8
0
 62
7
370
-1
  6
ByLayer
100
AcDbEntity
100
AcDbSpline
 70
8
 71
3
 72
8
 73
4
 74
0
 40
0.0
 40
0.0
 40
0.0
 40
0.0
 40
1.0
 40
1.0
 40
1.0
 40
1.0
 10
435.8342949814594931
 20
27.9897262490388243
 30
0.0
 10
435.8342949814594931
 20
27.4252812490387896
 30
0.0
 10
435.8342949814594931
 20
27.4252812490387896
 30
0.0
 10
430.1898499814593606
 20
27.4252812490386759
 30
0.0
  0
LWPOLYLINE
  5
7A
  8
0
 62
7
370
-1
  6
ByLayer
100
AcDbEntity
100
AcDbPolyline
 90
3
 70
0
 10
421.7231829814594448
 20
40.9719482490388032
 10
416.0787389814594235
 20
40.6897262490386993
 10
427.3676279814593499
 20
34.4808372490387569
  0
SPLINE
  5
7B
  8
0
 62
7
370
-1
  6
ByLayer
100
AcDbEntity
100
AcDbSpline
 70
8
 71
3
 72
8
 73
4
 74
0
 40
0.0
 40
0.0
 40
0.0
 40
0.0
 40
1.0
 40
1.0
 40
1.0
 40
1.0
 10
421.7231829814594448
 20
47.7452812490387828
 30
0.0
 10
421.7231829814594448
 20
48.3097262490387038
 30
0.0
 10
421.7231829814594448
 20
48.3097262490387038
 30
0.0
 10
421.7231829814594448
 20
51.442393249038787
 30
0.0
  0
SPLINE
  5
7C
  8
0
 62
7
370
-1
  6
ByLayer
100
AcDbEntity
100
AcDbSpline
 70
8
 71
3
 72
8
 73
4
 74
0
 40
0.0
 40
0.0
 40
0.0
 40
0.0
 40
1.0
 40
1.0
 40
1.0
 40
1.0
 10
421.7231829814594448
 20
51.442393249038787
 30
0.0
 10
421.7231829814594448
 20
55.1112812490388251
 30
0.0
 10
421.7231829814594448
 20
55.6757262490387461
 30
0.0
 10
421.7231829814594448
 20
56.5223932490388279
 30
0.0
  0
SPLINE
  5
7D
  8
0
 62
7
370
-1
  6
ByLayer
100
AcDbEntity
100
AcDbSpline
 70
8
 71
3
 72
8
 73
4
 74
0
 40
0.0
 40
0.0
 40
0.0
 40
0.0
 40
1.0
 40
1.0
 40
1.0
 40
1.0
 10
421.7231829814594448
 20
56.5223932490388279
 30
0.0
 10
418.9009609814594342
 20
56.8046152490387612
 30
0.0
 10
418.9009609814594342
 20
56.8046152490387612
 30
0.0
 10
410.4342949814594022
 20
56.8046152490388181
 30
0.0
  0
LWPOLYLINE
  5
7E
  8
0
 62
7
370
-1
  6
ByLayer
100
AcDbEntity
100
AcDbPolyline
 90
12
 70
0
 10
430.1898499814593606
 20
27.4252812490386759
 10
421.7231829814594448
 20
27.4252812490387328
 10
416.0787389814594235
 20
34.1986152490387667
 10
407.612071981459394
 20
40.9719482490388032
 10
404.789849981459497
 20
40.9719482490387463
 10
399.1454059814594757
 20
40.6897262490387561
 10
399.1454059814594757
 20
34.1986152490388235
 10
399.1454059814594757
 20
27.4252812490387896
 10
396.3231829814594676
 20
27.4252812490387896
 10
392.3720719814593849
 20
27.4252812490387328
 10
392.3720719814593849
 20
45.4875042490388637
 10
392.3720719814593849
 20
45.4875042490388637
  0
LWPOLYLINE
  5
7F
  8
0
 62
7
370
-1
  6
ByLayer
100
AcDbEntity
100
AcDbPolyline
 90
8
 70
0
 10
410.4342949814594022
 20
56.8046152490388181
 10
399.1454059814594757
 20
56.8046152490387612
 10
399.1454059814594757
 20
52.0068372490387674
 10
399.1454059814594757
 20
46.8986152490387553
 10
410.4342949814594022
 20
46.8986152490386417
 10
421.7231829814594448
 20
46.8986152490387553
 10
421.7231829814594448
 20
47.7452812490387828
 10
421.7231829814594448
 20
47.7452812490387828
  0
LWPOLYLINE
  5
80
  8
0
 62
7
370
-1
  6
ByLayer
100
AcDbEntity
100
AcDbPolyline
 90
26
 70
0
 10
10.5254059814593752
 20
61.6023932490387551
 10
10.5254059814594036
 20
95.4690592490388212
 10
44.3920719814594236
 20
95.4690592490388212
 10
78.2587389814594019
 20
95.4690592490388212
 10
78.2587389814594303
 20
87.0023932490388177
 10
78.2587389814594303
 20
78.8179482490388068
 10
54.8342949814594363
 20
78.8179482490388068
 10
31.1276279814594297
 20
78.8179482490388068
 10
31.1276279814594297
 20
73.4557262490387757
 10
31.1276279814594012
 20
68.37572624903882
 10
54.8342949814594363
 20
68.3757262490388484
 10
78.2587389814594019
 20
68.37572624903882
 10
78.2587389814594019
 20
60.7557262490387302
 10
78.2587389814593735
 20
53.4179482490387727
 10
54.8342949814594363
 20
53.4179482490387727
 10
31.1276279814594012
 20
53.4179482490388295
 10
31.1276279814594012
 20
47.7452812490388396
 10
31.1276279814594012
 20
42.6652812490387419
 10
54.8342949814593794
 20
42.6652812490387419
 10
78.2587389814594303
 20
42.6652812490387419
 10
78.2587389814594303
 20
35.3275042490387818
 10
78.2587389814594019
 20
27.7075042490387773
 10
44.3920719814594236
 20
27.7075042490387773
 10
10.5254059814594179
 20
27.7075042490387773
 10
10.5254059814593752
 20
61.6023932490387551
 10
10.5254059814593752
 20
61.6023932490387551
  0
SPLINE
  5
81
  8
0
 62
7
370
-1
  6
ByLayer
100
AcDbEntity
100
AcDbSpline
 70
8
 71
3
 72
8
 73
4
 74
0
 40
0.0
 40
0.0
 40
0.0
 40
0.0
 40
1.0
 40
1.0
 40
1.0
 40
1.0
 10
92.6238499814593865
 20
104.2179482490388125
 30
0.0
 10
98.5505169814593955
 20
108.7335042490388162
 30
0.0
 10
103.630516981459408
 20
112.6846152490388135
 30
0.0
 10
103.9127389814593982
 20
112.6846152490388135
 30
0.0
  0
SPLINE
  5
82
  8
0
 62
7
370
-1
  6
ByLayer
100
AcDbEntity
100
AcDbSpline
 70
8
 71
3
 72
8
 73
4
 74
0
 40
0.0
 40
0.0
 40
0.0
 40
0.0
 40
1.0
 40
1.0
 40
1.0
 40
1.0
 10
103.9127389814593982
 20
112.6846152490388135
 30
0.0
 10
104.1949609814594169
 20
112.9668372490387753
 30
0.0
 10
104.1949609814594169
 20
112.1201702490388072
 30
0.0
 10
104.1949609814593884
 20
79.9468372490388219
 30
0.0
  0
LWPOLYLINE
  5
83
  8
0
 62
7
370
-1
  6
ByLayer
100
AcDbEntity
100
AcDbPolyline
 90
3
 70
0
 10
82.2098499814593993
 20
62.1668372490387355
 10
82.2098499814593993
 20
95.7512812490388399
 10
92.6238499814593865
 20
104.2179482490388125
  0
SPLINE
  5
84
  8
0
 62
7
370
-1
  6
ByLayer
100
AcDbEntity
100
AcDbSpline
 70
8
 71
3
 72
8
 73
4
 74
0
 40
0.0
 40
0.0
 40
0.0
 40
0.0
 40
1.0
 40
1.0
 40
1.0
 40
1.0
 10
100.5260719814593813
 20
66.6823932490388245
 30
0.0
 10
100.5260719814593813
 20
79.100170249038797
 30
0.0
 10
100.5260719814594381
 20
89.5423932490387813
 30
0.0
 10
100.2438499814594195
 20
89.5423932490388381
 30
0.0
  0
SPLINE
  5
85
  8
0
 62
7
370
-1
  6
ByLayer
100
AcDbEntity
100
AcDbSpline
 70
8
 71
3
 72
8
 73
4
 74
0
 40
0.0
 40
0.0
 40
0.0
 40
0.0
 40
1.0
 40
1.0
 40
1.0
 40
1.0
 10
100.2438499814594195
 20
89.5423932490388381
 30
0.0
 10
100.2438499814594195
 20
89.5423932490388381
 30
0.0
 10
99.397182981459423
 20
88.9779482490388034
 30
0.0
 10
98.2682949814594338
 20
87.8490592490388167
 30
0.0
  0
LWPOLYLINE
  5
86
  8
0
 62
7
370
-1
  6
ByLayer
100
AcDbEntity
100
AcDbPolyline
 90
5
 70
0
 10
104.1949609814593884
 20
79.9468372490388219
 10
104.1949609814594169
 20
46.6163932490387651
 10
102.5016279814593929
 20
44.9230592490387721
 10
100.5260719814594097
 20
43.2297262490387766
 10
100.5260719814593813
 20
66.6823932490388245
  0
SPLINE
  5
87
  8
0
 62
7
370
-1
  6
ByLayer
100
AcDbEntity
100
AcDbSpline
 70
8
 71
3
 72
8
 73
4
 74
0
 40
0.0
 40
0.0
 40
0.0
 40
0.0
 40
1.0
 40
1.0
 40
1.0
 40
1.0
 10
85.003849981459382
 20
30.811948249038835
 30
0.0
 10
83.5927389814594335
 20
29.683059249038763
 30
0.0
 10
82.4920719814594463
 20
28.5541702490386911
 30
0.0
 10
82.4920719814594463
 20
28.5541702490386911
 30
0.0
  0
SPLINE
  5
88
  8
0
 62
7
370
-1
  6
ByLayer
100
AcDbEntity
100
AcDbSpline
 70
8
 71
3
 72
8
 73
4
 74
0
 40
0.0
 40
0.0
 40
0.0
 40
0.0
 40
1.0
 40
1.0
 40
1.0
 40
1.0
 10
82.4920719814594463
 20
28.5541702490386911
 30
0.0
 10
82.2098499814593993
 20
28.5541702490387479
 30
0.0
 10
82.2098499814593993
 20
35.3275042490387818
 30
0.0
 10
82.2098499814593993
 20
62.1668372490387355
 30
0.0
  0
LWPOLYLINE
  5
89
  8
0
 62
7
370
-1
  6
ByLayer
100
AcDbEntity
100
AcDbPolyline
 90
13
 70
0
 10
98.2682949814594338
 20
87.8490592490388167
 10
96.0105169814594035
 20
86.4379482490388114
 10
96.0105169814594319
 20
63.0135042490387605
 10
96.0105169814594319
 20
39.560837249038741
 10
93.7527389814594301
 20
37.8675042490387455
 10
91.4949609814594282
 20
36.1741702490387524
 10
91.4949609814593714
 20
59.6268372490387719
 10
91.4949609814594282
 20
82.7690592490388042
 10
89.5194059814593857
 20
81.0757262490388086
 10
87.5438499814594024
 20
79.6646152490388033
 10
87.5438499814594024
 20
56.2401702490387834
 10
87.5438499814594024
 20
32.7875042490388182
 10
85.003849981459382
 20
30.811948249038835
  0
LWPOLYLINE
  5
8A
  8
0
 62
7
370
-1
  6
ByLayer
100
AcDbEntity
100
AcDbPolyline
 90
2
 70
0
 10
82.2098499814593993
 20
62.1668372490387355
 10
82.2098499814593993
 20
62.1668372490387355
  0
LWPOLYLINE
  5
8B
  8
0
 62
7
370
-1
  6
ByLayer
100
AcDbEntity
100
AcDbPolyline
 90
26
 70
0
 10
25.2009609814594207
 20
106.7579482490388045
 10
38.1831829814593959
 20
115.5068372490388242
 10
70.0742949814593885
 20
115.5068372490388242
 10
102.2194059814594311
 20
115.5068372490388242
 10
99.3971829814593946
 20
113.249059249038794
 10
97.1394059814594186
 20
111.2735042490388082
 10
74.5898499814594231
 20
111.2735042490388082
 10
51.7298499814594095
 20
111.2735042490388082
 10
50.036516981459414
 20
109.8623932490387745
 10
48.3431829814594209
 20
108.7335042490387877
 10
70.6387389814594258
 20
108.4512812490387716
 10
93.1882949814594213
 20
108.4512812490388001
 10
90.9305169814594194
 20
106.4757262490388143
 10
88.3905169814593989
 20
104.7823932490388188
 10
65.5587389814594417
 20
104.7823932490387904
 10
42.698738981459428
 20
104.7823932490388188
 10
40.4409609814594546
 20
103.371281249038816
 10
38.7476279814594307
 20
101.9601702490388107
 10
61.8898499814594061
 20
101.9601702490388107
 10
84.7216279814593918
 20
101.9601702490388107
 10
82.4920719814594179
 20
99.9846152490388249
 10
80.2342949814593851
 20
98.0090592490388133
 10
46.0854059814594166
 20
98.0090592490388133
 10
12.2187389814593992
 20
98.0090592490388133
 10
25.2009609814594207
 20
106.7579482490388045
 10
25.2009609814594207
 20
106.7579482490388045
  0
ENDBLK
  5
8C
100
AcDbEntity
  8
0
100
AcDbBlockEnd
  0
ENDSEC
  0
SECTION
  2
ENTITIES
  0
SPLINE
  5
8D
  8
0
 62
256
370
-1
  6
ByLayer
100
AcDbEntity
100
AcDbSpline
 70
8
 71
3
 72
8
 73
4
 74
0
 40
0.0
 40
0.0
 40
0.0
 40
0.0
 40
1.0
 40
1.0
 40
1.0
 40
1.0
 10
123.6275128270736445
 20
27.7075042490387631
 30
0.0
 10
121.9341788270736231
 20
28.2719482490387115
 30
0.0
 10
121.0875128270736241
 20
28.8363932490387072
 30
0.0
 10
120.2408458270735991
 20
30.2475042490387658
 30
0.0
  0
SPLINE
  5
8E
  8
0
 62
256
370
-1
  6
ByLayer
100
AcDbEntity
100
AcDbSpline
 70
8
 71
3
 72
8
 73
4
 74
0
 40
0.0
 40
0.0
 40
0.0
 40
0.0
 40
1.0
 40
1.0
 40
1.0
 40
1.0
 10
120.2408458270736276
 20
53.7001702490387771
 30
0.0
 10
121.0875128270736241
 20
55.1112812490387753
 30
0.0
 10
121.3697348270736143
 20
55.3935042490387204
 30
0.0
 10
122.498623827073601
 20
55.6757262490387177
 30
0.0
  0
LWPOLYLINE
  5
8F
  8
0
 62
256
370
-1
  6
ByLayer
100
AcDbEntity
100
AcDbPolyline
 90
5
 70
0
 10
120.2408458270735991
 20
30.2475042490387658
 10
119.9586238270736374
 20
31.3763932490387099
 10
119.9586238270736089
 20
42.1008372490387259
 10
119.9586238270736374
 20
52.2890592490387576
 10
120.2408458270736276
 20
53.7001702490387771
  0
SPLINE
  5
90
  8
0
 62
256
370
-1
  6
ByLayer
100
AcDbEntity
100
AcDbSpline
 70
8
 71
3
 72
8
 73
4
 74
0
 40
0.0
 40
0.0
 40
0.0
 40
0.0
 40
1.0
 40
1.0
 40
1.0
 40
1.0
 10
154.7001788270736427
 20
55.6757262490387674
 30
0.0
 10
155.8290678270736009
 20
55.3935042490387985
 30
0.0
 10
156.1112898270735911
 20
54.8290592490388278
 30
0.0
 10
156.3935128270735788
 20
53.9823932490387364
 30
0.0
  0
SPLINE
  5
91
  8
0
 62
256
370
-1
  6
ByLayer
100
AcDbEntity
100
AcDbSpline
 70
8
 71
3
 72
8
 73
4
 74
0
 40
0.0
 40
0.0
 40
0.0
 40
0.0
 40
1.0
 40
1.0
 40
1.0
 40
1.0
 10
156.3935128270735788
 20
53.9823932490387364
 30
0.0
 10
156.9579568270736161
 20
53.1357262490387683
 30
0.0
 10
157.2401788270736631
 20
52.8535042490387568
 30
0.0
 10
157.2401788270736063
 20
46.051948249038702
 30
0.0
  0
LWPOLYLINE
  5
92
  8
0
 62
256
370
-1
  6
ByLayer
100
AcDbEntity
100
AcDbPolyline
 90
5
 70
0
 10
122.498623827073601
 20
55.6757262490387177
 10
123.6275128270736445
 20
56.2401702490387834
 10
138.6417348270736056
 20
56.2401702490387336
 10
153.5712898270736275
 20
56.2401702490387834
 10
154.7001788270736427
 20
55.6757262490387674
  0
SPLINE
  5
93
  8
0
 62
256
370
-1
  6
ByLayer
100
AcDbEntity
100
AcDbSpline
 70
8
 71
3
 72
8
 73
4
 74
0
 40
0.0
 40
0.0
 40
0.0
 40
0.0
 40
1.0
 40
1.0
 40
1.0
 40
1.0
 10
140.927734827073607
 20
27.4252812490387292
 30
0.0
 10
131.868401827073626
 20
27.4252812490387399
 30
0.0
 10
124.1919568270736534
 20
27.7075042490387595
 30
0.0
 10
123.6275128270736445
 20
27.7075042490387631
 30
0.0
  0
LWPOLYLINE
  5
94
  8
0
 62
256
370
-1
  6
ByLayer
100
AcDbEntity
100
AcDbPolyline
 90
11
 70
0
 10
157.2401788270736063
 20
46.051948249038702
 10
157.2401788270736063
 20
39.2786152490387508
 10
142.0566238270736505
 20
39.2786152490388005
 10
126.9012898270736116
 20
39.2786152490387224
 10
126.90128982707364
 20
36.1741702490387311
 10
126.90128982707364
 20
33.0697262490387516
 10
142.0566238270736505
 20
33.0697262490387658
 10
157.2401788270736063
 20
33.069726249038716
 10
157.2401788270736063
 20
30.2475042490387622
 10
157.2401788270736063
 20
27.4252812490388003
 10
140.927734827073607
 20
27.4252812490387292
  0
LWPOLYLINE
  5
95
  8
0
 62
256
370
-1
  6
ByLayer
100
AcDbEntity
100
AcDbPolyline
 90
2
 70
0
 10
123.6275128270736445
 20
27.7075042490387631
 10
123.6275128270736445
 20
27.7075042490387631
  0
SPLINE
  5
96
  8
0
 62
256
370
-1
  6
ByLayer
100
AcDbEntity
100
AcDbSpline
 70
8
 71
3
 72
8
 73
4
 74
0
 40
0.0
 40
0.0
 40
0.0
 40
0.0
 40
1.0
 40
1.0
 40
1.0
 40
1.0
 10
126.6755128270735895
 20
48.309726249038718
 30
0.0
 10
126.6755128270736179
 20
46.6163932490388007
 30
0.0
 10
126.6755128270736179
 20
45.4875042490387003
 30
0.0
 10
126.6755128270736463
 20
45.2052812490387623
 30
0.0
  0
SPLINE
  5
97
  8
0
 62
256
370
-1
  6
ByLayer
100
AcDbEntity
100
AcDbSpline
 70
8
 71
3
 72
8
 73
4
 74
0
 40
0.0
 40
0.0
 40
0.0
 40
0.0
 40
1.0
 40
1.0
 40
1.0
 40
1.0
 10
126.6755128270736463
 20
45.2052812490387623
 30
0.0
 10
126.90128982707364
 20
44.9230592490387437
 30
0.0
 10
129.1590678270736419
 20
44.9230592490388645
 30
0.0
 10
138.4159568270736429
 20
44.9230592490388148
 30
0.0
  0
LWPOLYLINE
  5
98
  8
0
 62
256
370
-1
  6
ByLayer
100
AcDbEntity
100
AcDbPolyline
 90
5
 70
0
 10
150.1846238270735796
 20
48.0275042490387918
 10
150.1846238270736364
 20
51.1601702490387495
 10
138.4159568270736429
 20
51.160170249038778
 10
126.9012898270736116
 20
51.1601702490387211
 10
126.6755128270735895
 20
48.309726249038718
  0
LWPOLYLINE
  5
99
  8
0
 62
256
370
-1
  6
ByLayer
100
AcDbEntity
100
AcDbPolyline
 90
4
 70
0
 10
138.4159568270736429
 20
44.9230592490388148
 10
150.1846238270735796
 20
44.9230592490388432
 10
150.1846238270735796
 20
48.0275042490387918
 10
150.1846238270735796
 20
48.0275042490387918
  0
SPLINE
  5
9A
  8
0
 62
256
370
-1
  6
ByLayer
100
AcDbEntity
100
AcDbSpline
 70
8
 71
3
 72
8
 73
4
 74
0
 40
0.0
 40
0.0
 40
0.0
 40
0.0
 40
1.0
 40
1.0
 40
1.0
 40
1.0
 10
187.1557348270736441
 20
52.289059249038722
 30
0.0
 10
191.6712898270736503
 20
46.6163932490387936
 30
0.0
 10
195.6224018270736167
 20
41.5363932490387384
 30
0.0
 10
195.6224018270736167
 20
41.8186152490387641
 30
0.0
  0
SPLINE
  5
9B
  8
0
 62
256
370
-1
  6
ByLayer
100
AcDbEntity
100
AcDbSpline
 70
8
 71
3
 72
8
 73
4
 74
0
 40
0.0
 40
0.0
 40
0.0
 40
0.0
 40
1.0
 40
1.0
 40
1.0
 40
1.0
 10
195.6224018270736167
 20
41.8186152490387641
 30
0.0
 10
195.6224018270736167
 20
41.8186152490387641
 30
0.0
 10
199.291289827073598
 20
46.6163932490388007
 30
0.0
 10
203.8068458270736016
 20
52.2890592490388144
 30
0.0
  0
LWPOLYLINE
  5
9C
  8
0
 62
256
370
-1
  6
ByLayer
100
AcDbEntity
100
AcDbPolyline
 90
5
 70
0
 10
171.915734827073635
 20
45.2052812490388405
 10
171.915734827073635
 20
63.0135042490387605
 10
175.5846238270736706
 20
63.0135042490386468
 10
178.9712898270736048
 20
63.0135042490387818
 10
187.1557348270736441
 20
52.289059249038722
  0
SPLINE
  5
9D
  8
0
 62
256
370
-1
  6
ByLayer
100
AcDbEntity
100
AcDbSpline
 70
8
 71
3
 72
8
 73
4
 74
0
 40
0.0
 40
0.0
 40
0.0
 40
0.0
 40
1.0
 40
1.0
 40
1.0
 40
1.0
 10
210.2979568270736479
 20
51.4423932490387728
 30
0.0
 10
209.7335128270736107
 20
50.5675042490387696
 30
0.0
 10
206.3468458270736221
 20
45.7697262490386549
 30
0.0
 10
202.6779568270736434
 20
40.9719482490388174
 30
0.0
  0
SPLINE
  5
9E
  8
0
 62
256
370
-1
  6
ByLayer
100
AcDbEntity
100
AcDbSpline
 70
8
 71
3
 72
8
 73
4
 74
0
 40
0.0
 40
0.0
 40
0.0
 40
0.0
 40
1.0
 40
1.0
 40
1.0
 40
1.0
 10
202.6779568270736434
 20
40.9719482490388174
 30
0.0
 10
195.9046238270736069
 20
31.6586152490389807
 30
0.0
 10
195.9046238270736069
 20
31.6586152490389807
 30
0.0
 10
194.7757348270736486
 20
31.6586152490387072
 30
0.0
  0
SPLINE
  5
9F
  8
0
 62
256
370
-1
  6
ByLayer
100
AcDbEntity
100
AcDbSpline
 70
8
 71
3
 72
8
 73
4
 74
0
 40
0.0
 40
0.0
 40
0.0
 40
0.0
 40
1.0
 40
1.0
 40
1.0
 40
1.0
 10
194.7757348270736486
 20
31.6586152490387072
 30
0.0
 10
194.2112898270736707
 20
31.6586152490387533
 30
0.0
 10
193.9290678270736237
 20
31.6586152490386148
 30
0.0
 10
187.4379568270735774
 20
40.6897262490386851
 30
0.0
  0
SPLINE
  5
A0
  8
0
 62
256
370
-1
  6
ByLayer
100
AcDbEntity
100
AcDbSpline
 70
8
 71
3
 72
8
 73
4
 74
0
 40
0.0
 40
0.0
 40
0.0
 40
0.0
 40
1.0
 40
1.0
 40
1.0
 40
1.0
 10
187.4379568270735774
 20
40.6897262490386851
 30
0.0
 10
183.4868458270736085
 20
45.4875042490386932
 30
0.0
 10
180.1001788270736199
 20
50.2852812490386967
 30
0.0
 10
179.8179568270736297
 20
51.1601702490387353
 30
0.0
  0
SPLINE
  5
A1
  8
0
 62
256
370
-1
  6
ByLayer
100
AcDbEntity
100
AcDbSpline
 70
8
 71
3
 72
8
 73
4
 74
0
 40
0.0
 40
0.0
 40
0.0
 40
0.0
 40
1.0
 40
1.0
 40
1.0
 40
1.0
 10
179.8179568270736297
 20
51.1601702490387353
 30
0.0
 10
179.2535128270736493
 20
52.0068372490387461
 30
0.0
 10
178.9712898270736616
 20
52.2890592490387434
 30
0.0
 10
178.9712898270736048
 20
52.5712812490387478
 30
0.0
  0
SPLINE
  5
A2
  8
0
 62
256
370
-1
  6
ByLayer
100
AcDbEntity
100
AcDbSpline
 70
8
 71
3
 72
8
 73
4
 74
0
 40
0.0
 40
0.0
 40
0.0
 40
0.0
 40
1.0
 40
1.0
 40
1.0
 40
1.0
 10
178.9712898270736048
 20
52.5712812490387478
 30
0.0
 10
178.9712898270736048
 20
52.5712812490387478
 30
0.0
 10
178.9712898270736616
 20
46.8986152490387127
 30
0.0
 10
178.9712898270736616
 20
39.8430592490387241
 30
0.0
  0
LWPOLYLINE
  5
A3
  8
0
 62
256
370
-1
  6
ByLayer
100
AcDbEntity
100
AcDbPolyline
 90
11
 70
0
 10
203.8068458270736016
 20
52.2890592490388144
 10
211.7090678270736532
 20
63.013504249038796
 10
215.0957348270736418
 20
63.0135042490388386
 10
218.4824018270736303
 20
63.0135042490387036
 10
218.4824018270736303
 20
45.205281249038741
 10
218.4824018270736872
 20
27.4252812490387043
 10
214.8135128270735947
 20
27.4252812490388571
 10
210.8624018270736258
 20
27.4252812490386724
 10
210.8624018270736258
 20
40.1252812490386859
 10
211.144623827073616
 20
52.8535042490387212
 10
210.2979568270736479
 20
51.4423932490387728
  0
SPLINE
  5
A4
  8
0
 62
256
370
-1
  6
ByLayer
100
AcDbEntity
100
AcDbSpline
 70
8
 71
3
 72
8
 73
4
 74
0
 40
0.0
 40
0.0
 40
0.0
 40
0.0
 40
1.0
 40
1.0
 40
1.0
 40
1.0
 10
229.2068458270736357
 20
27.4252812490387363
 30
0.0
 10
229.2068458270736357
 20
27.707504249038692
 30
0.0
 10
233.7224018270736394
 20
35.609726249038836
 30
0.0
 10
239.0846238270736137
 20
45.4875042490387571
 30
0.0
  0
LWPOLYLINE
  5
A5
  8
0
 62
256
370
-1
  6
ByLayer
100
AcDbEntity
100
AcDbPolyline
 90
6
 70
0
 10
178.9712898270736616
 20
39.8430592490387241
 10
178.9712898270736616
 20
27.4252812490387825
 10
175.5846238270736706
 20
27.4252812490387292
 10
171.915734827073635
 20
27.4252812490389175
 10
171.915734827073635
 20
45.2052812490388405
 10
171.915734827073635
 20
45.2052812490388405
  0
SPLINE
  5
A6
  8
0
 62
256
370
-1
  6
ByLayer
100
AcDbEntity
100
AcDbSpline
 70
8
 71
3
 72
8
 73
4
 74
0
 40
0.0
 40
0.0
 40
0.0
 40
0.0
 40
1.0
 40
1.0
 40
1.0
 40
1.0
 10
260.2512898270736059
 20
57.0868372490387941
 30
0.0
 10
262.5090678270736362
 20
53.7001702490387558
 30
0.0
 10
267.024623827073583
 20
45.769726249038726
 30
0.0
 10
271.5401788270736461
 20
39.5608372490386202
 30
0.0
  0
SPLINE
  5
A7
  8
0
 62
256
370
-1
  6
ByLayer
100
AcDbEntity
100
AcDbSpline
 70
8
 71
3
 72
8
 73
4
 74
0
 40
0.0
 40
0.0
 40
0.0
 40
0.0
 40
1.0
 40
1.0
 40
1.0
 40
1.0
 10
271.5401788270736461
 20
39.5608372490386202
 30
0.0
 10
273.7979568270736763
 20
33.0697262490388653
 30
0.0
 10
278.3135128270736232
 20
27.4252812490385693
 30
0.0
 10
278.3135128270736232
 20
27.4252812490385693
 30
0.0
  0
SPLINE
  5
A8
  8
0
 62
256
370
-1
  6
ByLayer
100
AcDbEntity
100
AcDbSpline
 70
8
 71
3
 72
8
 73
4
 74
0
 40
0.0
 40
0.0
 40
0.0
 40
0.0
 40
1.0
 40
1.0
 40
1.0
 40
1.0
 10
278.3135128270736232
 20
27.4252812490385693
 30
0.0
 10
278.3135128270736232
 20
27.4252812490385693
 30
0.0
 10
276.0557348270735929
 20
27.425281249038342
 30
0.0
 10
273.7979568270736763
 20
27.4252812490384095
 30
0.0
  0
LWPOLYLINE
  5
A9
  8
0
 62
256
370
-1
  6
ByLayer
100
AcDbEntity
100
AcDbPolyline
 90
5
 70
0
 10
239.0846238270736137
 20
45.4875042490387571
 10
248.9624018270735917
 20
63.0135042490388173
 10
253.4779568270735979
 20
63.013504249038597
 10
257.9935128270735731
 20
63.0135042490385757
 10
260.2512898270736059
 20
57.0868372490387941
  0
SPLINE
  5
AA
  8
0
 62
256
370
-1
  6
ByLayer
100
AcDbEntity
100
AcDbSpline
 70
8
 71
3
 72
8
 73
4
 74
0
 40
0.0
 40
0.0
 40
0.0
 40
0.0
 40
1.0
 40
1.0
 40
1.0
 40
1.0
 10
233.1579568270736047
 20
27.4252812490388962
 30
0.0
 10
230.9001788270735744
 20
27.4252812490385907
 30
0.0
 10
229.2068458270736357
 20
27.4252812490387363
 30
0.0
 10
229.2068458270736357
 20
27.4252812490387363
 30
0.0
  0
LWPOLYLINE
  5
AB
  8
0
 62
256
370
-1
  6
ByLayer
100
AcDbEntity
100
AcDbPolyline
 90
9
 70
0
 10
273.7979568270736763
 20
27.4252812490384095
 10
267.024623827073583
 20
27.4252812490387186
 10
267.024623827073583
 20
31.3763932490389692
 10
264.7668458270736664
 20
35.3275042490389382
 10
253.4779568270736547
 20
35.3275042490389595
 10
242.1890678270736146
 20
35.3275042490386895
 10
239.3668458270736039
 20
31.3763932490387027
 10
237.3912898270736207
 20
27.4252812490387825
 10
233.1579568270736047
 20
27.4252812490388962
  0
LWPOLYLINE
  5
AC
  8
0
 62
256
370
-1
  6
ByLayer
100
AcDbEntity
100
AcDbPolyline
 90
2
 70
0
 10
229.2068458270736357
 20
27.4252812490387363
 10
229.2068458270736357
 20
27.4252812490387363
  0
SPLINE
  5
AD
  8
0
 62
256
370
-1
  6
ByLayer
100
AcDbEntity
100
AcDbSpline
 70
8
 71
3
 72
8
 73
4
 74
0
 40
0.0
 40
0.0
 40
0.0
 40
0.0
 40
1.0
 40
1.0
 40
1.0
 40
1.0
 10
253.4779568270736547
 20
55.9579482490387576
 30
0.0
 10
253.4779568270735979
 20
55.675726249038668
 30
0.0
 10
244.446845827073588
 20
41.8186152490387144
 30
0.0
 10
244.4468458270736448
 20
41.5363932490387455
 30
0.0
  0
SPLINE
  5
AE
  8
0
 62
256
370
-1
  6
ByLayer
100
AcDbEntity
100
AcDbSpline
 70
8
 71
3
 72
8
 73
4
 74
0
 40
0.0
 40
0.0
 40
0.0
 40
0.0
 40
1.0
 40
1.0
 40
1.0
 40
1.0
 10
244.4468458270736448
 20
41.5363932490387455
 30
0.0
 10
244.4468458270736448
 20
41.5363932490387455
 30
0.0
 10
248.9624018270735917
 20
41.5363932490387242
 30
0.0
 10
253.4779568270735979
 20
41.5363932490387171
 30
0.0
  0
SPLINE
  5
AF
  8
0
 62
256
370
-1
  6
ByLayer
100
AcDbEntity
100
AcDbSpline
 70
8
 71
3
 72
8
 73
4
 74
0
 40
0.0
 40
0.0
 40
0.0
 40
0.0
 40
1.0
 40
1.0
 40
1.0
 40
1.0
 10
253.4779568270735979
 20
41.5363932490387171
 30
0.0
 10
257.9935128270735731
 20
41.53639324903871
 30
0.0
 10
260.2512898270736059
 20
41.5363932490389445
 30
0.0
 10
260.2512898270736059
 20
41.8186152490387641
 30
0.0
  0
LWPOLYLINE
  5
B0
  8
0
 62
256
370
-1
  6
ByLayer
100
AcDbEntity
100
AcDbPolyline
 90
2
 70
0
 10
260.2512898270736059
 20
41.8186152490387641
 10
253.4779568270736547
 20
55.9579482490387576
  0
LWPOLYLINE
  5
B1
  8
0
 62
256
370
-1
  6
ByLayer
100
AcDbEntity
100
AcDbPolyline
 90
2
 70
0
 10
260.2512898270736059
 20
41.8186152490387641
 10
260.2512898270736059
 20
41.8186152490387641
  0
SPLINE
  5
B2
  8
0
 62
256
370
-1
  6
ByLayer
100
AcDbEntity
100
AcDbSpline
 70
8
 71
3
 72
8
 73
4
 74
0
 40
0.0
 40
0.0
 40
0.0
 40
0.0
 40
1.0
 40
1.0
 40
1.0
 40
1.0
 10
316.9779568270736263
 20
54.5468372490389157
 30
0.0
 10
310.2046238270736467
 20
50.0030592490386638
 30
0.0
 10
305.6890678270735862
 20
46.3341702490386709
 30
0.0
 10
305.6890678270735862
 20
46.3341702490386709
 30
0.0
  0
SPLINE
  5
B3
  8
0
 62
256
370
-1
  6
ByLayer
100
AcDbEntity
100
AcDbSpline
 70
8
 71
3
 72
8
 73
4
 74
0
 40
0.0
 40
0.0
 40
0.0
 40
0.0
 40
1.0
 40
1.0
 40
1.0
 40
1.0
 10
305.6890678270735862
 20
46.3341702490386709
 30
0.0
 10
305.6890678270735862
 20
46.0519482490389223
 30
0.0
 10
316.9779568270736263
 20
38.1497262490389559
 30
0.0
 10
326.0090678270736362
 20
31.0941702490387364
 30
0.0
  0
SPLINE
  5
B4
  8
0
 62
256
370
-1
  6
ByLayer
100
AcDbEntity
100
AcDbSpline
 70
8
 71
3
 72
8
 73
4
 74
0
 40
0.0
 40
0.0
 40
0.0
 40
0.0
 40
1.0
 40
1.0
 40
1.0
 40
1.0
 10
326.0090678270736362
 20
31.0941702490387364
 30
0.0
 10
330.524623827073583
 20
29.4008372490387515
 30
0.0
 10
330.524623827073583
 20
27.7075042490387418
 30
0.0
 10
330.524623827073583
 20
27.4252812490386617
 30
0.0
  0
SPLINE
  5
B5
  8
0
 62
256
370
-1
  6
ByLayer
100
AcDbEntity
100
AcDbSpline
 70
8
 71
3
 72
8
 73
4
 74
0
 40
0.0
 40
0.0
 40
0.0
 40
0.0
 40
1.0
 40
1.0
 40
1.0
 40
1.0
 10
330.524623827073583
 20
27.4252812490386617
 30
0.0
 10
330.524623827073583
 20
27.4252812490386617
 30
0.0
 10
328.2668458270736664
 20
27.4252812490389069
 30
0.0
 10
326.0090678270736362
 20
27.4252812490389104
 30
0.0
  0
LWPOLYLINE
  5
B6
  8
0
 62
256
370
-1
  6
ByLayer
100
AcDbEntity
100
AcDbPolyline
 90
11
 70
0
 10
289.8846238270735967
 20
45.2052812490389115
 10
289.8846238270735967
 20
63.0135042490385402
 10
292.1424018270736269
 20
63.0135042490388031
 10
296.6579568270735763
 20
63.013504249038732
 10
296.6579568270735763
 20
55.6757262490387248
 10
296.6579568270735763
 20
48.309726249038718
 10
307.9468458270736164
 20
55.6757262490386822
 10
316.9779568270736263
 20
63.0135042490388457
 10
323.7512898270736059
 20
63.0135042490385686
 10
328.2668458270736664
 20
62.7312812490389504
 10
316.9779568270736263
 20
54.5468372490389157
  0
SPLINE
  5
B7
  8
0
 62
256
370
-1
  6
ByLayer
100
AcDbEntity
100
AcDbSpline
 70
8
 71
3
 72
8
 73
4
 74
0
 40
0.0
 40
0.0
 40
0.0
 40
0.0
 40
1.0
 40
1.0
 40
1.0
 40
1.0
 10
310.2046238270736467
 20
33.0697262490389363
 30
0.0
 10
307.9468458270736164
 20
35.8919482490387551
 30
0.0
 10
301.1735128270736368
 20
39.5608372490388618
 30
0.0
 10
301.1735128270736368
 20
40.6897262490389053
 30
0.0
  0
LWPOLYLINE
  5
B8
  8
0
 62
256
370
-1
  6
ByLayer
100
AcDbEntity
100
AcDbPolyline
 90
3
 70
0
 10
326.0090678270736362
 20
27.4252812490389104
 10
319.2357348270736566
 20
27.4252812490390809
 10
310.2046238270736467
 20
33.0697262490389363
  0
LWPOLYLINE
  5
B9
  8
0
 62
256
370
-1
  6
ByLayer
100
AcDbEntity
100
AcDbPolyline
 90
8
 70
0
 10
301.1735128270736368
 20
40.6897262490389053
 10
296.65795682707369
 20
42.9475042490388503
 10
296.6579568270735763
 20
35.3275042490390092
 10
296.6579568270735763
 20
27.4252812490385729
 10
292.1424018270736269
 20
27.4252812490390063
 10
289.8846238270735967
 20
27.4252812490386297
 10
289.8846238270735967
 20
45.2052812490389115
 10
289.8846238270735967
 20
45.2052812490389115
  0
LWPOLYLINE
  5
BA
  8
0
 62
256
370
-1
  6
ByLayer
100
AcDbEntity
100
AcDbPolyline
 90
26
 70
0
 10
344.0712898270736559
 20
45.2052812490387623
 10
344.0712898270736559
 20
63.0135042490387036
 10
362.1335128270735595
 20
63.0135042490387463
 10
380.1957348270735793
 20
63.013504249038526
 10
380.1957348270735793
 20
59.9090592490384779
 10
380.1957348270735793
 20
56.804615249038541
 10
366.6490678270736225
 20
56.8046152490387968
 10
350.844623827073633
 20
56.8046152490389105
 10
350.844623827073633
 20
52.8535042490386786
 10
350.844623827073633
 20
48.8741702490387198
 10
359.8757348270735292
 20
48.8741702490387979
 10
368.9068458270736528
 20
48.8741702490390537
 10
368.9068458270735391
 20
45.7697262490388113
 10
368.9068458270736528
 20
42.9475042490386656
 10
359.8757348270736429
 20
42.9475042490387366
 10
350.844623827073633
 20
42.947504249038964
 10
350.844623827073633
 20
38.4319482490386903
 10
350.844623827073633
 20
34.1986152490391149
 10
366.6490678270736225
 20
34.1986152490392286
 10
380.1957348270735793
 20
34.1986152490387383
 10
380.1957348270735793
 20
30.8119482490383128
 10
380.1957348270735793
 20
27.425281249038175
 10
362.1335128270736732
 20
27.4252812490385445
 10
344.0712898270736559
 20
27.4252812490385729
 10
344.0712898270736559
 20
45.2052812490387623
 10
344.0712898270736559
 20
45.2052812490387623
  0
SPLINE
  5
BB
  8
0
 62
256
370
-1
  6
ByLayer
100
AcDbEntity
100
AcDbSpline
 70
8
 71
3
 72
8
 73
4
 74
0
 40
0.0
 40
0.0
 40
0.0
 40
0.0
 40
1.0
 40
1.0
 40
1.0
 40
1.0
 10
411.2401788270735778
 20
63.0135042490387605
 30
0.0
 10
430.9957348270735338
 20
62.7312812490388296
 30
0.0
 10
430.9957348270735338
 20
63.0135042490387249
 30
0.0
 10
433.8179568270735444
 20
61.0379482490387915
 30
0.0
  0
SPLINE
  5
BC
  8
0
 62
256
370
-1
  6
ByLayer
100
AcDbEntity
100
AcDbSpline
 70
8
 71
3
 72
8
 73
4
 74
0
 40
0.0
 40
0.0
 40
0.0
 40
0.0
 40
1.0
 40
1.0
 40
1.0
 40
1.0
 10
433.8179568270735444
 20
61.0379482490387915
 30
0.0
 10
433.8179568270735444
 20
59.6268372490388288
 30
0.0
 10
433.8179568270735444
 20
58.7801702490388465
 30
0.0
 10
433.8179568270735444
 20
51.1601702490386998
 30
0.0
  0
SPLINE
  5
BD
  8
0
 62
256
370
-1
  6
ByLayer
100
AcDbEntity
100
AcDbSpline
 70
8
 71
3
 72
8
 73
4
 74
0
 40
0.0
 40
0.0
 40
0.0
 40
0.0
 40
1.0
 40
1.0
 40
1.0
 40
1.0
 10
433.8179568270735444
 20
51.1601702490386998
 30
0.0
 10
433.8179568270735444
 20
44.3586152490390688
 30
0.0
 10
433.8179568270735444
 20
44.3586152490390688
 30
0.0
 10
433.8179568270735444
 20
42.9475042490390209
 30
0.0
  0
SPLINE
  5
BE
  8
0
 62
256
370
-1
  6
ByLayer
100
AcDbEntity
100
AcDbSpline
 70
8
 71
3
 72
8
 73
4
 74
0
 40
0.0
 40
0.0
 40
0.0
 40
0.0
 40
1.0
 40
1.0
 40
1.0
 40
1.0
 10
433.8179568270735444
 20
42.9475042490390209
 30
0.0
 10
430.9957348270735338
 20
41.2541702490382534
 30
0.0
 10
430.9957348270735338
 20
40.9719482490392224
 30
0.0
 10
425.3512898270736287
 20
40.9719482490386113
 30
0.0
  0
LWPOLYLINE
  5
BF
  8
0
 62
256
370
-1
  6
ByLayer
100
AcDbEntity
100
AcDbPolyline
 90
3
 70
0
 10
396.0001788270735688
 20
45.4875042490392261
 10
396.0001788270735688
 20
63.0135042490386894
 10
411.2401788270735778
 20
63.0135042490387605
  0
SPLINE
  5
C0
  8
0
 62
256
370
-1
  6
ByLayer
100
AcDbEntity
100
AcDbSpline
 70
8
 71
3
 72
8
 73
4
 74
0
 40
0.0
 40
0.0
 40
0.0
 40
0.0
 40
1.0
 40
1.0
 40
1.0
 40
1.0
 10
430.9957348270735338
 20
34.480837249038288
 30
0.0
 10
433.8179568270735444
 20
31.0941702490387328
 30
0.0
 10
439.4624018270736769
 20
28.2719482490385694
 30
0.0
 10
439.4624018270736769
 20
27.9897262490380285
 30
0.0
  0
SPLINE
  5
C1
  8
0
 62
256
370
-1
  6
ByLayer
100
AcDbEntity
100
AcDbSpline
 70
8
 71
3
 72
8
 73
4
 74
0
 40
0.0
 40
0.0
 40
0.0
 40
0.0
 40
1.0
 40
1.0
 40
1.0
 40
1.0
 10
439.4624018270736769
 20
27.9897262490380285
 30
0.0
 10
439.4624018270736769
 20
27.4252812490387967
 30
0.0
 10
439.4624018270736769
 20
27.4252812490387967
 30
0.0
 10
433.8179568270735444
 20
27.4252812490382389
 30
0.0
  0
LWPOLYLINE
  5
C2
  8
0
 62
256
370
-1
  6
ByLayer
100
AcDbEntity
100
AcDbPolyline
 90
3
 70
0
 10
425.3512898270736287
 20
40.9719482490386113
 10
419.7068458270736073
 20
40.6897262490383653
 10
430.9957348270735338
 20
34.480837249038288
  0
SPLINE
  5
C3
  8
0
 62
256
370
-1
  6
ByLayer
100
AcDbEntity
100
AcDbSpline
 70
8
 71
3
 72
8
 73
4
 74
0
 40
0.0
 40
0.0
 40
0.0
 40
0.0
 40
1.0
 40
1.0
 40
1.0
 40
1.0
 10
425.3512898270736287
 20
47.7452812490385909
 30
0.0
 10
425.3512898270736287
 20
48.3097262490384409
 30
0.0
 10
425.3512898270736287
 20
48.3097262490384409
 30
0.0
 10
425.3512898270736287
 20
51.4423932490391635
 30
0.0
  0
SPLINE
  5
C4
  8
0
 62
256
370
-1
  6
ByLayer
100
AcDbEntity
100
AcDbSpline
 70
8
 71
3
 72
8
 73
4
 74
0
 40
0.0
 40
0.0
 40
0.0
 40
0.0
 40
1.0
 40
1.0
 40
1.0
 40
1.0
 10
425.3512898270736287
 20
51.4423932490391635
 30
0.0
 10
425.3512898270736287
 20
55.1112812490386688
 30
0.0
 10
425.3512898270736287
 20
55.6757262490386751
 30
0.0
 10
425.3512898270736287
 20
56.5223932490387853
 30
0.0
  0
SPLINE
  5
C5
  8
0
 62
256
370
-1
  6
ByLayer
100
AcDbEntity
100
AcDbSpline
 70
8
 71
3
 72
8
 73
4
 74
0
 40
0.0
 40
0.0
 40
0.0
 40
0.0
 40
1.0
 40
1.0
 40
1.0
 40
1.0
 10
425.3512898270736287
 20
56.5223932490387853
 30
0.0
 10
422.529067827073618
 20
56.8046152490387044
 30
0.0
 10
422.529067827073618
 20
56.8046152490387044
 30
0.0
 10
414.062401827073586
 20
56.8046152490389176
 30
0.0
  0
LWPOLYLINE
  5
C6
  8
0
 62
256
370
-1
  6
ByLayer
100
AcDbEntity
100
AcDbPolyline
 90
12
 70
0
 10
433.8179568270735444
 20
27.4252812490382389
 10
425.3512898270736287
 20
27.4252812490388003
 10
419.7068458270736073
 20
34.1986152490389514
 10
411.2401788270735778
 20
40.9719482490385616
 10
408.4179568270736809
 20
40.9719482490387463
 10
402.7735128270736595
 20
40.6897262490391114
 10
402.7735128270736595
 20
34.198615249039328
 10
402.7735128270736595
 20
27.425281249038953
 10
399.9512898270736514
 20
27.425281249038882
 10
396.0001788270735688
 20
27.4252812490390596
 10
396.0001788270735688
 20
45.4875042490392261
 10
396.0001788270735688
 20
45.4875042490392261
  0
LWPOLYLINE
  5
C7
  8
0
 62
256
370
-1
  6
ByLayer
100
AcDbEntity
100
AcDbPolyline
 90
8
 70
0
 10
414.062401827073586
 20
56.8046152490389176
 10
402.7735128270736595
 20
56.8046152490387044
 10
402.7735128270736595
 20
52.0068372490388597
 10
402.7735128270736595
 20
46.8986152490385635
 10
414.062401827073586
 20
46.8986152490382437
 10
425.3512898270736287
 20
46.898615249038933
 10
425.3512898270736287
 20
47.7452812490385909
 10
425.3512898270736287
 20
47.7452812490385909
  0
LWPOLYLINE
  5
C8
  8
0
 62
256
370
-1
  6
ByLayer
100
AcDbEntity
100
AcDbPolyline
 90
26
 70
0
 10
14.1535128270735875
 20
61.6023932490387551
 10
14.1535128270736106
 20
95.4690592490388212
 10
48.0201788270736216
 20
95.4690592490388354
 10
81.8868458270736141
 20
95.4690592490388212
 10
81.8868458270736426
 20
87.0023932490388034
 10
81.8868458270736426
 20
78.8179482490387926
 10
58.4624018270736485
 20
78.8179482490388068
 10
34.7557348270736455
 20
78.8179482490388068
 10
34.7557348270736313
 20
73.4557262490387757
 10
34.7557348270736099
 20
68.37572624903882
 10
58.4624018270736414
 20
68.3757262490388626
 10
81.8868458270736141
 20
68.3757262490388058
 10
81.8868458270736141
 20
60.7557262490387231
 10
81.8868458270735857
 20
53.417948249038794
 10
58.4624018270736485
 20
53.4179482490387798
 10
34.7557348270736171
 20
53.4179482490388367
 10
34.7557348270736099
 20
47.7452812490388467
 10
34.7557348270736099
 20
42.6652812490387419
 10
58.4624018270735917
 20
42.6652812490387419
 10
81.8868458270736426
 20
42.6652812490387348
 10
81.8868458270736426
 20
35.3275042490387818
 10
81.8868458270736141
 20
27.7075042490387808
 10
48.0201788270736358
 20
27.7075042490387844
 10
14.1535128270736248
 20
27.7075042490387808
 10
14.1535128270735875
 20
61.6023932490387551
 10
14.1535128270735875
 20
61.6023932490387551
  0
SPLINE
  5
C9
  8
0
 62
256
370
-1
  6
ByLayer
100
AcDbEntity
100
AcDbSpline
 70
8
 71
3
 72
8
 73
4
 74
0
 40
0.0
 40
0.0
 40
0.0
 40
0.0
 40
1.0
 40
1.0
 40
1.0
 40
1.0
 10
96.2519568270735988
 20
104.2179482490387983
 30
0.0
 10
102.1786238270736078
 20
108.7335042490387877
 30
0.0
 10
107.2586238270736203
 20
112.6846152490388135
 30
0.0
 10
107.5408458270736105
 20
112.6846152490387993
 30
0.0
  0
SPLINE
  5
CA
  8
0
 62
256
370
-1
  6
ByLayer
100
AcDbEntity
100
AcDbSpline
 70
8
 71
3
 72
8
 73
4
 74
0
 40
0.0
 40
0.0
 40
0.0
 40
0.0
 40
1.0
 40
1.0
 40
1.0
 40
1.0
 10
107.5408458270736105
 20
112.6846152490387993
 30
0.0
 10
107.8230678270736291
 20
112.9668372490387753
 30
0.0
 10
107.8230678270736149
 20
112.120170249038793
 30
0.0
 10
107.8230678270736007
 20
79.9468372490388219
 30
0.0
  0
LWPOLYLINE
  5
CB
  8
0
 62
256
370
-1
  6
ByLayer
100
AcDbEntity
100
AcDbPolyline
 90
3
 70
0
 10
85.8379568270736115
 20
62.1668372490387355
 10
85.8379568270736115
 20
95.7512812490388399
 10
96.2519568270735988
 20
104.2179482490387983
  0
SPLINE
  5
CC
  8
0
 62
256
370
-1
  6
ByLayer
100
AcDbEntity
100
AcDbSpline
 70
8
 71
3
 72
8
 73
4
 74
0
 40
0.0
 40
0.0
 40
0.0
 40
0.0
 40
1.0
 40
1.0
 40
1.0
 40
1.0
 10
104.1541788270735935
 20
66.6823932490388529
 30
0.0
 10
104.1541788270735935
 20
79.1001702490387828
 30
0.0
 10
104.1541788270736504
 20
89.5423932490387955
 30
0.0
 10
103.8719568270736318
 20
89.5423932490388381
 30
0.0
  0
SPLINE
  5
CD
  8
0
 62
256
370
-1
  6
ByLayer
100
AcDbEntity
100
AcDbSpline
 70
8
 71
3
 72
8
 73
4
 74
0
 40
0.0
 40
0.0
 40
0.0
 40
0.0
 40
1.0
 40
1.0
 40
1.0
 40
1.0
 10
103.8719568270736318
 20
89.5423932490388381
 30
0.0
 10
103.8719568270736318
 20
89.5423932490388381
 30
0.0
 10
103.0252898270736353
 20
88.9779482490388176
 30
0.0
 10
101.896401827073646
 20
87.8490592490388025
 30
0.0
  0
LWPOLYLINE
  5
CE
  8
0
 62
256
370
-1
  6
ByLayer
100
AcDbEntity
100
AcDbPolyline
 90
5
 70
0
 10
107.8230678270736007
 20
79.9468372490388219
 10
107.8230678270736291
 20
46.6163932490387651
 10
106.1297348270736052
 20
44.923059249038765
 10
104.154178827073622
 20
43.2297262490387979
 10
104.1541788270735935
 20
66.6823932490388529
  0
SPLINE
  5
CF
  8
0
 62
256
370
-1
  6
ByLayer
100
AcDbEntity
100
AcDbSpline
 70
8
 71
3
 72
8
 73
4
 74
0
 40
0.0
 40
0.0
 40
0.0
 40
0.0
 40
1.0
 40
1.0
 40
1.0
 40
1.0
 10
88.6319568270735942
 20
30.811948249038835
 30
0.0
 10
87.2208458270736458
 20
29.6830592490387701
 30
0.0
 10
86.1201788270736586
 20
28.5541702490386626
 30
0.0
 10
86.1201788270736586
 20
28.5541702490386626
 30
0.0
  0
SPLINE
  5
D0
  8
0
 62
256
370
-1
  6
ByLayer
100
AcDbEntity
100
AcDbSpline
 70
8
 71
3
 72
8
 73
4
 74
0
 40
0.0
 40
0.0
 40
0.0
 40
0.0
 40
1.0
 40
1.0
 40
1.0
 40
1.0
 10
86.1201788270736586
 20
28.5541702490386626
 30
0.0
 10
85.8379568270736115
 20
28.5541702490387372
 30
0.0
 10
85.8379568270736115
 20
35.327504249038796
 30
0.0
 10
85.8379568270736115
 20
62.1668372490387355
 30
0.0
  0
LWPOLYLINE
  5
D1
  8
0
 62
256
370
-1
  6
ByLayer
100
AcDbEntity
100
AcDbPolyline
 90
13
 70
0
 10
101.896401827073646
 20
87.8490592490388025
 10
99.6386238270736158
 20
86.4379482490388256
 10
99.6386238270736442
 20
63.0135042490387747
 10
99.6386238270736442
 20
39.5608372490387339
 10
97.3808458270736423
 20
37.8675042490387241
 10
95.1230678270736405
 20
36.1741702490387667
 10
95.1230678270735837
 20
59.626837249038779
 10
95.1230678270736405
 20
82.7690592490388184
 10
93.1475128270735979
 20
81.0757262490387944
 10
91.1719568270736147
 20
79.6646152490388033
 10
91.1719568270736147
 20
56.2401702490388047
 10
91.1719568270736147
 20
32.7875042490388253
 10
88.6319568270735942
 20
30.811948249038835
  0
LWPOLYLINE
  5
D2
  8
0
 62
256
370
-1
  6
ByLayer
100
AcDbEntity
100
AcDbPolyline
 90
2
 70
0
 10
85.8379568270736115
 20
62.1668372490387355
 10
85.8379568270736115
 20
62.1668372490387355
  0
LWPOLYLINE
  5
D3
  8
0
 62
256
370
-1
  6
ByLayer
100
AcDbEntity
100
AcDbPolyline
 90
26
 70
0
 10
28.8290678270736258
 20
106.7579482490387903
 10
41.8112898270736153
 20
115.5068372490388242
 10
73.702401827073615
 20
115.5068372490388384
 10
105.8475128270736434
 20
115.50683724903881
 10
103.0252898270736068
 20
113.249059249038794
 10
100.7675128270736309
 20
111.2735042490388082
 10
78.2179568270736354
 20
111.2735042490388224
 10
55.3579568270736218
 20
111.2735042490388082
 10
53.6646238270736333
 20
109.8623932490387745
 10
51.9712898270736261
 20
108.7335042490387877
 10
74.266845827073638
 20
108.4512812490387716
 10
96.8164018270736335
 20
108.4512812490388001
 10
94.5586238270736317
 20
106.4757262490388001
 10
92.0186238270736112
 20
104.782393249038833
 10
69.1868458270736539
 20
104.7823932490387904
 10
46.3268458270736261
 20
104.7823932490388188
 10
44.0690678270736598
 20
103.371281249038816
 10
42.3757348270736429
 20
101.9601702490388107
 10
65.5179568270736183
 20
101.9601702490387964
 10
88.349734827073604
 20
101.9601702490388107
 10
86.1201788270736301
 20
99.9846152490388675
 10
83.8624018270735974
 20
98.0090592490388133
 10
49.7135128270736431
 20
98.0090592490387991
 10
15.8468458270736097
 20
98.0090592490387991
 10
28.8290678270736258
 20
106.7579482490387903
 10
28.8290678270736258
 20
106.7579482490387903
  0
ENDSEC
  0
SECTION
  2
OBJECTS
  0
DICTIONARY
  5
C
100
AcDbDictionary
280
0
281
1
  3
ACAD_GROUP
350
D
  3
ACAD_LAYOUT
350
1A
  3
ACAD_MLINESTYLE
350
17
  3
ACAD_PLOTSETTINGS
350
19
  3
ACAD_PLOTSTYLENAME
350
E
  3
AcDbVariableDictionary
350
D4
  0
DICTIONARY
  5
D
100
AcDbDictionary
280
0
281
1
  0
ACDBDICTIONARYWDFLT
  5
E
100
AcDbDictionary
281
1
  3
Normal
350
F
100
AcDbDictionaryWithDefault
340
F
  0
ACDBPLACEHOLDER
  5
F
  0
DICTIONARY
  5
17
100
AcDbDictionary
280
0
281
1
  3
Standard
350
18
  0
MLINESTYLE
  5
18
100
AcDbMlineStyle
  2
STANDARD
 70
0
  3

 62
256
 51
90.0
 52
90.0
 71
2
 49
0.5
 62
256
  6
BYLAYER
 49
-0.5
 62
256
  6
BYLAYER
  0
DICTIONARY
  5
19
100
AcDbDictionary
280
0
281
1
  0
DICTIONARY
  5
1A
100
AcDbDictionary
281
1
  3
Layout1
350
1E
  3
Layout2
350
26
  3
Model
350
22
  0
LAYOUT
  5
1E
100
AcDbPlotSettings
  1

  2
C:\Program Files\AutoCAD 2002\plotters\DWF ePlot (optimized for plotting).pc3
  4

  6

 40
0.0
 41
0.0
 42
0.0
 43
0.0
 44
0.0
 45
0.0
 46
0.0
 47
0.0
 48
0.0
 49
0.0
140
0.0
141
0.0
142
1.0
143
1.0
 70
688
 72
0
 73
0
 74
5
  7

 75
16
147
1.0
148
0.0
149
0.0
100
AcDbLayout
  1
Layout1
 70
1
 71
1
 10
0.0
 20
0.0
 11
420.0
 21
297.0
 12
0.0
 22
0.0
 32
0.0
 14
100000000000000000000.0
 24
100000000000000000000.0
 34
100000000000000000000.0
 15
-100000000000000000000.0
 25
-100000000000000000000.0
 35
-100000000000000000000.0
146
0.0
 13
0.0
 23
0.0
 33
0.0
 16
1.0
 26
0.0
 36
0.0
 17
0.0
 27
1.0
 37
0.0
 76
0
330
1B
  0
LAYOUT
  5
22
100
AcDbPlotSettings
  1

  2
C:\Program Files\AutoCAD 2002\plotters\DWF ePlot (optimized for plotting).pc3
  4

  6

 40
0.0
 41
0.0
 42
0.0
 43
0.0
 44
0.0
 45
0.0
 46
0.0
 47
0.0
 48
0.0
 49
0.0
140
0.0
141
0.0
142
1.0
143
1.0
 70
1712
 72
0
 73
0
 74
0
  7

 75
0
147
1.0
148
0.0
149
0.0
100
AcDbLayout
  1
Model
 70
1
 71
0
 10
0.0
 20
0.0
 11
12.0
 21
9.0
 12
0.0
 22
0.0
 32
0.0
 14
0.0
 24
0.0
 34
0.0
 15
0.0
 25
0.0
 35
0.0
146
0.0
 13
0.0
 23
0.0
 33
0.0
 16
1.0
 26
0.0
 36
0.0
 17
0.0
 27
1.0
 37
0.0
 76
0
330
1F
  0
LAYOUT
  5
26
100
AcDbPlotSettings
  1

  2
C:\Program Files\AutoCAD 2002\plotters\DWF ePlot (optimized for plotting).pc3
  4

  6

 40
0.0
 41
0.0
 42
0.0
 43
0.0
 44
0.0
 45
0.0
 46
0.0
 47
0.0
 48
0.0
 49
0.0
140
0.0
141
0.0
142
1.0
143
1.0
 70
688
 72
0
 73
0
 74
5
  7

 75
16
147
1.0
148
0.0
149
0.0
100
AcDbLayout
  1
Layout2
 70
1
 71
2
 10
0.0
 20
0.0
 11
12.0
 21
9.0
 12
0.0
 22
0.0
 32
0.0
 14
0.0
 24
0.0
 34
0.0
 15
0.0
 25
0.0
 35
0.0
146
0.0
 13
0.0
 23
0.0
 33
0.0
 16
1.0
 26
0.0
 36
0.0
 17
0.0
 27
1.0
 37
0.0
 76
0
330
23
  0
DICTIONARY
  5
D4
100
AcDbDictionary
281
1
  3
DIMASSOC
350
D6
  3
HIDETEXT
350
D5
  0
DICTIONARYVAR
  5
D5
100
DictionaryVariables
280
0
  1
2
  0
DICTIONARYVAR
  5
D6
100
DictionaryVariables
280
0
  1
1
  0
ENDSEC
  0
EOF
