999
DXF created by Inkscape
  0
SECTION
  2
HEADER
  9
$ACADVER
  1
AC1014
  9
$HANDSEED
  5
FFFF
  9
$MEASUREMENT
 70
     1
  0
ENDSEC
  0
SECTION
  2
TABLES
  0
TABLE
  2
VPORT
  5
8
330
0
100
AcDbSymbolTable
 70
     4
  0
VPORT
  5
2E
330
8
100
AcDbSymbolTableRecord
100
AcDbViewportTableRecord
  2
*ACTIVE
 70
     0
 10
0.0
 20
0.0
 11
1.0
 21
1.0
 12
210.0
 22
148.5
 13
0.0
 23
0.0
 14
10.0
 24
10.0
 15
10.0
 25
10.0
 16
0.0
 26
0.0
 36
1.0
 17
0.0
 27
0.0
 37
0.0
 40
341.0
 41
1.24
 42
50.0
 43
0.0
 44
0.0
 50
0.0
 51
0.0
 71
     0
 72
   100
 73
     1
 74
     3
 75
     0
 76
     0
 77
     0
 78
     0
  0
ENDTAB
  0
TABLE
  2
LTYPE
  5
5
330
0
100
AcDbSymbolTable
 70
     1
  0
LTYPE
  5
14
330
5
100
AcDbSymbolTableRecord
100
AcDbLinetypeTableRecord
  2
BYBLOCK
 70
     0
  3

 72
    65
 73
     0
 40
0.0
  0
LTYPE
  5
15
330
5
100
AcDbSymbolTableRecord
100
AcDbLinetypeTableRecord
  2
BYLAYER
 70
     0
  3

 72
    65
 73
     0
 40
0.0
  0
LTYPE
  5
16
330
5
100
AcDbSymbolTableRecord
100
AcDbLinetypeTableRecord
  2
CONTINUOUS
 70
     0
  3
Solid line
 72
    65
 73
     0
 40
0.0
  0
ENDTAB
  0
TABLE
  2
LAYER
  5
2
330
0
100
AcDbSymbolTable
 70
1
  0
LAYER
  5
10
330
2
100
AcDbSymbolTableRecord
100
AcDbLayerTableRecord
  2
0
 70
     0
 62
     7
  6
CONTINUOUS
  0
ENDTAB
  0
TABLE
  2
STYLE
  5
3
330
0
100
AcDbSymbolTable
 70
     1
  0
STYLE
  5
11
330
3
100
AcDbSymbolTableRecord
100
AcDbTextStyleTableRecord
  2
STANDARD
 70
     0
 40
0.0
 41
1.0
 50
0.0
 71
     0
 42
2.5
  3
txt
  4

  0
ENDTAB
  0
TABLE
  2
VIEW
  5
6
330
0
100
AcDbSymbolTable
 70
     0
  0
ENDTAB
  0
TABLE
  2
UCS
  5
7
330
0
100
AcDbSymbolTable
 70
     0
  0
ENDTAB
  0
TABLE
  2
APPID
  5
9
330
0
100
AcDbSymbolTable
 70
     2
  0
APPID
  5
12
330
9
100
AcDbSymbolTableRecord
100
AcDbRegAppTableRecord
  2
ACAD
 70
     0
  0
ENDTAB
  0
TABLE
  2
DIMSTYLE
  5
A
330
0
100
AcDbSymbolTable
 70
     1
  0
DIMSTYLE
105
27
330
A
100
AcDbSymbolTableRecord
100
AcDbDimStyleTableRecord
  2
ISO-25
 70
     0
  3

  4

  5

  6

  7

 40
1.0
 41
2.5
 42
0.625
 43
3.75
 44
1.25
 45
0.0
 46
0.0
 47
0.0
 48
0.0
140
2.5
141
2.5
142
0.0
143
0.03937007874016
144
1.0
145
0.0
146
1.0
147
0.625
 71
     0
 72
     0
 73
     0
 74
     0
 75
     0
 76
     0
 77
     1
 78
     8
170
     0
171
     3
172
     1
173
     0
174
     0
175
     0
176
     0
177
     0
178
     0
270
     2
271
     2
272
     2
273
     2
274
     3
340
11
275
     0
280
     0
281
     0
282
     0
283
     0
284
     8
285
     0
286
     0
287
     3
288
     0
  0
ENDTAB
  0
TABLE
  2
BLOCK_RECORD
  5
1
330
0
100
AcDbSymbolTable
 70
     1
  0
BLOCK_RECORD
  5
1F
330
1
100
AcDbSymbolTableRecord
100
AcDbBlockTableRecord
  2
*MODEL_SPACE
  0
BLOCK_RECORD
  5
1B
330
1
100
AcDbSymbolTableRecord
100
AcDbBlockTableRecord
  2
*PAPER_SPACE
  0
ENDTAB
  0
ENDSEC
  0
SECTION
  2
BLOCKS
  0
BLOCK
  5
20
330
1F
100
AcDbEntity
  8
0
100
AcDbBlockBegin
  2
*MODEL_SPACE
 70
     0
 10
0.0
 20
0.0
 30
0.0
  3
*MODEL_SPACE
  1

  0
ENDBLK
  5
21
330
1F
100
AcDbEntity
  8
0
100
AcDbBlockEnd
  0
BLOCK
  5
1C
330
1B
100
AcDbEntity
 67
     1
  8
0
100
AcDbBlockBegin
  2
*PAPER_SPACE
  1

  0
ENDBLK
  5
1D
330
1B
100
AcDbEntity
 67
     1
  8
0
100
AcDbBlockEnd
  0
ENDSEC
  0
SECTION
  2
ENTITIES
  0
SPLINE
  5
100
100
AcDbEntity
  8
0
 62
7
100
AcDbSpline
 70
8
 71
3
 72
8
 73
4
 74
0
 40
0
 40
0
 40
0
 40
0
 40
1
 40
1
 40
1
 40
1
 10
8.720667
 20
290.999333
 30
0.0
 10
7.027333
 20
290.434889
 30
0.0
 10
6.180667
 20
289.870444
 30
0.0
 10
5.334000
 20
288.459333
 30
0.0
  0
LWPOLYLINE
  5
101
100
AcDbEntity
  8
0
 62
7
100
AcDbPolyline
 90
4
 70
0
 10
0.000000
 20
31.891111
 30
0.0
 10
0.000000
 20
296.333333
 30
0.0
 10
1270.000000
 20
296.333333
 30
0.0
 10
1270.000000
 20
31.891111
 30
0.0
  0
SPLINE
  5
102
100
AcDbEntity
  8
0
 62
7
100
AcDbSpline
 70
8
 71
3
 72
8
 73
4
 74
0
 40
0
 40
0
 40
0
 40
0
 40
1
 40
1
 40
1
 40
1
 10
5.334000
 20
265.006667
 30
0.0
 10
6.180667
 20
263.595556
 30
0.0
 10
6.462889
 20
263.313333
 30
0.0
 10
7.591778
 20
263.031111
 30
0.0
  0
LWPOLYLINE
  5
103
100
AcDbEntity
  8
0
 62
7
100
AcDbPolyline
 90
5
 70
0
 10
5.334000
 20
288.459333
 30
0.0
 10
5.051778
 20
287.330444
 30
0.0
 10
5.051778
 20
276.606000
 30
0.0
 10
5.051778
 20
266.417778
 30
0.0
 10
5.334000
 20
265.006667
 30
0.0
  0
SPLINE
  5
104
100
AcDbEntity
  8
0
 62
7
100
AcDbSpline
 70
8
 71
3
 72
8
 73
4
 74
0
 40
0
 40
0
 40
0
 40
0
 40
1
 40
1
 40
1
 40
1
 10
39.793333
 20
263.031111
 30
0.0
 10
40.922222
 20
263.313333
 30
0.0
 10
41.204444
 20
263.877778
 30
0.0
 10
41.486667
 20
264.724444
 30
0.0
  0
SPLINE
  5
105
100
AcDbEntity
  8
0
 62
7
100
AcDbSpline
 70
8
 71
3
 72
8
 73
4
 74
0
 40
0
 40
0
 40
0
 40
0
 40
1
 40
1
 40
1
 40
1
 10
41.486667
 20
264.724444
 30
0.0
 10
42.051111
 20
265.571111
 30
0.0
 10
42.333333
 20
265.853333
 30
0.0
 10
42.333333
 20
272.654889
 30
0.0
  0
LWPOLYLINE
  5
106
100
AcDbEntity
  8
0
 62
7
100
AcDbPolyline
 90
5
 70
0
 10
7.591778
 20
263.031111
 30
0.0
 10
8.720667
 20
262.466667
 30
0.0
 10
23.734889
 20
262.466667
 30
0.0
 10
38.664444
 20
262.466667
 30
0.0
 10
39.793333
 20
263.031111
 30
0.0
  0
SPLINE
  5
107
100
AcDbEntity
  8
0
 62
7
100
AcDbSpline
 70
8
 71
3
 72
8
 73
4
 74
0
 40
0
 40
0
 40
0
 40
0
 40
1
 40
1
 40
1
 40
1
 10
26.020889
 20
291.281556
 30
0.0
 10
16.961556
 20
291.281556
 30
0.0
 10
9.285111
 20
290.999333
 30
0.0
 10
8.720667
 20
290.999333
 30
0.0
  0
LWPOLYLINE
  5
108
100
AcDbEntity
  8
0
 62
7
100
AcDbPolyline
 90
11
 70
0
 10
42.333333
 20
272.654889
 30
0.0
 10
42.333333
 20
279.428222
 30
0.0
 10
27.149778
 20
279.428222
 30
0.0
 10
11.994444
 20
279.428222
 30
0.0
 10
11.994444
 20
282.532667
 30
0.0
 10
11.994444
 20
285.637111
 30
0.0
 10
27.149778
 20
285.637111
 30
0.0
 10
42.333333
 20
285.637111
 30
0.0
 10
42.333333
 20
288.459333
 30
0.0
 10
42.333333
 20
291.281556
 30
0.0
 10
26.020889
 20
291.281556
 30
0.0
  0
LWPOLYLINE
  5
109
100
AcDbEntity
  8
0
 62
7
100
AcDbPolyline
 90
2
 70
0
 10
8.720667
 20
290.999333
 30
0.0
 10
8.720667
 20
290.999333
 30
0.0
  0
SPLINE
  5
10a
100
AcDbEntity
  8
0
 62
7
100
AcDbSpline
 70
8
 71
3
 72
8
 73
4
 74
0
 40
0
 40
0
 40
0
 40
0
 40
1
 40
1
 40
1
 40
1
 10
11.768667
 20
270.397111
 30
0.0
 10
11.768667
 20
272.090444
 30
0.0
 10
11.768667
 20
273.219333
 30
0.0
 10
11.768667
 20
273.501556
 30
0.0
  0
SPLINE
  5
10b
100
AcDbEntity
  8
0
 62
7
100
AcDbSpline
 70
8
 71
3
 72
8
 73
4
 74
0
 40
0
 40
0
 40
0
 40
0
 40
1
 40
1
 40
1
 40
1
 10
11.768667
 20
273.501556
 30
0.0
 10
11.994444
 20
273.783778
 30
0.0
 10
14.252222
 20
273.783778
 30
0.0
 10
23.509111
 20
273.783778
 30
0.0
  0
LWPOLYLINE
  5
10c
100
AcDbEntity
  8
0
 62
7
100
AcDbPolyline
 90
5
 70
0
 10
35.277778
 20
270.679333
 30
0.0
 10
35.277778
 20
267.546667
 30
0.0
 10
23.509111
 20
267.546667
 30
0.0
 10
11.994444
 20
267.546667
 30
0.0
 10
11.768667
 20
270.397111
 30
0.0
  0
LWPOLYLINE
  5
10d
100
AcDbEntity
  8
0
 62
7
100
AcDbPolyline
 90
4
 70
0
 10
23.509111
 20
273.783778
 30
0.0
 10
35.277778
 20
273.783778
 30
0.0
 10
35.277778
 20
270.679333
 30
0.0
 10
35.277778
 20
270.679333
 30
0.0
  0
SPLINE
  5
10e
100
AcDbEntity
  8
0
 62
7
100
AcDbSpline
 70
8
 71
3
 72
8
 73
4
 74
0
 40
0
 40
0
 40
0
 40
0
 40
1
 40
1
 40
1
 40
1
 10
72.248889
 20
266.417778
 30
0.0
 10
76.764444
 20
272.090444
 30
0.0
 10
80.715556
 20
277.170444
 30
0.0
 10
80.715556
 20
276.888222
 30
0.0
  0
SPLINE
  5
10f
100
AcDbEntity
  8
0
 62
7
100
AcDbSpline
 70
8
 71
3
 72
8
 73
4
 74
0
 40
0
 40
0
 40
0
 40
0
 40
1
 40
1
 40
1
 40
1
 10
80.715556
 20
276.888222
 30
0.0
 10
80.715556
 20
276.888222
 30
0.0
 10
84.384444
 20
272.090444
 30
0.0
 10
88.900000
 20
266.417778
 30
0.0
  0
LWPOLYLINE
  5
110
100
AcDbEntity
  8
0
 62
7
100
AcDbPolyline
 90
5
 70
0
 10
57.008889
 20
273.501556
 30
0.0
 10
57.008889
 20
255.693333
 30
0.0
 10
60.677778
 20
255.693333
 30
0.0
 10
64.064444
 20
255.693333
 30
0.0
 10
72.248889
 20
266.417778
 30
0.0
  0
SPLINE
  5
111
100
AcDbEntity
  8
0
 62
7
100
AcDbSpline
 70
8
 71
3
 72
8
 73
4
 74
0
 40
0
 40
0
 40
0
 40
0
 40
1
 40
1
 40
1
 40
1
 10
95.391111
 20
267.264444
 30
0.0
 10
94.826667
 20
268.139333
 30
0.0
 10
91.440000
 20
272.937111
 30
0.0
 10
87.771111
 20
277.734889
 30
0.0
  0
SPLINE
  5
112
100
AcDbEntity
  8
0
 62
7
100
AcDbSpline
 70
8
 71
3
 72
8
 73
4
 74
0
 40
0
 40
0
 40
0
 40
0
 40
1
 40
1
 40
1
 40
1
 10
87.771111
 20
277.734889
 30
0.0
 10
80.997778
 20
287.048222
 30
0.0
 10
80.997778
 20
287.048222
 30
0.0
 10
79.868889
 20
287.048222
 30
0.0
  0
SPLINE
  5
113
100
AcDbEntity
  8
0
 62
7
100
AcDbSpline
 70
8
 71
3
 72
8
 73
4
 74
0
 40
0
 40
0
 40
0
 40
0
 40
1
 40
1
 40
1
 40
1
 10
79.868889
 20
287.048222
 30
0.0
 10
79.304444
 20
287.048222
 30
0.0
 10
79.022222
 20
287.048222
 30
0.0
 10
72.531111
 20
278.017111
 30
0.0
  0
SPLINE
  5
114
100
AcDbEntity
  8
0
 62
7
100
AcDbSpline
 70
8
 71
3
 72
8
 73
4
 74
0
 40
0
 40
0
 40
0
 40
0
 40
1
 40
1
 40
1
 40
1
 10
72.531111
 20
278.017111
 30
0.0
 10
68.580000
 20
273.219333
 30
0.0
 10
65.193333
 20
268.421556
 30
0.0
 10
64.911111
 20
267.546667
 30
0.0
  0
SPLINE
  5
115
100
AcDbEntity
  8
0
 62
7
100
AcDbSpline
 70
8
 71
3
 72
8
 73
4
 74
0
 40
0
 40
0
 40
0
 40
0
 40
1
 40
1
 40
1
 40
1
 10
64.911111
 20
267.546667
 30
0.0
 10
64.346667
 20
266.700000
 30
0.0
 10
64.064444
 20
266.417778
 30
0.0
 10
64.064444
 20
266.135556
 30
0.0
  0
SPLINE
  5
116
100
AcDbEntity
  8
0
 62
7
100
AcDbSpline
 70
8
 71
3
 72
8
 73
4
 74
0
 40
0
 40
0
 40
0
 40
0
 40
1
 40
1
 40
1
 40
1
 10
64.064444
 20
266.135556
 30
0.0
 10
64.064444
 20
266.135556
 30
0.0
 10
64.064444
 20
271.808222
 30
0.0
 10
64.064444
 20
278.863778
 30
0.0
  0
LWPOLYLINE
  5
117
100
AcDbEntity
  8
0
 62
7
100
AcDbPolyline
 90
11
 70
0
 10
88.900000
 20
266.417778
 30
0.0
 10
96.802222
 20
255.693333
 30
0.0
 10
100.188889
 20
255.693333
 30
0.0
 10
103.575556
 20
255.693333
 30
0.0
 10
103.575556
 20
273.501556
 30
0.0
 10
103.575556
 20
291.281556
 30
0.0
 10
99.906667
 20
291.281556
 30
0.0
 10
95.955556
 20
291.281556
 30
0.0
 10
95.955556
 20
278.581556
 30
0.0
 10
96.237778
 20
265.853333
 30
0.0
 10
95.391111
 20
267.264444
 30
0.0
  0
SPLINE
  5
118
100
AcDbEntity
  8
0
 62
7
100
AcDbSpline
 70
8
 71
3
 72
8
 73
4
 74
0
 40
0
 40
0
 40
0
 40
0
 40
1
 40
1
 40
1
 40
1
 10
114.300000
 20
291.281556
 30
0.0
 10
114.300000
 20
290.999333
 30
0.0
 10
118.815556
 20
283.097111
 30
0.0
 10
124.177778
 20
273.219333
 30
0.0
  0
LWPOLYLINE
  5
119
100
AcDbEntity
  8
0
 62
7
100
AcDbPolyline
 90
6
 70
0
 10
64.064444
 20
278.863778
 30
0.0
 10
64.064444
 20
291.281556
 30
0.0
 10
60.677778
 20
291.281556
 30
0.0
 10
57.008889
 20
291.281556
 30
0.0
 10
57.008889
 20
273.501556
 30
0.0
 10
57.008889
 20
273.501556
 30
0.0
  0
SPLINE
  5
11a
100
AcDbEntity
  8
0
 62
7
100
AcDbSpline
 70
8
 71
3
 72
8
 73
4
 74
0
 40
0
 40
0
 40
0
 40
0
 40
1
 40
1
 40
1
 40
1
 10
145.344444
 20
261.620000
 30
0.0
 10
147.602222
 20
265.006667
 30
0.0
 10
152.117778
 20
272.937111
 30
0.0
 10
156.633333
 20
279.146000
 30
0.0
  0
SPLINE
  5
11b
100
AcDbEntity
  8
0
 62
7
100
AcDbSpline
 70
8
 71
3
 72
8
 73
4
 74
0
 40
0
 40
0
 40
0
 40
0
 40
1
 40
1
 40
1
 40
1
 10
156.633333
 20
279.146000
 30
0.0
 10
158.891111
 20
285.637111
 30
0.0
 10
163.406667
 20
291.281556
 30
0.0
 10
163.406667
 20
291.281556
 30
0.0
  0
SPLINE
  5
11c
100
AcDbEntity
  8
0
 62
7
100
AcDbSpline
 70
8
 71
3
 72
8
 73
4
 74
0
 40
0
 40
0
 40
0
 40
0
 40
1
 40
1
 40
1
 40
1
 10
163.406667
 20
291.281556
 30
0.0
 10
163.406667
 20
291.281556
 30
0.0
 10
161.148889
 20
291.281556
 30
0.0
 10
158.891111
 20
291.281556
 30
0.0
  0
LWPOLYLINE
  5
11d
100
AcDbEntity
  8
0
 62
7
100
AcDbPolyline
 90
5
 70
0
 10
124.177778
 20
273.219333
 30
0.0
 10
134.055556
 20
255.693333
 30
0.0
 10
138.571111
 20
255.693333
 30
0.0
 10
143.086667
 20
255.693333
 30
0.0
 10
145.344444
 20
261.620000
 30
0.0
  0
SPLINE
  5
11e
100
AcDbEntity
  8
0
 62
7
100
AcDbSpline
 70
8
 71
3
 72
8
 73
4
 74
0
 40
0
 40
0
 40
0
 40
0
 40
1
 40
1
 40
1
 40
1
 10
118.251111
 20
291.281556
 30
0.0
 10
115.993333
 20
291.281556
 30
0.0
 10
114.300000
 20
291.281556
 30
0.0
 10
114.300000
 20
291.281556
 30
0.0
  0
LWPOLYLINE
  5
11f
100
AcDbEntity
  8
0
 62
7
100
AcDbPolyline
 90
9
 70
0
 10
158.891111
 20
291.281556
 30
0.0
 10
152.117778
 20
291.281556
 30
0.0
 10
152.117778
 20
287.330444
 30
0.0
 10
149.860000
 20
283.379333
 30
0.0
 10
138.571111
 20
283.379333
 30
0.0
 10
127.282222
 20
283.379333
 30
0.0
 10
124.460000
 20
287.330444
 30
0.0
 10
122.484444
 20
291.281556
 30
0.0
 10
118.251111
 20
291.281556
 30
0.0
  0
LWPOLYLINE
  5
120
100
AcDbEntity
  8
0
 62
7
100
AcDbPolyline
 90
2
 70
0
 10
114.300000
 20
291.281556
 30
0.0
 10
114.300000
 20
291.281556
 30
0.0
  0
SPLINE
  5
121
100
AcDbEntity
  8
0
 62
7
100
AcDbSpline
 70
8
 71
3
 72
8
 73
4
 74
0
 40
0
 40
0
 40
0
 40
0
 40
1
 40
1
 40
1
 40
1
 10
138.571111
 20
262.748889
 30
0.0
 10
138.571111
 20
263.031111
 30
0.0
 10
129.540000
 20
276.888222
 30
0.0
 10
129.540000
 20
277.170444
 30
0.0
  0
SPLINE
  5
122
100
AcDbEntity
  8
0
 62
7
100
AcDbSpline
 70
8
 71
3
 72
8
 73
4
 74
0
 40
0
 40
0
 40
0
 40
0
 40
1
 40
1
 40
1
 40
1
 10
129.540000
 20
277.170444
 30
0.0
 10
129.540000
 20
277.170444
 30
0.0
 10
134.055556
 20
277.170444
 30
0.0
 10
138.571111
 20
277.170444
 30
0.0
  0
SPLINE
  5
123
100
AcDbEntity
  8
0
 62
7
100
AcDbSpline
 70
8
 71
3
 72
8
 73
4
 74
0
 40
0
 40
0
 40
0
 40
0
 40
1
 40
1
 40
1
 40
1
 10
138.571111
 20
277.170444
 30
0.0
 10
143.086667
 20
277.170444
 30
0.0
 10
145.344444
 20
277.170444
 30
0.0
 10
145.344444
 20
276.888222
 30
0.0
  0
LWPOLYLINE
  5
124
100
AcDbEntity
  8
0
 62
7
100
AcDbPolyline
 90
2
 70
0
 10
145.344444
 20
276.888222
 30
0.0
 10
138.571111
 20
262.748889
 30
0.0
  0
LWPOLYLINE
  5
125
100
AcDbEntity
  8
0
 62
7
100
AcDbPolyline
 90
2
 70
0
 10
145.344444
 20
276.888222
 30
0.0
 10
145.344444
 20
276.888222
 30
0.0
  0
SPLINE
  5
126
100
AcDbEntity
  8
0
 62
7
100
AcDbSpline
 70
8
 71
3
 72
8
 73
4
 74
0
 40
0
 40
0
 40
0
 40
0
 40
1
 40
1
 40
1
 40
1
 10
202.071111
 20
264.160000
 30
0.0
 10
195.297778
 20
268.703778
 30
0.0
 10
190.782222
 20
272.372667
 30
0.0
 10
190.782222
 20
272.372667
 30
0.0
  0
SPLINE
  5
127
100
AcDbEntity
  8
0
 62
7
100
AcDbSpline
 70
8
 71
3
 72
8
 73
4
 74
0
 40
0
 40
0
 40
0
 40
0
 40
1
 40
1
 40
1
 40
1
 10
190.782222
 20
272.372667
 30
0.0
 10
190.782222
 20
272.654889
 30
0.0
 10
202.071111
 20
280.557111
 30
0.0
 10
211.102222
 20
287.612667
 30
0.0
  0
SPLINE
  5
128
100
AcDbEntity
  8
0
 62
7
100
AcDbSpline
 70
8
 71
3
 72
8
 73
4
 74
0
 40
0
 40
0
 40
0
 40
0
 40
1
 40
1
 40
1
 40
1
 10
211.102222
 20
287.612667
 30
0.0
 10
215.617778
 20
289.306000
 30
0.0
 10
215.617778
 20
290.999333
 30
0.0
 10
215.617778
 20
291.281556
 30
0.0
  0
SPLINE
  5
129
100
AcDbEntity
  8
0
 62
7
100
AcDbSpline
 70
8
 71
3
 72
8
 73
4
 74
0
 40
0
 40
0
 40
0
 40
0
 40
1
 40
1
 40
1
 40
1
 10
215.617778
 20
291.281556
 30
0.0
 10
215.617778
 20
291.281556
 30
0.0
 10
213.360000
 20
291.281556
 30
0.0
 10
211.102222
 20
291.281556
 30
0.0
  0
LWPOLYLINE
  5
12a
100
AcDbEntity
  8
0
 62
7
100
AcDbPolyline
 90
11
 70
0
 10
174.977778
 20
273.501556
 30
0.0
 10
174.977778
 20
255.693333
 30
0.0
 10
177.235556
 20
255.693333
 30
0.0
 10
181.751111
 20
255.693333
 30
0.0
 10
181.751111
 20
263.031111
 30
0.0
 10
181.751111
 20
270.397111
 30
0.0
 10
193.040000
 20
263.031111
 30
0.0
 10
202.071111
 20
255.693333
 30
0.0
 10
208.844444
 20
255.693333
 30
0.0
 10
213.360000
 20
255.975556
 30
0.0
 10
202.071111
 20
264.160000
 30
0.0
  0
SPLINE
  5
12b
100
AcDbEntity
  8
0
 62
7
100
AcDbSpline
 70
8
 71
3
 72
8
 73
4
 74
0
 40
0
 40
0
 40
0
 40
0
 40
1
 40
1
 40
1
 40
1
 10
195.297778
 20
285.637111
 30
0.0
 10
193.040000
 20
282.814889
 30
0.0
 10
186.266667
 20
279.146000
 30
0.0
 10
186.266667
 20
278.017111
 30
0.0
  0
LWPOLYLINE
  5
12c
100
AcDbEntity
  8
0
 62
7
100
AcDbPolyline
 90
3
 70
0
 10
211.102222
 20
291.281556
 30
0.0
 10
204.328889
 20
291.281556
 30
0.0
 10
195.297778
 20
285.637111
 30
0.0
  0
LWPOLYLINE
  5
12d
100
AcDbEntity
  8
0
 62
7
100
AcDbPolyline
 90
8
 70
0
 10
186.266667
 20
278.017111
 30
0.0
 10
181.751111
 20
275.759333
 30
0.0
 10
181.751111
 20
283.379333
 30
0.0
 10
181.751111
 20
291.281556
 30
0.0
 10
177.235556
 20
291.281556
 30
0.0
 10
174.977778
 20
291.281556
 30
0.0
 10
174.977778
 20
273.501556
 30
0.0
 10
174.977778
 20
273.501556
 30
0.0
  0
LWPOLYLINE
  5
12e
100
AcDbEntity
  8
0
 62
7
100
AcDbPolyline
 90
26
 70
0
 10
229.164444
 20
273.501556
 30
0.0
 10
229.164444
 20
255.693333
 30
0.0
 10
247.226667
 20
255.693333
 30
0.0
 10
265.288889
 20
255.693333
 30
0.0
 10
265.288889
 20
258.797778
 30
0.0
 10
265.288889
 20
261.902222
 30
0.0
 10
251.742222
 20
261.902222
 30
0.0
 10
235.937778
 20
261.902222
 30
0.0
 10
235.937778
 20
265.853333
 30
0.0
 10
235.937778
 20
269.832667
 30
0.0
 10
244.968889
 20
269.832667
 30
0.0
 10
254.000000
 20
269.832667
 30
0.0
 10
254.000000
 20
272.937111
 30
0.0
 10
254.000000
 20
275.759333
 30
0.0
 10
244.968889
 20
275.759333
 30
0.0
 10
235.937778
 20
275.759333
 30
0.0
 10
235.937778
 20
280.274889
 30
0.0
 10
235.937778
 20
284.508222
 30
0.0
 10
251.742222
 20
284.508222
 30
0.0
 10
265.288889
 20
284.508222
 30
0.0
 10
265.288889
 20
287.894889
 30
0.0
 10
265.288889
 20
291.281556
 30
0.0
 10
247.226667
 20
291.281556
 30
0.0
 10
229.164444
 20
291.281556
 30
0.0
 10
229.164444
 20
273.501556
 30
0.0
 10
229.164444
 20
273.501556
 30
0.0
  0
SPLINE
  5
12f
100
AcDbEntity
  8
0
 62
7
100
AcDbSpline
 70
8
 71
3
 72
8
 73
4
 74
0
 40
0
 40
0
 40
0
 40
0
 40
1
 40
1
 40
1
 40
1
 10
296.333333
 20
255.693333
 30
0.0
 10
316.088889
 20
255.975556
 30
0.0
 10
316.088889
 20
255.693333
 30
0.0
 10
318.911111
 20
257.668889
 30
0.0
  0
SPLINE
  5
130
100
AcDbEntity
  8
0
 62
7
100
AcDbSpline
 70
8
 71
3
 72
8
 73
4
 74
0
 40
0
 40
0
 40
0
 40
0
 40
1
 40
1
 40
1
 40
1
 10
318.911111
 20
257.668889
 30
0.0
 10
318.911111
 20
259.080000
 30
0.0
 10
318.911111
 20
259.926667
 30
0.0
 10
318.911111
 20
267.546667
 30
0.0
  0
SPLINE
  5
131
100
AcDbEntity
  8
0
 62
7
100
AcDbSpline
 70
8
 71
3
 72
8
 73
4
 74
0
 40
0
 40
0
 40
0
 40
0
 40
1
 40
1
 40
1
 40
1
 10
318.911111
 20
267.546667
 30
0.0
 10
318.911111
 20
274.348222
 30
0.0
 10
318.911111
 20
274.348222
 30
0.0
 10
318.911111
 20
275.759333
 30
0.0
  0
SPLINE
  5
132
100
AcDbEntity
  8
0
 62
7
100
AcDbSpline
 70
8
 71
3
 72
8
 73
4
 74
0
 40
0
 40
0
 40
0
 40
0
 40
1
 40
1
 40
1
 40
1
 10
318.911111
 20
275.759333
 30
0.0
 10
316.088889
 20
277.452667
 30
0.0
 10
316.088889
 20
277.734889
 30
0.0
 10
310.444444
 20
277.734889
 30
0.0
  0
LWPOLYLINE
  5
133
100
AcDbEntity
  8
0
 62
7
100
AcDbPolyline
 90
3
 70
0
 10
281.093333
 20
273.219333
 30
0.0
 10
281.093333
 20
255.693333
 30
0.0
 10
296.333333
 20
255.693333
 30
0.0
  0
SPLINE
  5
134
100
AcDbEntity
  8
0
 62
7
100
AcDbSpline
 70
8
 71
3
 72
8
 73
4
 74
0
 40
0
 40
0
 40
0
 40
0
 40
1
 40
1
 40
1
 40
1
 10
316.088889
 20
284.226000
 30
0.0
 10
318.911111
 20
287.612667
 30
0.0
 10
324.555556
 20
290.434889
 30
0.0
 10
324.555556
 20
290.717111
 30
0.0
  0
SPLINE
  5
135
100
AcDbEntity
  8
0
 62
7
100
AcDbSpline
 70
8
 71
3
 72
8
 73
4
 74
0
 40
0
 40
0
 40
0
 40
0
 40
1
 40
1
 40
1
 40
1
 10
324.555556
 20
290.717111
 30
0.0
 10
324.555556
 20
291.281556
 30
0.0
 10
324.555556
 20
291.281556
 30
0.0
 10
318.911111
 20
291.281556
 30
0.0
  0
LWPOLYLINE
  5
136
100
AcDbEntity
  8
0
 62
7
100
AcDbPolyline
 90
3
 70
0
 10
310.444444
 20
277.734889
 30
0.0
 10
304.800000
 20
278.017111
 30
0.0
 10
316.088889
 20
284.226000
 30
0.0
  0
SPLINE
  5
137
100
AcDbEntity
  8
0
 62
7
100
AcDbSpline
 70
8
 71
3
 72
8
 73
4
 74
0
 40
0
 40
0
 40
0
 40
0
 40
1
 40
1
 40
1
 40
1
 10
310.444444
 20
270.961556
 30
0.0
 10
310.444444
 20
270.397111
 30
0.0
 10
310.444444
 20
270.397111
 30
0.0
 10
310.444444
 20
267.264444
 30
0.0
  0
SPLINE
  5
138
100
AcDbEntity
  8
0
 62
7
100
AcDbSpline
 70
8
 71
3
 72
8
 73
4
 74
0
 40
0
 40
0
 40
0
 40
0
 40
1
 40
1
 40
1
 40
1
 10
310.444444
 20
267.264444
 30
0.0
 10
310.444444
 20
263.595556
 30
0.0
 10
310.444444
 20
263.031111
 30
0.0
 10
310.444444
 20
262.184444
 30
0.0
  0
SPLINE
  5
139
100
AcDbEntity
  8
0
 62
7
100
AcDbSpline
 70
8
 71
3
 72
8
 73
4
 74
0
 40
0
 40
0
 40
0
 40
0
 40
1
 40
1
 40
1
 40
1
 10
310.444444
 20
262.184444
 30
0.0
 10
307.622222
 20
261.902222
 30
0.0
 10
307.622222
 20
261.902222
 30
0.0
 10
299.155556
 20
261.902222
 30
0.0
  0
LWPOLYLINE
  5
13a
100
AcDbEntity
  8
0
 62
7
100
AcDbPolyline
 90
12
 70
0
 10
318.911111
 20
291.281556
 30
0.0
 10
310.444444
 20
291.281556
 30
0.0
 10
304.800000
 20
284.508222
 30
0.0
 10
296.333333
 20
277.734889
 30
0.0
 10
293.511111
 20
277.734889
 30
0.0
 10
287.866667
 20
278.017111
 30
0.0
 10
287.866667
 20
284.508222
 30
0.0
 10
287.866667
 20
291.281556
 30
0.0
 10
285.044444
 20
291.281556
 30
0.0
 10
281.093333
 20
291.281556
 30
0.0
 10
281.093333
 20
273.219333
 30
0.0
 10
281.093333
 20
273.219333
 30
0.0
  0
LWPOLYLINE
  5
13b
100
AcDbEntity
  8
0
 62
7
100
AcDbPolyline
 90
8
 70
0
 10
299.155556
 20
261.902222
 30
0.0
 10
287.866667
 20
261.902222
 30
0.0
 10
287.866667
 20
266.700000
 30
0.0
 10
287.866667
 20
271.808222
 30
0.0
 10
299.155556
 20
271.808222
 30
0.0
 10
310.444444
 20
271.808222
 30
0.0
 10
310.444444
 20
270.961556
 30
0.0
 10
310.444444
 20
270.961556
 30
0.0
  0
LWPOLYLINE
  5
13c
100
AcDbEntity
  8
0
 62
7
100
AcDbPolyline
 90
26
 70
0
 10
-100.753333
 20
257.104444
 30
0.0
 10
-100.753333
 20
223.237778
 30
0.0
 10
-66.886667
 20
223.237778
 30
0.0
 10
-33.020000
 20
223.237778
 30
0.0
 10
-33.020000
 20
231.704444
 30
0.0
 10
-33.020000
 20
239.888889
 30
0.0
 10
-56.444444
 20
239.888889
 30
0.0
 10
-80.151111
 20
239.888889
 30
0.0
 10
-80.151111
 20
245.251111
 30
0.0
 10
-80.151111
 20
250.331111
 30
0.0
 10
-56.444444
 20
250.331111
 30
0.0
 10
-33.020000
 20
250.331111
 30
0.0
 10
-33.020000
 20
257.951111
 30
0.0
 10
-33.020000
 20
265.288889
 30
0.0
 10
-56.444444
 20
265.288889
 30
0.0
 10
-80.151111
 20
265.288889
 30
0.0
 10
-80.151111
 20
270.961556
 30
0.0
 10
-80.151111
 20
276.041556
 30
0.0
 10
-56.444444
 20
276.041556
 30
0.0
 10
-33.020000
 20
276.041556
 30
0.0
 10
-33.020000
 20
283.379333
 30
0.0
 10
-33.020000
 20
290.999333
 30
0.0
 10
-66.886667
 20
290.999333
 30
0.0
 10
-100.753333
 20
290.999333
 30
0.0
 10
-100.753333
 20
257.104444
 30
0.0
 10
-100.753333
 20
257.104444
 30
0.0
  0
SPLINE
  5
13d
100
AcDbEntity
  8
0
 62
7
100
AcDbSpline
 70
8
 71
3
 72
8
 73
4
 74
0
 40
0
 40
0
 40
0
 40
0
 40
1
 40
1
 40
1
 40
1
 10
-18.654889
 20
214.488889
 30
0.0
 10
-12.728222
 20
209.973333
 30
0.0
 10
-7.648222
 20
206.022222
 30
0.0
 10
-7.366000
 20
206.022222
 30
0.0
  0
SPLINE
  5
13e
100
AcDbEntity
  8
0
 62
7
100
AcDbSpline
 70
8
 71
3
 72
8
 73
4
 74
0
 40
0
 40
0
 40
0
 40
0
 40
1
 40
1
 40
1
 40
1
 10
-7.366000
 20
206.022222
 30
0.0
 10
-7.083778
 20
205.740000
 30
0.0
 10
-7.083778
 20
206.586667
 30
0.0
 10
-7.083778
 20
238.760000
 30
0.0
  0
LWPOLYLINE
  5
13f
100
AcDbEntity
  8
0
 62
7
100
AcDbPolyline
 90
3
 70
0
 10
-29.068889
 20
256.540000
 30
0.0
 10
-29.068889
 20
222.955556
 30
0.0
 10
-18.654889
 20
214.488889
 30
0.0
  0
SPLINE
  5
140
100
AcDbEntity
  8
0
 62
7
100
AcDbSpline
 70
8
 71
3
 72
8
 73
4
 74
0
 40
0
 40
0
 40
0
 40
0
 40
1
 40
1
 40
1
 40
1
 10
-10.752667
 20
252.024444
 30
0.0
 10
-10.752667
 20
239.606667
 30
0.0
 10
-10.752667
 20
229.164444
 30
0.0
 10
-11.034889
 20
229.164444
 30
0.0
  0
SPLINE
  5
141
100
AcDbEntity
  8
0
 62
7
100
AcDbSpline
 70
8
 71
3
 72
8
 73
4
 74
0
 40
0
 40
0
 40
0
 40
0
 40
1
 40
1
 40
1
 40
1
 10
-11.034889
 20
229.164444
 30
0.0
 10
-11.034889
 20
229.164444
 30
0.0
 10
-11.881556
 20
229.728889
 30
0.0
 10
-13.010444
 20
230.857778
 30
0.0
  0
LWPOLYLINE
  5
142
100
AcDbEntity
  8
0
 62
7
100
AcDbPolyline
 90
5
 70
0
 10
-7.083778
 20
238.760000
 30
0.0
 10
-7.083778
 20
272.090444
 30
0.0
 10
-8.777111
 20
273.783778
 30
0.0
 10
-10.752667
 20
275.477111
 30
0.0
 10
-10.752667
 20
252.024444
 30
0.0
  0
SPLINE
  5
143
100
AcDbEntity
  8
0
 62
7
100
AcDbSpline
 70
8
 71
3
 72
8
 73
4
 74
0
 40
0
 40
0
 40
0
 40
0
 40
1
 40
1
 40
1
 40
1
 10
-26.274889
 20
287.894889
 30
0.0
 10
-27.686000
 20
289.023778
 30
0.0
 10
-28.786667
 20
290.152667
 30
0.0
 10
-28.786667
 20
290.152667
 30
0.0
  0
SPLINE
  5
144
100
AcDbEntity
  8
0
 62
7
100
AcDbSpline
 70
8
 71
3
 72
8
 73
4
 74
0
 40
0
 40
0
 40
0
 40
0
 40
1
 40
1
 40
1
 40
1
 10
-28.786667
 20
290.152667
 30
0.0
 10
-29.068889
 20
290.152667
 30
0.0
 10
-29.068889
 20
283.379333
 30
0.0
 10
-29.068889
 20
256.540000
 30
0.0
  0
LWPOLYLINE
  5
145
100
AcDbEntity
  8
0
 62
7
100
AcDbPolyline
 90
13
 70
0
 10
-13.010444
 20
230.857778
 30
0.0
 10
-15.268222
 20
232.268889
 30
0.0
 10
-15.268222
 20
255.693333
 30
0.0
 10
-15.268222
 20
279.146000
 30
0.0
 10
-17.526000
 20
280.839333
 30
0.0
 10
-19.783778
 20
282.532667
 30
0.0
 10
-19.783778
 20
259.080000
 30
0.0
 10
-19.783778
 20
235.937778
 30
0.0
 10
-21.759333
 20
237.631111
 30
0.0
 10
-23.734889
 20
239.042222
 30
0.0
 10
-23.734889
 20
262.466667
 30
0.0
 10
-23.734889
 20
285.919333
 30
0.0
 10
-26.274889
 20
287.894889
 30
0.0
  0
LWPOLYLINE
  5
146
100
AcDbEntity
  8
0
 62
7
100
AcDbPolyline
 90
2
 70
0
 10
-29.068889
 20
256.540000
 30
0.0
 10
-29.068889
 20
256.540000
 30
0.0
  0
LWPOLYLINE
  5
147
100
AcDbEntity
  8
0
 62
7
100
AcDbPolyline
 90
26
 70
0
 10
-86.077778
 20
211.948889
 30
0.0
 10
-73.095556
 20
203.200000
 30
0.0
 10
-41.204444
 20
203.200000
 30
0.0
 10
-9.059333
 20
203.200000
 30
0.0
 10
-11.881556
 20
205.457778
 30
0.0
 10
-14.139333
 20
207.433333
 30
0.0
 10
-36.688889
 20
207.433333
 30
0.0
 10
-59.548889
 20
207.433333
 30
0.0
 10
-61.242222
 20
208.844444
 30
0.0
 10
-62.935556
 20
209.973333
 30
0.0
 10
-40.640000
 20
210.255556
 30
0.0
 10
-18.090444
 20
210.255556
 30
0.0
 10
-20.348222
 20
212.231111
 30
0.0
 10
-22.888222
 20
213.924444
 30
0.0
 10
-45.720000
 20
213.924444
 30
0.0
 10
-68.580000
 20
213.924444
 30
0.0
 10
-70.837778
 20
215.335556
 30
0.0
 10
-72.531111
 20
216.746667
 30
0.0
 10
-49.388889
 20
216.746667
 30
0.0
 10
-26.557111
 20
216.746667
 30
0.0
 10
-28.786667
 20
218.722222
 30
0.0
 10
-31.044444
 20
220.697778
 30
0.0
 10
-65.193333
 20
220.697778
 30
0.0
 10
-99.060000
 20
220.697778
 30
0.0
 10
-86.077778
 20
211.948889
 30
0.0
 10
-86.077778
 20
211.948889
 30
0.0
  0
ENDSEC
  0
SECTION
  2
OBJECTS
  0
DICTIONARY
  5
C
330
0
100
AcDbDictionary
  3
ACAD_GROUP
350
D
  3
ACAD_MLINESTYLE
350
17
  0
DICTIONARY
  5
D
330
C
100
AcDbDictionary
  0
DICTIONARY
  5
1A
330
C
100
AcDbDictionary
  0
DICTIONARY
  5
17
330
C
100
AcDbDictionary
  3
STANDARD
350
18
  0
DICTIONARY
  5
19
330
C
100
AcDbDictionary
  0
ENDSEC
  0
EOF
