solid OpenSCAD_Model
  facet normal -0.000000 0.000000 -1.000000
    outer loop
      vertex -25.052559 11.000000 0.000000
      vertex -24.961406 12.041889 0.000000
      vertex -24.961406 9.958111 0.000000
    endloop
  endfacet
  facet normal 0.000000 0.000000 -1.000000
    outer loop
      vertex -24.961406 9.958111 0.000000
      vertex -24.961406 12.041889 0.000000
      vertex -24.690715 13.052121 0.000000
    endloop
  endfacet
  facet normal 0.000000 0.000000 -1.000000
    outer loop
      vertex -24.961406 9.958111 0.000000
      vertex -24.690715 13.052121 0.000000
      vertex -24.248711 14.000000 0.000000
    endloop
  endfacet
  facet normal 0.000000 0.000000 -1.000000
    outer loop
      vertex -24.961406 9.958111 0.000000
      vertex -24.248711 14.000000 0.000000
      vertex -23.648826 14.856726 0.000000
    endloop
  endfacet
  facet normal 0.000000 0.000000 -1.000000
    outer loop
      vertex -24.961406 9.958111 0.000000
      vertex -23.648826 14.856726 0.000000
      vertex -22.909285 15.596267 0.000000
    endloop
  endfacet
  facet normal 0.000000 0.000000 -1.000000
    outer loop
      vertex -24.961406 9.958111 0.000000
      vertex -22.909285 15.596267 0.000000
      vertex -22.052559 16.196152 0.000000
    endloop
  endfacet
  facet normal 0.000000 0.000000 -1.000000
    outer loop
      vertex -24.961406 9.958111 0.000000
      vertex -22.052559 16.196152 0.000000
      vertex -21.104680 16.638156 0.000000
    endloop
  endfacet
  facet normal 0.000000 0.000000 -1.000000
    outer loop
      vertex -24.961406 9.958111 0.000000
      vertex -21.104680 16.638156 0.000000
      vertex -20.094448 16.908847 0.000000
    endloop
  endfacet
  facet normal 0.000000 0.000000 -1.000000
    outer loop
      vertex -24.961406 9.958111 0.000000
      vertex -20.094448 16.908847 0.000000
      vertex -19.052559 17.000000 0.000000
    endloop
  endfacet
  facet normal 0.000000 0.000000 -1.000000
    outer loop
      vertex -24.961406 9.958111 0.000000
      vertex -19.052559 17.000000 0.000000
      vertex -18.010670 16.908847 0.000000
    endloop
  endfacet
  facet normal 0.000000 0.000000 -1.000000
    outer loop
      vertex -20.605473 13.689726 0.000000
      vertex -18.010670 16.908847 0.000000
      vertex -17.000438 16.638156 0.000000
    endloop
  endfacet
  facet normal -0.000000 -0.000000 -1.000000
    outer loop
      vertex -15.946731 11.000000 0.000000
      vertex -16.052559 16.196152 0.000000
      vertex -5.660254 10.196152 0.000000
    endloop
  endfacet
  facet normal -0.000000 0.000000 -1.000000
    outer loop
      vertex -19.052559 7.894172 0.000000
      vertex -5.660254 10.196152 0.000000
      vertex -11.660254 -0.196152 0.000000
    endloop
  endfacet
  facet normal 0.000000 0.000000 -1.000000
    outer loop
      vertex -24.961406 9.958111 0.000000
      vertex -11.660254 -0.196152 0.000000
      vertex -22.052559 5.803848 0.000000
    endloop
  endfacet
  facet normal 0.000000 0.000000 -1.000000
    outer loop
      vertex -24.961406 9.958111 0.000000
      vertex -22.052559 5.803848 0.000000
      vertex -22.909285 6.403733 0.000000
    endloop
  endfacet
  facet normal 0.000000 0.000000 -1.000000
    outer loop
      vertex -24.961406 9.958111 0.000000
      vertex -22.909285 6.403733 0.000000
      vertex -23.648826 7.143274 0.000000
    endloop
  endfacet
  facet normal 0.000000 0.000000 -1.000000
    outer loop
      vertex -24.961406 9.958111 0.000000
      vertex -23.648826 7.143274 0.000000
      vertex -24.248711 8.000000 0.000000
    endloop
  endfacet
  facet normal 0.000000 0.000000 -1.000000
    outer loop
      vertex -24.961406 9.958111 0.000000
      vertex -24.248711 8.000000 0.000000
      vertex -24.690715 8.947879 0.000000
    endloop
  endfacet
  facet normal 0.000000 -0.000000 -1.000000
    outer loop
      vertex -22.158387 11.000000 0.000000
      vertex -24.961406 9.958111 0.000000
      vertex -21.742286 12.552914 0.000000
    endloop
  endfacet
  facet normal 0.000000 0.000000 -1.000000
    outer loop
      vertex -21.742285 9.447086 0.000000
      vertex -24.961406 9.958111 0.000000
      vertex -22.158387 11.000000 0.000000
    endloop
  endfacet
  facet normal 0.000000 0.000000 -1.000000
    outer loop
      vertex -19.052559 7.894172 0.000000
      vertex -11.660254 -0.196152 0.000000
      vertex -20.605473 8.310273 0.000000
    endloop
  endfacet
  facet normal 0.000000 0.000000 -1.000000
    outer loop
      vertex -24.961406 9.958111 0.000000
      vertex -21.742285 9.447086 0.000000
      vertex -20.605473 8.310273 0.000000
    endloop
  endfacet
  facet normal 0.000000 0.000000 -1.000000
    outer loop
      vertex -24.961406 9.958111 0.000000
      vertex -20.605473 8.310273 0.000000
      vertex -11.660254 -0.196152 0.000000
    endloop
  endfacet
  facet normal -0.000000 0.000000 -1.000000
    outer loop
      vertex -17.499645 8.310274 0.000000
      vertex -5.660254 10.196152 0.000000
      vertex -19.052559 7.894172 0.000000
    endloop
  endfacet
  facet normal 0.000000 0.000000 -1.000000
    outer loop
      vertex -15.946731 11.000000 0.000000
      vertex -5.660254 10.196152 0.000000
      vertex -16.362832 9.447085 0.000000
    endloop
  endfacet
  facet normal -0.000000 0.000000 -1.000000
    outer loop
      vertex -16.362832 9.447085 0.000000
      vertex -5.660254 10.196152 0.000000
      vertex -17.499645 8.310274 0.000000
    endloop
  endfacet
  facet normal -0.000000 0.000000 -1.000000
    outer loop
      vertex -16.362833 12.552914 0.000000
      vertex -16.052559 16.196152 0.000000
      vertex -15.946731 11.000000 0.000000
    endloop
  endfacet
  facet normal -0.000000 0.000000 -1.000000
    outer loop
      vertex -19.052559 14.105828 0.000000
      vertex -16.052559 16.196152 0.000000
      vertex -17.499644 13.689727 0.000000
    endloop
  endfacet
  facet normal -0.000000 0.000000 -1.000000
    outer loop
      vertex -17.499644 13.689727 0.000000
      vertex -16.052559 16.196152 0.000000
      vertex -16.362833 12.552914 0.000000
    endloop
  endfacet
  facet normal 0.000000 0.000000 -1.000000
    outer loop
      vertex -20.605473 13.689726 0.000000
      vertex -16.052559 16.196152 0.000000
      vertex -19.052559 14.105828 0.000000
    endloop
  endfacet
  facet normal 0.000000 0.000000 -1.000000
    outer loop
      vertex -24.961406 9.958111 0.000000
      vertex -18.010670 16.908847 0.000000
      vertex -20.605473 13.689726 0.000000
    endloop
  endfacet
  facet normal 0.000000 0.000000 -1.000000
    outer loop
      vertex -20.605473 13.689726 0.000000
      vertex -17.000438 16.638156 0.000000
      vertex -16.052559 16.196152 0.000000
    endloop
  endfacet
  facet normal 0.000000 -0.000000 -1.000000
    outer loop
      vertex -21.742286 12.552914 0.000000
      vertex -24.961406 9.958111 0.000000
      vertex -20.605473 13.689726 0.000000
    endloop
  endfacet
  facet normal -0.996195 0.087155 0.000000
    outer loop
      vertex -25.052559 11.000000 0.000000
      vertex -25.052559 11.000000 12.000000
      vertex -24.961406 12.041889 0.000000
    endloop
  endfacet
  facet normal -0.996195 0.087155 0.000000
    outer loop
      vertex -24.961406 12.041889 0.000000
      vertex -25.052559 11.000000 12.000000
      vertex -24.961406 12.041889 12.000000
    endloop
  endfacet
  facet normal -0.996195 -0.087155 -0.000000
    outer loop
      vertex -25.052559 11.000000 0.000000
      vertex -24.961406 9.958111 0.000000
      vertex -25.052559 11.000000 12.000000
    endloop
  endfacet
  facet normal -0.996195 -0.087155 0.000000
    outer loop
      vertex -25.052559 11.000000 12.000000
      vertex -24.961406 9.958111 0.000000
      vertex -24.961406 9.958111 12.000000
    endloop
  endfacet
  facet normal -0.965926 -0.258819 -0.000000
    outer loop
      vertex -24.961406 9.958111 0.000000
      vertex -24.690715 8.947879 0.000000
      vertex -24.961406 9.958111 12.000000
    endloop
  endfacet
  facet normal -0.965926 -0.258819 0.000000
    outer loop
      vertex -24.961406 9.958111 12.000000
      vertex -24.690715 8.947879 0.000000
      vertex -24.690715 8.947879 12.000000
    endloop
  endfacet
  facet normal -0.906307 -0.422619 -0.000000
    outer loop
      vertex -24.690715 8.947879 0.000000
      vertex -24.248711 8.000000 0.000000
      vertex -24.690715 8.947879 12.000000
    endloop
  endfacet
  facet normal -0.906307 -0.422619 0.000000
    outer loop
      vertex -24.690715 8.947879 12.000000
      vertex -24.248711 8.000000 0.000000
      vertex -24.248711 8.000000 12.000000
    endloop
  endfacet
  facet normal -0.819152 -0.573576 -0.000000
    outer loop
      vertex -24.248711 8.000000 0.000000
      vertex -23.648826 7.143274 0.000000
      vertex -24.248711 8.000000 12.000000
    endloop
  endfacet
  facet normal -0.819152 -0.573576 0.000000
    outer loop
      vertex -24.248711 8.000000 12.000000
      vertex -23.648826 7.143274 0.000000
      vertex -23.648826 7.143274 12.000000
    endloop
  endfacet
  facet normal -0.707107 -0.707107 -0.000000
    outer loop
      vertex -23.648826 7.143274 0.000000
      vertex -22.909285 6.403733 0.000000
      vertex -23.648826 7.143274 12.000000
    endloop
  endfacet
  facet normal -0.707107 -0.707107 0.000000
    outer loop
      vertex -23.648826 7.143274 12.000000
      vertex -22.909285 6.403733 0.000000
      vertex -22.909285 6.403733 12.000000
    endloop
  endfacet
  facet normal -0.573576 -0.819152 0.000000
    outer loop
      vertex -22.909285 6.403733 12.000000
      vertex -22.909285 6.403733 0.000000
      vertex -22.052559 5.803848 0.000000
    endloop
  endfacet
  facet normal -0.573576 -0.819152 0.000000
    outer loop
      vertex -22.052559 5.803848 12.000000
      vertex -22.909285 6.403733 12.000000
      vertex -22.052559 5.803848 0.000000
    endloop
  endfacet
  facet normal -0.500000 -0.866025 -0.000000
    outer loop
      vertex -17.335244 3.080305 3.310274
      vertex -22.052559 5.803848 0.000000
      vertex -11.660254 -0.196152 0.000000
    endloop
  endfacet
  facet normal -0.500000 -0.866025 0.000000
    outer loop
      vertex -22.052559 5.803848 12.000000
      vertex -22.052559 5.803848 0.000000
      vertex -18.319752 3.648711 4.447086
    endloop
  endfacet
  facet normal -0.500000 -0.866025 -0.000000
    outer loop
      vertex -15.990381 2.303848 2.894171
      vertex -17.335244 3.080305 3.310274
      vertex -11.660254 -0.196152 0.000000
    endloop
  endfacet
  facet normal -0.500000 -0.866025 0.000000
    outer loop
      vertex -22.052559 5.803848 12.000000
      vertex -18.319752 3.648711 4.447086
      vertex -18.680108 3.856762 6.000000
    endloop
  endfacet
  facet normal -0.500000 -0.866025 0.000000
    outer loop
      vertex -22.052559 5.803848 12.000000
      vertex -18.680108 3.856762 6.000000
      vertex -18.319752 3.648711 7.552914
    endloop
  endfacet
  facet normal -0.500000 -0.866025 0.000000
    outer loop
      vertex -16.857611 2.804543 9.241250
      vertex -22.052559 5.803848 12.000000
      vertex -17.827498 3.364508 8.121320
    endloop
  endfacet
  facet normal -0.000000 -0.000000 -0.000000
    outer loop
      vertex -14.153264 1.243188 8.121320
      vertex -13.661010 0.958985 7.552914
      vertex -14.153264 1.243187 8.121320
    endloop
  endfacet
  facet normal -0.500000 -0.866025 -0.000000
    outer loop
      vertex -11.660254 -0.196152 12.000000
      vertex -22.052559 5.803848 12.000000
      vertex -16.857611 2.804543 9.241250
    endloop
  endfacet
  facet normal -0.500000 -0.866025 0.000000
    outer loop
      vertex -13.661010 0.958985 4.447086
      vertex -14.645518 1.527391 3.310274
      vertex -11.660254 -0.196152 0.000000
    endloop
  endfacet
  facet normal -0.500000 -0.866025 0.000000
    outer loop
      vertex -11.660254 -0.196152 12.000000
      vertex -15.123151 1.803152 9.241250
      vertex -14.153264 1.243187 8.121320
    endloop
  endfacet
  facet normal -0.500000 -0.866025 -0.000000
    outer loop
      vertex -13.300654 0.750933 6.000000
      vertex -13.661010 0.958985 4.447086
      vertex -11.660254 -0.196152 0.000000
    endloop
  endfacet
  facet normal -0.500000 -0.866025 0.000000
    outer loop
      vertex -11.660254 -0.196152 12.000000
      vertex -13.661010 0.958985 7.552914
      vertex -11.660254 -0.196152 0.000000
    endloop
  endfacet
  facet normal -0.500000 -0.866025 -0.000000
    outer loop
      vertex -11.660254 -0.196152 12.000000
      vertex -14.153264 1.243187 8.121320
      vertex -13.661010 0.958985 7.552914
    endloop
  endfacet
  facet normal -0.500000 -0.866025 0.000000
    outer loop
      vertex -13.661010 0.958985 7.552914
      vertex -13.300654 0.750933 6.000000
      vertex -11.660254 -0.196152 0.000000
    endloop
  endfacet
  facet normal -0.500000 -0.866025 -0.000000
    outer loop
      vertex -18.319752 3.648711 4.447086
      vertex -22.052559 5.803848 0.000000
      vertex -17.335244 3.080305 3.310274
    endloop
  endfacet
  facet normal -0.500000 -0.866025 0.000000
    outer loop
      vertex -14.645518 1.527391 3.310274
      vertex -15.990381 2.303848 2.894171
      vertex -11.660254 -0.196152 0.000000
    endloop
  endfacet
  facet normal -0.500000 -0.866025 -0.000000
    outer loop
      vertex -18.319752 3.648711 7.552914
      vertex -17.827498 3.364508 8.121320
      vertex -22.052559 5.803848 12.000000
    endloop
  endfacet
  facet normal -0.500000 -0.866025 0.000000
    outer loop
      vertex -16.857611 2.804543 9.241250
      vertex -15.123151 1.803152 9.241250
      vertex -11.660254 -0.196152 12.000000
    endloop
  endfacet
  facet normal 0.866025 -0.500000 0.000000
    outer loop
      vertex -11.660254 -0.196152 12.000000
      vertex -11.660254 -0.196152 0.000000
      vertex -5.660254 10.196152 0.000000
    endloop
  endfacet
  facet normal 0.866025 -0.500000 0.000000
    outer loop
      vertex -5.660254 10.196152 12.000000
      vertex -11.660254 -0.196152 12.000000
      vertex -5.660254 10.196152 0.000000
    endloop
  endfacet
  facet normal 0.500000 0.866025 0.000000
    outer loop
      vertex -9.123151 12.195457 9.241250
      vertex -16.052559 16.196152 12.000000
      vertex -5.660254 10.196152 12.000000
    endloop
  endfacet
  facet normal 0.500000 0.866025 0.000000
    outer loop
      vertex -16.052559 16.196152 0.000000
      vertex -16.052559 16.196152 12.000000
      vertex -12.680108 14.249067 6.000000
    endloop
  endfacet
  facet normal 0.500000 0.866025 0.000000
    outer loop
      vertex -16.052559 16.196152 0.000000
      vertex -12.680108 14.249067 6.000000
      vertex -12.319752 14.041015 4.447086
    endloop
  endfacet
  facet normal 0.500000 0.866025 -0.000000
    outer loop
      vertex -16.052559 16.196152 0.000000
      vertex -12.319752 14.041015 4.447086
      vertex -11.335244 13.472609 3.310274
    endloop
  endfacet
  facet normal 0.500000 0.866025 -0.000000
    outer loop
      vertex -16.052559 16.196152 0.000000
      vertex -11.335244 13.472609 3.310274
      vertex -5.660254 10.196152 0.000000
    endloop
  endfacet
  facet normal 0.500000 0.866025 -0.000000
    outer loop
      vertex -8.645518 11.919695 3.310274
      vertex -5.660254 10.196152 0.000000
      vertex -9.990381 12.696152 2.894171
    endloop
  endfacet
  facet normal 0.500000 0.866025 -0.000000
    outer loop
      vertex -7.661010 11.351289 4.447086
      vertex -5.660254 10.196152 0.000000
      vertex -8.645518 11.919695 3.310274
    endloop
  endfacet
  facet normal 0.500000 0.866025 0.000000
    outer loop
      vertex -12.319752 14.041015 7.552914
      vertex -16.052559 16.196152 12.000000
      vertex -11.827498 13.756813 8.121320
    endloop
  endfacet
  facet normal 0.500000 0.866025 0.000000
    outer loop
      vertex -5.660254 10.196152 0.000000
      vertex -7.661010 11.351289 4.447086
      vertex -5.660254 10.196152 12.000000
    endloop
  endfacet
  facet normal 0.000000 0.000000 0.000000
    outer loop
      vertex -12.319752 14.041015 7.552914
      vertex -11.827498 13.756813 8.121320
      vertex -11.827498 13.756812 8.121320
    endloop
  endfacet
  facet normal 0.500000 0.866025 0.000000
    outer loop
      vertex -7.661010 11.351289 4.447086
      vertex -7.300654 11.143238 6.000000
      vertex -5.660254 10.196152 12.000000
    endloop
  endfacet
  facet normal 0.500000 0.866025 -0.000000
    outer loop
      vertex -11.827498 13.756813 8.121320
      vertex -16.052559 16.196152 12.000000
      vertex -10.857611 13.196848 9.241250
    endloop
  endfacet
  facet normal 0.500000 0.866025 -0.000000
    outer loop
      vertex -7.300654 11.143238 6.000000
      vertex -7.661010 11.351289 7.552914
      vertex -5.660254 10.196152 12.000000
    endloop
  endfacet
  facet normal 0.500000 0.866025 -0.000000
    outer loop
      vertex -7.661010 11.351289 7.552914
      vertex -8.153264 11.635492 8.121320
      vertex -5.660254 10.196152 12.000000
    endloop
  endfacet
  facet normal 0.500000 0.866025 -0.000000
    outer loop
      vertex -10.857611 13.196848 9.241250
      vertex -16.052559 16.196152 12.000000
      vertex -9.123151 12.195457 9.241250
    endloop
  endfacet
  facet normal 0.500000 0.866025 0.000000
    outer loop
      vertex -9.123151 12.195457 9.241250
      vertex -5.660254 10.196152 12.000000
      vertex -8.153264 11.635492 8.121320
    endloop
  endfacet
  facet normal 0.500000 0.866025 -0.000000
    outer loop
      vertex -12.680108 14.249067 6.000000
      vertex -16.052559 16.196152 12.000000
      vertex -12.319752 14.041015 7.552914
    endloop
  endfacet
  facet normal 0.500000 0.866025 -0.000000
    outer loop
      vertex -9.990381 12.696152 2.894171
      vertex -5.660254 10.196152 0.000000
      vertex -11.335244 13.472609 3.310274
    endloop
  endfacet
  facet normal 0.422619 0.906308 0.000000
    outer loop
      vertex -17.000438 16.638156 0.000000
      vertex -17.000438 16.638156 12.000000
      vertex -16.052559 16.196152 0.000000
    endloop
  endfacet
  facet normal 0.422619 0.906308 0.000000
    outer loop
      vertex -16.052559 16.196152 0.000000
      vertex -17.000438 16.638156 12.000000
      vertex -16.052559 16.196152 12.000000
    endloop
  endfacet
  facet normal 0.258819 0.965926 0.000000
    outer loop
      vertex -18.010670 16.908847 0.000000
      vertex -18.010670 16.908847 12.000000
      vertex -17.000438 16.638156 0.000000
    endloop
  endfacet
  facet normal 0.258819 0.965926 0.000000
    outer loop
      vertex -17.000438 16.638156 0.000000
      vertex -18.010670 16.908847 12.000000
      vertex -17.000438 16.638156 12.000000
    endloop
  endfacet
  facet normal 0.087155 0.996195 0.000000
    outer loop
      vertex -19.052559 17.000000 0.000000
      vertex -19.052559 17.000000 12.000000
      vertex -18.010670 16.908847 0.000000
    endloop
  endfacet
  facet normal 0.087155 0.996195 0.000000
    outer loop
      vertex -18.010670 16.908847 0.000000
      vertex -19.052559 17.000000 12.000000
      vertex -18.010670 16.908847 12.000000
    endloop
  endfacet
  facet normal -0.087155 0.996195 0.000000
    outer loop
      vertex -20.094448 16.908847 0.000000
      vertex -20.094448 16.908847 12.000000
      vertex -19.052559 17.000000 0.000000
    endloop
  endfacet
  facet normal -0.087155 0.996195 0.000000
    outer loop
      vertex -19.052559 17.000000 0.000000
      vertex -20.094448 16.908847 12.000000
      vertex -19.052559 17.000000 12.000000
    endloop
  endfacet
  facet normal -0.258819 0.965926 0.000000
    outer loop
      vertex -21.104680 16.638156 0.000000
      vertex -21.104680 16.638156 12.000000
      vertex -20.094448 16.908847 0.000000
    endloop
  endfacet
  facet normal -0.258819 0.965926 0.000000
    outer loop
      vertex -20.094448 16.908847 0.000000
      vertex -21.104680 16.638156 12.000000
      vertex -20.094448 16.908847 12.000000
    endloop
  endfacet
  facet normal -0.422619 0.906307 0.000000
    outer loop
      vertex -22.052559 16.196152 0.000000
      vertex -22.052559 16.196152 12.000000
      vertex -21.104680 16.638156 0.000000
    endloop
  endfacet
  facet normal -0.422619 0.906307 0.000000
    outer loop
      vertex -21.104680 16.638156 0.000000
      vertex -22.052559 16.196152 12.000000
      vertex -21.104680 16.638156 12.000000
    endloop
  endfacet
  facet normal -0.573576 0.819152 0.000000
    outer loop
      vertex -22.909285 15.596267 0.000000
      vertex -22.909285 15.596267 12.000000
      vertex -22.052559 16.196152 0.000000
    endloop
  endfacet
  facet normal -0.573576 0.819152 0.000000
    outer loop
      vertex -22.052559 16.196152 0.000000
      vertex -22.909285 15.596267 12.000000
      vertex -22.052559 16.196152 12.000000
    endloop
  endfacet
  facet normal -0.707107 0.707107 0.000000
    outer loop
      vertex -23.648826 14.856726 0.000000
      vertex -23.648826 14.856726 12.000000
      vertex -22.909285 15.596267 0.000000
    endloop
  endfacet
  facet normal -0.707107 0.707107 0.000000
    outer loop
      vertex -22.909285 15.596267 0.000000
      vertex -23.648826 14.856726 12.000000
      vertex -22.909285 15.596267 12.000000
    endloop
  endfacet
  facet normal -0.819152 0.573576 0.000000
    outer loop
      vertex -24.248711 14.000000 0.000000
      vertex -24.248711 14.000000 12.000000
      vertex -23.648826 14.856726 0.000000
    endloop
  endfacet
  facet normal -0.819152 0.573576 0.000000
    outer loop
      vertex -23.648826 14.856726 0.000000
      vertex -24.248711 14.000000 12.000000
      vertex -23.648826 14.856726 12.000000
    endloop
  endfacet
  facet normal -0.906308 0.422619 0.000000
    outer loop
      vertex -24.690715 13.052121 0.000000
      vertex -24.690715 13.052121 12.000000
      vertex -24.248711 14.000000 0.000000
    endloop
  endfacet
  facet normal -0.906308 0.422619 0.000000
    outer loop
      vertex -24.248711 14.000000 0.000000
      vertex -24.690715 13.052121 12.000000
      vertex -24.248711 14.000000 12.000000
    endloop
  endfacet
  facet normal -0.965926 0.258819 0.000000
    outer loop
      vertex -24.961406 12.041889 0.000000
      vertex -24.961406 12.041889 12.000000
      vertex -24.690715 13.052121 0.000000
    endloop
  endfacet
  facet normal -0.965926 0.258819 0.000000
    outer loop
      vertex -24.690715 13.052121 0.000000
      vertex -24.961406 12.041889 12.000000
      vertex -24.690715 13.052121 12.000000
    endloop
  endfacet
  facet normal 0.965926 -0.258818 0.000000
    outer loop
      vertex -21.742286 12.552914 0.000000
      vertex -21.742286 12.552914 12.000000
      vertex -22.158387 11.000000 12.000000
    endloop
  endfacet
  facet normal 0.965926 -0.258818 0.000000
    outer loop
      vertex -22.158387 11.000000 0.000000
      vertex -21.742286 12.552914 0.000000
      vertex -22.158387 11.000000 12.000000
    endloop
  endfacet
  facet normal 0.707106 -0.707107 0.000000
    outer loop
      vertex -20.605473 13.689726 0.000000
      vertex -20.605473 13.689726 12.000000
      vertex -21.742286 12.552914 12.000000
    endloop
  endfacet
  facet normal 0.707106 -0.707107 0.000000
    outer loop
      vertex -21.742286 12.552914 0.000000
      vertex -20.605473 13.689726 0.000000
      vertex -21.742286 12.552914 12.000000
    endloop
  endfacet
  facet normal 0.258819 -0.965926 0.000000
    outer loop
      vertex -19.052559 14.105828 0.000000
      vertex -19.052559 14.105828 12.000000
      vertex -20.605473 13.689726 12.000000
    endloop
  endfacet
  facet normal 0.258819 -0.965926 0.000000
    outer loop
      vertex -20.605473 13.689726 0.000000
      vertex -19.052559 14.105828 0.000000
      vertex -20.605473 13.689726 12.000000
    endloop
  endfacet
  facet normal -0.258818 -0.965926 -0.000000
    outer loop
      vertex -17.499644 13.689727 0.000000
      vertex -17.499644 13.689727 12.000000
      vertex -19.052559 14.105828 12.000000
    endloop
  endfacet
  facet normal -0.258818 -0.965926 -0.000000
    outer loop
      vertex -19.052559 14.105828 0.000000
      vertex -17.499644 13.689727 0.000000
      vertex -19.052559 14.105828 12.000000
    endloop
  endfacet
  facet normal -0.707107 -0.707106 0.000000
    outer loop
      vertex -16.362833 12.552914 12.000000
      vertex -17.499644 13.689727 12.000000
      vertex -16.362833 12.552914 0.000000
    endloop
  endfacet
  facet normal -0.707107 -0.707106 0.000000
    outer loop
      vertex -16.362833 12.552914 0.000000
      vertex -17.499644 13.689727 12.000000
      vertex -17.499644 13.689727 0.000000
    endloop
  endfacet
  facet normal -0.965926 -0.258819 0.000000
    outer loop
      vertex -15.946731 11.000000 12.000000
      vertex -16.362833 12.552914 12.000000
      vertex -15.946731 11.000000 0.000000
    endloop
  endfacet
  facet normal -0.965926 -0.258819 0.000000
    outer loop
      vertex -15.946731 11.000000 0.000000
      vertex -16.362833 12.552914 12.000000
      vertex -16.362833 12.552914 0.000000
    endloop
  endfacet
  facet normal -0.965926 0.258818 0.000000
    outer loop
      vertex -15.946731 11.000000 12.000000
      vertex -15.946731 11.000000 0.000000
      vertex -16.362832 9.447085 12.000000
    endloop
  endfacet
  facet normal -0.965926 0.258818 0.000000
    outer loop
      vertex -16.362832 9.447085 12.000000
      vertex -15.946731 11.000000 0.000000
      vertex -16.362832 9.447085 0.000000
    endloop
  endfacet
  facet normal -0.707106 0.707107 0.000000
    outer loop
      vertex -16.362832 9.447085 12.000000
      vertex -16.362832 9.447085 0.000000
      vertex -17.499645 8.310274 12.000000
    endloop
  endfacet
  facet normal -0.707106 0.707107 0.000000
    outer loop
      vertex -17.499645 8.310274 12.000000
      vertex -16.362832 9.447085 0.000000
      vertex -17.499645 8.310274 0.000000
    endloop
  endfacet
  facet normal -0.258819 0.965926 0.000000
    outer loop
      vertex -17.499645 8.310274 12.000000
      vertex -17.499645 8.310274 0.000000
      vertex -19.052559 7.894172 12.000000
    endloop
  endfacet
  facet normal -0.258819 0.965926 0.000000
    outer loop
      vertex -19.052559 7.894172 12.000000
      vertex -17.499645 8.310274 0.000000
      vertex -19.052559 7.894172 0.000000
    endloop
  endfacet
  facet normal 0.258818 0.965926 -0.000000
    outer loop
      vertex -19.052559 7.894172 12.000000
      vertex -19.052559 7.894172 0.000000
      vertex -20.605473 8.310273 12.000000
    endloop
  endfacet
  facet normal 0.258818 0.965926 -0.000000
    outer loop
      vertex -20.605473 8.310273 12.000000
      vertex -19.052559 7.894172 0.000000
      vertex -20.605473 8.310273 0.000000
    endloop
  endfacet
  facet normal 0.707107 0.707106 0.000000
    outer loop
      vertex -21.742285 9.447086 12.000000
      vertex -20.605473 8.310273 12.000000
      vertex -20.605473 8.310273 0.000000
    endloop
  endfacet
  facet normal 0.707107 0.707106 0.000000
    outer loop
      vertex -21.742285 9.447086 0.000000
      vertex -21.742285 9.447086 12.000000
      vertex -20.605473 8.310273 0.000000
    endloop
  endfacet
  facet normal 0.965926 0.258819 0.000000
    outer loop
      vertex -22.158387 11.000000 12.000000
      vertex -21.742285 9.447086 12.000000
      vertex -21.742285 9.447086 0.000000
    endloop
  endfacet
  facet normal 0.965926 0.258819 0.000000
    outer loop
      vertex -22.158387 11.000000 0.000000
      vertex -22.158387 11.000000 12.000000
      vertex -21.742285 9.447086 0.000000
    endloop
  endfacet
  facet normal 0.000000 0.000000 1.000000
    outer loop
      vertex -24.961406 12.041889 12.000000
      vertex -25.052559 11.000000 12.000000
      vertex -24.961406 9.958111 12.000000
    endloop
  endfacet
  facet normal 0.000000 0.000000 1.000000
    outer loop
      vertex -24.248711 8.000000 12.000000
      vertex -24.961406 12.041889 12.000000
      vertex -24.690715 8.947879 12.000000
    endloop
  endfacet
  facet normal 0.000000 0.000000 1.000000
    outer loop
      vertex -24.690715 8.947879 12.000000
      vertex -24.961406 12.041889 12.000000
      vertex -24.961406 9.958111 12.000000
    endloop
  endfacet
  facet normal 0.000000 0.000000 1.000000
    outer loop
      vertex -23.648826 7.143274 12.000000
      vertex -24.961406 12.041889 12.000000
      vertex -24.248711 8.000000 12.000000
    endloop
  endfacet
  facet normal 0.000000 0.000000 1.000000
    outer loop
      vertex -22.909285 6.403733 12.000000
      vertex -24.961406 12.041889 12.000000
      vertex -23.648826 7.143274 12.000000
    endloop
  endfacet
  facet normal 0.000000 0.000000 1.000000
    outer loop
      vertex -22.052559 5.803848 12.000000
      vertex -24.961406 12.041889 12.000000
      vertex -22.909285 6.403733 12.000000
    endloop
  endfacet
  facet normal 0.000000 0.000000 1.000000
    outer loop
      vertex -11.660254 -0.196152 12.000000
      vertex -24.961406 12.041889 12.000000
      vertex -22.052559 5.803848 12.000000
    endloop
  endfacet
  facet normal -0.000000 -0.000000 1.000000
    outer loop
      vertex -20.605473 8.310273 12.000000
      vertex -24.961406 12.041889 12.000000
      vertex -11.660254 -0.196152 12.000000
    endloop
  endfacet
  facet normal 0.000000 -0.000000 1.000000
    outer loop
      vertex -17.000438 16.638156 12.000000
      vertex -24.961406 12.041889 12.000000
      vertex -16.052559 16.196152 12.000000
    endloop
  endfacet
  facet normal 0.000000 -0.000000 1.000000
    outer loop
      vertex -18.010670 16.908847 12.000000
      vertex -24.961406 12.041889 12.000000
      vertex -17.000438 16.638156 12.000000
    endloop
  endfacet
  facet normal 0.000000 -0.000000 1.000000
    outer loop
      vertex -19.052559 17.000000 12.000000
      vertex -24.961406 12.041889 12.000000
      vertex -18.010670 16.908847 12.000000
    endloop
  endfacet
  facet normal 0.000000 -0.000000 1.000000
    outer loop
      vertex -20.094448 16.908847 12.000000
      vertex -24.961406 12.041889 12.000000
      vertex -19.052559 17.000000 12.000000
    endloop
  endfacet
  facet normal 0.000000 -0.000000 1.000000
    outer loop
      vertex -21.104680 16.638156 12.000000
      vertex -24.961406 12.041889 12.000000
      vertex -20.094448 16.908847 12.000000
    endloop
  endfacet
  facet normal 0.000000 -0.000000 1.000000
    outer loop
      vertex -22.052559 16.196152 12.000000
      vertex -24.961406 12.041889 12.000000
      vertex -21.104680 16.638156 12.000000
    endloop
  endfacet
  facet normal 0.000000 -0.000000 1.000000
    outer loop
      vertex -22.909285 15.596267 12.000000
      vertex -24.961406 12.041889 12.000000
      vertex -22.052559 16.196152 12.000000
    endloop
  endfacet
  facet normal 0.000000 -0.000000 1.000000
    outer loop
      vertex -23.648826 14.856726 12.000000
      vertex -24.961406 12.041889 12.000000
      vertex -22.909285 15.596267 12.000000
    endloop
  endfacet
  facet normal 0.000000 -0.000000 1.000000
    outer loop
      vertex -24.248711 14.000000 12.000000
      vertex -24.961406 12.041889 12.000000
      vertex -23.648826 14.856726 12.000000
    endloop
  endfacet
  facet normal 0.000000 -0.000000 1.000000
    outer loop
      vertex -24.690715 13.052121 12.000000
      vertex -24.961406 12.041889 12.000000
      vertex -24.248711 14.000000 12.000000
    endloop
  endfacet
  facet normal 0.000000 -0.000000 1.000000
    outer loop
      vertex -15.946731 11.000000 12.000000
      vertex -16.362832 9.447085 12.000000
      vertex -5.660254 10.196152 12.000000
    endloop
  endfacet
  facet normal 0.000000 0.000000 1.000000
    outer loop
      vertex -20.605473 13.689726 12.000000
      vertex -24.961406 12.041889 12.000000
      vertex -21.742286 12.552914 12.000000
    endloop
  endfacet
  facet normal 0.000000 0.000000 1.000000
    outer loop
      vertex -17.499644 13.689727 12.000000
      vertex -16.362833 12.552914 12.000000
      vertex -5.660254 10.196152 12.000000
    endloop
  endfacet
  facet normal 0.000000 0.000000 1.000000
    outer loop
      vertex -16.052559 16.196152 12.000000
      vertex -24.961406 12.041889 12.000000
      vertex -20.605473 13.689726 12.000000
    endloop
  endfacet
  facet normal 0.000000 0.000000 1.000000
    outer loop
      vertex -16.362833 12.552914 12.000000
      vertex -15.946731 11.000000 12.000000
      vertex -5.660254 10.196152 12.000000
    endloop
  endfacet
  facet normal 0.000000 -0.000000 1.000000
    outer loop
      vertex -16.052559 16.196152 12.000000
      vertex -17.499644 13.689727 12.000000
      vertex -5.660254 10.196152 12.000000
    endloop
  endfacet
  facet normal 0.000000 0.000000 1.000000
    outer loop
      vertex -16.052559 16.196152 12.000000
      vertex -19.052559 14.105828 12.000000
      vertex -17.499644 13.689727 12.000000
    endloop
  endfacet
  facet normal -0.000000 -0.000000 1.000000
    outer loop
      vertex -19.052559 7.894172 12.000000
      vertex -20.605473 8.310273 12.000000
      vertex -11.660254 -0.196152 12.000000
    endloop
  endfacet
  facet normal 0.000000 0.000000 1.000000
    outer loop
      vertex -20.605473 13.689726 12.000000
      vertex -19.052559 14.105828 12.000000
      vertex -16.052559 16.196152 12.000000
    endloop
  endfacet
  facet normal 0.000000 0.000000 1.000000
    outer loop
      vertex -5.660254 10.196152 12.000000
      vertex -16.362832 9.447085 12.000000
      vertex -11.660254 -0.196152 12.000000
    endloop
  endfacet
  facet normal 0.000000 -0.000000 1.000000
    outer loop
      vertex -16.362832 9.447085 12.000000
      vertex -17.499645 8.310274 12.000000
      vertex -11.660254 -0.196152 12.000000
    endloop
  endfacet
  facet normal 0.000000 -0.000000 1.000000
    outer loop
      vertex -17.499645 8.310274 12.000000
      vertex -19.052559 7.894172 12.000000
      vertex -11.660254 -0.196152 12.000000
    endloop
  endfacet
  facet normal -0.000000 -0.000000 1.000000
    outer loop
      vertex -21.742285 9.447086 12.000000
      vertex -24.961406 12.041889 12.000000
      vertex -20.605473 8.310273 12.000000
    endloop
  endfacet
  facet normal -0.000000 -0.000000 1.000000
    outer loop
      vertex -22.158387 11.000000 12.000000
      vertex -24.961406 12.041889 12.000000
      vertex -21.742285 9.447086 12.000000
    endloop
  endfacet
  facet normal 0.000000 0.000000 1.000000
    outer loop
      vertex -22.158387 11.000000 12.000000
      vertex -21.742286 12.552914 12.000000
      vertex -24.961406 12.041889 12.000000
    endloop
  endfacet
  facet normal 0.836516 -0.482963 0.258820
    outer loop
      vertex -18.319752 3.648711 4.447086
      vertex -12.319752 14.041015 4.447086
      vertex -12.680108 14.249067 6.000000
    endloop
  endfacet
  facet normal 0.836516 -0.482963 0.258820
    outer loop
      vertex -18.680108 3.856762 6.000000
      vertex -18.319752 3.648711 4.447086
      vertex -12.680108 14.249067 6.000000
    endloop
  endfacet
  facet normal 0.612372 -0.353553 0.707107
    outer loop
      vertex -17.335244 3.080305 3.310274
      vertex -11.335244 13.472609 3.310274
      vertex -12.319752 14.041015 4.447086
    endloop
  endfacet
  facet normal 0.612372 -0.353553 0.707107
    outer loop
      vertex -18.319752 3.648711 4.447086
      vertex -17.335244 3.080305 3.310274
      vertex -12.319752 14.041015 4.447086
    endloop
  endfacet
  facet normal 0.224144 -0.129410 0.965926
    outer loop
      vertex -15.990381 2.303848 2.894171
      vertex -9.990381 12.696152 2.894171
      vertex -11.335244 13.472609 3.310274
    endloop
  endfacet
  facet normal 0.224144 -0.129410 0.965926
    outer loop
      vertex -17.335244 3.080305 3.310274
      vertex -15.990381 2.303848 2.894171
      vertex -11.335244 13.472609 3.310274
    endloop
  endfacet
  facet normal -0.224144 0.129410 0.965926
    outer loop
      vertex -14.645518 1.527391 3.310274
      vertex -8.645518 11.919695 3.310274
      vertex -9.990381 12.696152 2.894171
    endloop
  endfacet
  facet normal -0.224144 0.129410 0.965926
    outer loop
      vertex -15.990381 2.303848 2.894171
      vertex -14.645518 1.527391 3.310274
      vertex -9.990381 12.696152 2.894171
    endloop
  endfacet
  facet normal -0.612372 0.353553 0.707107
    outer loop
      vertex -13.661010 0.958985 4.447086
      vertex -7.661010 11.351289 4.447086
      vertex -8.645518 11.919695 3.310274
    endloop
  endfacet
  facet normal -0.612372 0.353553 0.707107
    outer loop
      vertex -14.645518 1.527391 3.310274
      vertex -13.661010 0.958985 4.447086
      vertex -8.645518 11.919695 3.310274
    endloop
  endfacet
  facet normal -0.836516 0.482963 0.258820
    outer loop
      vertex -7.300654 11.143238 6.000000
      vertex -7.661010 11.351289 4.447086
      vertex -13.300654 0.750933 6.000000
    endloop
  endfacet
  facet normal -0.836516 0.482963 0.258820
    outer loop
      vertex -13.300654 0.750933 6.000000
      vertex -7.661010 11.351289 4.447086
      vertex -13.661010 0.958985 4.447086
    endloop
  endfacet
  facet normal -0.836516 0.482963 -0.258820
    outer loop
      vertex -7.300654 11.143238 6.000000
      vertex -13.300654 0.750933 6.000000
      vertex -7.661010 11.351289 7.552914
    endloop
  endfacet
  facet normal -0.836516 0.482963 -0.258820
    outer loop
      vertex -7.661010 11.351289 7.552914
      vertex -13.300654 0.750933 6.000000
      vertex -13.661010 0.958985 7.552914
    endloop
  endfacet
  facet normal -0.612372 0.353553 -0.707107
    outer loop
      vertex -7.661010 11.351289 7.552914
      vertex -13.661010 0.958985 7.552914
      vertex -8.153264 11.635492 8.121320
    endloop
  endfacet
  facet normal -0.612372 0.353553 -0.707107
    outer loop
      vertex -8.153264 11.635492 8.121320
      vertex -13.661010 0.958985 7.552914
      vertex -14.153264 1.243188 8.121320
    endloop
  endfacet
  facet normal -0.612372 0.353553 0.707107
    outer loop
      vertex -14.153264 1.243188 8.121320
      vertex -14.153264 1.243187 8.121320
      vertex -8.153264 11.635492 8.121320
    endloop
  endfacet
  facet normal -0.612372 0.353553 -0.707107
    outer loop
      vertex -8.153264 11.635492 8.121320
      vertex -14.153264 1.243187 8.121320
      vertex -9.123151 12.195457 9.241250
    endloop
  endfacet
  facet normal -0.612372 0.353553 -0.707107
    outer loop
      vertex -9.123151 12.195457 9.241250
      vertex -14.153264 1.243187 8.121320
      vertex -15.123151 1.803152 9.241250
    endloop
  endfacet
  facet normal 0.000000 0.000000 -1.000000
    outer loop
      vertex -9.123151 12.195457 9.241250
      vertex -15.123151 1.803152 9.241250
      vertex -10.857611 13.196848 9.241250
    endloop
  endfacet
  facet normal 0.000000 0.000000 -1.000000
    outer loop
      vertex -10.857611 13.196848 9.241250
      vertex -15.123151 1.803152 9.241250
      vertex -16.857611 2.804543 9.241250
    endloop
  endfacet
  facet normal 0.612372 -0.353553 -0.707107
    outer loop
      vertex -10.857611 13.196848 9.241250
      vertex -16.857611 2.804543 9.241250
      vertex -11.827498 13.756813 8.121320
    endloop
  endfacet
  facet normal 0.612372 -0.353553 -0.707107
    outer loop
      vertex -11.827498 13.756813 8.121320
      vertex -16.857611 2.804543 9.241250
      vertex -17.827498 3.364508 8.121320
    endloop
  endfacet
  facet normal 0.612372 -0.353553 0.707107
    outer loop
      vertex -17.827498 3.364508 8.121320
      vertex -11.827498 13.756812 8.121320
      vertex -11.827498 13.756813 8.121320
    endloop
  endfacet
  facet normal 0.612372 -0.353553 -0.707107
    outer loop
      vertex -11.827498 13.756812 8.121320
      vertex -17.827498 3.364508 8.121320
      vertex -12.319752 14.041015 7.552914
    endloop
  endfacet
  facet normal 0.612372 -0.353553 -0.707107
    outer loop
      vertex -12.319752 14.041015 7.552914
      vertex -17.827498 3.364508 8.121320
      vertex -18.319752 3.648711 7.552914
    endloop
  endfacet
  facet normal 0.836516 -0.482963 -0.258820
    outer loop
      vertex -12.680108 14.249067 6.000000
      vertex -12.319752 14.041015 7.552914
      vertex -18.319752 3.648711 7.552914
    endloop
  endfacet
  facet normal 0.836516 -0.482963 -0.258820
    outer loop
      vertex -18.680108 3.856762 6.000000
      vertex -12.680108 14.249067 6.000000
      vertex -18.319752 3.648711 7.552914
    endloop
  endfacet
  facet normal -0.500000 0.866025 0.000000
    outer loop
      vertex 9.123151 12.195457 9.241250
      vertex 5.660254 10.196152 12.000000
      vertex 10.857611 13.196848 9.241250
    endloop
  endfacet
  facet normal -0.500000 0.866025 -0.000000
    outer loop
      vertex 8.645518 11.919695 3.310274
      vertex 16.052559 16.196152 0.000000
      vertex 5.660254 10.196152 0.000000
    endloop
  endfacet
  facet normal -0.500000 0.866025 -0.000000
    outer loop
      vertex 12.319752 14.041015 4.447086
      vertex 16.052559 16.196152 0.000000
      vertex 11.335244 13.472609 3.310274
    endloop
  endfacet
  facet normal -0.500000 0.866025 0.000000
    outer loop
      vertex 5.660254 10.196152 12.000000
      vertex 7.300654 11.143238 6.000000
      vertex 5.660254 10.196152 0.000000
    endloop
  endfacet
  facet normal -0.500000 0.866025 0.000000
    outer loop
      vertex 7.300654 11.143238 6.000000
      vertex 7.661010 11.351289 4.447086
      vertex 5.660254 10.196152 0.000000
    endloop
  endfacet
  facet normal -0.500000 0.866025 0.000000
    outer loop
      vertex 9.990381 12.696152 2.894171
      vertex 16.052559 16.196152 0.000000
      vertex 8.645518 11.919695 3.310274
    endloop
  endfacet
  facet normal -0.500000 0.866025 -0.000000
    outer loop
      vertex 7.661010 11.351289 4.447086
      vertex 8.645518 11.919695 3.310274
      vertex 5.660254 10.196152 0.000000
    endloop
  endfacet
  facet normal -0.500000 0.866025 0.000000
    outer loop
      vertex 16.052559 16.196152 12.000000
      vertex 16.052559 16.196152 0.000000
      vertex 12.319752 14.041015 4.447086
    endloop
  endfacet
  facet normal -0.500000 0.866025 0.000000
    outer loop
      vertex 16.052559 16.196152 12.000000
      vertex 12.319752 14.041015 4.447086
      vertex 12.680108 14.249067 6.000000
    endloop
  endfacet
  facet normal -0.500000 0.866025 -0.000000
    outer loop
      vertex 16.052559 16.196152 12.000000
      vertex 12.680108 14.249067 6.000000
      vertex 12.319752 14.041015 7.552914
    endloop
  endfacet
  facet normal -0.500000 0.866025 0.000000
    outer loop
      vertex 16.052559 16.196152 12.000000
      vertex 12.319752 14.041015 7.552914
      vertex 11.827498 13.756812 8.121320
    endloop
  endfacet
  facet normal -0.000000 0.000000 0.000000
    outer loop
      vertex 16.052559 16.196152 12.000000
      vertex 11.827498 13.756812 8.121320
      vertex 11.827498 13.756813 8.121320
    endloop
  endfacet
  facet normal -0.500000 0.866025 -0.000000
    outer loop
      vertex 16.052559 16.196152 12.000000
      vertex 11.827498 13.756813 8.121320
      vertex 10.857611 13.196848 9.241250
    endloop
  endfacet
  facet normal -0.500000 0.866025 0.000000
    outer loop
      vertex 16.052559 16.196152 12.000000
      vertex 10.857611 13.196848 9.241250
      vertex 5.660254 10.196152 12.000000
    endloop
  endfacet
  facet normal -0.500000 0.866025 0.000000
    outer loop
      vertex 8.153264 11.635492 8.121320
      vertex 5.660254 10.196152 12.000000
      vertex 9.123151 12.195457 9.241250
    endloop
  endfacet
  facet normal -0.500000 0.866025 -0.000000
    outer loop
      vertex 5.660254 10.196152 12.000000
      vertex 8.153264 11.635492 8.121320
      vertex 7.661010 11.351289 7.552914
    endloop
  endfacet
  facet normal -0.500000 0.866025 -0.000000
    outer loop
      vertex 5.660254 10.196152 12.000000
      vertex 7.661010 11.351289 7.552914
      vertex 7.300654 11.143238 6.000000
    endloop
  endfacet
  facet normal -0.500000 0.866025 -0.000000
    outer loop
      vertex 11.335244 13.472609 3.310274
      vertex 16.052559 16.196152 0.000000
      vertex 9.990381 12.696152 2.894171
    endloop
  endfacet
  facet normal -0.866025 -0.500000 0.000000
    outer loop
      vertex 11.660254 -0.196152 12.000000
      vertex 5.660254 10.196152 12.000000
      vertex 11.660254 -0.196152 0.000000
    endloop
  endfacet
  facet normal -0.866025 -0.500000 0.000000
    outer loop
      vertex 11.660254 -0.196152 0.000000
      vertex 5.660254 10.196152 12.000000
      vertex 5.660254 10.196152 0.000000
    endloop
  endfacet
  facet normal -0.000000 0.000000 -1.000000
    outer loop
      vertex 17.000438 16.638156 0.000000
      vertex 18.010670 16.908847 0.000000
      vertex 16.052559 16.196152 0.000000
    endloop
  endfacet
  facet normal 0.000000 0.000000 -1.000000
    outer loop
      vertex 16.052559 16.196152 0.000000
      vertex 18.010670 16.908847 0.000000
      vertex 19.052559 17.000000 0.000000
    endloop
  endfacet
  facet normal 0.000000 0.000000 -1.000000
    outer loop
      vertex 16.052559 16.196152 0.000000
      vertex 19.052559 17.000000 0.000000
      vertex 20.094448 16.908847 0.000000
    endloop
  endfacet
  facet normal 0.000000 0.000000 -1.000000
    outer loop
      vertex 16.052559 16.196152 0.000000
      vertex 20.094448 16.908847 0.000000
      vertex 21.104680 16.638156 0.000000
    endloop
  endfacet
  facet normal -0.000000 0.000000 -1.000000
    outer loop
      vertex 16.052559 16.196152 0.000000
      vertex 21.104680 16.638156 0.000000
      vertex 22.052559 16.196152 0.000000
    endloop
  endfacet
  facet normal 0.000000 0.000000 -1.000000
    outer loop
      vertex 16.052559 16.196152 0.000000
      vertex 22.052559 16.196152 0.000000
      vertex 22.909285 15.596267 0.000000
    endloop
  endfacet
  facet normal 0.000000 0.000000 -1.000000
    outer loop
      vertex 16.052559 16.196152 0.000000
      vertex 22.909285 15.596267 0.000000
      vertex 23.648826 14.856726 0.000000
    endloop
  endfacet
  facet normal 0.000000 0.000000 -1.000000
    outer loop
      vertex 16.052559 16.196152 0.000000
      vertex 23.648826 14.856726 0.000000
      vertex 24.248711 14.000000 0.000000
    endloop
  endfacet
  facet normal 0.000000 0.000000 -1.000000
    outer loop
      vertex 16.052559 16.196152 0.000000
      vertex 24.248711 14.000000 0.000000
      vertex 24.690715 13.052121 0.000000
    endloop
  endfacet
  facet normal 0.000000 0.000000 -1.000000
    outer loop
      vertex 16.052559 16.196152 0.000000
      vertex 24.690715 13.052121 0.000000
      vertex 24.961406 12.041889 0.000000
    endloop
  endfacet
  facet normal 0.000000 0.000000 -1.000000
    outer loop
      vertex 20.605473 13.689726 0.000000
      vertex 24.961406 12.041889 0.000000
      vertex 25.052559 11.000000 0.000000
    endloop
  endfacet
  facet normal 0.000000 0.000000 -1.000000
    outer loop
      vertex 21.742286 12.552914 0.000000
      vertex 25.052559 11.000000 0.000000
      vertex 24.961406 9.958111 0.000000
    endloop
  endfacet
  facet normal 0.000000 0.000000 -1.000000
    outer loop
      vertex 22.158387 11.000000 0.000000
      vertex 24.690715 8.947879 0.000000
      vertex 24.248711 8.000000 0.000000
    endloop
  endfacet
  facet normal 0.000000 0.000000 -1.000000
    outer loop
      vertex 21.742285 9.447086 0.000000
      vertex 24.248711 8.000000 0.000000
      vertex 23.648826 7.143274 0.000000
    endloop
  endfacet
  facet normal 0.000000 0.000000 -1.000000
    outer loop
      vertex 20.605473 8.310273 0.000000
      vertex 22.909285 6.403733 0.000000
      vertex 22.052559 5.803848 0.000000
    endloop
  endfacet
  facet normal 0.000000 0.000000 -1.000000
    outer loop
      vertex 17.499645 8.310274 0.000000
      vertex 22.052559 5.803848 0.000000
      vertex 11.660254 -0.196152 0.000000
    endloop
  endfacet
  facet normal 0.000000 0.000000 -1.000000
    outer loop
      vertex 16.052559 16.196152 0.000000
      vertex 11.660254 -0.196152 0.000000
      vertex 5.660254 10.196152 0.000000
    endloop
  endfacet
  facet normal 0.000000 0.000000 -1.000000
    outer loop
      vertex 20.605473 8.310273 0.000000
      vertex 22.052559 5.803848 0.000000
      vertex 19.052559 7.894172 0.000000
    endloop
  endfacet
  facet normal 0.000000 0.000000 -1.000000
    outer loop
      vertex 15.946731 11.000000 0.000000
      vertex 16.362832 9.447085 0.000000
      vertex 11.660254 -0.196152 0.000000
    endloop
  endfacet
  facet normal 0.000000 -0.000000 -1.000000
    outer loop
      vertex 16.362833 12.552914 0.000000
      vertex 16.052559 16.196152 0.000000
      vertex 17.499644 13.689727 0.000000
    endloop
  endfacet
  facet normal 0.000000 0.000000 -1.000000
    outer loop
      vertex 16.362832 9.447085 0.000000
      vertex 17.499645 8.310274 0.000000
      vertex 11.660254 -0.196152 0.000000
    endloop
  endfacet
  facet normal 0.000000 0.000000 -1.000000
    outer loop
      vertex 21.742285 9.447086 0.000000
      vertex 23.648826 7.143274 0.000000
      vertex 22.909285 6.403733 0.000000
    endloop
  endfacet
  facet normal 0.000000 0.000000 -1.000000
    outer loop
      vertex 21.742286 12.552914 0.000000
      vertex 24.690715 8.947879 0.000000
      vertex 22.158387 11.000000 0.000000
    endloop
  endfacet
  facet normal 0.000000 0.000000 -1.000000
    outer loop
      vertex 22.158387 11.000000 0.000000
      vertex 24.248711 8.000000 0.000000
      vertex 21.742285 9.447086 0.000000
    endloop
  endfacet
  facet normal 0.000000 0.000000 -1.000000
    outer loop
      vertex 21.742286 12.552914 0.000000
      vertex 24.961406 9.958111 0.000000
      vertex 24.690715 8.947879 0.000000
    endloop
  endfacet
  facet normal 0.000000 0.000000 -1.000000
    outer loop
      vertex 20.605473 13.689726 0.000000
      vertex 25.052559 11.000000 0.000000
      vertex 21.742286 12.552914 0.000000
    endloop
  endfacet
  facet normal 0.000000 0.000000 -1.000000
    outer loop
      vertex 16.052559 16.196152 0.000000
      vertex 24.961406 12.041889 0.000000
      vertex 20.605473 13.689726 0.000000
    endloop
  endfacet
  facet normal -0.000000 -0.000000 -1.000000
    outer loop
      vertex 19.052559 14.105828 0.000000
      vertex 16.052559 16.196152 0.000000
      vertex 20.605473 13.689726 0.000000
    endloop
  endfacet
  facet normal 0.000000 -0.000000 -1.000000
    outer loop
      vertex 17.499644 13.689727 0.000000
      vertex 16.052559 16.196152 0.000000
      vertex 19.052559 14.105828 0.000000
    endloop
  endfacet
  facet normal 0.000000 0.000000 -1.000000
    outer loop
      vertex 21.742285 9.447086 0.000000
      vertex 22.909285 6.403733 0.000000
      vertex 20.605473 8.310273 0.000000
    endloop
  endfacet
  facet normal 0.000000 0.000000 -1.000000
    outer loop
      vertex 15.946731 11.000000 0.000000
      vertex 16.052559 16.196152 0.000000
      vertex 16.362833 12.552914 0.000000
    endloop
  endfacet
  facet normal 0.000000 0.000000 -1.000000
    outer loop
      vertex 16.052559 16.196152 0.000000
      vertex 15.946731 11.000000 0.000000
      vertex 11.660254 -0.196152 0.000000
    endloop
  endfacet
  facet normal 0.000000 0.000000 -1.000000
    outer loop
      vertex 19.052559 7.894172 0.000000
      vertex 22.052559 5.803848 0.000000
      vertex 17.499645 8.310274 0.000000
    endloop
  endfacet
  facet normal 0.000000 0.000000 1.000000
    outer loop
      vertex 11.660254 -0.196152 12.000000
      vertex 22.052559 5.803848 12.000000
      vertex 22.909285 6.403733 12.000000
    endloop
  endfacet
  facet normal 0.000000 0.000000 1.000000
    outer loop
      vertex 24.248711 8.000000 12.000000
      vertex 11.660254 -0.196152 12.000000
      vertex 23.648826 7.143274 12.000000
    endloop
  endfacet
  facet normal 0.000000 0.000000 1.000000
    outer loop
      vertex 23.648826 7.143274 12.000000
      vertex 11.660254 -0.196152 12.000000
      vertex 22.909285 6.403733 12.000000
    endloop
  endfacet
  facet normal 0.000000 0.000000 1.000000
    outer loop
      vertex 24.690715 8.947879 12.000000
      vertex 11.660254 -0.196152 12.000000
      vertex 24.248711 8.000000 12.000000
    endloop
  endfacet
  facet normal 0.000000 0.000000 1.000000
    outer loop
      vertex 24.961406 9.958111 12.000000
      vertex 11.660254 -0.196152 12.000000
      vertex 24.690715 8.947879 12.000000
    endloop
  endfacet
  facet normal 0.000000 0.000000 1.000000
    outer loop
      vertex 25.052559 11.000000 12.000000
      vertex 11.660254 -0.196152 12.000000
      vertex 24.961406 9.958111 12.000000
    endloop
  endfacet
  facet normal 0.000000 -0.000000 1.000000
    outer loop
      vertex 24.961406 12.041889 12.000000
      vertex 11.660254 -0.196152 12.000000
      vertex 25.052559 11.000000 12.000000
    endloop
  endfacet
  facet normal 0.000000 -0.000000 1.000000
    outer loop
      vertex 20.605473 8.310273 12.000000
      vertex 11.660254 -0.196152 12.000000
      vertex 24.961406 12.041889 12.000000
    endloop
  endfacet
  facet normal 0.000000 0.000000 1.000000
    outer loop
      vertex 20.605473 8.310273 12.000000
      vertex 19.052559 7.894172 12.000000
      vertex 11.660254 -0.196152 12.000000
    endloop
  endfacet
  facet normal 0.000000 0.000000 1.000000
    outer loop
      vertex 20.605473 13.689726 12.000000
      vertex 21.742286 12.552914 12.000000
      vertex 22.909285 15.596267 12.000000
    endloop
  endfacet
  facet normal 0.000000 0.000000 1.000000
    outer loop
      vertex 19.052559 14.105828 12.000000
      vertex 22.052559 16.196152 12.000000
      vertex 21.104680 16.638156 12.000000
    endloop
  endfacet
  facet normal -0.000000 0.000000 1.000000
    outer loop
      vertex 15.946731 11.000000 12.000000
      vertex 16.362833 12.552914 12.000000
      vertex 11.660254 -0.196152 12.000000
    endloop
  endfacet
  facet normal 0.000000 -0.000000 1.000000
    outer loop
      vertex 16.052559 16.196152 12.000000
      vertex 11.660254 -0.196152 12.000000
      vertex 17.000438 16.638156 12.000000
    endloop
  endfacet
  facet normal 0.000000 0.000000 1.000000
    outer loop
      vertex 5.660254 10.196152 12.000000
      vertex 11.660254 -0.196152 12.000000
      vertex 16.052559 16.196152 12.000000
    endloop
  endfacet
  facet normal 0.000000 0.000000 1.000000
    outer loop
      vertex 16.362833 12.552914 12.000000
      vertex 19.052559 17.000000 12.000000
      vertex 18.010670 16.908847 12.000000
    endloop
  endfacet
  facet normal 0.000000 -0.000000 1.000000
    outer loop
      vertex 17.000438 16.638156 12.000000
      vertex 16.362833 12.552914 12.000000
      vertex 18.010670 16.908847 12.000000
    endloop
  endfacet
  facet normal 0.000000 0.000000 1.000000
    outer loop
      vertex 17.000438 16.638156 12.000000
      vertex 11.660254 -0.196152 12.000000
      vertex 16.362833 12.552914 12.000000
    endloop
  endfacet
  facet normal 0.000000 0.000000 1.000000
    outer loop
      vertex 17.499644 13.689727 12.000000
      vertex 20.094448 16.908847 12.000000
      vertex 19.052559 17.000000 12.000000
    endloop
  endfacet
  facet normal 0.000000 -0.000000 1.000000
    outer loop
      vertex 20.094448 16.908847 12.000000
      vertex 19.052559 14.105828 12.000000
      vertex 21.104680 16.638156 12.000000
    endloop
  endfacet
  facet normal 0.000000 -0.000000 1.000000
    outer loop
      vertex 22.052559 16.196152 12.000000
      vertex 20.605473 13.689726 12.000000
      vertex 22.909285 15.596267 12.000000
    endloop
  endfacet
  facet normal 0.000000 -0.000000 1.000000
    outer loop
      vertex 22.909285 15.596267 12.000000
      vertex 21.742286 12.552914 12.000000
      vertex 23.648826 14.856726 12.000000
    endloop
  endfacet
  facet normal 0.000000 -0.000000 1.000000
    outer loop
      vertex 24.248711 14.000000 12.000000
      vertex 22.158387 11.000000 12.000000
      vertex 24.690715 13.052121 12.000000
    endloop
  endfacet
  facet normal 0.000000 -0.000000 1.000000
    outer loop
      vertex 24.690715 13.052121 12.000000
      vertex 21.742285 9.447086 12.000000
      vertex 24.961406 12.041889 12.000000
    endloop
  endfacet
  facet normal 0.000000 -0.000000 1.000000
    outer loop
      vertex 21.742285 9.447086 12.000000
      vertex 20.605473 8.310273 12.000000
      vertex 24.961406 12.041889 12.000000
    endloop
  endfacet
  facet normal -0.000000 0.000000 1.000000
    outer loop
      vertex 17.499645 8.310274 12.000000
      vertex 16.362832 9.447085 12.000000
      vertex 11.660254 -0.196152 12.000000
    endloop
  endfacet
  facet normal -0.000000 0.000000 1.000000
    outer loop
      vertex 19.052559 7.894172 12.000000
      vertex 17.499645 8.310274 12.000000
      vertex 11.660254 -0.196152 12.000000
    endloop
  endfacet
  facet normal 0.000000 -0.000000 1.000000
    outer loop
      vertex 22.158387 11.000000 12.000000
      vertex 21.742285 9.447086 12.000000
      vertex 24.690715 13.052121 12.000000
    endloop
  endfacet
  facet normal 0.000000 0.000000 1.000000
    outer loop
      vertex 21.742286 12.552914 12.000000
      vertex 24.248711 14.000000 12.000000
      vertex 23.648826 14.856726 12.000000
    endloop
  endfacet
  facet normal 0.000000 0.000000 1.000000
    outer loop
      vertex 19.052559 14.105828 12.000000
      vertex 20.605473 13.689726 12.000000
      vertex 22.052559 16.196152 12.000000
    endloop
  endfacet
  facet normal 0.000000 0.000000 1.000000
    outer loop
      vertex 16.362833 12.552914 12.000000
      vertex 17.499644 13.689727 12.000000
      vertex 19.052559 17.000000 12.000000
    endloop
  endfacet
  facet normal 0.000000 0.000000 1.000000
    outer loop
      vertex 21.742286 12.552914 12.000000
      vertex 22.158387 11.000000 12.000000
      vertex 24.248711 14.000000 12.000000
    endloop
  endfacet
  facet normal -0.000000 0.000000 1.000000
    outer loop
      vertex 16.362832 9.447085 12.000000
      vertex 15.946731 11.000000 12.000000
      vertex 11.660254 -0.196152 12.000000
    endloop
  endfacet
  facet normal 0.000000 0.000000 1.000000
    outer loop
      vertex 17.499644 13.689727 12.000000
      vertex 19.052559 14.105828 12.000000
      vertex 20.094448 16.908847 12.000000
    endloop
  endfacet
  facet normal -0.422619 0.906308 0.000000
    outer loop
      vertex 17.000438 16.638156 12.000000
      vertex 17.000438 16.638156 0.000000
      vertex 16.052559 16.196152 12.000000
    endloop
  endfacet
  facet normal -0.422619 0.906308 0.000000
    outer loop
      vertex 16.052559 16.196152 12.000000
      vertex 17.000438 16.638156 0.000000
      vertex 16.052559 16.196152 0.000000
    endloop
  endfacet
  facet normal 0.836516 0.482963 -0.258820
    outer loop
      vertex 13.300654 0.750933 6.000000
      vertex 7.300654 11.143238 6.000000
      vertex 7.661010 11.351289 7.552914
    endloop
  endfacet
  facet normal 0.836516 0.482963 -0.258820
    outer loop
      vertex 13.661010 0.958985 7.552914
      vertex 13.300654 0.750933 6.000000
      vertex 7.661010 11.351289 7.552914
    endloop
  endfacet
  facet normal 0.836516 0.482963 0.258820
    outer loop
      vertex 7.661010 11.351289 4.447086
      vertex 7.300654 11.143238 6.000000
      vertex 13.300654 0.750933 6.000000
    endloop
  endfacet
  facet normal 0.836516 0.482963 0.258820
    outer loop
      vertex 13.661010 0.958985 4.447086
      vertex 7.661010 11.351289 4.447086
      vertex 13.300654 0.750933 6.000000
    endloop
  endfacet
  facet normal 0.612372 0.353553 -0.707107
    outer loop
      vertex 7.661010 11.351289 7.552914
      vertex 8.153264 11.635492 8.121320
      vertex 13.661010 0.958985 7.552914
    endloop
  endfacet
  facet normal 0.612372 0.353553 -0.707107
    outer loop
      vertex 13.661010 0.958985 7.552914
      vertex 8.153264 11.635492 8.121320
      vertex 14.153264 1.243188 8.121320
    endloop
  endfacet
  facet normal 0.612372 0.353553 0.707107
    outer loop
      vertex 14.153264 1.243188 8.121320
      vertex 8.153264 11.635492 8.121320
      vertex 14.153264 1.243187 8.121320
    endloop
  endfacet
  facet normal 0.612372 0.353553 -0.707107
    outer loop
      vertex 8.153264 11.635492 8.121320
      vertex 9.123151 12.195457 9.241250
      vertex 14.153264 1.243187 8.121320
    endloop
  endfacet
  facet normal 0.612372 0.353553 -0.707107
    outer loop
      vertex 14.153264 1.243187 8.121320
      vertex 9.123151 12.195457 9.241250
      vertex 15.123151 1.803152 9.241250
    endloop
  endfacet
  facet normal -0.000000 0.000000 -1.000000
    outer loop
      vertex 9.123151 12.195457 9.241250
      vertex 10.857611 13.196848 9.241250
      vertex 15.123151 1.803152 9.241250
    endloop
  endfacet
  facet normal 0.000000 -0.000000 -1.000000
    outer loop
      vertex 15.123151 1.803152 9.241250
      vertex 10.857611 13.196848 9.241250
      vertex 16.857611 2.804543 9.241250
    endloop
  endfacet
  facet normal -0.612372 -0.353553 -0.707107
    outer loop
      vertex 10.857611 13.196848 9.241250
      vertex 11.827498 13.756813 8.121320
      vertex 16.857611 2.804543 9.241250
    endloop
  endfacet
  facet normal -0.612372 -0.353553 -0.707107
    outer loop
      vertex 16.857611 2.804543 9.241250
      vertex 11.827498 13.756813 8.121320
      vertex 17.827498 3.364508 8.121320
    endloop
  endfacet
  facet normal -0.612372 -0.353553 0.707107
    outer loop
      vertex 11.827498 13.756813 8.121320
      vertex 11.827498 13.756812 8.121320
      vertex 17.827498 3.364508 8.121320
    endloop
  endfacet
  facet normal -0.612372 -0.353553 -0.707107
    outer loop
      vertex 11.827498 13.756812 8.121320
      vertex 12.319752 14.041015 7.552914
      vertex 17.827498 3.364508 8.121320
    endloop
  endfacet
  facet normal -0.612372 -0.353553 -0.707107
    outer loop
      vertex 17.827498 3.364508 8.121320
      vertex 12.319752 14.041015 7.552914
      vertex 18.319752 3.648711 7.552914
    endloop
  endfacet
  facet normal -0.836516 -0.482963 -0.258820
    outer loop
      vertex 12.319752 14.041015 7.552914
      vertex 12.680108 14.249067 6.000000
      vertex 18.319752 3.648711 7.552914
    endloop
  endfacet
  facet normal -0.836516 -0.482963 -0.258820
    outer loop
      vertex 18.319752 3.648711 7.552914
      vertex 12.680108 14.249067 6.000000
      vertex 18.680108 3.856762 6.000000
    endloop
  endfacet
  facet normal -0.836516 -0.482963 0.258820
    outer loop
      vertex 12.319752 14.041015 4.447086
      vertex 18.319752 3.648711 4.447086
      vertex 12.680108 14.249067 6.000000
    endloop
  endfacet
  facet normal -0.836516 -0.482963 0.258820
    outer loop
      vertex 12.680108 14.249067 6.000000
      vertex 18.319752 3.648711 4.447086
      vertex 18.680108 3.856762 6.000000
    endloop
  endfacet
  facet normal -0.612372 -0.353553 0.707107
    outer loop
      vertex 12.319752 14.041015 4.447086
      vertex 11.335244 13.472609 3.310274
      vertex 17.335244 3.080305 3.310274
    endloop
  endfacet
  facet normal -0.612372 -0.353553 0.707107
    outer loop
      vertex 18.319752 3.648711 4.447086
      vertex 12.319752 14.041015 4.447086
      vertex 17.335244 3.080305 3.310274
    endloop
  endfacet
  facet normal -0.224144 -0.129410 0.965926
    outer loop
      vertex 11.335244 13.472609 3.310274
      vertex 9.990381 12.696152 2.894171
      vertex 15.990381 2.303848 2.894171
    endloop
  endfacet
  facet normal -0.224144 -0.129410 0.965926
    outer loop
      vertex 17.335244 3.080305 3.310274
      vertex 11.335244 13.472609 3.310274
      vertex 15.990381 2.303848 2.894171
    endloop
  endfacet
  facet normal 0.224144 0.129410 0.965926
    outer loop
      vertex 9.990381 12.696152 2.894171
      vertex 8.645518 11.919695 3.310274
      vertex 14.645518 1.527391 3.310274
    endloop
  endfacet
  facet normal 0.224144 0.129410 0.965926
    outer loop
      vertex 15.990381 2.303848 2.894171
      vertex 9.990381 12.696152 2.894171
      vertex 14.645518 1.527391 3.310274
    endloop
  endfacet
  facet normal 0.612372 0.353553 0.707107
    outer loop
      vertex 8.645518 11.919695 3.310274
      vertex 7.661010 11.351289 4.447086
      vertex 13.661010 0.958985 4.447086
    endloop
  endfacet
  facet normal 0.612372 0.353553 0.707107
    outer loop
      vertex 14.645518 1.527391 3.310274
      vertex 8.645518 11.919695 3.310274
      vertex 13.661010 0.958985 4.447086
    endloop
  endfacet
  facet normal 0.500000 -0.866025 0.000000
    outer loop
      vertex 15.123151 1.803152 9.241250
      vertex 22.052559 5.803848 12.000000
      vertex 11.660254 -0.196152 12.000000
    endloop
  endfacet
  facet normal 0.500000 -0.866025 0.000000
    outer loop
      vertex 18.680108 3.856762 6.000000
      vertex 18.319752 3.648711 4.447086
      vertex 22.052559 5.803848 0.000000
    endloop
  endfacet
  facet normal 0.500000 -0.866025 0.000000
    outer loop
      vertex 11.660254 -0.196152 0.000000
      vertex 13.661010 0.958985 7.552914
      vertex 11.660254 -0.196152 12.000000
    endloop
  endfacet
  facet normal 0.500000 -0.866025 -0.000000
    outer loop
      vertex 13.661010 0.958985 7.552914
      vertex 14.153264 1.243187 8.121320
      vertex 11.660254 -0.196152 12.000000
    endloop
  endfacet
  facet normal 0.000000 -0.000000 -0.000000
    outer loop
      vertex 13.661010 0.958985 7.552914
      vertex 14.153264 1.243188 8.121320
      vertex 14.153264 1.243187 8.121320
    endloop
  endfacet
  facet normal 0.500000 -0.866025 -0.000000
    outer loop
      vertex 16.857611 2.804543 9.241250
      vertex 22.052559 5.803848 12.000000
      vertex 15.123151 1.803152 9.241250
    endloop
  endfacet
  facet normal 0.500000 -0.866025 0.000000
    outer loop
      vertex 17.827498 3.364508 8.121320
      vertex 22.052559 5.803848 12.000000
      vertex 16.857611 2.804543 9.241250
    endloop
  endfacet
  facet normal 0.500000 -0.866025 -0.000000
    outer loop
      vertex 18.319752 3.648711 7.552914
      vertex 22.052559 5.803848 12.000000
      vertex 17.827498 3.364508 8.121320
    endloop
  endfacet
  facet normal 0.500000 -0.866025 0.000000
    outer loop
      vertex 18.319752 3.648711 7.552914
      vertex 18.680108 3.856762 6.000000
      vertex 22.052559 5.803848 0.000000
    endloop
  endfacet
  facet normal 0.500000 -0.866025 0.000000
    outer loop
      vertex 22.052559 5.803848 0.000000
      vertex 22.052559 5.803848 12.000000
      vertex 18.319752 3.648711 7.552914
    endloop
  endfacet
  facet normal 0.500000 -0.866025 -0.000000
    outer loop
      vertex 18.319752 3.648711 4.447086
      vertex 17.335244 3.080305 3.310274
      vertex 22.052559 5.803848 0.000000
    endloop
  endfacet
  facet normal 0.500000 -0.866025 0.000000
    outer loop
      vertex 11.660254 -0.196152 0.000000
      vertex 22.052559 5.803848 0.000000
      vertex 17.335244 3.080305 3.310274
    endloop
  endfacet
  facet normal 0.500000 -0.866025 -0.000000
    outer loop
      vertex 11.660254 -0.196152 0.000000
      vertex 17.335244 3.080305 3.310274
      vertex 15.990381 2.303848 2.894171
    endloop
  endfacet
  facet normal 0.500000 -0.866025 0.000000
    outer loop
      vertex 11.660254 -0.196152 0.000000
      vertex 15.990381 2.303848 2.894171
      vertex 14.645518 1.527391 3.310274
    endloop
  endfacet
  facet normal 0.500000 -0.866025 0.000000
    outer loop
      vertex 11.660254 -0.196152 0.000000
      vertex 14.645518 1.527391 3.310274
      vertex 13.661010 0.958985 4.447086
    endloop
  endfacet
  facet normal 0.500000 -0.866025 0.000000
    outer loop
      vertex 11.660254 -0.196152 0.000000
      vertex 13.300654 0.750933 6.000000
      vertex 13.661010 0.958985 7.552914
    endloop
  endfacet
  facet normal 0.500000 -0.866025 -0.000000
    outer loop
      vertex 11.660254 -0.196152 0.000000
      vertex 13.661010 0.958985 4.447086
      vertex 13.300654 0.750933 6.000000
    endloop
  endfacet
  facet normal 0.500000 -0.866025 0.000000
    outer loop
      vertex 14.153264 1.243187 8.121320
      vertex 15.123151 1.803152 9.241250
      vertex 11.660254 -0.196152 12.000000
    endloop
  endfacet
  facet normal 0.573576 -0.819152 0.000000
    outer loop
      vertex 22.909285 6.403733 0.000000
      vertex 22.909285 6.403733 12.000000
      vertex 22.052559 5.803848 12.000000
    endloop
  endfacet
  facet normal 0.573576 -0.819152 0.000000
    outer loop
      vertex 22.052559 5.803848 0.000000
      vertex 22.909285 6.403733 0.000000
      vertex 22.052559 5.803848 12.000000
    endloop
  endfacet
  facet normal 0.707107 -0.707107 0.000000
    outer loop
      vertex 23.648826 7.143274 0.000000
      vertex 23.648826 7.143274 12.000000
      vertex 22.909285 6.403733 12.000000
    endloop
  endfacet
  facet normal 0.707107 -0.707107 0.000000
    outer loop
      vertex 22.909285 6.403733 0.000000
      vertex 23.648826 7.143274 0.000000
      vertex 22.909285 6.403733 12.000000
    endloop
  endfacet
  facet normal 0.819152 -0.573576 0.000000
    outer loop
      vertex 24.248711 8.000000 0.000000
      vertex 24.248711 8.000000 12.000000
      vertex 23.648826 7.143274 12.000000
    endloop
  endfacet
  facet normal 0.819152 -0.573576 0.000000
    outer loop
      vertex 23.648826 7.143274 0.000000
      vertex 24.248711 8.000000 0.000000
      vertex 23.648826 7.143274 12.000000
    endloop
  endfacet
  facet normal 0.906307 -0.422619 0.000000
    outer loop
      vertex 24.690715 8.947879 0.000000
      vertex 24.690715 8.947879 12.000000
      vertex 24.248711 8.000000 12.000000
    endloop
  endfacet
  facet normal 0.906307 -0.422619 0.000000
    outer loop
      vertex 24.248711 8.000000 0.000000
      vertex 24.690715 8.947879 0.000000
      vertex 24.248711 8.000000 12.000000
    endloop
  endfacet
  facet normal 0.965926 -0.258819 0.000000
    outer loop
      vertex 24.961406 9.958111 0.000000
      vertex 24.961406 9.958111 12.000000
      vertex 24.690715 8.947879 12.000000
    endloop
  endfacet
  facet normal 0.965926 -0.258819 0.000000
    outer loop
      vertex 24.690715 8.947879 0.000000
      vertex 24.961406 9.958111 0.000000
      vertex 24.690715 8.947879 12.000000
    endloop
  endfacet
  facet normal 0.996195 -0.087155 0.000000
    outer loop
      vertex 25.052559 11.000000 0.000000
      vertex 25.052559 11.000000 12.000000
      vertex 24.961406 9.958111 12.000000
    endloop
  endfacet
  facet normal 0.996195 -0.087155 0.000000
    outer loop
      vertex 24.961406 9.958111 0.000000
      vertex 25.052559 11.000000 0.000000
      vertex 24.961406 9.958111 12.000000
    endloop
  endfacet
  facet normal 0.996195 0.087155 0.000000
    outer loop
      vertex 24.961406 12.041889 12.000000
      vertex 25.052559 11.000000 12.000000
      vertex 25.052559 11.000000 0.000000
    endloop
  endfacet
  facet normal 0.996195 0.087155 0.000000
    outer loop
      vertex 24.961406 12.041889 0.000000
      vertex 24.961406 12.041889 12.000000
      vertex 25.052559 11.000000 0.000000
    endloop
  endfacet
  facet normal 0.965926 0.258819 0.000000
    outer loop
      vertex 24.690715 13.052121 12.000000
      vertex 24.961406 12.041889 12.000000
      vertex 24.961406 12.041889 0.000000
    endloop
  endfacet
  facet normal 0.965926 0.258819 0.000000
    outer loop
      vertex 24.690715 13.052121 0.000000
      vertex 24.690715 13.052121 12.000000
      vertex 24.961406 12.041889 0.000000
    endloop
  endfacet
  facet normal 0.906308 0.422619 0.000000
    outer loop
      vertex 24.248711 14.000000 12.000000
      vertex 24.690715 13.052121 12.000000
      vertex 24.690715 13.052121 0.000000
    endloop
  endfacet
  facet normal 0.906308 0.422619 0.000000
    outer loop
      vertex 24.248711 14.000000 0.000000
      vertex 24.248711 14.000000 12.000000
      vertex 24.690715 13.052121 0.000000
    endloop
  endfacet
  facet normal 0.819152 0.573576 0.000000
    outer loop
      vertex 23.648826 14.856726 12.000000
      vertex 24.248711 14.000000 12.000000
      vertex 24.248711 14.000000 0.000000
    endloop
  endfacet
  facet normal 0.819152 0.573576 0.000000
    outer loop
      vertex 23.648826 14.856726 0.000000
      vertex 23.648826 14.856726 12.000000
      vertex 24.248711 14.000000 0.000000
    endloop
  endfacet
  facet normal 0.707107 0.707107 -0.000000
    outer loop
      vertex 23.648826 14.856726 12.000000
      vertex 23.648826 14.856726 0.000000
      vertex 22.909285 15.596267 12.000000
    endloop
  endfacet
  facet normal 0.707107 0.707107 -0.000000
    outer loop
      vertex 22.909285 15.596267 12.000000
      vertex 23.648826 14.856726 0.000000
      vertex 22.909285 15.596267 0.000000
    endloop
  endfacet
  facet normal 0.573576 0.819152 -0.000000
    outer loop
      vertex 22.909285 15.596267 12.000000
      vertex 22.909285 15.596267 0.000000
      vertex 22.052559 16.196152 12.000000
    endloop
  endfacet
  facet normal 0.573576 0.819152 -0.000000
    outer loop
      vertex 22.052559 16.196152 12.000000
      vertex 22.909285 15.596267 0.000000
      vertex 22.052559 16.196152 0.000000
    endloop
  endfacet
  facet normal 0.422619 0.906307 -0.000000
    outer loop
      vertex 22.052559 16.196152 12.000000
      vertex 22.052559 16.196152 0.000000
      vertex 21.104680 16.638156 12.000000
    endloop
  endfacet
  facet normal 0.422619 0.906307 -0.000000
    outer loop
      vertex 21.104680 16.638156 12.000000
      vertex 22.052559 16.196152 0.000000
      vertex 21.104680 16.638156 0.000000
    endloop
  endfacet
  facet normal 0.258819 0.965926 -0.000000
    outer loop
      vertex 21.104680 16.638156 12.000000
      vertex 21.104680 16.638156 0.000000
      vertex 20.094448 16.908847 12.000000
    endloop
  endfacet
  facet normal 0.258819 0.965926 -0.000000
    outer loop
      vertex 20.094448 16.908847 12.000000
      vertex 21.104680 16.638156 0.000000
      vertex 20.094448 16.908847 0.000000
    endloop
  endfacet
  facet normal 0.087155 0.996195 -0.000000
    outer loop
      vertex 20.094448 16.908847 12.000000
      vertex 20.094448 16.908847 0.000000
      vertex 19.052559 17.000000 12.000000
    endloop
  endfacet
  facet normal 0.087155 0.996195 -0.000000
    outer loop
      vertex 19.052559 17.000000 12.000000
      vertex 20.094448 16.908847 0.000000
      vertex 19.052559 17.000000 0.000000
    endloop
  endfacet
  facet normal -0.087155 0.996195 0.000000
    outer loop
      vertex 19.052559 17.000000 12.000000
      vertex 19.052559 17.000000 0.000000
      vertex 18.010670 16.908847 12.000000
    endloop
  endfacet
  facet normal -0.087155 0.996195 0.000000
    outer loop
      vertex 18.010670 16.908847 12.000000
      vertex 19.052559 17.000000 0.000000
      vertex 18.010670 16.908847 0.000000
    endloop
  endfacet
  facet normal -0.258819 0.965926 0.000000
    outer loop
      vertex 18.010670 16.908847 12.000000
      vertex 18.010670 16.908847 0.000000
      vertex 17.000438 16.638156 12.000000
    endloop
  endfacet
  facet normal -0.258819 0.965926 0.000000
    outer loop
      vertex 17.000438 16.638156 12.000000
      vertex 18.010670 16.908847 0.000000
      vertex 17.000438 16.638156 0.000000
    endloop
  endfacet
  facet normal 0.965926 0.258818 0.000000
    outer loop
      vertex 16.362832 9.447085 0.000000
      vertex 15.946731 11.000000 0.000000
      vertex 15.946731 11.000000 12.000000
    endloop
  endfacet
  facet normal 0.965926 0.258818 -0.000000
    outer loop
      vertex 16.362832 9.447085 12.000000
      vertex 16.362832 9.447085 0.000000
      vertex 15.946731 11.000000 12.000000
    endloop
  endfacet
  facet normal 0.707106 0.707107 0.000000
    outer loop
      vertex 16.362832 9.447085 0.000000
      vertex 16.362832 9.447085 12.000000
      vertex 17.499645 8.310274 0.000000
    endloop
  endfacet
  facet normal 0.707106 0.707107 0.000000
    outer loop
      vertex 17.499645 8.310274 0.000000
      vertex 16.362832 9.447085 12.000000
      vertex 17.499645 8.310274 12.000000
    endloop
  endfacet
  facet normal 0.965926 -0.258819 0.000000
    outer loop
      vertex 15.946731 11.000000 12.000000
      vertex 15.946731 11.000000 0.000000
      vertex 16.362833 12.552914 0.000000
    endloop
  endfacet
  facet normal 0.965926 -0.258819 0.000000
    outer loop
      vertex 16.362833 12.552914 12.000000
      vertex 15.946731 11.000000 12.000000
      vertex 16.362833 12.552914 0.000000
    endloop
  endfacet
  facet normal 0.707107 -0.707106 0.000000
    outer loop
      vertex 16.362833 12.552914 12.000000
      vertex 16.362833 12.552914 0.000000
      vertex 17.499644 13.689727 0.000000
    endloop
  endfacet
  facet normal 0.707107 -0.707106 0.000000
    outer loop
      vertex 17.499644 13.689727 12.000000
      vertex 16.362833 12.552914 12.000000
      vertex 17.499644 13.689727 0.000000
    endloop
  endfacet
  facet normal 0.258818 -0.965926 0.000000
    outer loop
      vertex 17.499644 13.689727 12.000000
      vertex 17.499644 13.689727 0.000000
      vertex 19.052559 14.105828 0.000000
    endloop
  endfacet
  facet normal 0.258818 -0.965926 0.000000
    outer loop
      vertex 19.052559 14.105828 12.000000
      vertex 17.499644 13.689727 12.000000
      vertex 19.052559 14.105828 0.000000
    endloop
  endfacet
  facet normal -0.258819 -0.965926 0.000000
    outer loop
      vertex 19.052559 14.105828 12.000000
      vertex 19.052559 14.105828 0.000000
      vertex 20.605473 13.689726 0.000000
    endloop
  endfacet
  facet normal -0.258819 -0.965926 0.000000
    outer loop
      vertex 20.605473 13.689726 12.000000
      vertex 19.052559 14.105828 12.000000
      vertex 20.605473 13.689726 0.000000
    endloop
  endfacet
  facet normal -0.707106 -0.707107 0.000000
    outer loop
      vertex 20.605473 13.689726 12.000000
      vertex 20.605473 13.689726 0.000000
      vertex 21.742286 12.552914 0.000000
    endloop
  endfacet
  facet normal -0.707106 -0.707107 0.000000
    outer loop
      vertex 21.742286 12.552914 12.000000
      vertex 20.605473 13.689726 12.000000
      vertex 21.742286 12.552914 0.000000
    endloop
  endfacet
  facet normal -0.965926 -0.258818 -0.000000
    outer loop
      vertex 21.742286 12.552914 0.000000
      vertex 22.158387 11.000000 0.000000
      vertex 21.742286 12.552914 12.000000
    endloop
  endfacet
  facet normal -0.965926 -0.258818 0.000000
    outer loop
      vertex 21.742286 12.552914 12.000000
      vertex 22.158387 11.000000 0.000000
      vertex 22.158387 11.000000 12.000000
    endloop
  endfacet
  facet normal -0.965926 0.258819 0.000000
    outer loop
      vertex 21.742285 9.447086 0.000000
      vertex 21.742285 9.447086 12.000000
      vertex 22.158387 11.000000 0.000000
    endloop
  endfacet
  facet normal -0.965926 0.258819 0.000000
    outer loop
      vertex 22.158387 11.000000 0.000000
      vertex 21.742285 9.447086 12.000000
      vertex 22.158387 11.000000 12.000000
    endloop
  endfacet
  facet normal -0.707107 0.707106 0.000000
    outer loop
      vertex 20.605473 8.310273 0.000000
      vertex 20.605473 8.310273 12.000000
      vertex 21.742285 9.447086 0.000000
    endloop
  endfacet
  facet normal -0.707107 0.707106 0.000000
    outer loop
      vertex 21.742285 9.447086 0.000000
      vertex 20.605473 8.310273 12.000000
      vertex 21.742285 9.447086 12.000000
    endloop
  endfacet
  facet normal -0.258818 0.965926 0.000000
    outer loop
      vertex 19.052559 7.894172 0.000000
      vertex 19.052559 7.894172 12.000000
      vertex 20.605473 8.310273 0.000000
    endloop
  endfacet
  facet normal -0.258818 0.965926 0.000000
    outer loop
      vertex 20.605473 8.310273 0.000000
      vertex 19.052559 7.894172 12.000000
      vertex 20.605473 8.310273 12.000000
    endloop
  endfacet
  facet normal 0.258819 0.965926 0.000000
    outer loop
      vertex 17.499645 8.310274 0.000000
      vertex 17.499645 8.310274 12.000000
      vertex 19.052559 7.894172 0.000000
    endloop
  endfacet
  facet normal 0.258819 0.965926 0.000000
    outer loop
      vertex 19.052559 7.894172 0.000000
      vertex 17.499645 8.310274 12.000000
      vertex 19.052559 7.894172 12.000000
    endloop
  endfacet
endsolid OpenSCAD_Model
