solid OpenSCAD_Model
  facet normal -0.707107 0.707107 0.000000
    outer loop
      vertex -5.981187 5.018812 0.000000
      vertex -5.981187 5.018812 8.000000
      vertex -5.000000 6.000000 0.000000
    endloop
  endfacet
  facet normal -0.707107 0.707107 0.000000
    outer loop
      vertex -5.000000 6.000000 0.000000
      vertex -5.981187 5.018812 8.000000
      vertex -5.000000 6.000000 8.000000
    endloop
  endfacet
  facet normal -0.642788 -0.766044 0.000000
    outer loop
      vertex -3.289611 2.760311 6.000000
      vertex -5.981187 5.018812 8.000000
      vertex -3.289611 2.760311 2.000000
    endloop
  endfacet
  facet normal -0.642788 -0.766044 -0.000000
    outer loop
      vertex -2.879682 2.416340 0.000000
      vertex -2.879682 2.416340 2.000000
      vertex -3.289611 2.760311 2.000000
    endloop
  endfacet
  facet normal -0.642788 -0.766044 0.000000
    outer loop
      vertex -3.175049 2.664183 6.000000
      vertex -2.956419 2.480730 7.170598
      vertex -3.289611 2.760311 6.000000
    endloop
  endfacet
  facet normal -0.642788 -0.766044 0.000000
    outer loop
      vertex -5.981187 5.018812 8.000000
      vertex -2.879682 2.416340 0.000000
      vertex -3.289611 2.760311 2.000000
    endloop
  endfacet
  facet normal -0.642788 -0.766044 0.000000
    outer loop
      vertex -2.956419 2.480730 7.170598
      vertex -2.879682 2.416340 7.581469
      vertex -3.289611 2.760311 6.000000
    endloop
  endfacet
  facet normal -0.642788 -0.766044 -0.000000
    outer loop
      vertex -2.879682 2.416340 7.581469
      vertex -2.879682 2.416340 8.000000
      vertex -3.289611 2.760311 6.000000
    endloop
  endfacet
  facet normal -0.642788 -0.766044 -0.000000
    outer loop
      vertex -2.879682 2.416340 8.000000
      vertex -5.981187 5.018812 8.000000
      vertex -3.289611 2.760311 6.000000
    endloop
  endfacet
  facet normal -0.642788 -0.766044 0.000000
    outer loop
      vertex -5.981187 5.018812 8.000000
      vertex -5.981187 5.018812 0.000000
      vertex -2.879682 2.416340 0.000000
    endloop
  endfacet
  facet normal -0.000000 0.000000 -1.000000
    outer loop
      vertex -5.981187 5.018812 0.000000
      vertex -5.000000 6.000000 0.000000
      vertex -2.879682 2.416340 0.000000
    endloop
  endfacet
  facet normal 0.000000 0.000000 -1.000000
    outer loop
      vertex -2.879682 2.416340 0.000000
      vertex -5.000000 6.000000 0.000000
      vertex -4.000000 6.000000 0.000000
    endloop
  endfacet
  facet normal 0.000000 0.000000 -1.000000
    outer loop
      vertex -2.879682 2.416340 0.000000
      vertex -4.000000 6.000000 0.000000
      vertex -4.000000 9.000000 0.000000
    endloop
  endfacet
  facet normal 0.000000 0.000000 -1.000000
    outer loop
      vertex -2.879682 2.416340 0.000000
      vertex -4.000000 9.000000 0.000000
      vertex -3.000000 10.000000 0.000000
    endloop
  endfacet
  facet normal 0.000000 -0.000000 -1.000000
    outer loop
      vertex -2.565298 2.849052 0.000000
      vertex -3.000000 10.000000 0.000000
      vertex 3.000000 10.000000 0.000000
    endloop
  endfacet
  facet normal 0.000000 0.000000 -1.000000
    outer loop
      vertex -2.565298 2.849052 0.000000
      vertex 3.000000 10.000000 0.000000
      vertex 4.000000 9.000000 0.000000
    endloop
  endfacet
  facet normal 0.000000 0.000000 -1.000000
    outer loop
      vertex -2.565298 2.849052 0.000000
      vertex 4.000000 9.000000 0.000000
      vertex -1.184702 3.646139 0.000000
    endloop
  endfacet
  facet normal 0.000000 0.000000 -1.000000
    outer loop
      vertex 0.400739 3.812775 0.000000
      vertex 5.000000 6.000000 0.000000
      vertex 6.000000 5.000000 0.000000
    endloop
  endfacet
  facet normal -0.000000 0.000000 -1.000000
    outer loop
      vertex 3.101591 2.253438 0.000000
      vertex 6.000000 5.000000 0.000000
      vertex 3.437043 1.500000 0.000000
    endloop
  endfacet
  facet normal 0.000000 0.000000 -1.000000
    outer loop
      vertex 3.750000 0.000000 0.000000
      vertex 6.051774 -0.000000 0.000000
      vertex 5.845565 -1.566314 0.000000
    endloop
  endfacet
  facet normal 0.000000 0.000000 -1.000000
    outer loop
      vertex 3.437043 -1.500000 0.000000
      vertex 5.845565 -1.566314 0.000000
      vertex 5.240990 -3.025887 0.000000
    endloop
  endfacet
  facet normal 0.000000 0.000000 -1.000000
    outer loop
      vertex 3.101591 -2.253438 0.000000
      vertex 5.240990 -3.025887 0.000000
      vertex 4.279250 -4.279250 0.000000
    endloop
  endfacet
  facet normal 0.000000 0.000000 -1.000000
    outer loop
      vertex 3.101591 -2.253438 0.000000
      vertex 4.279250 -4.279250 0.000000
      vertex 1.916889 -3.320148 0.000000
    endloop
  endfacet
  facet normal 0.000000 0.000000 -1.000000
    outer loop
      vertex 1.916889 -3.320148 0.000000
      vertex 3.025887 -5.240990 0.000000
      vertex 0.400739 -3.812775 0.000000
    endloop
  endfacet
  facet normal 0.000000 0.000000 -1.000000
    outer loop
      vertex 0.400739 -3.812775 0.000000
      vertex 1.566314 -5.845565 0.000000
      vertex -1.184702 -3.646139 0.000000
    endloop
  endfacet
  facet normal 0.000000 0.000000 -1.000000
    outer loop
      vertex -1.184702 -3.646139 0.000000
      vertex -0.000000 -6.051774 0.000000
      vertex -2.447639 -2.916982 0.000000
    endloop
  endfacet
  facet normal 0.000000 0.000000 -1.000000
    outer loop
      vertex -0.000000 -6.051774 0.000000
      vertex -1.566314 -5.845565 0.000000
      vertex -2.447639 -2.916982 0.000000
    endloop
  endfacet
  facet normal 0.000000 0.000000 -1.000000
    outer loop
      vertex 1.566314 -5.845565 0.000000
      vertex -0.000000 -6.051774 0.000000
      vertex -1.184702 -3.646139 0.000000
    endloop
  endfacet
  facet normal 0.000000 0.000000 -1.000000
    outer loop
      vertex 3.025887 -5.240990 0.000000
      vertex 1.566314 -5.845565 0.000000
      vertex 0.400739 -3.812775 0.000000
    endloop
  endfacet
  facet normal 0.000000 0.000000 -1.000000
    outer loop
      vertex 4.279250 -4.279250 0.000000
      vertex 3.025887 -5.240990 0.000000
      vertex 1.916889 -3.320148 0.000000
    endloop
  endfacet
  facet normal 0.000000 0.000000 -1.000000
    outer loop
      vertex 3.437043 -1.500000 0.000000
      vertex 5.240990 -3.025887 0.000000
      vertex 3.101591 -2.253438 0.000000
    endloop
  endfacet
  facet normal 0.000000 0.000000 -1.000000
    outer loop
      vertex 3.348076 1.500000 0.000000
      vertex 6.051774 -0.000000 0.000000
      vertex 3.750000 0.000000 0.000000
    endloop
  endfacet
  facet normal 0.000000 0.000000 -1.000000
    outer loop
      vertex 3.750000 0.000000 0.000000
      vertex 5.845565 -1.566314 0.000000
      vertex 3.437043 -1.500000 0.000000
    endloop
  endfacet
  facet normal 0.000000 0.000000 -1.000000
    outer loop
      vertex 3.750000 0.000000 0.000000
      vertex 3.437043 -1.500000 0.000000
      vertex 3.348076 -1.500000 0.000000
    endloop
  endfacet
  facet normal 0.000000 0.000000 -1.000000
    outer loop
      vertex 3.348076 1.500000 0.000000
      vertex 6.000000 0.393263 0.000000
      vertex 6.051774 -0.000000 0.000000
    endloop
  endfacet
  facet normal 0.000000 0.000000 -1.000000
    outer loop
      vertex 3.437043 1.500000 0.000000
      vertex 6.000000 0.393263 0.000000
      vertex 3.348076 1.500000 0.000000
    endloop
  endfacet
  facet normal 0.000000 0.000000 -1.000000
    outer loop
      vertex 6.000000 5.000000 0.000000
      vertex 6.000000 0.393263 0.000000
      vertex 3.437043 1.500000 0.000000
    endloop
  endfacet
  facet normal -0.000000 0.000000 -1.000000
    outer loop
      vertex 0.400739 3.812775 0.000000
      vertex 6.000000 5.000000 0.000000
      vertex 1.916889 3.320148 0.000000
    endloop
  endfacet
  facet normal 0.000000 0.000000 -1.000000
    outer loop
      vertex 6.000000 5.000000 0.000000
      vertex 3.101591 2.253438 0.000000
      vertex 1.916889 3.320148 0.000000
    endloop
  endfacet
  facet normal 0.000000 0.000000 -1.000000
    outer loop
      vertex -1.184702 3.646139 0.000000
      vertex 5.000000 6.000000 0.000000
      vertex 0.400739 3.812775 0.000000
    endloop
  endfacet
  facet normal 0.000000 0.000000 -1.000000
    outer loop
      vertex -1.184702 3.646139 0.000000
      vertex 4.000000 6.000000 0.000000
      vertex 5.000000 6.000000 0.000000
    endloop
  endfacet
  facet normal 0.000000 0.000000 -1.000000
    outer loop
      vertex 4.000000 9.000000 0.000000
      vertex 4.000000 6.000000 0.000000
      vertex -1.184702 3.646139 0.000000
    endloop
  endfacet
  facet normal 0.000000 -0.000000 -1.000000
    outer loop
      vertex -2.879682 2.416340 0.000000
      vertex -3.000000 10.000000 0.000000
      vertex -2.565298 2.849052 0.000000
    endloop
  endfacet
  facet normal 0.000000 0.000000 -1.000000
    outer loop
      vertex -2.447639 -2.916982 0.000000
      vertex -1.566314 -5.845565 0.000000
      vertex -3.025887 -5.240990 0.000000
    endloop
  endfacet
  facet normal 0.000000 0.000000 -1.000000
    outer loop
      vertex -2.447639 -2.916982 0.000000
      vertex -3.025887 -5.240990 0.000000
      vertex -3.860400 -4.600645 0.000000
    endloop
  endfacet
  facet normal 0.000000 1.000000 0.000000
    outer loop
      vertex -4.000000 6.000000 8.000000
      vertex -4.000000 6.000000 0.000000
      vertex -5.000000 6.000000 8.000000
    endloop
  endfacet
  facet normal 0.000000 1.000000 -0.000000
    outer loop
      vertex -5.000000 6.000000 8.000000
      vertex -4.000000 6.000000 0.000000
      vertex -5.000000 6.000000 0.000000
    endloop
  endfacet
  facet normal 0.000000 -0.000000 1.000000
    outer loop
      vertex 0.400739 -3.812775 8.000000
      vertex -3.025887 -5.240990 8.000000
      vertex 1.916889 -3.320148 8.000000
    endloop
  endfacet
  facet normal 0.000000 -0.000000 1.000000
    outer loop
      vertex -5.000000 6.000000 8.000000
      vertex -5.981187 5.018812 8.000000
      vertex -2.879682 2.416340 8.000000
    endloop
  endfacet
  facet normal -0.000000 0.000000 1.000000
    outer loop
      vertex -1.184702 3.646139 8.000000
      vertex -5.000000 6.000000 8.000000
      vertex -2.565298 2.849052 8.000000
    endloop
  endfacet
  facet normal -0.000000 0.000000 1.000000
    outer loop
      vertex -2.565298 2.849052 8.000000
      vertex -5.000000 6.000000 8.000000
      vertex -2.879682 2.416340 8.000000
    endloop
  endfacet
  facet normal -0.000000 0.000000 1.000000
    outer loop
      vertex 0.400739 3.812775 8.000000
      vertex -5.000000 6.000000 8.000000
      vertex -1.184702 3.646139 8.000000
    endloop
  endfacet
  facet normal 0.000000 0.000000 1.000000
    outer loop
      vertex 1.916889 3.320148 8.000000
      vertex -5.000000 6.000000 8.000000
      vertex 0.400739 3.812775 8.000000
    endloop
  endfacet
  facet normal 0.000000 0.000000 1.000000
    outer loop
      vertex -4.000000 9.000000 8.000000
      vertex 4.000000 9.000000 8.000000
      vertex 3.000000 10.000000 8.000000
    endloop
  endfacet
  facet normal 0.000000 0.000000 1.000000
    outer loop
      vertex 6.051774 -0.000000 8.000000
      vertex 1.916889 3.320148 8.000000
      vertex 3.101591 2.253438 8.000000
    endloop
  endfacet
  facet normal 0.000000 0.000000 1.000000
    outer loop
      vertex 5.845565 -1.566314 8.000000
      vertex 3.101591 2.253438 8.000000
      vertex 3.437043 1.500000 8.000000
    endloop
  endfacet
  facet normal 0.000000 0.000000 1.000000
    outer loop
      vertex 3.750000 0.000000 8.000000
      vertex 3.437043 1.500000 8.000000
      vertex 3.348076 1.500000 8.000000
    endloop
  endfacet
  facet normal 0.000000 0.000000 1.000000
    outer loop
      vertex 5.240990 -3.025887 8.000000
      vertex 3.437043 1.500000 8.000000
      vertex 3.750000 0.000000 8.000000
    endloop
  endfacet
  facet normal -0.000000 0.000000 1.000000
    outer loop
      vertex 3.437043 -1.500000 8.000000
      vertex 3.750000 0.000000 8.000000
      vertex 3.348076 -1.500000 8.000000
    endloop
  endfacet
  facet normal 0.000000 0.000000 1.000000
    outer loop
      vertex 3.025887 -5.240990 8.000000
      vertex 3.750000 0.000000 8.000000
      vertex 3.437043 -1.500000 8.000000
    endloop
  endfacet
  facet normal 0.000000 0.000000 1.000000
    outer loop
      vertex 1.566314 -5.845565 8.000000
      vertex 3.437043 -1.500000 8.000000
      vertex 3.101591 -2.253438 8.000000
    endloop
  endfacet
  facet normal 0.000000 0.000000 1.000000
    outer loop
      vertex -0.000000 -6.051774 8.000000
      vertex 3.101591 -2.253438 8.000000
      vertex 1.916889 -3.320148 8.000000
    endloop
  endfacet
  facet normal 0.000000 -0.000000 1.000000
    outer loop
      vertex -1.184702 -3.646139 8.000000
      vertex -3.860400 -4.600645 8.000000
      vertex 0.400739 -3.812775 8.000000
    endloop
  endfacet
  facet normal 0.000000 -0.000000 1.000000
    outer loop
      vertex -2.447639 -2.916982 8.000000
      vertex -3.860400 -4.600645 8.000000
      vertex -1.184702 -3.646139 8.000000
    endloop
  endfacet
  facet normal 0.000000 -0.000000 1.000000
    outer loop
      vertex -4.000000 9.000000 8.000000
      vertex -4.000000 6.000000 8.000000
      vertex 4.000000 9.000000 8.000000
    endloop
  endfacet
  facet normal 0.000000 0.000000 1.000000
    outer loop
      vertex -3.860400 -4.600645 8.000000
      vertex -3.025887 -5.240990 8.000000
      vertex 0.400739 -3.812775 8.000000
    endloop
  endfacet
  facet normal 0.000000 0.000000 1.000000
    outer loop
      vertex -3.025887 -5.240990 8.000000
      vertex -1.566314 -5.845565 8.000000
      vertex 1.916889 -3.320148 8.000000
    endloop
  endfacet
  facet normal 0.000000 0.000000 1.000000
    outer loop
      vertex -1.566314 -5.845565 8.000000
      vertex -0.000000 -6.051774 8.000000
      vertex 1.916889 -3.320148 8.000000
    endloop
  endfacet
  facet normal 0.000000 0.000000 1.000000
    outer loop
      vertex -0.000000 -6.051774 8.000000
      vertex 1.566314 -5.845565 8.000000
      vertex 3.101591 -2.253438 8.000000
    endloop
  endfacet
  facet normal 0.000000 0.000000 1.000000
    outer loop
      vertex 1.566314 -5.845565 8.000000
      vertex 3.025887 -5.240990 8.000000
      vertex 3.437043 -1.500000 8.000000
    endloop
  endfacet
  facet normal 0.000000 0.000000 1.000000
    outer loop
      vertex 3.025887 -5.240990 8.000000
      vertex 4.279250 -4.279250 8.000000
      vertex 3.750000 0.000000 8.000000
    endloop
  endfacet
  facet normal 0.000000 0.000000 1.000000
    outer loop
      vertex 4.279250 -4.279250 8.000000
      vertex 5.240990 -3.025887 8.000000
      vertex 3.750000 0.000000 8.000000
    endloop
  endfacet
  facet normal 0.000000 0.000000 1.000000
    outer loop
      vertex 5.240990 -3.025887 8.000000
      vertex 5.845565 -1.566314 8.000000
      vertex 3.437043 1.500000 8.000000
    endloop
  endfacet
  facet normal 0.000000 0.000000 1.000000
    outer loop
      vertex 5.845565 -1.566314 8.000000
      vertex 6.051774 -0.000000 8.000000
      vertex 3.101591 2.253438 8.000000
    endloop
  endfacet
  facet normal 0.000000 0.000000 1.000000
    outer loop
      vertex 6.051774 -0.000000 8.000000
      vertex 6.000000 0.393263 8.000000
      vertex 1.916889 3.320148 8.000000
    endloop
  endfacet
  facet normal 0.000000 0.000000 1.000000
    outer loop
      vertex 6.000000 0.393263 8.000000
      vertex 6.000000 5.000000 8.000000
      vertex 1.916889 3.320148 8.000000
    endloop
  endfacet
  facet normal 0.000000 0.000000 1.000000
    outer loop
      vertex -4.000000 6.000000 8.000000
      vertex 4.000000 6.000000 8.000000
      vertex 4.000000 9.000000 8.000000
    endloop
  endfacet
  facet normal 0.000000 0.000000 1.000000
    outer loop
      vertex -4.000000 9.000000 8.000000
      vertex 3.000000 10.000000 8.000000
      vertex -3.000000 10.000000 8.000000
    endloop
  endfacet
  facet normal -0.000000 0.000000 1.000000
    outer loop
      vertex 6.000000 5.000000 8.000000
      vertex -5.000000 6.000000 8.000000
      vertex 1.916889 3.320148 8.000000
    endloop
  endfacet
  facet normal 0.000000 0.000000 1.000000
    outer loop
      vertex 6.000000 5.000000 8.000000
      vertex -4.000000 6.000000 8.000000
      vertex -5.000000 6.000000 8.000000
    endloop
  endfacet
  facet normal 0.000000 0.000000 1.000000
    outer loop
      vertex 6.000000 5.000000 8.000000
      vertex 4.000000 6.000000 8.000000
      vertex -4.000000 6.000000 8.000000
    endloop
  endfacet
  facet normal 0.000000 0.000000 1.000000
    outer loop
      vertex 6.000000 5.000000 8.000000
      vertex 5.000000 6.000000 8.000000
      vertex 4.000000 6.000000 8.000000
    endloop
  endfacet
  facet normal 0.809017 -0.587785 0.000000
    outer loop
      vertex -2.565298 2.849052 0.000000
      vertex -2.565298 2.849052 2.000000
      vertex -2.879682 2.416340 2.000000
    endloop
  endfacet
  facet normal 0.809017 -0.587785 0.000000
    outer loop
      vertex -2.879682 2.416340 0.000000
      vertex -2.565298 2.849052 0.000000
      vertex -2.879682 2.416340 2.000000
    endloop
  endfacet
  facet normal 0.809017 -0.587785 0.000000
    outer loop
      vertex -2.693561 2.672512 7.523183
      vertex -2.565298 2.849052 7.483015
      vertex -2.565298 2.849052 8.000000
    endloop
  endfacet
  facet normal 0.809017 -0.587785 0.000000
    outer loop
      vertex -2.879682 2.416340 7.581469
      vertex -2.693561 2.672512 7.523183
      vertex -2.879682 2.416340 8.000000
    endloop
  endfacet
  facet normal 0.809017 -0.587785 -0.000000
    outer loop
      vertex -2.879682 2.416340 8.000000
      vertex -2.693561 2.672512 7.523183
      vertex -2.565298 2.849052 8.000000
    endloop
  endfacet
  facet normal 0.759595 -0.605757 -0.236800
    outer loop
      vertex -2.693561 2.672512 7.523183
      vertex -2.879682 2.416340 7.581469
      vertex -2.956419 2.480730 7.170598
    endloop
  endfacet
  facet normal 0.759595 -0.605757 -0.236800
    outer loop
      vertex -2.649832 3.322784 6.000000
      vertex -2.364497 2.964985 7.830569
      vertex -2.565298 2.849052 7.483015
    endloop
  endfacet
  facet normal 0.759595 -0.605757 -0.236800
    outer loop
      vertex -2.693561 2.672512 7.523183
      vertex -2.649832 3.322784 6.000000
      vertex -2.565298 2.849052 7.483015
    endloop
  endfacet
  facet normal 0.759595 -0.605757 -0.236800
    outer loop
      vertex -2.693561 2.672512 7.523183
      vertex -2.956419 2.480730 7.170598
      vertex -2.649832 3.322784 6.000000
    endloop
  endfacet
  facet normal 0.759595 -0.605757 -0.236800
    outer loop
      vertex -2.956419 2.480730 7.170598
      vertex -3.175049 2.664183 6.000000
      vertex -2.649832 3.322784 6.000000
    endloop
  endfacet
  facet normal 0.000000 -0.000000 -1.000000
    outer loop
      vertex -3.175049 2.664183 6.000000
      vertex -3.195192 2.912802 6.000000
      vertex -2.649832 3.322784 6.000000
    endloop
  endfacet
  facet normal 0.000000 -0.000000 -1.000000
    outer loop
      vertex 0.945714 4.143444 6.000000
      vertex -0.398933 4.305174 6.000000
      vertex 1.183214 4.158566 6.000000
    endloop
  endfacet
  facet normal -0.000000 -0.000000 -1.000000
    outer loop
      vertex 2.649832 3.322784 6.000000
      vertex 2.605562 3.450321 6.000000
      vertex 3.676014 2.276091 6.000000
    endloop
  endfacet
  facet normal -0.000000 -0.000000 -1.000000
    outer loop
      vertex 3.829118 1.844006 6.000000
      vertex 3.676014 2.276091 6.000000
      vertex 3.976673 1.500000 6.000000
    endloop
  endfacet
  facet normal 0.000000 0.000000 -1.000000
    outer loop
      vertex 0.945714 4.143444 6.000000
      vertex 2.605562 3.450321 6.000000
      vertex 2.649832 3.322784 6.000000
    endloop
  endfacet
  facet normal 0.000000 0.000000 -1.000000
    outer loop
      vertex 2.649832 3.322784 6.000000
      vertex 3.676014 2.276091 6.000000
      vertex 3.829118 1.844006 6.000000
    endloop
  endfacet
  facet normal -0.000000 0.000000 -1.000000
    outer loop
      vertex 0.945714 4.143444 6.000000
      vertex 1.183214 4.158566 6.000000
      vertex 2.605562 3.450321 6.000000
    endloop
  endfacet
  facet normal -0.000000 0.000000 -1.000000
    outer loop
      vertex -0.945714 4.143444 6.000000
      vertex -0.398933 4.305174 6.000000
      vertex 0.945714 4.143444 6.000000
    endloop
  endfacet
  facet normal 0.000000 0.000000 -1.000000
    outer loop
      vertex -1.927202 3.870344 6.000000
      vertex -0.398933 4.305174 6.000000
      vertex -0.945714 4.143444 6.000000
    endloop
  endfacet
  facet normal -0.000000 0.000000 -1.000000
    outer loop
      vertex -1.927202 3.870344 6.000000
      vertex -0.945714 4.143444 6.000000
      vertex -2.649832 3.322784 6.000000
    endloop
  endfacet
  facet normal 0.000000 0.000000 -1.000000
    outer loop
      vertex -1.927202 3.870344 6.000000
      vertex -2.649832 3.322784 6.000000
      vertex -3.195192 2.912802 6.000000
    endloop
  endfacet
  facet normal 0.000000 0.000000 -1.000000
    outer loop
      vertex -3.195192 2.912802 6.000000
      vertex -3.175049 2.664183 6.000000
      vertex -3.289611 2.760311 6.000000
    endloop
  endfacet
  facet normal 0.000000 0.000000 -1.000000
    outer loop
      vertex 3.829118 1.844006 6.000000
      vertex 3.976673 1.500000 6.000000
      vertex 3.907635 1.500000 6.000000
    endloop
  endfacet
  facet normal 0.850217 -0.526433 0.000000
    outer loop
      vertex -3.195192 2.912802 2.000000
      vertex -3.195192 2.912802 6.000000
      vertex -3.289611 2.760311 6.000000
    endloop
  endfacet
  facet normal 0.850217 -0.526433 0.000000
    outer loop
      vertex -3.289611 2.760311 2.000000
      vertex -3.195192 2.912802 2.000000
      vertex -3.289611 2.760311 6.000000
    endloop
  endfacet
  facet normal 0.000000 0.000000 1.000000
    outer loop
      vertex -0.398933 4.305174 2.000000
      vertex -2.565298 2.849052 2.000000
      vertex -1.184702 3.646139 2.000000
    endloop
  endfacet
  facet normal 0.000000 0.000000 1.000000
    outer loop
      vertex 1.916889 3.320148 2.000000
      vertex 2.605562 3.450321 2.000000
      vertex 0.400739 3.812775 2.000000
    endloop
  endfacet
  facet normal -0.000000 0.000000 1.000000
    outer loop
      vertex 0.400739 3.812775 2.000000
      vertex 1.183214 4.158566 2.000000
      vertex -1.184702 3.646139 2.000000
    endloop
  endfacet
  facet normal 0.000000 0.000000 1.000000
    outer loop
      vertex -2.879682 2.416340 2.000000
      vertex -2.565298 2.849052 2.000000
      vertex -1.927202 3.870344 2.000000
    endloop
  endfacet
  facet normal 0.000000 0.000000 1.000000
    outer loop
      vertex 3.101591 2.253438 2.000000
      vertex 3.976673 1.500000 2.000000
      vertex 1.916889 3.320148 2.000000
    endloop
  endfacet
  facet normal 0.000000 0.000000 1.000000
    outer loop
      vertex 3.437043 1.500000 2.000000
      vertex 3.976673 1.500000 2.000000
      vertex 3.101591 2.253438 2.000000
    endloop
  endfacet
  facet normal 0.000000 0.000000 1.000000
    outer loop
      vertex 3.976673 1.500000 2.000000
      vertex 3.676014 2.276091 2.000000
      vertex 1.916889 3.320148 2.000000
    endloop
  endfacet
  facet normal 0.000000 0.000000 1.000000
    outer loop
      vertex 3.676014 2.276091 2.000000
      vertex 2.605562 3.450321 2.000000
      vertex 1.916889 3.320148 2.000000
    endloop
  endfacet
  facet normal 0.000000 0.000000 1.000000
    outer loop
      vertex 2.605562 3.450321 2.000000
      vertex 1.183214 4.158566 2.000000
      vertex 0.400739 3.812775 2.000000
    endloop
  endfacet
  facet normal -0.000000 0.000000 1.000000
    outer loop
      vertex 1.183214 4.158566 2.000000
      vertex -0.398933 4.305174 2.000000
      vertex -1.184702 3.646139 2.000000
    endloop
  endfacet
  facet normal 0.000000 0.000000 1.000000
    outer loop
      vertex -0.398933 4.305174 2.000000
      vertex -1.927202 3.870344 2.000000
      vertex -2.565298 2.849052 2.000000
    endloop
  endfacet
  facet normal 0.000000 0.000000 1.000000
    outer loop
      vertex -1.927202 3.870344 2.000000
      vertex -3.195192 2.912802 2.000000
      vertex -2.879682 2.416340 2.000000
    endloop
  endfacet
  facet normal 0.000000 -0.000000 1.000000
    outer loop
      vertex -3.195192 2.912802 2.000000
      vertex -3.289611 2.760311 2.000000
      vertex -2.879682 2.416340 2.000000
    endloop
  endfacet
  facet normal 0.500000 -0.866026 0.000000
    outer loop
      vertex -1.184702 3.646139 0.000000
      vertex -1.184702 3.646139 2.000000
      vertex -2.565298 2.849052 2.000000
    endloop
  endfacet
  facet normal 0.500000 -0.866026 0.000000
    outer loop
      vertex -2.565298 2.849052 0.000000
      vertex -1.184702 3.646139 0.000000
      vertex -2.565298 2.849052 2.000000
    endloop
  endfacet
  facet normal 0.104528 -0.994522 0.000000
    outer loop
      vertex 0.400739 3.812775 0.000000
      vertex 0.400739 3.812775 2.000000
      vertex -1.184702 3.646139 2.000000
    endloop
  endfacet
  facet normal 0.104528 -0.994522 0.000000
    outer loop
      vertex -1.184702 3.646139 0.000000
      vertex 0.400739 3.812775 0.000000
      vertex -1.184702 3.646139 2.000000
    endloop
  endfacet
  facet normal -0.309017 -0.951057 -0.000000
    outer loop
      vertex 1.916889 3.320148 0.000000
      vertex 1.916889 3.320148 2.000000
      vertex 0.400739 3.812775 2.000000
    endloop
  endfacet
  facet normal -0.309017 -0.951057 -0.000000
    outer loop
      vertex 0.400739 3.812775 0.000000
      vertex 1.916889 3.320148 0.000000
      vertex 0.400739 3.812775 2.000000
    endloop
  endfacet
  facet normal -0.669130 -0.743145 -0.000000
    outer loop
      vertex 3.101591 2.253438 0.000000
      vertex 3.101591 2.253438 2.000000
      vertex 1.916889 3.320148 2.000000
    endloop
  endfacet
  facet normal -0.669130 -0.743145 -0.000000
    outer loop
      vertex 1.916889 3.320148 0.000000
      vertex 3.101591 2.253438 0.000000
      vertex 1.916889 3.320148 2.000000
    endloop
  endfacet
  facet normal -0.913546 -0.406737 0.000000
    outer loop
      vertex 3.437043 1.500000 2.000000
      vertex 3.101591 2.253438 2.000000
      vertex 3.437043 1.500000 0.000000
    endloop
  endfacet
  facet normal -0.913546 -0.406737 0.000000
    outer loop
      vertex 3.437043 1.500000 0.000000
      vertex 3.101591 2.253438 2.000000
      vertex 3.101591 2.253438 0.000000
    endloop
  endfacet
  facet normal 0.000000 1.000000 0.000000
    outer loop
      vertex 3.348076 1.500000 0.000000
      vertex 3.348076 1.500000 8.000000
      vertex 3.437043 1.500000 0.000000
    endloop
  endfacet
  facet normal 0.000000 1.000000 0.000000
    outer loop
      vertex 3.437043 1.500000 7.882366
      vertex 3.348076 1.500000 8.000000
      vertex 3.437043 1.500000 8.000000
    endloop
  endfacet
  facet normal 0.000000 1.000000 0.000000
    outer loop
      vertex 3.437043 1.500000 0.000000
      vertex 3.348076 1.500000 8.000000
      vertex 3.437043 1.500000 2.000000
    endloop
  endfacet
  facet normal -0.000000 1.000000 0.000000
    outer loop
      vertex 3.437043 1.500000 7.882366
      vertex 3.814358 1.500000 6.373107
      vertex 3.437043 1.500000 2.000000
    endloop
  endfacet
  facet normal -0.000000 1.000000 0.000000
    outer loop
      vertex 3.437043 1.500000 7.882366
      vertex 3.437043 1.500000 2.000000
      vertex 3.348076 1.500000 8.000000
    endloop
  endfacet
  facet normal -0.000000 1.000000 -0.000000
    outer loop
      vertex 3.437043 1.500000 2.000000
      vertex 3.814358 1.500000 6.373107
      vertex 3.907635 1.500000 6.000000
    endloop
  endfacet
  facet normal 0.000000 1.000000 -0.000000
    outer loop
      vertex 3.437043 1.500000 2.000000
      vertex 3.907635 1.500000 6.000000
      vertex 3.976673 1.500000 6.000000
    endloop
  endfacet
  facet normal -0.000000 1.000000 0.000000
    outer loop
      vertex 3.437043 1.500000 2.000000
      vertex 3.976673 1.500000 6.000000
      vertex 3.976673 1.500000 2.000000
    endloop
  endfacet
  facet normal -0.965926 -0.258819 0.000000
    outer loop
      vertex 3.750000 0.000000 8.000000
      vertex 3.348076 1.500000 8.000000
      vertex 3.750000 0.000000 0.000000
    endloop
  endfacet
  facet normal -0.965926 -0.258819 0.000000
    outer loop
      vertex 3.750000 0.000000 0.000000
      vertex 3.348076 1.500000 8.000000
      vertex 3.348076 1.500000 0.000000
    endloop
  endfacet
  facet normal -0.965926 0.258819 0.000000
    outer loop
      vertex 3.750000 0.000000 8.000000
      vertex 3.750000 0.000000 0.000000
      vertex 3.348076 -1.500000 8.000000
    endloop
  endfacet
  facet normal -0.965926 0.258819 0.000000
    outer loop
      vertex 3.348076 -1.500000 8.000000
      vertex 3.750000 0.000000 0.000000
      vertex 3.348076 -1.500000 0.000000
    endloop
  endfacet
  facet normal 0.000000 -1.000000 0.000000
    outer loop
      vertex 3.348076 -1.500000 8.000000
      vertex 3.348076 -1.500000 0.000000
      vertex 3.437043 -1.500000 0.000000
    endloop
  endfacet
  facet normal 0.000000 -1.000000 0.000000
    outer loop
      vertex 3.976673 -1.500000 2.000000
      vertex 3.348076 -1.500000 8.000000
      vertex 3.437043 -1.500000 2.000000
    endloop
  endfacet
  facet normal 0.000000 -1.000000 0.000000
    outer loop
      vertex 3.437043 -1.500000 2.000000
      vertex 3.348076 -1.500000 8.000000
      vertex 3.437043 -1.500000 0.000000
    endloop
  endfacet
  facet normal 0.000000 -1.000000 0.000000
    outer loop
      vertex 3.907635 -1.500000 6.000000
      vertex 3.348076 -1.500000 8.000000
      vertex 3.976673 -1.500000 2.000000
    endloop
  endfacet
  facet normal 0.000000 -1.000000 0.000000
    outer loop
      vertex 3.976673 -1.500000 6.000000
      vertex 3.907635 -1.500000 6.000000
      vertex 3.976673 -1.500000 2.000000
    endloop
  endfacet
  facet normal 0.000000 -1.000000 0.000000
    outer loop
      vertex 3.437043 -1.500000 7.882366
      vertex 3.348076 -1.500000 8.000000
      vertex 3.446682 -1.500000 7.843812
    endloop
  endfacet
  facet normal 0.000000 -1.000000 0.000000
    outer loop
      vertex 3.437043 -1.500000 8.000000
      vertex 3.348076 -1.500000 8.000000
      vertex 3.437043 -1.500000 7.882366
    endloop
  endfacet
  facet normal -0.000000 -1.000000 -0.000000
    outer loop
      vertex 3.907635 -1.500000 6.000000
      vertex 3.446682 -1.500000 7.843812
      vertex 3.348076 -1.500000 8.000000
    endloop
  endfacet
  facet normal -0.913546 0.406737 0.000000
    outer loop
      vertex 3.437043 -1.500000 2.000000
      vertex 3.437043 -1.500000 0.000000
      vertex 3.101591 -2.253438 2.000000
    endloop
  endfacet
  facet normal -0.913546 0.406737 0.000000
    outer loop
      vertex 3.101591 -2.253438 2.000000
      vertex 3.437043 -1.500000 0.000000
      vertex 3.101591 -2.253438 0.000000
    endloop
  endfacet
  facet normal -0.669130 0.743145 0.000000
    outer loop
      vertex 3.101591 -2.253438 2.000000
      vertex 3.101591 -2.253438 0.000000
      vertex 1.916889 -3.320148 2.000000
    endloop
  endfacet
  facet normal -0.669130 0.743145 0.000000
    outer loop
      vertex 1.916889 -3.320148 2.000000
      vertex 3.101591 -2.253438 0.000000
      vertex 1.916889 -3.320148 0.000000
    endloop
  endfacet
  facet normal -0.309017 0.951057 0.000000
    outer loop
      vertex 1.916889 -3.320148 2.000000
      vertex 1.916889 -3.320148 0.000000
      vertex 0.400739 -3.812775 2.000000
    endloop
  endfacet
  facet normal -0.309017 0.951057 0.000000
    outer loop
      vertex 0.400739 -3.812775 2.000000
      vertex 1.916889 -3.320148 0.000000
      vertex 0.400739 -3.812775 0.000000
    endloop
  endfacet
  facet normal 0.104528 0.994522 -0.000000
    outer loop
      vertex 0.400739 -3.812775 2.000000
      vertex 0.400739 -3.812775 0.000000
      vertex -1.184702 -3.646139 2.000000
    endloop
  endfacet
  facet normal 0.104528 0.994522 -0.000000
    outer loop
      vertex -1.184702 -3.646139 2.000000
      vertex 0.400739 -3.812775 0.000000
      vertex -1.184702 -3.646139 0.000000
    endloop
  endfacet
  facet normal 0.500000 0.866026 -0.000000
    outer loop
      vertex -1.184702 -3.646139 2.000000
      vertex -1.184702 -3.646139 0.000000
      vertex -2.447639 -2.916982 2.000000
    endloop
  endfacet
  facet normal 0.500000 0.866026 -0.000000
    outer loop
      vertex -2.447639 -2.916982 2.000000
      vertex -1.184702 -3.646139 0.000000
      vertex -2.447639 -2.916982 0.000000
    endloop
  endfacet
  facet normal -0.766044 0.642788 0.000000
    outer loop
      vertex -2.447639 -2.916982 8.000000
      vertex -2.447639 -2.916982 7.686663
      vertex -3.860400 -4.600645 8.000000
    endloop
  endfacet
  facet normal -0.766044 0.642788 -0.000000
    outer loop
      vertex -3.860400 -4.600645 8.000000
      vertex -2.447639 -2.916982 7.686663
      vertex -2.696681 -3.213779 6.128565
    endloop
  endfacet
  facet normal -0.766044 0.642788 0.000000
    outer loop
      vertex -3.860400 -4.600645 8.000000
      vertex -2.696681 -3.213779 6.128565
      vertex -2.717230 -3.238269 6.000000
    endloop
  endfacet
  facet normal -0.766044 0.642788 0.000000
    outer loop
      vertex -3.860400 -4.600645 8.000000
      vertex -2.717230 -3.238269 6.000000
      vertex -2.735450 -3.259983 6.000000
    endloop
  endfacet
  facet normal -0.766044 0.642788 0.000000
    outer loop
      vertex -3.860400 -4.600645 8.000000
      vertex -2.735450 -3.259983 6.000000
      vertex -2.735450 -3.259983 2.000000
    endloop
  endfacet
  facet normal -0.766044 0.642788 0.000000
    outer loop
      vertex -2.735450 -3.259983 2.000000
      vertex -2.447639 -2.916982 2.000000
      vertex -2.447639 -2.916982 0.000000
    endloop
  endfacet
  facet normal -0.766044 0.642788 -0.000000
    outer loop
      vertex -2.735450 -3.259983 2.000000
      vertex -2.447639 -2.916982 0.000000
      vertex -3.860400 -4.600645 8.000000
    endloop
  endfacet
  facet normal -0.766044 0.642788 0.000000
    outer loop
      vertex -3.860400 -4.600645 8.000000
      vertex -2.447639 -2.916982 0.000000
      vertex -3.860400 -4.600645 0.000000
    endloop
  endfacet
  facet normal -0.608762 -0.793353 0.000000
    outer loop
      vertex -3.860400 -4.600645 8.000000
      vertex -3.860400 -4.600645 0.000000
      vertex -3.025887 -5.240990 0.000000
    endloop
  endfacet
  facet normal -0.608762 -0.793353 0.000000
    outer loop
      vertex -3.025887 -5.240990 8.000000
      vertex -3.860400 -4.600645 8.000000
      vertex -3.025887 -5.240990 0.000000
    endloop
  endfacet
  facet normal -0.382683 -0.923880 0.000000
    outer loop
      vertex -3.025887 -5.240990 8.000000
      vertex -3.025887 -5.240990 0.000000
      vertex -1.566314 -5.845565 0.000000
    endloop
  endfacet
  facet normal -0.382683 -0.923880 0.000000
    outer loop
      vertex -1.566314 -5.845565 8.000000
      vertex -3.025887 -5.240990 8.000000
      vertex -1.566314 -5.845565 0.000000
    endloop
  endfacet
  facet normal -0.130526 -0.991445 0.000000
    outer loop
      vertex -1.566314 -5.845565 8.000000
      vertex -1.566314 -5.845565 0.000000
      vertex -0.000000 -6.051774 0.000000
    endloop
  endfacet
  facet normal -0.130526 -0.991445 0.000000
    outer loop
      vertex -0.000000 -6.051774 8.000000
      vertex -1.566314 -5.845565 8.000000
      vertex -0.000000 -6.051774 0.000000
    endloop
  endfacet
  facet normal 0.130526 -0.991445 0.000000
    outer loop
      vertex -0.000000 -6.051774 8.000000
      vertex -0.000000 -6.051774 0.000000
      vertex 1.566314 -5.845565 0.000000
    endloop
  endfacet
  facet normal 0.130526 -0.991445 0.000000
    outer loop
      vertex 1.566314 -5.845565 8.000000
      vertex -0.000000 -6.051774 8.000000
      vertex 1.566314 -5.845565 0.000000
    endloop
  endfacet
  facet normal 0.382683 -0.923880 0.000000
    outer loop
      vertex 1.566314 -5.845565 8.000000
      vertex 1.566314 -5.845565 0.000000
      vertex 3.025887 -5.240990 0.000000
    endloop
  endfacet
  facet normal 0.382683 -0.923880 0.000000
    outer loop
      vertex 3.025887 -5.240990 8.000000
      vertex 1.566314 -5.845565 8.000000
      vertex 3.025887 -5.240990 0.000000
    endloop
  endfacet
  facet normal 0.608762 -0.793353 0.000000
    outer loop
      vertex 3.025887 -5.240990 8.000000
      vertex 3.025887 -5.240990 0.000000
      vertex 4.279250 -4.279250 0.000000
    endloop
  endfacet
  facet normal 0.608762 -0.793353 0.000000
    outer loop
      vertex 4.279250 -4.279250 8.000000
      vertex 3.025887 -5.240990 8.000000
      vertex 4.279250 -4.279250 0.000000
    endloop
  endfacet
  facet normal 0.793353 -0.608762 0.000000
    outer loop
      vertex 4.279250 -4.279250 8.000000
      vertex 4.279250 -4.279250 0.000000
      vertex 5.240990 -3.025887 0.000000
    endloop
  endfacet
  facet normal 0.793353 -0.608762 0.000000
    outer loop
      vertex 5.240990 -3.025887 8.000000
      vertex 4.279250 -4.279250 8.000000
      vertex 5.240990 -3.025887 0.000000
    endloop
  endfacet
  facet normal 0.923880 -0.382683 0.000000
    outer loop
      vertex 5.240990 -3.025887 8.000000
      vertex 5.240990 -3.025887 0.000000
      vertex 5.845565 -1.566314 0.000000
    endloop
  endfacet
  facet normal 0.923880 -0.382683 0.000000
    outer loop
      vertex 5.845565 -1.566314 8.000000
      vertex 5.240990 -3.025887 8.000000
      vertex 5.845565 -1.566314 0.000000
    endloop
  endfacet
  facet normal 0.991445 -0.130526 0.000000
    outer loop
      vertex 5.845565 -1.566314 8.000000
      vertex 5.845565 -1.566314 0.000000
      vertex 6.051774 -0.000000 0.000000
    endloop
  endfacet
  facet normal 0.991445 -0.130526 0.000000
    outer loop
      vertex 6.051774 -0.000000 8.000000
      vertex 5.845565 -1.566314 8.000000
      vertex 6.051774 -0.000000 0.000000
    endloop
  endfacet
  facet normal 0.991445 0.130526 0.000000
    outer loop
      vertex 6.051774 -0.000000 0.000000
      vertex 6.000000 0.393263 0.000000
      vertex 6.000000 0.393263 8.000000
    endloop
  endfacet
  facet normal 0.991445 0.130526 -0.000000
    outer loop
      vertex 6.051774 -0.000000 8.000000
      vertex 6.051774 -0.000000 0.000000
      vertex 6.000000 0.393263 8.000000
    endloop
  endfacet
  facet normal 1.000000 0.000000 -0.000000
    outer loop
      vertex 6.000000 0.393263 8.000000
      vertex 6.000000 0.393263 0.000000
      vertex 6.000000 5.000000 0.000000
    endloop
  endfacet
  facet normal 1.000000 0.000000 0.000000
    outer loop
      vertex 6.000000 5.000000 8.000000
      vertex 6.000000 0.393263 8.000000
      vertex 6.000000 5.000000 0.000000
    endloop
  endfacet
  facet normal 0.707107 0.707107 0.000000
    outer loop
      vertex 5.000000 6.000000 8.000000
      vertex 6.000000 5.000000 8.000000
      vertex 6.000000 5.000000 0.000000
    endloop
  endfacet
  facet normal 0.707107 0.707107 0.000000
    outer loop
      vertex 5.000000 6.000000 0.000000
      vertex 5.000000 6.000000 8.000000
      vertex 6.000000 5.000000 0.000000
    endloop
  endfacet
  facet normal 0.000000 1.000000 0.000000
    outer loop
      vertex 5.000000 6.000000 8.000000
      vertex 5.000000 6.000000 0.000000
      vertex 4.000000 6.000000 8.000000
    endloop
  endfacet
  facet normal 0.000000 1.000000 -0.000000
    outer loop
      vertex 4.000000 6.000000 8.000000
      vertex 5.000000 6.000000 0.000000
      vertex 4.000000 6.000000 0.000000
    endloop
  endfacet
  facet normal 1.000000 0.000000 -0.000000
    outer loop
      vertex 4.000000 6.000000 8.000000
      vertex 4.000000 6.000000 0.000000
      vertex 4.000000 9.000000 0.000000
    endloop
  endfacet
  facet normal 1.000000 0.000000 0.000000
    outer loop
      vertex 4.000000 9.000000 8.000000
      vertex 4.000000 6.000000 8.000000
      vertex 4.000000 9.000000 0.000000
    endloop
  endfacet
  facet normal 0.707107 0.707107 0.000000
    outer loop
      vertex 3.000000 10.000000 8.000000
      vertex 4.000000 9.000000 8.000000
      vertex 4.000000 9.000000 0.000000
    endloop
  endfacet
  facet normal 0.707107 0.707107 0.000000
    outer loop
      vertex 3.000000 10.000000 0.000000
      vertex 3.000000 10.000000 8.000000
      vertex 4.000000 9.000000 0.000000
    endloop
  endfacet
  facet normal 0.000000 1.000000 0.000000
    outer loop
      vertex 0.954594 10.000000 4.954594
      vertex -3.000000 10.000000 8.000000
      vertex 3.000000 10.000000 8.000000
    endloop
  endfacet
  facet normal 0.000000 1.000000 0.000000
    outer loop
      vertex -3.000000 10.000000 0.000000
      vertex -3.000000 10.000000 8.000000
      vertex -1.350000 10.000000 4.000000
    endloop
  endfacet
  facet normal 0.000000 1.000000 0.000000
    outer loop
      vertex -3.000000 10.000000 0.000000
      vertex -1.350000 10.000000 4.000000
      vertex -0.954594 10.000000 3.045406
    endloop
  endfacet
  facet normal 0.000000 1.000000 0.000000
    outer loop
      vertex -3.000000 10.000000 0.000000
      vertex -0.954594 10.000000 3.045406
      vertex 3.000000 10.000000 0.000000
    endloop
  endfacet
  facet normal 0.000000 1.000000 0.000000
    outer loop
      vertex -0.954594 10.000000 3.045406
      vertex 0.000000 10.000000 2.650000
      vertex 3.000000 10.000000 0.000000
    endloop
  endfacet
  facet normal 0.000000 1.000000 0.000000
    outer loop
      vertex 0.954594 10.000000 4.954594
      vertex 3.000000 10.000000 8.000000
      vertex 1.350000 10.000000 4.000000
    endloop
  endfacet
  facet normal 0.000000 1.000000 0.000000
    outer loop
      vertex 3.000000 10.000000 0.000000
      vertex 0.954594 10.000000 3.045406
      vertex 1.350000 10.000000 4.000000
    endloop
  endfacet
  facet normal 0.000000 1.000000 0.000000
    outer loop
      vertex 3.000000 10.000000 0.000000
      vertex 1.350000 10.000000 4.000000
      vertex 3.000000 10.000000 8.000000
    endloop
  endfacet
  facet normal 0.000000 1.000000 0.000000
    outer loop
      vertex 0.000000 10.000000 5.350000
      vertex -3.000000 10.000000 8.000000
      vertex 0.954594 10.000000 4.954594
    endloop
  endfacet
  facet normal 0.000000 1.000000 0.000000
    outer loop
      vertex -0.954594 10.000000 4.954594
      vertex -3.000000 10.000000 8.000000
      vertex 0.000000 10.000000 5.350000
    endloop
  endfacet
  facet normal 0.000000 1.000000 0.000000
    outer loop
      vertex -1.350000 10.000000 4.000000
      vertex -3.000000 10.000000 8.000000
      vertex -0.954594 10.000000 4.954594
    endloop
  endfacet
  facet normal 0.000000 1.000000 -0.000000
    outer loop
      vertex 0.954594 10.000000 3.045406
      vertex 3.000000 10.000000 0.000000
      vertex 0.000000 10.000000 2.650000
    endloop
  endfacet
  facet normal -0.707107 0.707107 0.000000
    outer loop
      vertex -4.000000 9.000000 0.000000
      vertex -4.000000 9.000000 8.000000
      vertex -3.000000 10.000000 0.000000
    endloop
  endfacet
  facet normal -0.707107 0.707107 0.000000
    outer loop
      vertex -3.000000 10.000000 0.000000
      vertex -4.000000 9.000000 8.000000
      vertex -3.000000 10.000000 8.000000
    endloop
  endfacet
  facet normal -1.000000 -0.000000 -0.000000
    outer loop
      vertex -4.000000 6.000000 0.000000
      vertex -4.000000 6.000000 8.000000
      vertex -4.000000 9.000000 0.000000
    endloop
  endfacet
  facet normal -1.000000 0.000000 0.000000
    outer loop
      vertex -4.000000 9.000000 0.000000
      vertex -4.000000 6.000000 8.000000
      vertex -4.000000 9.000000 8.000000
    endloop
  endfacet
  facet normal 0.500000 0.866026 -0.000000
    outer loop
      vertex -1.184702 -3.646139 8.000000
      vertex -1.184702 -3.646139 7.412877
      vertex -2.447639 -2.916982 8.000000
    endloop
  endfacet
  facet normal 0.500000 0.866026 0.000000
    outer loop
      vertex -2.447639 -2.916982 8.000000
      vertex -1.184702 -3.646139 7.412877
      vertex -2.172910 -3.075597 7.762740
    endloop
  endfacet
  facet normal 0.500000 0.866026 0.000000
    outer loop
      vertex -2.447639 -2.916982 8.000000
      vertex -2.172910 -3.075597 7.762740
      vertex -2.364497 -2.964985 7.830569
    endloop
  endfacet
  facet normal 0.500000 0.866026 -0.000000
    outer loop
      vertex -2.447639 -2.916982 8.000000
      vertex -2.364497 -2.964985 7.830569
      vertex -2.447639 -2.916982 7.686663
    endloop
  endfacet
  facet normal 0.104528 0.994522 -0.000000
    outer loop
      vertex 0.400739 -3.812775 8.000000
      vertex -0.840466 -3.682320 7.891932
      vertex -1.184702 -3.646139 8.000000
    endloop
  endfacet
  facet normal 0.104528 0.994522 -0.000000
    outer loop
      vertex 0.400739 -3.812775 8.000000
      vertex 0.400739 -3.812775 7.356691
      vertex -0.840466 -3.682320 7.891932
    endloop
  endfacet
  facet normal 0.104528 0.994522 0.000000
    outer loop
      vertex -1.184702 -3.646139 7.412877
      vertex -1.184702 -3.646139 8.000000
      vertex -0.840466 -3.682320 7.891932
    endloop
  endfacet
  facet normal -0.309017 0.951057 0.000000
    outer loop
      vertex 1.916889 -3.320148 8.000000
      vertex 1.916889 -3.320148 7.314505
      vertex 0.946723 -3.635374 7.876313
    endloop
  endfacet
  facet normal -0.309017 0.951057 0.000000
    outer loop
      vertex 1.916889 -3.320148 8.000000
      vertex 0.946723 -3.635374 7.876313
      vertex 0.837827 -3.670757 7.939374
    endloop
  endfacet
  facet normal -0.309017 0.951057 0.000000
    outer loop
      vertex 1.916889 -3.320148 8.000000
      vertex 0.837827 -3.670757 7.939374
      vertex 0.400739 -3.812775 8.000000
    endloop
  endfacet
  facet normal -0.309017 0.951057 0.000000
    outer loop
      vertex 0.400739 -3.812775 7.356691
      vertex 0.400739 -3.812775 8.000000
      vertex 0.837827 -3.670757 7.939374
    endloop
  endfacet
  facet normal -0.669130 0.743145 0.000000
    outer loop
      vertex 3.101591 -2.253438 8.000000
      vertex 3.101591 -2.253438 7.286358
      vertex 2.390966 -2.893287 7.929070
    endloop
  endfacet
  facet normal -0.669130 0.743145 -0.000000
    outer loop
      vertex 3.101591 -2.253438 8.000000
      vertex 2.390966 -2.893287 7.929070
      vertex 2.342279 -2.937125 7.973104
    endloop
  endfacet
  facet normal -0.669130 0.743145 0.000000
    outer loop
      vertex 3.101591 -2.253438 8.000000
      vertex 2.342279 -2.937125 7.973104
      vertex 1.916889 -3.320148 8.000000
    endloop
  endfacet
  facet normal -0.669130 0.743145 0.000000
    outer loop
      vertex 1.916889 -3.320148 7.314505
      vertex 1.916889 -3.320148 8.000000
      vertex 2.342279 -2.937125 7.973104
    endloop
  endfacet
  facet normal -0.913546 0.406737 0.000000
    outer loop
      vertex 3.437043 -1.500000 8.000000
      vertex 3.437043 -1.500000 7.882366
      vertex 3.389529 -1.606718 7.974991
    endloop
  endfacet
  facet normal -0.913546 0.406737 -0.000000
    outer loop
      vertex 3.437043 -1.500000 8.000000
      vertex 3.389529 -1.606718 7.974991
      vertex 3.380146 -1.627793 7.993282
    endloop
  endfacet
  facet normal -0.913546 0.406737 0.000000
    outer loop
      vertex 3.437043 -1.500000 8.000000
      vertex 3.380146 -1.627793 7.993282
      vertex 3.101591 -2.253438 8.000000
    endloop
  endfacet
  facet normal -0.913546 0.406737 0.000000
    outer loop
      vertex 3.101591 -2.253438 7.286358
      vertex 3.101591 -2.253438 8.000000
      vertex 3.380146 -1.627793 7.993282
    endloop
  endfacet
  facet normal -0.913546 -0.406737 0.000000
    outer loop
      vertex 3.380146 1.627793 7.993282
      vertex 3.437043 1.500000 7.882366
      vertex 3.437043 1.500000 8.000000
    endloop
  endfacet
  facet normal -0.913546 -0.406737 0.000000
    outer loop
      vertex 3.380146 1.627793 7.993282
      vertex 3.437043 1.500000 8.000000
      vertex 3.101591 2.253438 8.000000
    endloop
  endfacet
  facet normal -0.913546 -0.406737 0.000000
    outer loop
      vertex 3.380146 1.627793 7.993282
      vertex 3.101591 2.253438 8.000000
      vertex 3.327482 1.746078 7.859631
    endloop
  endfacet
  facet normal -0.913546 -0.406737 0.000000
    outer loop
      vertex 3.101591 2.253438 8.000000
      vertex 3.101591 2.253438 7.286358
      vertex 3.327482 1.746078 7.859631
    endloop
  endfacet
  facet normal -0.669130 -0.743145 0.000000
    outer loop
      vertex 2.342279 2.937125 7.973104
      vertex 3.101591 2.253438 7.286358
      vertex 3.101591 2.253438 8.000000
    endloop
  endfacet
  facet normal -0.669130 -0.743145 0.000000
    outer loop
      vertex 1.916889 3.320148 8.000000
      vertex 2.342279 2.937125 7.973104
      vertex 3.101591 2.253438 8.000000
    endloop
  endfacet
  facet normal -0.669130 -0.743145 -0.000000
    outer loop
      vertex 1.916889 3.320148 7.314505
      vertex 2.342279 2.937125 7.973104
      vertex 1.916889 3.320148 8.000000
    endloop
  endfacet
  facet normal -0.000000 -0.000000 -0.000000
    outer loop
      vertex 0.837827 3.670757 7.939374
      vertex 1.876954 3.333124 7.337630
      vertex 1.916889 3.320148 7.314505
    endloop
  endfacet
  facet normal -0.309017 -0.951057 -0.000000
    outer loop
      vertex 0.400739 3.812775 8.000000
      vertex 0.837827 3.670757 7.939374
      vertex 1.916889 3.320148 8.000000
    endloop
  endfacet
  facet normal -0.309017 -0.951057 0.000000
    outer loop
      vertex 1.916889 3.320148 8.000000
      vertex 0.837827 3.670757 7.939374
      vertex 1.916889 3.320148 7.314505
    endloop
  endfacet
  facet normal -0.309017 -0.951057 -0.000000
    outer loop
      vertex 0.400739 3.812775 7.356691
      vertex 0.837827 3.670757 7.939374
      vertex 0.400739 3.812775 8.000000
    endloop
  endfacet
  facet normal 0.104528 -0.994522 0.000000
    outer loop
      vertex -0.840466 3.682320 7.891932
      vertex 0.400739 3.812775 7.356691
      vertex 0.400739 3.812775 8.000000
    endloop
  endfacet
  facet normal 0.104528 -0.994522 0.000000
    outer loop
      vertex -1.184702 3.646139 8.000000
      vertex -0.840466 3.682320 7.891932
      vertex 0.400739 3.812775 8.000000
    endloop
  endfacet
  facet normal 0.104528 -0.994522 0.000000
    outer loop
      vertex -1.184702 3.646139 7.412877
      vertex -0.840466 3.682320 7.891932
      vertex -1.184702 3.646139 8.000000
    endloop
  endfacet
  facet normal 0.500000 -0.866026 -0.000000
    outer loop
      vertex -2.364497 2.964985 7.830569
      vertex -1.322951 3.566321 7.461823
      vertex -1.184702 3.646139 8.000000
    endloop
  endfacet
  facet normal 0.500000 -0.866026 0.000000
    outer loop
      vertex -1.184702 3.646139 8.000000
      vertex -1.322951 3.566321 7.461823
      vertex -1.184702 3.646139 7.412877
    endloop
  endfacet
  facet normal 0.500000 -0.866026 0.000000
    outer loop
      vertex -2.364497 2.964985 7.830569
      vertex -1.184702 3.646139 8.000000
      vertex -2.565298 2.849052 8.000000
    endloop
  endfacet
  facet normal 0.500000 -0.866026 0.000000
    outer loop
      vertex -2.364497 2.964985 7.830569
      vertex -2.565298 2.849052 8.000000
      vertex -2.565298 2.849052 7.483015
    endloop
  endfacet
  facet normal 0.421544 -0.875344 -0.236800
    outer loop
      vertex -1.322951 3.566321 7.461823
      vertex -2.364497 2.964985 7.830569
      vertex -2.649832 3.322784 6.000000
    endloop
  endfacet
  facet normal 0.421543 -0.875344 -0.236800
    outer loop
      vertex -0.945714 4.143444 6.000000
      vertex -0.840466 3.682320 7.891932
      vertex -1.184702 3.646139 7.412877
    endloop
  endfacet
  facet normal 0.421543 -0.875344 -0.236800
    outer loop
      vertex -1.322951 3.566321 7.461823
      vertex -0.945714 4.143444 6.000000
      vertex -1.184702 3.646139 7.412877
    endloop
  endfacet
  facet normal 0.421543 -0.875344 -0.236800
    outer loop
      vertex -1.322951 3.566321 7.461823
      vertex -2.649832 3.322784 6.000000
      vertex -0.945714 4.143444 6.000000
    endloop
  endfacet
  facet normal 0.602635 -0.798017 0.000000
    outer loop
      vertex -1.927202 3.870344 2.000000
      vertex -1.927202 3.870344 6.000000
      vertex -3.195192 2.912802 6.000000
    endloop
  endfacet
  facet normal 0.602635 -0.798017 0.000000
    outer loop
      vertex -3.195192 2.912802 2.000000
      vertex -1.927202 3.870344 2.000000
      vertex -3.195192 2.912802 6.000000
    endloop
  endfacet
  facet normal 0.000000 -0.971558 -0.236800
    outer loop
      vertex 0.945714 4.143444 6.000000
      vertex 0.837827 3.670757 7.939374
      vertex 0.400739 3.812775 7.356691
    endloop
  endfacet
  facet normal -0.000000 -0.971558 -0.236800
    outer loop
      vertex -0.840466 3.682320 7.891932
      vertex 0.945714 4.143444 6.000000
      vertex 0.400739 3.812775 7.356691
    endloop
  endfacet
  facet normal 0.000000 -0.971558 -0.236800
    outer loop
      vertex -0.840466 3.682320 7.891932
      vertex -0.945714 4.143444 6.000000
      vertex 0.945714 4.143444 6.000000
    endloop
  endfacet
  facet normal -0.421544 -0.875344 -0.236800
    outer loop
      vertex 0.945714 4.143444 6.000000
      vertex 1.876954 3.333124 7.337630
      vertex 0.837827 3.670757 7.939374
    endloop
  endfacet
  facet normal -0.421543 -0.875344 -0.236800
    outer loop
      vertex 2.649832 3.322784 6.000000
      vertex 2.342279 2.937125 7.973104
      vertex 1.916889 3.320148 7.314505
    endloop
  endfacet
  facet normal -0.421543 -0.875344 -0.236800
    outer loop
      vertex 1.876954 3.333124 7.337630
      vertex 2.649832 3.322784 6.000000
      vertex 1.916889 3.320148 7.314505
    endloop
  endfacet
  facet normal -0.421543 -0.875344 -0.236800
    outer loop
      vertex 1.876954 3.333124 7.337630
      vertex 0.945714 4.143444 6.000000
      vertex 2.649832 3.322784 6.000000
    endloop
  endfacet
  facet normal -0.759595 -0.605757 -0.236800
    outer loop
      vertex 3.327482 1.746078 7.859631
      vertex 3.101591 2.253438 7.286358
      vertex 2.649832 3.322784 6.000000
    endloop
  endfacet
  facet normal -0.759595 -0.605757 -0.236800
    outer loop
      vertex 2.649832 3.322784 6.000000
      vertex 3.101591 2.253438 7.286358
      vertex 2.342279 2.937125 7.973104
    endloop
  endfacet
  facet normal -0.759595 -0.605757 -0.236800
    outer loop
      vertex 3.380146 1.627793 7.993282
      vertex 3.327482 1.746078 7.859631
      vertex 3.829118 1.844006 6.000000
    endloop
  endfacet
  facet normal -0.759595 -0.605757 -0.236800
    outer loop
      vertex 3.829118 1.844006 6.000000
      vertex 3.327482 1.746078 7.859631
      vertex 2.649832 3.322784 6.000000
    endloop
  endfacet
  facet normal -0.947199 -0.216192 -0.236800
    outer loop
      vertex 3.814358 1.500000 6.373107
      vertex 3.437043 1.500000 7.882366
      vertex 3.829118 1.844006 6.000000
    endloop
  endfacet
  facet normal -0.947199 -0.216192 -0.236800
    outer loop
      vertex 3.829118 1.844006 6.000000
      vertex 3.437043 1.500000 7.882366
      vertex 3.380146 1.627793 7.993282
    endloop
  endfacet
  facet normal -0.947199 -0.216192 -0.236800
    outer loop
      vertex 3.829118 1.844006 6.000000
      vertex 3.907635 1.500000 6.000000
      vertex 3.814358 1.500000 6.373107
    endloop
  endfacet
  facet normal -0.932472 -0.361242 0.000000
    outer loop
      vertex 3.976673 1.500000 6.000000
      vertex 3.676014 2.276091 6.000000
      vertex 3.976673 1.500000 2.000000
    endloop
  endfacet
  facet normal -0.932472 -0.361242 0.000000
    outer loop
      vertex 3.976673 1.500000 2.000000
      vertex 3.676014 2.276091 6.000000
      vertex 3.676014 2.276091 2.000000
    endloop
  endfacet
  facet normal -0.739009 -0.673696 0.000000
    outer loop
      vertex 3.676014 2.276091 6.000000
      vertex 2.605562 3.450321 6.000000
      vertex 3.676014 2.276091 2.000000
    endloop
  endfacet
  facet normal -0.739009 -0.673696 0.000000
    outer loop
      vertex 3.676014 2.276091 2.000000
      vertex 2.605562 3.450321 6.000000
      vertex 2.605562 3.450321 2.000000
    endloop
  endfacet
  facet normal -0.445738 -0.895163 -0.000000
    outer loop
      vertex 2.605562 3.450321 2.000000
      vertex 2.605562 3.450321 6.000000
      vertex 1.183214 4.158566 6.000000
    endloop
  endfacet
  facet normal -0.445738 -0.895163 -0.000000
    outer loop
      vertex 1.183214 4.158566 2.000000
      vertex 2.605562 3.450321 2.000000
      vertex 1.183214 4.158566 6.000000
    endloop
  endfacet
  facet normal -0.092269 -0.995734 -0.000000
    outer loop
      vertex 1.183214 4.158566 2.000000
      vertex 1.183214 4.158566 6.000000
      vertex -0.398933 4.305174 6.000000
    endloop
  endfacet
  facet normal -0.092269 -0.995734 -0.000000
    outer loop
      vertex -0.398933 4.305174 2.000000
      vertex 1.183214 4.158566 2.000000
      vertex -0.398933 4.305174 6.000000
    endloop
  endfacet
  facet normal 0.273663 -0.961826 0.000000
    outer loop
      vertex -0.398933 4.305174 2.000000
      vertex -0.398933 4.305174 6.000000
      vertex -1.927202 3.870344 6.000000
    endloop
  endfacet
  facet normal 0.273663 -0.961826 0.000000
    outer loop
      vertex -1.927202 3.870344 2.000000
      vertex -0.398933 4.305174 2.000000
      vertex -1.927202 3.870344 6.000000
    endloop
  endfacet
  facet normal -0.947199 0.216192 -0.236800
    outer loop
      vertex 3.437043 -1.500000 7.882366
      vertex 3.446682 -1.500000 7.843812
      vertex 3.389529 -1.606718 7.974991
    endloop
  endfacet
  facet normal -0.947199 0.216192 -0.236800
    outer loop
      vertex 3.446682 -1.500000 7.843812
      vertex 3.907635 -1.500000 6.000000
      vertex 3.389529 -1.606718 7.974991
    endloop
  endfacet
  facet normal -0.947199 0.216192 -0.236800
    outer loop
      vertex 3.389529 -1.606718 7.974991
      vertex 3.907635 -1.500000 6.000000
      vertex 3.829118 -1.844006 6.000000
    endloop
  endfacet
  facet normal -0.947199 0.216192 -0.236800
    outer loop
      vertex 3.389529 -1.606718 7.974991
      vertex 3.829118 -1.844006 6.000000
      vertex 3.380146 -1.627793 7.993282
    endloop
  endfacet
  facet normal 0.000000 -0.000000 -1.000000
    outer loop
      vertex -0.398933 -4.305174 6.000000
      vertex -0.945714 -4.143444 6.000000
      vertex 1.183214 -4.158566 6.000000
    endloop
  endfacet
  facet normal 0.000000 -0.000000 -1.000000
    outer loop
      vertex 1.183214 -4.158566 6.000000
      vertex 0.945714 -4.143444 6.000000
      vertex 2.605562 -3.450321 6.000000
    endloop
  endfacet
  facet normal 0.000000 -0.000000 -1.000000
    outer loop
      vertex 3.676014 -2.276091 6.000000
      vertex 2.649832 -3.322784 6.000000
      vertex 3.829118 -1.844006 6.000000
    endloop
  endfacet
  facet normal 0.000000 0.000000 -1.000000
    outer loop
      vertex 3.976673 -1.500000 6.000000
      vertex 3.829118 -1.844006 6.000000
      vertex 3.907635 -1.500000 6.000000
    endloop
  endfacet
  facet normal 0.000000 0.000000 -1.000000
    outer loop
      vertex 3.676014 -2.276091 6.000000
      vertex 3.829118 -1.844006 6.000000
      vertex 3.976673 -1.500000 6.000000
    endloop
  endfacet
  facet normal 0.000000 0.000000 -1.000000
    outer loop
      vertex 2.605562 -3.450321 6.000000
      vertex 2.649832 -3.322784 6.000000
      vertex 3.676014 -2.276091 6.000000
    endloop
  endfacet
  facet normal 0.000000 0.000000 -1.000000
    outer loop
      vertex 0.945714 -4.143444 6.000000
      vertex 2.649832 -3.322784 6.000000
      vertex 2.605562 -3.450321 6.000000
    endloop
  endfacet
  facet normal 0.000000 0.000000 -1.000000
    outer loop
      vertex -0.945714 -4.143444 6.000000
      vertex 0.945714 -4.143444 6.000000
      vertex 1.183214 -4.158566 6.000000
    endloop
  endfacet
  facet normal 0.000000 0.000000 -1.000000
    outer loop
      vertex -1.927202 -3.870344 6.000000
      vertex -0.945714 -4.143444 6.000000
      vertex -0.398933 -4.305174 6.000000
    endloop
  endfacet
  facet normal 0.000000 0.000000 -1.000000
    outer loop
      vertex -2.649832 -3.322784 6.000000
      vertex -0.945714 -4.143444 6.000000
      vertex -1.927202 -3.870344 6.000000
    endloop
  endfacet
  facet normal 0.000000 0.000000 -1.000000
    outer loop
      vertex -2.649832 -3.322784 6.000000
      vertex -1.927202 -3.870344 6.000000
      vertex -2.735450 -3.259983 6.000000
    endloop
  endfacet
  facet normal 0.000000 0.000000 -1.000000
    outer loop
      vertex -2.649832 -3.322784 6.000000
      vertex -2.735450 -3.259983 6.000000
      vertex -2.717230 -3.238269 6.000000
    endloop
  endfacet
  facet normal -0.932472 0.361242 0.000000
    outer loop
      vertex 3.976673 -1.500000 6.000000
      vertex 3.976673 -1.500000 2.000000
      vertex 3.676014 -2.276091 6.000000
    endloop
  endfacet
  facet normal -0.932472 0.361242 0.000000
    outer loop
      vertex 3.676014 -2.276091 6.000000
      vertex 3.976673 -1.500000 2.000000
      vertex 3.676014 -2.276091 2.000000
    endloop
  endfacet
  facet normal 0.000000 0.000000 1.000000
    outer loop
      vertex -1.927202 -3.870344 2.000000
      vertex -0.398933 -4.305174 2.000000
      vertex 1.183214 -4.158566 2.000000
    endloop
  endfacet
  facet normal -0.000000 0.000000 1.000000
    outer loop
      vertex 0.400739 -3.812775 2.000000
      vertex -1.184702 -3.646139 2.000000
      vertex -1.927202 -3.870344 2.000000
    endloop
  endfacet
  facet normal 0.000000 -0.000000 1.000000
    outer loop
      vertex 0.400739 -3.812775 2.000000
      vertex -1.927202 -3.870344 2.000000
      vertex 1.183214 -4.158566 2.000000
    endloop
  endfacet
  facet normal 0.000000 -0.000000 1.000000
    outer loop
      vertex 1.916889 -3.320148 2.000000
      vertex 0.400739 -3.812775 2.000000
      vertex 2.605562 -3.450321 2.000000
    endloop
  endfacet
  facet normal 0.000000 0.000000 1.000000
    outer loop
      vertex 3.976673 -1.500000 2.000000
      vertex 3.101591 -2.253438 2.000000
      vertex 3.676014 -2.276091 2.000000
    endloop
  endfacet
  facet normal 0.000000 0.000000 1.000000
    outer loop
      vertex 3.676014 -2.276091 2.000000
      vertex 1.916889 -3.320148 2.000000
      vertex 2.605562 -3.450321 2.000000
    endloop
  endfacet
  facet normal 0.000000 0.000000 1.000000
    outer loop
      vertex 2.605562 -3.450321 2.000000
      vertex 0.400739 -3.812775 2.000000
      vertex 1.183214 -4.158566 2.000000
    endloop
  endfacet
  facet normal -0.000000 0.000000 1.000000
    outer loop
      vertex -1.184702 -3.646139 2.000000
      vertex -2.447639 -2.916982 2.000000
      vertex -1.927202 -3.870344 2.000000
    endloop
  endfacet
  facet normal 0.000000 0.000000 1.000000
    outer loop
      vertex -2.735450 -3.259983 2.000000
      vertex -1.927202 -3.870344 2.000000
      vertex -2.447639 -2.916982 2.000000
    endloop
  endfacet
  facet normal 0.000000 -0.000000 1.000000
    outer loop
      vertex 3.437043 -1.500000 2.000000
      vertex 3.101591 -2.253438 2.000000
      vertex 3.976673 -1.500000 2.000000
    endloop
  endfacet
  facet normal 0.000000 -0.000000 1.000000
    outer loop
      vertex 3.101591 -2.253438 2.000000
      vertex 1.916889 -3.320148 2.000000
      vertex 3.676014 -2.276091 2.000000
    endloop
  endfacet
  facet normal 0.602635 0.798017 -0.000000
    outer loop
      vertex -1.927202 -3.870344 6.000000
      vertex -1.927202 -3.870344 2.000000
      vertex -2.735450 -3.259983 6.000000
    endloop
  endfacet
  facet normal 0.602635 0.798017 -0.000000
    outer loop
      vertex -2.735450 -3.259983 6.000000
      vertex -1.927202 -3.870344 2.000000
      vertex -2.735450 -3.259983 2.000000
    endloop
  endfacet
  facet normal 0.759595 0.605757 -0.236800
    outer loop
      vertex -2.696681 -3.213779 6.128565
      vertex -2.649832 -3.322784 6.000000
      vertex -2.717230 -3.238269 6.000000
    endloop
  endfacet
  facet normal 0.759595 0.605757 -0.236800
    outer loop
      vertex -2.447639 -2.916982 7.686663
      vertex -2.364497 -2.964985 7.830569
      vertex -2.649832 -3.322784 6.000000
    endloop
  endfacet
  facet normal 0.759595 0.605757 -0.236800
    outer loop
      vertex -2.696681 -3.213779 6.128565
      vertex -2.447639 -2.916982 7.686663
      vertex -2.649832 -3.322784 6.000000
    endloop
  endfacet
  facet normal 0.923879 -0.000000 0.382684
    outer loop
      vertex -0.954594 5.250000 3.045406
      vertex -0.954594 10.000000 3.045406
      vertex -1.350000 10.000000 4.000000
    endloop
  endfacet
  facet normal 0.923879 0.000000 0.382684
    outer loop
      vertex -1.350000 5.250000 4.000000
      vertex -0.954594 5.250000 3.045406
      vertex -1.350000 10.000000 4.000000
    endloop
  endfacet
  facet normal 0.923879 0.000000 -0.382684
    outer loop
      vertex -1.350000 10.000000 4.000000
      vertex -0.954594 10.000000 4.954594
      vertex -0.954594 5.250000 4.954594
    endloop
  endfacet
  facet normal 0.923879 0.000000 -0.382684
    outer loop
      vertex -1.350000 5.250000 4.000000
      vertex -1.350000 10.000000 4.000000
      vertex -0.954594 5.250000 4.954594
    endloop
  endfacet
  facet normal 0.382684 0.000000 -0.923879
    outer loop
      vertex 0.000000 10.000000 5.350000
      vertex 0.000000 5.250000 5.350000
      vertex -0.954594 10.000000 4.954594
    endloop
  endfacet
  facet normal 0.382684 0.000000 -0.923879
    outer loop
      vertex -0.954594 10.000000 4.954594
      vertex 0.000000 5.250000 5.350000
      vertex -0.954594 5.250000 4.954594
    endloop
  endfacet
  facet normal -0.382684 0.000000 -0.923879
    outer loop
      vertex 0.954594 10.000000 4.954594
      vertex 0.954594 5.250000 4.954594
      vertex 0.000000 10.000000 5.350000
    endloop
  endfacet
  facet normal -0.382684 0.000000 -0.923879
    outer loop
      vertex 0.000000 10.000000 5.350000
      vertex 0.954594 5.250000 4.954594
      vertex 0.000000 5.250000 5.350000
    endloop
  endfacet
  facet normal -0.923879 0.000000 -0.382684
    outer loop
      vertex 1.350000 10.000000 4.000000
      vertex 1.350000 5.250000 4.000000
      vertex 0.954594 10.000000 4.954594
    endloop
  endfacet
  facet normal -0.923879 0.000000 -0.382684
    outer loop
      vertex 0.954594 10.000000 4.954594
      vertex 1.350000 5.250000 4.000000
      vertex 0.954594 5.250000 4.954594
    endloop
  endfacet
  facet normal -0.923879 0.000000 0.382684
    outer loop
      vertex 1.350000 10.000000 4.000000
      vertex 0.954594 10.000000 3.045406
      vertex 1.350000 5.250000 4.000000
    endloop
  endfacet
  facet normal -0.923879 -0.000000 0.382684
    outer loop
      vertex 1.350000 5.250000 4.000000
      vertex 0.954594 10.000000 3.045406
      vertex 0.954594 5.250000 3.045406
    endloop
  endfacet
  facet normal -0.382684 -0.000000 0.923879
    outer loop
      vertex 0.954594 5.250000 3.045406
      vertex 0.954594 10.000000 3.045406
      vertex 0.000000 10.000000 2.650000
    endloop
  endfacet
  facet normal -0.382684 -0.000000 0.923879
    outer loop
      vertex 0.000000 5.250000 2.650000
      vertex 0.954594 5.250000 3.045406
      vertex 0.000000 10.000000 2.650000
    endloop
  endfacet
  facet normal 0.382684 -0.000000 0.923879
    outer loop
      vertex 0.000000 5.250000 2.650000
      vertex 0.000000 10.000000 2.650000
      vertex -0.954594 10.000000 3.045406
    endloop
  endfacet
  facet normal 0.382684 -0.000000 0.923879
    outer loop
      vertex -0.954594 5.250000 3.045406
      vertex 0.000000 5.250000 2.650000
      vertex -0.954594 10.000000 3.045406
    endloop
  endfacet
  facet normal 0.421543 0.875344 -0.236800
    outer loop
      vertex -2.172910 -3.075597 7.762740
      vertex -0.945714 -4.143444 6.000000
      vertex -2.364497 -2.964985 7.830569
    endloop
  endfacet
  facet normal 0.421543 0.875344 -0.236800
    outer loop
      vertex -2.364497 -2.964985 7.830569
      vertex -0.945714 -4.143444 6.000000
      vertex -2.649832 -3.322784 6.000000
    endloop
  endfacet
  facet normal 0.421544 0.875344 -0.236800
    outer loop
      vertex -0.840466 -3.682320 7.891932
      vertex -0.945714 -4.143444 6.000000
      vertex -1.184702 -3.646139 7.412877
    endloop
  endfacet
  facet normal 0.421544 0.875344 -0.236800
    outer loop
      vertex -1.184702 -3.646139 7.412877
      vertex -0.945714 -4.143444 6.000000
      vertex -2.172910 -3.075597 7.762740
    endloop
  endfacet
  facet normal 0.000000 0.971558 -0.236800
    outer loop
      vertex 0.400739 -3.812775 7.356691
      vertex 0.837827 -3.670757 7.939374
      vertex 0.945714 -4.143444 6.000000
    endloop
  endfacet
  facet normal -0.000000 0.971558 -0.236800
    outer loop
      vertex 0.400739 -3.812775 7.356691
      vertex 0.945714 -4.143444 6.000000
      vertex -0.840466 -3.682320 7.891932
    endloop
  endfacet
  facet normal 0.000000 0.971558 -0.236800
    outer loop
      vertex 0.945714 -4.143444 6.000000
      vertex -0.945714 -4.143444 6.000000
      vertex -0.840466 -3.682320 7.891932
    endloop
  endfacet
  facet normal -0.421543 0.875344 -0.236800
    outer loop
      vertex 2.649832 -3.322784 6.000000
      vertex 0.945714 -4.143444 6.000000
      vertex 0.946723 -3.635374 7.876313
    endloop
  endfacet
  facet normal -0.421543 0.875344 -0.236800
    outer loop
      vertex 0.946723 -3.635374 7.876313
      vertex 0.945714 -4.143444 6.000000
      vertex 0.837827 -3.670757 7.939374
    endloop
  endfacet
  facet normal -0.421544 0.875344 -0.236800
    outer loop
      vertex 2.342279 -2.937125 7.973104
      vertex 2.649832 -3.322784 6.000000
      vertex 1.916889 -3.320148 7.314505
    endloop
  endfacet
  facet normal -0.421544 0.875344 -0.236800
    outer loop
      vertex 1.916889 -3.320148 7.314505
      vertex 2.649832 -3.322784 6.000000
      vertex 0.946723 -3.635374 7.876313
    endloop
  endfacet
  facet normal -0.759595 0.605757 -0.236800
    outer loop
      vertex 3.829118 -1.844006 6.000000
      vertex 2.649832 -3.322784 6.000000
      vertex 2.390966 -2.893287 7.929070
    endloop
  endfacet
  facet normal -0.759595 0.605757 -0.236800
    outer loop
      vertex 2.390966 -2.893287 7.929070
      vertex 2.649832 -3.322784 6.000000
      vertex 2.342279 -2.937125 7.973104
    endloop
  endfacet
  facet normal -0.759595 0.605757 -0.236800
    outer loop
      vertex 3.380146 -1.627793 7.993282
      vertex 3.829118 -1.844006 6.000000
      vertex 3.101591 -2.253438 7.286358
    endloop
  endfacet
  facet normal -0.759595 0.605757 -0.236800
    outer loop
      vertex 3.101591 -2.253438 7.286358
      vertex 3.829118 -1.844006 6.000000
      vertex 2.390966 -2.893287 7.929070
    endloop
  endfacet
  facet normal 0.273663 0.961826 -0.000000
    outer loop
      vertex -0.398933 -4.305174 6.000000
      vertex -0.398933 -4.305174 2.000000
      vertex -1.927202 -3.870344 6.000000
    endloop
  endfacet
  facet normal 0.273663 0.961826 -0.000000
    outer loop
      vertex -1.927202 -3.870344 6.000000
      vertex -0.398933 -4.305174 2.000000
      vertex -1.927202 -3.870344 2.000000
    endloop
  endfacet
  facet normal -0.092269 0.995734 0.000000
    outer loop
      vertex 1.183214 -4.158566 6.000000
      vertex 1.183214 -4.158566 2.000000
      vertex -0.398933 -4.305174 6.000000
    endloop
  endfacet
  facet normal -0.092269 0.995734 0.000000
    outer loop
      vertex -0.398933 -4.305174 6.000000
      vertex 1.183214 -4.158566 2.000000
      vertex -0.398933 -4.305174 2.000000
    endloop
  endfacet
  facet normal -0.445738 0.895163 0.000000
    outer loop
      vertex 2.605562 -3.450321 6.000000
      vertex 2.605562 -3.450321 2.000000
      vertex 1.183214 -4.158566 6.000000
    endloop
  endfacet
  facet normal -0.445738 0.895163 0.000000
    outer loop
      vertex 1.183214 -4.158566 6.000000
      vertex 2.605562 -3.450321 2.000000
      vertex 1.183214 -4.158566 2.000000
    endloop
  endfacet
  facet normal -0.739009 0.673696 0.000000
    outer loop
      vertex 3.676014 -2.276091 6.000000
      vertex 3.676014 -2.276091 2.000000
      vertex 2.605562 -3.450321 6.000000
    endloop
  endfacet
  facet normal -0.739009 0.673696 0.000000
    outer loop
      vertex 2.605562 -3.450321 6.000000
      vertex 3.676014 -2.276091 2.000000
      vertex 2.605562 -3.450321 2.000000
    endloop
  endfacet
  facet normal 0.000000 1.000000 -0.000000
    outer loop
      vertex 0.000000 5.250000 5.350000
      vertex 0.954594 5.250000 4.954594
      vertex -0.954594 5.250000 4.954594
    endloop
  endfacet
  facet normal 0.000000 1.000000 0.000000
    outer loop
      vertex -0.954594 5.250000 4.954594
      vertex 0.954594 5.250000 4.954594
      vertex 1.350000 5.250000 4.000000
    endloop
  endfacet
  facet normal -0.000000 1.000000 0.000000
    outer loop
      vertex -0.954594 5.250000 4.954594
      vertex 1.350000 5.250000 4.000000
      vertex 0.954594 5.250000 3.045406
    endloop
  endfacet
  facet normal -0.000000 1.000000 0.000000
    outer loop
      vertex -0.954594 5.250000 4.954594
      vertex 0.954594 5.250000 3.045406
      vertex 0.000000 5.250000 2.650000
    endloop
  endfacet
  facet normal 0.000000 1.000000 0.000000
    outer loop
      vertex -0.954594 5.250000 4.954594
      vertex 0.000000 5.250000 2.650000
      vertex -0.954594 5.250000 3.045406
    endloop
  endfacet
  facet normal 0.000000 1.000000 0.000000
    outer loop
      vertex -0.954594 5.250000 4.954594
      vertex -0.954594 5.250000 3.045406
      vertex -1.350000 5.250000 4.000000
    endloop
  endfacet
  facet normal -1.000000 -0.000000 0.000000
    outer loop
      vertex 4.250000 -0.000000 6.000000
      vertex 4.250000 0.794463 6.000000
      vertex 4.250000 -0.000000 2.000000
    endloop
  endfacet
  facet normal -1.000000 -0.000000 0.000000
    outer loop
      vertex 4.250000 -0.000000 2.000000
      vertex 4.250000 0.794463 6.000000
      vertex 4.250000 0.794463 2.000000
    endloop
  endfacet
  facet normal 1.000000 0.000000 -0.000000
    outer loop
      vertex 4.250000 -0.000000 6.000000
      vertex 4.250000 -0.000000 2.000000
      vertex 4.250000 0.794463 2.000000
    endloop
  endfacet
  facet normal 1.000000 0.000000 0.000000
    outer loop
      vertex 4.250000 0.794463 6.000000
      vertex 4.250000 -0.000000 6.000000
      vertex 4.250000 0.794463 2.000000
    endloop
  endfacet
endsolid OpenSCAD_Model
