solid OpenSCAD_Model
  facet normal -0.000000 0.000000 -1.000000
    outer loop
      vertex -6.051774 0.000000 0.000000
      vertex -6.000000 0.393263 0.000000
      vertex -5.845565 -1.566314 0.000000
    endloop
  endfacet
  facet normal 0.000000 0.000000 -1.000000
    outer loop
      vertex -5.845565 -1.566314 0.000000
      vertex -6.000000 0.393263 0.000000
      vertex -6.000000 5.000000 0.000000
    endloop
  endfacet
  facet normal 0.000000 -0.000000 -1.000000
    outer loop
      vertex -5.845565 -1.566314 0.000000
      vertex -6.000000 5.000000 0.000000
      vertex -5.000000 6.000000 0.000000
    endloop
  endfacet
  facet normal 0.000000 0.000000 -1.000000
    outer loop
      vertex -5.845565 -1.566314 0.000000
      vertex -5.000000 6.000000 0.000000
      vertex -4.000000 6.000000 0.000000
    endloop
  endfacet
  facet normal 0.000000 0.000000 -1.000000
    outer loop
      vertex -4.000000 6.000000 0.000000
      vertex -4.000000 9.000000 0.000000
      vertex -3.000000 10.000000 0.000000
    endloop
  endfacet
  facet normal -0.000000 0.000000 -1.000000
    outer loop
      vertex -4.000000 6.000000 0.000000
      vertex -3.000000 10.000000 0.000000
      vertex -5.845565 -1.566314 0.000000
    endloop
  endfacet
  facet normal 0.000000 -0.000000 -1.000000
    outer loop
      vertex -2.565298 2.849052 0.000000
      vertex -3.000000 10.000000 0.000000
      vertex 3.000000 10.000000 0.000000
    endloop
  endfacet
  facet normal 0.000000 0.000000 -1.000000
    outer loop
      vertex -1.500000 3.348076 0.000000
      vertex 3.000000 10.000000 0.000000
      vertex 4.000000 9.000000 0.000000
    endloop
  endfacet
  facet normal 0.000000 0.000000 -1.000000
    outer loop
      vertex 0.000000 3.750000 0.000000
      vertex 4.000000 9.000000 0.000000
      vertex 4.000000 6.000000 0.000000
    endloop
  endfacet
  facet normal 0.000000 0.000000 -1.000000
    outer loop
      vertex 1.916889 3.320148 0.000000
      vertex 5.000000 6.000000 0.000000
      vertex 6.000000 5.000000 0.000000
    endloop
  endfacet
  facet normal -0.000000 0.000000 -1.000000
    outer loop
      vertex 1.916889 3.320148 0.000000
      vertex 6.000000 5.000000 0.000000
      vertex 3.101591 2.253438 0.000000
    endloop
  endfacet
  facet normal -0.000000 0.000000 -1.000000
    outer loop
      vertex 3.750000 -0.797087 0.000000
      vertex 6.051774 -0.000000 0.000000
      vertex 5.845565 -1.566314 0.000000
    endloop
  endfacet
  facet normal -0.000000 0.000000 -1.000000
    outer loop
      vertex 3.129315 -2.191170 0.000000
      vertex 5.845565 -1.566314 0.000000
      vertex 5.240990 -3.025887 0.000000
    endloop
  endfacet
  facet normal 0.000000 0.000000 -1.000000
    outer loop
      vertex 3.750000 -0.797087 0.000000
      vertex 5.845565 -1.566314 0.000000
      vertex 3.129315 -2.191170 0.000000
    endloop
  endfacet
  facet normal 0.000000 0.000000 -1.000000
    outer loop
      vertex 0.000000 3.750000 0.000000
      vertex 1.500000 3.455603 0.000000
      vertex 1.500000 3.348076 0.000000
    endloop
  endfacet
  facet normal 0.000000 0.000000 -1.000000
    outer loop
      vertex 3.750000 0.797087 0.000000
      vertex 6.000000 0.393263 0.000000
      vertex 6.051774 -0.000000 0.000000
    endloop
  endfacet
  facet normal 0.000000 0.000000 -1.000000
    outer loop
      vertex 6.000000 5.000000 0.000000
      vertex 6.000000 0.393263 0.000000
      vertex 3.750000 0.797087 0.000000
    endloop
  endfacet
  facet normal 0.000000 0.000000 -1.000000
    outer loop
      vertex 6.000000 5.000000 0.000000
      vertex 3.750000 0.797087 0.000000
      vertex 3.101591 2.253438 0.000000
    endloop
  endfacet
  facet normal -0.000000 0.000000 -1.000000
    outer loop
      vertex 0.000000 3.750000 0.000000
      vertex 5.000000 6.000000 0.000000
      vertex 1.500000 3.455603 0.000000
    endloop
  endfacet
  facet normal -0.000000 0.000000 -1.000000
    outer loop
      vertex 1.500000 3.455603 0.000000
      vertex 5.000000 6.000000 0.000000
      vertex 1.916889 3.320148 0.000000
    endloop
  endfacet
  facet normal 0.000000 0.000000 -1.000000
    outer loop
      vertex 0.000000 3.750000 0.000000
      vertex 4.000000 6.000000 0.000000
      vertex 5.000000 6.000000 0.000000
    endloop
  endfacet
  facet normal -0.000000 0.000000 -1.000000
    outer loop
      vertex -1.500000 3.464102 0.000000
      vertex 3.000000 10.000000 0.000000
      vertex -1.500000 3.348076 0.000000
    endloop
  endfacet
  facet normal 0.000000 0.000000 -1.000000
    outer loop
      vertex -2.565298 2.849052 0.000000
      vertex 3.000000 10.000000 0.000000
      vertex -1.500000 3.464102 0.000000
    endloop
  endfacet
  facet normal 0.000000 0.000000 -1.000000
    outer loop
      vertex -5.845565 -1.566314 0.000000
      vertex -3.000000 10.000000 0.000000
      vertex -2.565298 2.849052 0.000000
    endloop
  endfacet
  facet normal 0.000000 -0.000000 -1.000000
    outer loop
      vertex -3.833777 0.000000 0.000000
      vertex -5.845565 -1.566314 0.000000
      vertex -3.502330 1.559338 0.000000
    endloop
  endfacet
  facet normal 0.000000 0.000000 -1.000000
    outer loop
      vertex -5.845565 -1.566314 0.000000
      vertex -2.565298 2.849052 0.000000
      vertex -3.502330 1.559338 0.000000
    endloop
  endfacet
  facet normal 0.000000 0.000000 -1.000000
    outer loop
      vertex -3.502330 -1.559338 0.000000
      vertex -5.845565 -1.566314 0.000000
      vertex -3.833777 0.000000 0.000000
    endloop
  endfacet
  facet normal 0.000000 0.000000 -1.000000
    outer loop
      vertex -1.500000 3.348076 0.000000
      vertex 4.000000 9.000000 0.000000
      vertex 0.000000 3.750000 0.000000
    endloop
  endfacet
  facet normal 0.000000 0.000000 -1.000000
    outer loop
      vertex -3.072288 -2.151240 0.000000
      vertex -5.845565 -1.566314 0.000000
      vertex -3.502330 -1.559338 0.000000
    endloop
  endfacet
  facet normal 0.000000 0.000000 -1.000000
    outer loop
      vertex 3.750000 0.797087 0.000000
      vertex 6.051774 -0.000000 0.000000
      vertex 3.750000 -0.797087 0.000000
    endloop
  endfacet
  facet normal 0.000000 0.000000 -1.000000
    outer loop
      vertex -5.845565 -1.566314 0.000000
      vertex -3.072288 -2.151240 0.000000
      vertex -4.919595 -3.444737 0.000000
    endloop
  endfacet
  facet normal 0.000000 0.000000 -1.000000
    outer loop
      vertex -5.845565 -1.566314 0.000000
      vertex -4.919595 -3.444737 0.000000
      vertex -5.240990 -3.025887 0.000000
    endloop
  endfacet
  facet normal 0.000000 0.000000 -1.000000
    outer loop
      vertex 3.129315 -2.191170 0.000000
      vertex 5.240990 -3.025887 0.000000
      vertex 4.919595 -3.444737 0.000000
    endloop
  endfacet
  facet normal -0.991445 0.130526 0.000000
    outer loop
      vertex -6.051774 0.000000 0.000000
      vertex -6.051774 0.000000 8.000000
      vertex -6.000000 0.393263 0.000000
    endloop
  endfacet
  facet normal -0.991445 0.130526 0.000000
    outer loop
      vertex -6.000000 0.393263 0.000000
      vertex -6.051774 0.000000 8.000000
      vertex -6.000000 0.393263 8.000000
    endloop
  endfacet
  facet normal -0.991445 -0.130526 -0.000000
    outer loop
      vertex -6.051774 0.000000 0.000000
      vertex -5.845565 -1.566314 0.000000
      vertex -6.051774 0.000000 8.000000
    endloop
  endfacet
  facet normal -0.991445 -0.130526 0.000000
    outer loop
      vertex -6.051774 0.000000 8.000000
      vertex -5.845565 -1.566314 0.000000
      vertex -5.845565 -1.566314 8.000000
    endloop
  endfacet
  facet normal -0.923880 -0.382683 -0.000000
    outer loop
      vertex -5.845565 -1.566314 0.000000
      vertex -5.240990 -3.025887 0.000000
      vertex -5.845565 -1.566314 8.000000
    endloop
  endfacet
  facet normal -0.923880 -0.382683 0.000000
    outer loop
      vertex -5.845565 -1.566314 8.000000
      vertex -5.240990 -3.025887 0.000000
      vertex -5.240990 -3.025887 8.000000
    endloop
  endfacet
  facet normal -0.793353 -0.608762 -0.000000
    outer loop
      vertex -5.240990 -3.025887 0.000000
      vertex -4.919595 -3.444737 0.000000
      vertex -5.240990 -3.025887 8.000000
    endloop
  endfacet
  facet normal -0.793353 -0.608762 0.000000
    outer loop
      vertex -5.240990 -3.025887 8.000000
      vertex -4.919595 -3.444737 0.000000
      vertex -4.919595 -3.444737 8.000000
    endloop
  endfacet
  facet normal 0.573576 -0.819152 0.000000
    outer loop
      vertex -3.486954 -2.441591 6.000000
      vertex -4.919595 -3.444737 8.000000
      vertex -3.486954 -2.441591 2.000000
    endloop
  endfacet
  facet normal 0.573576 -0.819152 0.000000
    outer loop
      vertex -3.072288 -2.151240 0.000000
      vertex -3.072288 -2.151240 2.000000
      vertex -3.486954 -2.441591 2.000000
    endloop
  endfacet
  facet normal 0.573576 -0.819152 -0.000000
    outer loop
      vertex -3.400715 -2.381206 6.000000
      vertex -3.134597 -2.194869 7.330309
      vertex -3.486954 -2.441591 6.000000
    endloop
  endfacet
  facet normal 0.573576 -0.819152 -0.000000
    outer loop
      vertex -4.919595 -3.444737 8.000000
      vertex -3.072288 -2.151240 0.000000
      vertex -3.486954 -2.441591 2.000000
    endloop
  endfacet
  facet normal 0.573576 -0.819152 -0.000000
    outer loop
      vertex -3.134597 -2.194869 7.330309
      vertex -3.072288 -2.151240 7.641787
      vertex -3.486954 -2.441591 6.000000
    endloop
  endfacet
  facet normal 0.573576 -0.819152 0.000000
    outer loop
      vertex -3.072288 -2.151240 7.641787
      vertex -3.072288 -2.151240 8.000000
      vertex -3.486954 -2.441591 6.000000
    endloop
  endfacet
  facet normal 0.573576 -0.819152 0.000000
    outer loop
      vertex -3.072288 -2.151240 8.000000
      vertex -4.919595 -3.444737 8.000000
      vertex -3.486954 -2.441591 6.000000
    endloop
  endfacet
  facet normal 0.573576 -0.819152 0.000000
    outer loop
      vertex -4.919595 -3.444737 8.000000
      vertex -4.919595 -3.444737 0.000000
      vertex -3.072288 -2.151240 0.000000
    endloop
  endfacet
  facet normal 0.809017 0.587785 0.000000
    outer loop
      vertex -3.502330 -1.559338 2.000000
      vertex -3.072288 -2.151240 2.000000
      vertex -3.072288 -2.151240 0.000000
    endloop
  endfacet
  facet normal 0.809017 0.587785 0.000000
    outer loop
      vertex -3.502330 -1.559338 0.000000
      vertex -3.502330 -1.559338 2.000000
      vertex -3.072288 -2.151240 0.000000
    endloop
  endfacet
  facet normal 0.978148 0.207911 0.000000
    outer loop
      vertex -3.833777 0.000000 2.000000
      vertex -3.502330 -1.559338 2.000000
      vertex -3.502330 -1.559338 0.000000
    endloop
  endfacet
  facet normal 0.978148 0.207911 0.000000
    outer loop
      vertex -3.833777 0.000000 0.000000
      vertex -3.833777 0.000000 2.000000
      vertex -3.502330 -1.559338 0.000000
    endloop
  endfacet
  facet normal 0.978148 -0.207911 0.000000
    outer loop
      vertex -3.502330 1.559338 0.000000
      vertex -3.502330 1.559338 2.000000
      vertex -3.833777 0.000000 2.000000
    endloop
  endfacet
  facet normal 0.978148 -0.207911 0.000000
    outer loop
      vertex -3.833777 0.000000 0.000000
      vertex -3.502330 1.559338 0.000000
      vertex -3.833777 0.000000 2.000000
    endloop
  endfacet
  facet normal 0.809017 -0.587785 0.000000
    outer loop
      vertex -2.565298 2.849052 0.000000
      vertex -2.565298 2.849052 2.000000
      vertex -3.502330 1.559338 2.000000
    endloop
  endfacet
  facet normal 0.809017 -0.587785 0.000000
    outer loop
      vertex -3.502330 1.559338 0.000000
      vertex -2.565298 2.849052 0.000000
      vertex -3.502330 1.559338 2.000000
    endloop
  endfacet
  facet normal 0.500000 -0.866026 0.000000
    outer loop
      vertex -1.500000 3.464102 0.000000
      vertex -1.500000 3.464102 2.000000
      vertex -2.565298 2.849052 2.000000
    endloop
  endfacet
  facet normal 0.500000 -0.866026 0.000000
    outer loop
      vertex -2.565298 2.849052 0.000000
      vertex -1.500000 3.464102 0.000000
      vertex -2.565298 2.849052 2.000000
    endloop
  endfacet
  facet normal -1.000000 -0.000000 -0.000000
    outer loop
      vertex -1.500000 3.348076 0.000000
      vertex -1.500000 3.348076 8.000000
      vertex -1.500000 3.464102 0.000000
    endloop
  endfacet
  facet normal -1.000000 0.000000 0.000000
    outer loop
      vertex -1.500000 3.464102 7.524505
      vertex -1.500000 3.348076 8.000000
      vertex -1.500000 3.464102 8.000000
    endloop
  endfacet
  facet normal -1.000000 0.000000 0.000000
    outer loop
      vertex -1.500000 3.464102 0.000000
      vertex -1.500000 3.348076 8.000000
      vertex -1.500000 3.464102 2.000000
    endloop
  endfacet
  facet normal -1.000000 0.000000 0.000000
    outer loop
      vertex -1.500000 3.464102 7.524505
      vertex -1.500000 3.533825 7.266769
      vertex -1.500000 3.464102 2.000000
    endloop
  endfacet
  facet normal -1.000000 0.000000 0.000000
    outer loop
      vertex -1.500000 3.464102 7.524505
      vertex -1.500000 3.464102 2.000000
      vertex -1.500000 3.348076 8.000000
    endloop
  endfacet
  facet normal -1.000000 0.000000 0.000000
    outer loop
      vertex -1.500000 3.464102 2.000000
      vertex -1.500000 3.533825 7.266769
      vertex -1.500000 3.876514 6.000000
    endloop
  endfacet
  facet normal -1.000000 0.000000 0.000000
    outer loop
      vertex -1.500000 3.464102 2.000000
      vertex -1.500000 3.876514 6.000000
      vertex -1.500000 3.991893 6.000000
    endloop
  endfacet
  facet normal -1.000000 -0.000000 0.000000
    outer loop
      vertex -1.500000 3.464102 2.000000
      vertex -1.500000 3.991893 6.000000
      vertex -1.500000 3.991893 2.000000
    endloop
  endfacet
  facet normal 0.258819 -0.965926 0.000000
    outer loop
      vertex 0.000000 3.750000 0.000000
      vertex 0.000000 3.750000 8.000000
      vertex -1.500000 3.348076 8.000000
    endloop
  endfacet
  facet normal 0.258819 -0.965926 0.000000
    outer loop
      vertex -1.500000 3.348076 0.000000
      vertex 0.000000 3.750000 0.000000
      vertex -1.500000 3.348076 8.000000
    endloop
  endfacet
  facet normal -0.258819 -0.965926 -0.000000
    outer loop
      vertex 1.500000 3.348076 0.000000
      vertex 1.500000 3.348076 8.000000
      vertex 0.000000 3.750000 8.000000
    endloop
  endfacet
  facet normal -0.258819 -0.965926 -0.000000
    outer loop
      vertex 0.000000 3.750000 0.000000
      vertex 1.500000 3.348076 0.000000
      vertex 0.000000 3.750000 8.000000
    endloop
  endfacet
  facet normal 1.000000 0.000000 -0.000000
    outer loop
      vertex 1.500000 3.348076 8.000000
      vertex 1.500000 3.348076 0.000000
      vertex 1.500000 3.455603 0.000000
    endloop
  endfacet
  facet normal 1.000000 -0.000000 0.000000
    outer loop
      vertex 1.500000 4.000825 2.000000
      vertex 1.500000 3.348076 8.000000
      vertex 1.500000 3.455603 2.000000
    endloop
  endfacet
  facet normal 1.000000 -0.000000 0.000000
    outer loop
      vertex 1.500000 3.455603 2.000000
      vertex 1.500000 3.348076 8.000000
      vertex 1.500000 3.455603 0.000000
    endloop
  endfacet
  facet normal 1.000000 -0.000000 -0.000000
    outer loop
      vertex 1.500000 3.455603 7.555919
      vertex 1.500000 3.348076 8.000000
      vertex 1.500000 4.000825 2.000000
    endloop
  endfacet
  facet normal 1.000000 0.000000 0.000000
    outer loop
      vertex 1.500000 4.000825 6.000000
      vertex 1.500000 3.876514 6.000000
      vertex 1.500000 4.000825 2.000000
    endloop
  endfacet
  facet normal 1.000000 -0.000000 -0.000000
    outer loop
      vertex 1.500000 3.876514 6.000000
      vertex 1.500000 3.661131 6.796175
      vertex 1.500000 4.000825 2.000000
    endloop
  endfacet
  facet normal 1.000000 -0.000000 -0.000000
    outer loop
      vertex 1.500000 3.661131 6.796175
      vertex 1.500000 3.455603 7.555919
      vertex 1.500000 4.000825 2.000000
    endloop
  endfacet
  facet normal 1.000000 0.000000 0.000000
    outer loop
      vertex 1.500000 3.455603 7.555919
      vertex 1.500000 3.455603 8.000000
      vertex 1.500000 3.348076 8.000000
    endloop
  endfacet
  facet normal -0.309017 -0.951057 -0.000000
    outer loop
      vertex 1.916889 3.320148 0.000000
      vertex 1.916889 3.320148 2.000000
      vertex 1.500000 3.455603 2.000000
    endloop
  endfacet
  facet normal -0.309017 -0.951057 -0.000000
    outer loop
      vertex 1.500000 3.455603 0.000000
      vertex 1.916889 3.320148 0.000000
      vertex 1.500000 3.455603 2.000000
    endloop
  endfacet
  facet normal -0.669130 -0.743145 -0.000000
    outer loop
      vertex 3.101591 2.253438 0.000000
      vertex 3.101591 2.253438 2.000000
      vertex 1.916889 3.320148 2.000000
    endloop
  endfacet
  facet normal -0.669130 -0.743145 -0.000000
    outer loop
      vertex 1.916889 3.320148 0.000000
      vertex 3.101591 2.253438 0.000000
      vertex 1.916889 3.320148 2.000000
    endloop
  endfacet
  facet normal -0.913546 -0.406737 0.000000
    outer loop
      vertex 3.750000 0.797087 2.000000
      vertex 3.101591 2.253438 2.000000
      vertex 3.750000 0.797087 0.000000
    endloop
  endfacet
  facet normal -0.913546 -0.406737 0.000000
    outer loop
      vertex 3.750000 0.797087 0.000000
      vertex 3.101591 2.253438 2.000000
      vertex 3.101591 2.253438 0.000000
    endloop
  endfacet
  facet normal -1.000000 0.000000 0.000000
    outer loop
      vertex 3.750000 0.797087 2.000000
      vertex 3.750000 0.797087 0.000000
      vertex 3.750000 -0.797087 2.000000
    endloop
  endfacet
  facet normal -1.000000 0.000000 0.000000
    outer loop
      vertex 3.750000 -0.797087 2.000000
      vertex 3.750000 0.797087 0.000000
      vertex 3.750000 -0.797087 0.000000
    endloop
  endfacet
  facet normal -0.913546 0.406737 0.000000
    outer loop
      vertex 3.750000 -0.797087 2.000000
      vertex 3.750000 -0.797087 0.000000
      vertex 3.129315 -2.191170 2.000000
    endloop
  endfacet
  facet normal -0.913546 0.406737 0.000000
    outer loop
      vertex 3.129315 -2.191170 2.000000
      vertex 3.750000 -0.797087 0.000000
      vertex 3.129315 -2.191170 0.000000
    endloop
  endfacet
  facet normal -0.573576 -0.819152 -0.000000
    outer loop
      vertex 4.919595 -3.444737 0.000000
      vertex 4.919595 -3.444737 8.000000
      vertex 3.129315 -2.191170 8.000000
    endloop
  endfacet
  facet normal -0.573576 -0.819152 0.000000
    outer loop
      vertex 3.510262 -2.457912 6.000000
      vertex 3.510262 -2.457912 2.000000
      vertex 4.919595 -3.444737 0.000000
    endloop
  endfacet
  facet normal -0.573576 -0.819152 0.000000
    outer loop
      vertex 3.510262 -2.457912 6.000000
      vertex 4.919595 -3.444737 0.000000
      vertex 3.129315 -2.191170 8.000000
    endloop
  endfacet
  facet normal -0.573576 -0.819152 -0.000000
    outer loop
      vertex 3.129315 -2.191170 7.356716
      vertex 3.510262 -2.457912 6.000000
      vertex 3.129315 -2.191170 8.000000
    endloop
  endfacet
  facet normal -0.573576 -0.819152 0.000000
    outer loop
      vertex 3.129315 -2.191170 2.000000
      vertex 4.919595 -3.444737 0.000000
      vertex 3.510262 -2.457912 2.000000
    endloop
  endfacet
  facet normal -0.573576 -0.819152 -0.000000
    outer loop
      vertex 3.129315 -2.191170 0.000000
      vertex 4.919595 -3.444737 0.000000
      vertex 3.129315 -2.191170 2.000000
    endloop
  endfacet
  facet normal -0.573576 -0.819152 -0.000000
    outer loop
      vertex 3.243606 -2.271198 6.785378
      vertex 3.510262 -2.457912 6.000000
      vertex 3.129315 -2.191170 7.356716
    endloop
  endfacet
  facet normal -0.573576 -0.819152 0.000000
    outer loop
      vertex 3.400715 -2.381206 6.000000
      vertex 3.510262 -2.457912 6.000000
      vertex 3.243606 -2.271198 6.785378
    endloop
  endfacet
  facet normal 0.793353 -0.608762 0.000000
    outer loop
      vertex 4.919595 -3.444737 8.000000
      vertex 4.919595 -3.444737 0.000000
      vertex 5.240990 -3.025887 0.000000
    endloop
  endfacet
  facet normal 0.793353 -0.608762 0.000000
    outer loop
      vertex 5.240990 -3.025887 8.000000
      vertex 4.919595 -3.444737 8.000000
      vertex 5.240990 -3.025887 0.000000
    endloop
  endfacet
  facet normal 0.923880 -0.382683 0.000000
    outer loop
      vertex 5.240990 -3.025887 8.000000
      vertex 5.240990 -3.025887 0.000000
      vertex 5.845565 -1.566314 0.000000
    endloop
  endfacet
  facet normal 0.923880 -0.382683 0.000000
    outer loop
      vertex 5.845565 -1.566314 8.000000
      vertex 5.240990 -3.025887 8.000000
      vertex 5.845565 -1.566314 0.000000
    endloop
  endfacet
  facet normal 0.991445 -0.130526 0.000000
    outer loop
      vertex 5.845565 -1.566314 8.000000
      vertex 5.845565 -1.566314 0.000000
      vertex 6.051774 -0.000000 0.000000
    endloop
  endfacet
  facet normal 0.991445 -0.130526 0.000000
    outer loop
      vertex 6.051774 -0.000000 8.000000
      vertex 5.845565 -1.566314 8.000000
      vertex 6.051774 -0.000000 0.000000
    endloop
  endfacet
  facet normal 0.991445 0.130526 0.000000
    outer loop
      vertex 6.051774 -0.000000 0.000000
      vertex 6.000000 0.393263 0.000000
      vertex 6.000000 0.393263 8.000000
    endloop
  endfacet
  facet normal 0.991445 0.130526 -0.000000
    outer loop
      vertex 6.051774 -0.000000 8.000000
      vertex 6.051774 -0.000000 0.000000
      vertex 6.000000 0.393263 8.000000
    endloop
  endfacet
  facet normal 1.000000 0.000000 -0.000000
    outer loop
      vertex 6.000000 0.393263 8.000000
      vertex 6.000000 0.393263 0.000000
      vertex 6.000000 5.000000 0.000000
    endloop
  endfacet
  facet normal 1.000000 0.000000 0.000000
    outer loop
      vertex 6.000000 5.000000 8.000000
      vertex 6.000000 0.393263 8.000000
      vertex 6.000000 5.000000 0.000000
    endloop
  endfacet
  facet normal 0.707107 0.707107 0.000000
    outer loop
      vertex 5.000000 6.000000 8.000000
      vertex 6.000000 5.000000 8.000000
      vertex 6.000000 5.000000 0.000000
    endloop
  endfacet
  facet normal 0.707107 0.707107 0.000000
    outer loop
      vertex 5.000000 6.000000 0.000000
      vertex 5.000000 6.000000 8.000000
      vertex 6.000000 5.000000 0.000000
    endloop
  endfacet
  facet normal 0.000000 1.000000 0.000000
    outer loop
      vertex 5.000000 6.000000 8.000000
      vertex 5.000000 6.000000 0.000000
      vertex 4.000000 6.000000 8.000000
    endloop
  endfacet
  facet normal 0.000000 1.000000 -0.000000
    outer loop
      vertex 4.000000 6.000000 8.000000
      vertex 5.000000 6.000000 0.000000
      vertex 4.000000 6.000000 0.000000
    endloop
  endfacet
  facet normal 1.000000 0.000000 -0.000000
    outer loop
      vertex 4.000000 6.000000 8.000000
      vertex 4.000000 6.000000 0.000000
      vertex 4.000000 9.000000 0.000000
    endloop
  endfacet
  facet normal 1.000000 0.000000 0.000000
    outer loop
      vertex 4.000000 9.000000 8.000000
      vertex 4.000000 6.000000 8.000000
      vertex 4.000000 9.000000 0.000000
    endloop
  endfacet
  facet normal 0.707107 0.707107 0.000000
    outer loop
      vertex 3.000000 10.000000 8.000000
      vertex 4.000000 9.000000 8.000000
      vertex 4.000000 9.000000 0.000000
    endloop
  endfacet
  facet normal 0.707107 0.707107 0.000000
    outer loop
      vertex 3.000000 10.000000 0.000000
      vertex 3.000000 10.000000 8.000000
      vertex 4.000000 9.000000 0.000000
    endloop
  endfacet
  facet normal 0.000000 1.000000 0.000000
    outer loop
      vertex 0.954594 10.000000 4.954594
      vertex -3.000000 10.000000 8.000000
      vertex 3.000000 10.000000 8.000000
    endloop
  endfacet
  facet normal 0.000000 1.000000 0.000000
    outer loop
      vertex -3.000000 10.000000 0.000000
      vertex -3.000000 10.000000 8.000000
      vertex -1.350000 10.000000 4.000000
    endloop
  endfacet
  facet normal 0.000000 1.000000 0.000000
    outer loop
      vertex -3.000000 10.000000 0.000000
      vertex -1.350000 10.000000 4.000000
      vertex -0.954594 10.000000 3.045406
    endloop
  endfacet
  facet normal 0.000000 1.000000 0.000000
    outer loop
      vertex -3.000000 10.000000 0.000000
      vertex -0.954594 10.000000 3.045406
      vertex 3.000000 10.000000 0.000000
    endloop
  endfacet
  facet normal 0.000000 1.000000 0.000000
    outer loop
      vertex -0.954594 10.000000 3.045406
      vertex 0.000000 10.000000 2.650000
      vertex 3.000000 10.000000 0.000000
    endloop
  endfacet
  facet normal 0.000000 1.000000 0.000000
    outer loop
      vertex 0.954594 10.000000 4.954594
      vertex 3.000000 10.000000 8.000000
      vertex 1.350000 10.000000 4.000000
    endloop
  endfacet
  facet normal 0.000000 1.000000 0.000000
    outer loop
      vertex 3.000000 10.000000 0.000000
      vertex 0.954594 10.000000 3.045406
      vertex 1.350000 10.000000 4.000000
    endloop
  endfacet
  facet normal 0.000000 1.000000 0.000000
    outer loop
      vertex 3.000000 10.000000 0.000000
      vertex 1.350000 10.000000 4.000000
      vertex 3.000000 10.000000 8.000000
    endloop
  endfacet
  facet normal 0.000000 1.000000 0.000000
    outer loop
      vertex 0.000000 10.000000 5.350000
      vertex -3.000000 10.000000 8.000000
      vertex 0.954594 10.000000 4.954594
    endloop
  endfacet
  facet normal 0.000000 1.000000 0.000000
    outer loop
      vertex -0.954594 10.000000 4.954594
      vertex -3.000000 10.000000 8.000000
      vertex 0.000000 10.000000 5.350000
    endloop
  endfacet
  facet normal 0.000000 1.000000 0.000000
    outer loop
      vertex -1.350000 10.000000 4.000000
      vertex -3.000000 10.000000 8.000000
      vertex -0.954594 10.000000 4.954594
    endloop
  endfacet
  facet normal 0.000000 1.000000 -0.000000
    outer loop
      vertex 0.954594 10.000000 3.045406
      vertex 3.000000 10.000000 0.000000
      vertex 0.000000 10.000000 2.650000
    endloop
  endfacet
  facet normal -0.707107 0.707107 0.000000
    outer loop
      vertex -4.000000 9.000000 0.000000
      vertex -4.000000 9.000000 8.000000
      vertex -3.000000 10.000000 0.000000
    endloop
  endfacet
  facet normal -0.707107 0.707107 0.000000
    outer loop
      vertex -3.000000 10.000000 0.000000
      vertex -4.000000 9.000000 8.000000
      vertex -3.000000 10.000000 8.000000
    endloop
  endfacet
  facet normal -1.000000 -0.000000 -0.000000
    outer loop
      vertex -4.000000 6.000000 0.000000
      vertex -4.000000 6.000000 8.000000
      vertex -4.000000 9.000000 0.000000
    endloop
  endfacet
  facet normal -1.000000 0.000000 0.000000
    outer loop
      vertex -4.000000 9.000000 0.000000
      vertex -4.000000 6.000000 8.000000
      vertex -4.000000 9.000000 8.000000
    endloop
  endfacet
  facet normal 0.000000 1.000000 0.000000
    outer loop
      vertex -4.000000 6.000000 8.000000
      vertex -4.000000 6.000000 0.000000
      vertex -5.000000 6.000000 8.000000
    endloop
  endfacet
  facet normal 0.000000 1.000000 -0.000000
    outer loop
      vertex -5.000000 6.000000 8.000000
      vertex -4.000000 6.000000 0.000000
      vertex -5.000000 6.000000 0.000000
    endloop
  endfacet
  facet normal -0.707107 0.707107 0.000000
    outer loop
      vertex -6.000000 5.000000 0.000000
      vertex -6.000000 5.000000 8.000000
      vertex -5.000000 6.000000 0.000000
    endloop
  endfacet
  facet normal -0.707107 0.707107 0.000000
    outer loop
      vertex -5.000000 6.000000 0.000000
      vertex -6.000000 5.000000 8.000000
      vertex -5.000000 6.000000 8.000000
    endloop
  endfacet
  facet normal -1.000000 -0.000000 -0.000000
    outer loop
      vertex -6.000000 0.393263 0.000000
      vertex -6.000000 0.393263 8.000000
      vertex -6.000000 5.000000 0.000000
    endloop
  endfacet
  facet normal -1.000000 0.000000 0.000000
    outer loop
      vertex -6.000000 5.000000 0.000000
      vertex -6.000000 0.393263 8.000000
      vertex -6.000000 5.000000 8.000000
    endloop
  endfacet
  facet normal 0.000000 -0.000000 1.000000
    outer loop
      vertex -6.000000 0.393263 8.000000
      vertex -6.051774 0.000000 8.000000
      vertex -5.845565 -1.566314 8.000000
    endloop
  endfacet
  facet normal 0.000000 0.000000 1.000000
    outer loop
      vertex -4.919595 -3.444737 8.000000
      vertex -6.000000 0.393263 8.000000
      vertex -5.240990 -3.025887 8.000000
    endloop
  endfacet
  facet normal 0.000000 0.000000 1.000000
    outer loop
      vertex -5.240990 -3.025887 8.000000
      vertex -6.000000 0.393263 8.000000
      vertex -5.845565 -1.566314 8.000000
    endloop
  endfacet
  facet normal -0.000000 0.000000 1.000000
    outer loop
      vertex -3.072288 -2.151240 8.000000
      vertex -6.000000 0.393263 8.000000
      vertex -4.919595 -3.444737 8.000000
    endloop
  endfacet
  facet normal -0.000000 -0.000000 1.000000
    outer loop
      vertex -3.502330 -1.559338 8.000000
      vertex -6.000000 0.393263 8.000000
      vertex -3.072288 -2.151240 8.000000
    endloop
  endfacet
  facet normal -0.000000 -0.000000 1.000000
    outer loop
      vertex -3.833777 0.000000 8.000000
      vertex -6.000000 0.393263 8.000000
      vertex -3.502330 -1.559338 8.000000
    endloop
  endfacet
  facet normal 0.000000 0.000000 1.000000
    outer loop
      vertex -3.502330 1.559338 8.000000
      vertex -6.000000 0.393263 8.000000
      vertex -3.833777 0.000000 8.000000
    endloop
  endfacet
  facet normal 0.000000 0.000000 1.000000
    outer loop
      vertex -2.565298 2.849052 8.000000
      vertex -6.000000 0.393263 8.000000
      vertex -3.502330 1.559338 8.000000
    endloop
  endfacet
  facet normal 0.000000 -0.000000 1.000000
    outer loop
      vertex -4.000000 9.000000 8.000000
      vertex -4.000000 6.000000 8.000000
      vertex -3.000000 10.000000 8.000000
    endloop
  endfacet
  facet normal 0.000000 0.000000 1.000000
    outer loop
      vertex 4.000000 9.000000 8.000000
      vertex -2.565298 2.849052 8.000000
      vertex -1.500000 3.464102 8.000000
    endloop
  endfacet
  facet normal 0.000000 0.000000 1.000000
    outer loop
      vertex 0.000000 3.750000 8.000000
      vertex -1.500000 3.464102 8.000000
      vertex -1.500000 3.348076 8.000000
    endloop
  endfacet
  facet normal 0.000000 0.000000 1.000000
    outer loop
      vertex 4.000000 9.000000 8.000000
      vertex -6.000000 0.393263 8.000000
      vertex -2.565298 2.849052 8.000000
    endloop
  endfacet
  facet normal -0.000000 0.000000 1.000000
    outer loop
      vertex 1.500000 3.455603 8.000000
      vertex 0.000000 3.750000 8.000000
      vertex 1.500000 3.348076 8.000000
    endloop
  endfacet
  facet normal -0.000000 0.000000 1.000000
    outer loop
      vertex 4.000000 9.000000 8.000000
      vertex 3.000000 10.000000 8.000000
      vertex -6.000000 0.393263 8.000000
    endloop
  endfacet
  facet normal 0.000000 0.000000 1.000000
    outer loop
      vertex 6.051774 -0.000000 8.000000
      vertex 1.916889 3.320148 8.000000
      vertex 3.101591 2.253438 8.000000
    endloop
  endfacet
  facet normal 0.000000 0.000000 1.000000
    outer loop
      vertex 5.845565 -1.566314 8.000000
      vertex 3.101591 2.253438 8.000000
      vertex 3.750000 0.797087 8.000000
    endloop
  endfacet
  facet normal 0.000000 0.000000 1.000000
    outer loop
      vertex 4.919595 -3.444737 8.000000
      vertex 3.750000 0.797087 8.000000
      vertex 3.750000 -0.797087 8.000000
    endloop
  endfacet
  facet normal 0.000000 0.000000 1.000000
    outer loop
      vertex 4.919595 -3.444737 8.000000
      vertex 3.750000 -0.797087 8.000000
      vertex 3.129315 -2.191170 8.000000
    endloop
  endfacet
  facet normal -0.000000 0.000000 1.000000
    outer loop
      vertex 5.240990 -3.025887 8.000000
      vertex 3.750000 0.797087 8.000000
      vertex 4.919595 -3.444737 8.000000
    endloop
  endfacet
  facet normal -0.000000 0.000000 1.000000
    outer loop
      vertex 5.845565 -1.566314 8.000000
      vertex 3.750000 0.797087 8.000000
      vertex 5.240990 -3.025887 8.000000
    endloop
  endfacet
  facet normal -0.000000 0.000000 1.000000
    outer loop
      vertex 6.051774 -0.000000 8.000000
      vertex 3.101591 2.253438 8.000000
      vertex 5.845565 -1.566314 8.000000
    endloop
  endfacet
  facet normal -0.000000 -0.000000 1.000000
    outer loop
      vertex 6.000000 0.393263 8.000000
      vertex 1.916889 3.320148 8.000000
      vertex 6.051774 -0.000000 8.000000
    endloop
  endfacet
  facet normal 0.000000 -0.000000 1.000000
    outer loop
      vertex 6.000000 5.000000 8.000000
      vertex 1.916889 3.320148 8.000000
      vertex 6.000000 0.393263 8.000000
    endloop
  endfacet
  facet normal 0.000000 -0.000000 1.000000
    outer loop
      vertex 4.000000 6.000000 8.000000
      vertex -1.500000 3.464102 8.000000
      vertex 5.000000 6.000000 8.000000
    endloop
  endfacet
  facet normal 0.000000 0.000000 1.000000
    outer loop
      vertex 4.000000 9.000000 8.000000
      vertex -1.500000 3.464102 8.000000
      vertex 4.000000 6.000000 8.000000
    endloop
  endfacet
  facet normal 0.000000 -0.000000 1.000000
    outer loop
      vertex -4.000000 6.000000 8.000000
      vertex -6.000000 0.393263 8.000000
      vertex 3.000000 10.000000 8.000000
    endloop
  endfacet
  facet normal 0.000000 0.000000 1.000000
    outer loop
      vertex -4.000000 6.000000 8.000000
      vertex -5.000000 6.000000 8.000000
      vertex -6.000000 0.393263 8.000000
    endloop
  endfacet
  facet normal 0.000000 -0.000000 1.000000
    outer loop
      vertex -3.000000 10.000000 8.000000
      vertex -4.000000 6.000000 8.000000
      vertex 3.000000 10.000000 8.000000
    endloop
  endfacet
  facet normal 0.000000 -0.000000 1.000000
    outer loop
      vertex -6.000000 5.000000 8.000000
      vertex -6.000000 0.393263 8.000000
      vertex -5.000000 6.000000 8.000000
    endloop
  endfacet
  facet normal 0.000000 0.000000 1.000000
    outer loop
      vertex 6.000000 5.000000 8.000000
      vertex 1.500000 3.455603 8.000000
      vertex 1.916889 3.320148 8.000000
    endloop
  endfacet
  facet normal 0.000000 0.000000 1.000000
    outer loop
      vertex 6.000000 5.000000 8.000000
      vertex 0.000000 3.750000 8.000000
      vertex 1.500000 3.455603 8.000000
    endloop
  endfacet
  facet normal 0.000000 0.000000 1.000000
    outer loop
      vertex 6.000000 5.000000 8.000000
      vertex -1.500000 3.464102 8.000000
      vertex 0.000000 3.750000 8.000000
    endloop
  endfacet
  facet normal -0.000000 0.000000 1.000000
    outer loop
      vertex 6.000000 5.000000 8.000000
      vertex 5.000000 6.000000 8.000000
      vertex -1.500000 3.464102 8.000000
    endloop
  endfacet
  facet normal 0.809017 0.587785 0.000000
    outer loop
      vertex -3.502330 -1.559338 8.000000
      vertex -3.072288 -2.151240 8.000000
      vertex -3.072288 -2.151240 7.641787
    endloop
  endfacet
  facet normal 0.809017 0.587785 -0.000000
    outer loop
      vertex -3.433816 -1.653639 7.755005
      vertex -3.502330 -1.559338 8.000000
      vertex -3.270747 -1.878084 7.703937
    endloop
  endfacet
  facet normal 0.809017 0.587785 -0.000000
    outer loop
      vertex -3.270747 -1.878084 7.703937
      vertex -3.502330 -1.559338 8.000000
      vertex -3.072288 -2.151240 7.641787
    endloop
  endfacet
  facet normal 0.809017 0.587785 0.000000
    outer loop
      vertex -3.502330 -1.559338 7.567045
      vertex -3.502330 -1.559338 8.000000
      vertex -3.433816 -1.653639 7.755005
    endloop
  endfacet
  facet normal 0.759595 0.605757 -0.236800
    outer loop
      vertex -3.072288 -2.151240 7.641787
      vertex -3.134597 -2.194869 7.330309
      vertex -3.270747 -1.878084 7.703937
    endloop
  endfacet
  facet normal 0.759595 0.605757 -0.236800
    outer loop
      vertex -3.433816 -1.653639 7.755005
      vertex -3.270747 -1.878084 7.703937
      vertex -3.134597 -2.194869 7.330309
    endloop
  endfacet
  facet normal 0.759595 0.605757 -0.236800
    outer loop
      vertex -3.829118 -1.844006 6.000000
      vertex -3.433816 -1.653639 7.755005
      vertex -3.400715 -2.381206 6.000000
    endloop
  endfacet
  facet normal 0.759595 0.605757 -0.236800
    outer loop
      vertex -3.400715 -2.381206 6.000000
      vertex -3.433816 -1.653639 7.755005
      vertex -3.134597 -2.194869 7.330309
    endloop
  endfacet
  facet normal 0.000000 0.000000 -1.000000
    outer loop
      vertex -4.250000 0.000000 6.000000
      vertex -4.031654 1.561871 6.000000
      vertex -3.829118 1.844006 6.000000
    endloop
  endfacet
  facet normal 0.000000 0.000000 -1.000000
    outer loop
      vertex -3.195192 2.912802 6.000000
      vertex -1.927202 3.870344 6.000000
      vertex -2.649832 3.322784 6.000000
    endloop
  endfacet
  facet normal -0.000000 0.000000 -1.000000
    outer loop
      vertex -3.195192 2.912802 6.000000
      vertex -2.649832 3.322784 6.000000
      vertex -3.829118 1.844006 6.000000
    endloop
  endfacet
  facet normal 0.000000 0.000000 -1.000000
    outer loop
      vertex -3.195192 2.912802 6.000000
      vertex -3.829118 1.844006 6.000000
      vertex -4.031654 1.561871 6.000000
    endloop
  endfacet
  facet normal 0.000000 0.000000 -1.000000
    outer loop
      vertex -3.829118 -1.844006 6.000000
      vertex -3.400715 -2.381206 6.000000
      vertex -3.486954 -2.441591 6.000000
    endloop
  endfacet
  facet normal 0.000000 0.000000 -1.000000
    outer loop
      vertex -3.829118 -1.844006 6.000000
      vertex -3.486954 -2.441591 6.000000
      vertex -4.031654 -1.561871 6.000000
    endloop
  endfacet
  facet normal 0.000000 0.000000 -1.000000
    outer loop
      vertex -3.829118 -1.844006 6.000000
      vertex -4.031654 -1.561871 6.000000
      vertex -4.250000 0.000000 6.000000
    endloop
  endfacet
  facet normal 0.000000 0.000000 -1.000000
    outer loop
      vertex -4.250000 0.000000 6.000000
      vertex -4.031654 -1.561871 6.000000
      vertex -4.323618 0.000000 6.000000
    endloop
  endfacet
  facet normal 0.000000 -0.000000 -1.000000
    outer loop
      vertex -4.250000 0.000000 6.000000
      vertex -4.323618 0.000000 6.000000
      vertex -4.031654 1.561871 6.000000
    endloop
  endfacet
  facet normal 0.000000 0.000000 -1.000000
    outer loop
      vertex -2.649832 3.322784 6.000000
      vertex -1.927202 3.870344 6.000000
      vertex -1.500000 3.991893 6.000000
    endloop
  endfacet
  facet normal 0.000000 0.000000 -1.000000
    outer loop
      vertex -2.649832 3.322784 6.000000
      vertex -1.500000 3.991893 6.000000
      vertex -1.500000 3.876514 6.000000
    endloop
  endfacet
  facet normal 0.850217 0.526433 0.000000
    outer loop
      vertex -4.031654 -1.561871 6.000000
      vertex -3.486954 -2.441591 6.000000
      vertex -3.486954 -2.441591 2.000000
    endloop
  endfacet
  facet normal 0.850217 0.526433 0.000000
    outer loop
      vertex -4.031654 -1.561871 2.000000
      vertex -4.031654 -1.561871 6.000000
      vertex -3.486954 -2.441591 2.000000
    endloop
  endfacet
  facet normal 0.000000 0.000000 1.000000
    outer loop
      vertex -4.031654 -1.561871 2.000000
      vertex -3.486954 -2.441591 2.000000
      vertex -3.072288 -2.151240 2.000000
    endloop
  endfacet
  facet normal 0.000000 -0.000000 1.000000
    outer loop
      vertex -3.833777 0.000000 2.000000
      vertex -4.031654 -1.561871 2.000000
      vertex -3.502330 -1.559338 2.000000
    endloop
  endfacet
  facet normal 0.000000 -0.000000 1.000000
    outer loop
      vertex -3.502330 -1.559338 2.000000
      vertex -4.031654 -1.561871 2.000000
      vertex -3.072288 -2.151240 2.000000
    endloop
  endfacet
  facet normal 0.000000 -0.000000 1.000000
    outer loop
      vertex -4.031654 1.561871 2.000000
      vertex -4.031654 -1.561871 2.000000
      vertex -3.833777 0.000000 2.000000
    endloop
  endfacet
  facet normal 0.000000 0.000000 1.000000
    outer loop
      vertex -4.031654 1.561871 2.000000
      vertex -3.833777 0.000000 2.000000
      vertex -3.502330 1.559338 2.000000
    endloop
  endfacet
  facet normal 0.000000 0.000000 1.000000
    outer loop
      vertex -1.927202 3.870344 2.000000
      vertex -3.502330 1.559338 2.000000
      vertex -2.565298 2.849052 2.000000
    endloop
  endfacet
  facet normal 0.000000 0.000000 1.000000
    outer loop
      vertex -1.500000 3.991893 2.000000
      vertex -2.565298 2.849052 2.000000
      vertex -1.500000 3.464102 2.000000
    endloop
  endfacet
  facet normal 0.000000 -0.000000 1.000000
    outer loop
      vertex -1.927202 3.870344 2.000000
      vertex -2.565298 2.849052 2.000000
      vertex -1.500000 3.991893 2.000000
    endloop
  endfacet
  facet normal 0.000000 -0.000000 1.000000
    outer loop
      vertex -3.195192 2.912802 2.000000
      vertex -3.502330 1.559338 2.000000
      vertex -1.927202 3.870344 2.000000
    endloop
  endfacet
  facet normal 0.000000 0.000000 1.000000
    outer loop
      vertex -4.031654 1.561871 2.000000
      vertex -3.502330 1.559338 2.000000
      vertex -3.195192 2.912802 2.000000
    endloop
  endfacet
  facet normal 0.000000 0.000000 1.000000
    outer loop
      vertex -4.323618 0.000000 2.000000
      vertex -4.031654 -1.561871 2.000000
      vertex -4.031654 1.561871 2.000000
    endloop
  endfacet
  facet normal 0.273663 -0.961826 0.000000
    outer loop
      vertex -1.500000 3.991893 2.000000
      vertex -1.500000 3.991893 6.000000
      vertex -1.927202 3.870344 6.000000
    endloop
  endfacet
  facet normal 0.273663 -0.961826 0.000000
    outer loop
      vertex -1.927202 3.870344 2.000000
      vertex -1.500000 3.991893 2.000000
      vertex -1.927202 3.870344 6.000000
    endloop
  endfacet
  facet normal 0.421543 -0.875344 -0.236800
    outer loop
      vertex -1.500000 3.876514 6.000000
      vertex -1.500000 3.533825 7.266769
      vertex -2.649832 3.322784 6.000000
    endloop
  endfacet
  facet normal 0.421544 -0.875344 -0.236800
    outer loop
      vertex -1.500000 3.533825 7.266769
      vertex -1.500000 3.464102 7.524505
      vertex -2.364497 2.964985 7.830569
    endloop
  endfacet
  facet normal 0.421544 -0.875344 -0.236800
    outer loop
      vertex -2.649832 3.322784 6.000000
      vertex -1.500000 3.533825 7.266769
      vertex -2.364497 2.964985 7.830569
    endloop
  endfacet
  facet normal 0.500000 -0.866026 0.000000
    outer loop
      vertex -2.364497 2.964985 7.830569
      vertex -1.500000 3.464102 7.524505
      vertex -1.500000 3.464102 8.000000
    endloop
  endfacet
  facet normal 0.500000 -0.866026 0.000000
    outer loop
      vertex -2.565298 2.849052 7.483015
      vertex -2.364497 2.964985 7.830569
      vertex -2.565298 2.849052 8.000000
    endloop
  endfacet
  facet normal 0.500000 -0.866026 0.000000
    outer loop
      vertex -2.565298 2.849052 8.000000
      vertex -2.364497 2.964985 7.830569
      vertex -1.500000 3.464102 8.000000
    endloop
  endfacet
  facet normal -0.309017 -0.951057 0.000000
    outer loop
      vertex 1.876954 3.333124 7.337630
      vertex 1.916889 3.320148 7.314505
      vertex 1.916889 3.320148 8.000000
    endloop
  endfacet
  facet normal -0.309017 -0.951057 -0.000000
    outer loop
      vertex 1.500000 3.455603 7.555919
      vertex 1.876954 3.333124 7.337630
      vertex 1.500000 3.455603 8.000000
    endloop
  endfacet
  facet normal -0.309017 -0.951057 -0.000000
    outer loop
      vertex 1.500000 3.455603 8.000000
      vertex 1.876954 3.333124 7.337630
      vertex 1.916889 3.320148 8.000000
    endloop
  endfacet
  facet normal -0.421544 -0.875344 -0.236800
    outer loop
      vertex 1.500000 3.661131 6.796175
      vertex 1.876954 3.333124 7.337630
      vertex 1.500000 3.455603 7.555919
    endloop
  endfacet
  facet normal -0.421543 -0.875344 -0.236800
    outer loop
      vertex 1.500000 3.876514 6.000000
      vertex 2.649832 3.322784 6.000000
      vertex 2.342279 2.937125 7.973104
    endloop
  endfacet
  facet normal -0.421543 -0.875344 -0.236800
    outer loop
      vertex 1.876954 3.333124 7.337630
      vertex 1.500000 3.876514 6.000000
      vertex 1.916889 3.320148 7.314505
    endloop
  endfacet
  facet normal -0.421543 -0.875344 -0.236800
    outer loop
      vertex 1.916889 3.320148 7.314505
      vertex 1.500000 3.876514 6.000000
      vertex 2.342279 2.937125 7.973104
    endloop
  endfacet
  facet normal -0.421543 -0.875344 -0.236800
    outer loop
      vertex 1.500000 3.661131 6.796175
      vertex 1.500000 3.876514 6.000000
      vertex 1.876954 3.333124 7.337630
    endloop
  endfacet
  facet normal -0.000000 -0.000000 -1.000000
    outer loop
      vertex 1.500000 3.876514 6.000000
      vertex 1.500000 4.000825 6.000000
      vertex 2.649832 3.322784 6.000000
    endloop
  endfacet
  facet normal -0.000000 -0.000000 -1.000000
    outer loop
      vertex 3.829118 1.844006 6.000000
      vertex 3.676014 2.276091 6.000000
      vertex 4.250000 0.794463 6.000000
    endloop
  endfacet
  facet normal -0.000000 0.000000 0.000000
    outer loop
      vertex 4.250000 0.000000 6.000000
      vertex 4.250000 0.794463 6.000000
      vertex 4.250000 -0.794463 6.000000
    endloop
  endfacet
  facet normal -0.000000 0.000000 -1.000000
    outer loop
      vertex 3.829118 -1.844006 6.000000
      vertex 4.250000 -0.794463 6.000000
      vertex 3.676014 -2.276091 6.000000
    endloop
  endfacet
  facet normal 0.000000 0.000000 -1.000000
    outer loop
      vertex 4.250000 0.000000 6.000000
      vertex 4.250000 -0.794463 6.000000
      vertex 3.829118 -1.844006 6.000000
    endloop
  endfacet
  facet normal 0.000000 0.000000 -1.000000
    outer loop
      vertex 3.829118 1.844006 6.000000
      vertex 4.250000 0.794463 6.000000
      vertex 4.250000 0.000000 6.000000
    endloop
  endfacet
  facet normal 0.000000 0.000000 -1.000000
    outer loop
      vertex 2.649832 3.322784 6.000000
      vertex 3.676014 2.276091 6.000000
      vertex 3.829118 1.844006 6.000000
    endloop
  endfacet
  facet normal 0.000000 0.000000 -1.000000
    outer loop
      vertex 2.605562 3.450321 6.000000
      vertex 3.676014 2.276091 6.000000
      vertex 2.649832 3.322784 6.000000
    endloop
  endfacet
  facet normal 0.000000 0.000000 -1.000000
    outer loop
      vertex 2.605562 3.450321 6.000000
      vertex 2.649832 3.322784 6.000000
      vertex 1.500000 4.000825 6.000000
    endloop
  endfacet
  facet normal 0.000000 0.000000 -1.000000
    outer loop
      vertex 3.829118 -1.844006 6.000000
      vertex 3.676014 -2.276091 6.000000
      vertex 3.510262 -2.457912 6.000000
    endloop
  endfacet
  facet normal 0.000000 0.000000 -1.000000
    outer loop
      vertex 3.829118 -1.844006 6.000000
      vertex 3.510262 -2.457912 6.000000
      vertex 3.400715 -2.381206 6.000000
    endloop
  endfacet
  facet normal -0.445738 -0.895163 -0.000000
    outer loop
      vertex 2.605562 3.450321 2.000000
      vertex 2.605562 3.450321 6.000000
      vertex 1.500000 4.000825 6.000000
    endloop
  endfacet
  facet normal -0.445738 -0.895163 -0.000000
    outer loop
      vertex 1.500000 4.000825 2.000000
      vertex 2.605562 3.450321 2.000000
      vertex 1.500000 4.000825 6.000000
    endloop
  endfacet
  facet normal 0.000000 0.000000 1.000000
    outer loop
      vertex 4.250000 0.794463 2.000000
      vertex 3.101591 2.253438 2.000000
      vertex 3.750000 0.797087 2.000000
    endloop
  endfacet
  facet normal 0.000000 0.000000 1.000000
    outer loop
      vertex 3.750000 -0.797087 2.000000
      vertex 4.250000 -0.794463 2.000000
      vertex 3.750000 0.797087 2.000000
    endloop
  endfacet
  facet normal 0.000000 0.000000 1.000000
    outer loop
      vertex 1.916889 3.320148 2.000000
      vertex 3.101591 2.253438 2.000000
      vertex 3.676014 2.276091 2.000000
    endloop
  endfacet
  facet normal 0.000000 0.000000 1.000000
    outer loop
      vertex 3.129315 -2.191170 2.000000
      vertex 3.510262 -2.457912 2.000000
      vertex 3.750000 -0.797087 2.000000
    endloop
  endfacet
  facet normal 0.000000 0.000000 1.000000
    outer loop
      vertex 3.510262 -2.457912 2.000000
      vertex 3.676014 -2.276091 2.000000
      vertex 3.750000 -0.797087 2.000000
    endloop
  endfacet
  facet normal 0.000000 0.000000 1.000000
    outer loop
      vertex 3.676014 -2.276091 2.000000
      vertex 4.250000 -0.794463 2.000000
      vertex 3.750000 -0.797087 2.000000
    endloop
  endfacet
  facet normal 0.000000 0.000000 1.000000
    outer loop
      vertex 4.250000 -0.794463 2.000000
      vertex 4.250000 0.794463 2.000000
      vertex 3.750000 0.797087 2.000000
    endloop
  endfacet
  facet normal 0.000000 0.000000 1.000000
    outer loop
      vertex 4.250000 0.794463 2.000000
      vertex 3.676014 2.276091 2.000000
      vertex 3.101591 2.253438 2.000000
    endloop
  endfacet
  facet normal 0.000000 0.000000 1.000000
    outer loop
      vertex 3.676014 2.276091 2.000000
      vertex 2.605562 3.450321 2.000000
      vertex 1.916889 3.320148 2.000000
    endloop
  endfacet
  facet normal -0.000000 0.000000 1.000000
    outer loop
      vertex 2.605562 3.450321 2.000000
      vertex 1.500000 4.000825 2.000000
      vertex 1.916889 3.320148 2.000000
    endloop
  endfacet
  facet normal 0.000000 0.000000 1.000000
    outer loop
      vertex 1.500000 3.455603 2.000000
      vertex 1.916889 3.320148 2.000000
      vertex 1.500000 4.000825 2.000000
    endloop
  endfacet
  facet normal -0.739009 0.673696 0.000000
    outer loop
      vertex 3.676014 -2.276091 6.000000
      vertex 3.676014 -2.276091 2.000000
      vertex 3.510262 -2.457912 6.000000
    endloop
  endfacet
  facet normal -0.739009 0.673696 0.000000
    outer loop
      vertex 3.510262 -2.457912 6.000000
      vertex 3.676014 -2.276091 2.000000
      vertex 3.510262 -2.457912 2.000000
    endloop
  endfacet
  facet normal -0.759595 0.605757 -0.236800
    outer loop
      vertex 3.829118 -1.844006 6.000000
      vertex 3.400715 -2.381206 6.000000
      vertex 3.243606 -2.271198 6.785378
    endloop
  endfacet
  facet normal -0.759595 0.605757 -0.236800
    outer loop
      vertex 3.829118 -1.844006 6.000000
      vertex 3.243606 -2.271198 6.785378
      vertex 3.380146 -1.627793 7.993282
    endloop
  endfacet
  facet normal -0.759595 0.605757 -0.236800
    outer loop
      vertex 3.380146 -1.627793 7.993282
      vertex 3.243606 -2.271198 6.785378
      vertex 3.129315 -2.191170 7.356716
    endloop
  endfacet
  facet normal -0.913546 0.406737 0.000000
    outer loop
      vertex 3.750000 -0.797087 8.000000
      vertex 3.750000 -0.797087 7.272280
      vertex 3.389529 -1.606718 7.974991
    endloop
  endfacet
  facet normal -0.913546 0.406737 -0.000000
    outer loop
      vertex 3.750000 -0.797087 8.000000
      vertex 3.389529 -1.606718 7.974991
      vertex 3.380146 -1.627793 7.993282
    endloop
  endfacet
  facet normal -0.913546 0.406737 0.000000
    outer loop
      vertex 3.750000 -0.797087 8.000000
      vertex 3.380146 -1.627793 7.993282
      vertex 3.129315 -2.191170 8.000000
    endloop
  endfacet
  facet normal -0.913546 0.406737 0.000000
    outer loop
      vertex 3.129315 -2.191170 7.356716
      vertex 3.129315 -2.191170 8.000000
      vertex 3.380146 -1.627793 7.993282
    endloop
  endfacet
  facet normal 0.923879 -0.000000 0.382684
    outer loop
      vertex -0.954594 5.250000 3.045406
      vertex -0.954594 10.000000 3.045406
      vertex -1.350000 10.000000 4.000000
    endloop
  endfacet
  facet normal 0.923879 0.000000 0.382684
    outer loop
      vertex -1.350000 5.250000 4.000000
      vertex -0.954594 5.250000 3.045406
      vertex -1.350000 10.000000 4.000000
    endloop
  endfacet
  facet normal 0.923879 0.000000 -0.382684
    outer loop
      vertex -1.350000 10.000000 4.000000
      vertex -0.954594 10.000000 4.954594
      vertex -0.954594 5.250000 4.954594
    endloop
  endfacet
  facet normal 0.923879 0.000000 -0.382684
    outer loop
      vertex -1.350000 5.250000 4.000000
      vertex -1.350000 10.000000 4.000000
      vertex -0.954594 5.250000 4.954594
    endloop
  endfacet
  facet normal 0.382684 0.000000 -0.923879
    outer loop
      vertex 0.000000 10.000000 5.350000
      vertex 0.000000 5.250000 5.350000
      vertex -0.954594 10.000000 4.954594
    endloop
  endfacet
  facet normal 0.382684 0.000000 -0.923879
    outer loop
      vertex -0.954594 10.000000 4.954594
      vertex 0.000000 5.250000 5.350000
      vertex -0.954594 5.250000 4.954594
    endloop
  endfacet
  facet normal -0.382684 0.000000 -0.923879
    outer loop
      vertex 0.954594 10.000000 4.954594
      vertex 0.954594 5.250000 4.954594
      vertex 0.000000 10.000000 5.350000
    endloop
  endfacet
  facet normal -0.382684 0.000000 -0.923879
    outer loop
      vertex 0.000000 10.000000 5.350000
      vertex 0.954594 5.250000 4.954594
      vertex 0.000000 5.250000 5.350000
    endloop
  endfacet
  facet normal -0.923879 0.000000 -0.382684
    outer loop
      vertex 1.350000 10.000000 4.000000
      vertex 1.350000 5.250000 4.000000
      vertex 0.954594 10.000000 4.954594
    endloop
  endfacet
  facet normal -0.923879 0.000000 -0.382684
    outer loop
      vertex 0.954594 10.000000 4.954594
      vertex 1.350000 5.250000 4.000000
      vertex 0.954594 5.250000 4.954594
    endloop
  endfacet
  facet normal -0.923879 0.000000 0.382684
    outer loop
      vertex 1.350000 10.000000 4.000000
      vertex 0.954594 10.000000 3.045406
      vertex 1.350000 5.250000 4.000000
    endloop
  endfacet
  facet normal -0.923879 -0.000000 0.382684
    outer loop
      vertex 1.350000 5.250000 4.000000
      vertex 0.954594 10.000000 3.045406
      vertex 0.954594 5.250000 3.045406
    endloop
  endfacet
  facet normal -0.382684 -0.000000 0.923879
    outer loop
      vertex 0.954594 5.250000 3.045406
      vertex 0.954594 10.000000 3.045406
      vertex 0.000000 10.000000 2.650000
    endloop
  endfacet
  facet normal -0.382684 -0.000000 0.923879
    outer loop
      vertex 0.000000 5.250000 2.650000
      vertex 0.954594 5.250000 3.045406
      vertex 0.000000 10.000000 2.650000
    endloop
  endfacet
  facet normal 0.382684 -0.000000 0.923879
    outer loop
      vertex 0.000000 5.250000 2.650000
      vertex 0.000000 10.000000 2.650000
      vertex -0.954594 10.000000 3.045406
    endloop
  endfacet
  facet normal 0.382684 -0.000000 0.923879
    outer loop
      vertex -0.954594 5.250000 3.045406
      vertex 0.000000 5.250000 2.650000
      vertex -0.954594 10.000000 3.045406
    endloop
  endfacet
  facet normal -1.000000 0.000000 0.000000
    outer loop
      vertex 3.750000 0.797087 8.000000
      vertex 3.750000 0.797087 7.272281
      vertex 3.750000 0.000000 8.000000
    endloop
  endfacet
  facet normal -0.000000 0.000000 -0.000000
    outer loop
      vertex 3.750000 0.797087 8.000000
      vertex 3.750000 0.000000 8.000000
      vertex 3.750000 -0.797087 8.000000
    endloop
  endfacet
  facet normal -1.000000 0.000000 0.000000
    outer loop
      vertex 3.750000 -0.797087 7.272280
      vertex 3.750000 -0.797087 8.000000
      vertex 3.750000 0.000000 8.000000
    endloop
  endfacet
  facet normal -0.913546 -0.406737 0.000000
    outer loop
      vertex 3.380146 1.627793 7.993282
      vertex 3.750000 0.797087 7.272281
      vertex 3.750000 0.797087 8.000000
    endloop
  endfacet
  facet normal -0.913546 -0.406737 0.000000
    outer loop
      vertex 3.380146 1.627793 7.993282
      vertex 3.750000 0.797087 8.000000
      vertex 3.101591 2.253438 8.000000
    endloop
  endfacet
  facet normal -0.913546 -0.406737 0.000000
    outer loop
      vertex 3.380146 1.627793 7.993282
      vertex 3.101591 2.253438 8.000000
      vertex 3.327482 1.746078 7.859631
    endloop
  endfacet
  facet normal -0.913546 -0.406737 0.000000
    outer loop
      vertex 3.327482 1.746078 7.859631
      vertex 3.101591 2.253438 8.000000
      vertex 3.101591 2.253438 7.286358
    endloop
  endfacet
  facet normal -0.669130 -0.743145 0.000000
    outer loop
      vertex 2.342279 2.937125 7.973104
      vertex 3.101591 2.253438 7.286358
      vertex 3.101591 2.253438 8.000000
    endloop
  endfacet
  facet normal -0.669130 -0.743145 0.000000
    outer loop
      vertex 1.916889 3.320148 8.000000
      vertex 2.342279 2.937125 7.973104
      vertex 3.101591 2.253438 8.000000
    endloop
  endfacet
  facet normal -0.669130 -0.743145 -0.000000
    outer loop
      vertex 1.916889 3.320148 7.314505
      vertex 2.342279 2.937125 7.973104
      vertex 1.916889 3.320148 8.000000
    endloop
  endfacet
  facet normal 0.809017 -0.587785 -0.000000
    outer loop
      vertex -3.433816 1.653639 7.755005
      vertex -2.693561 2.672512 7.523183
      vertex -2.565298 2.849052 8.000000
    endloop
  endfacet
  facet normal 0.809017 -0.587785 0.000000
    outer loop
      vertex -2.565298 2.849052 8.000000
      vertex -2.693561 2.672512 7.523183
      vertex -2.565298 2.849052 7.483015
    endloop
  endfacet
  facet normal 0.809017 -0.587785 -0.000000
    outer loop
      vertex -3.433816 1.653639 7.755005
      vertex -2.565298 2.849052 8.000000
      vertex -3.502330 1.559338 8.000000
    endloop
  endfacet
  facet normal 0.809017 -0.587785 0.000000
    outer loop
      vertex -3.433816 1.653639 7.755005
      vertex -3.502330 1.559338 8.000000
      vertex -3.502330 1.559338 7.567045
    endloop
  endfacet
  facet normal 0.978148 -0.207911 0.000000
    outer loop
      vertex -3.559865 1.288658 7.584029
      vertex -3.502330 1.559338 7.567045
      vertex -3.502330 1.559338 8.000000
    endloop
  endfacet
  facet normal 0.978148 -0.207911 0.000000
    outer loop
      vertex -3.833777 0.000000 7.664892
      vertex -3.559865 1.288658 7.584029
      vertex -3.833777 0.000000 8.000000
    endloop
  endfacet
  facet normal 0.978148 -0.207911 0.000000
    outer loop
      vertex -3.833777 0.000000 8.000000
      vertex -3.559865 1.288658 7.584029
      vertex -3.502330 1.559338 8.000000
    endloop
  endfacet
  facet normal 0.978148 0.207911 0.000000
    outer loop
      vertex -3.833777 0.000000 8.000000
      vertex -3.502330 -1.559338 8.000000
      vertex -3.502330 -1.559338 7.567045
    endloop
  endfacet
  facet normal 0.978148 0.207911 0.000000
    outer loop
      vertex -3.833777 0.000000 7.664892
      vertex -3.833777 0.000000 8.000000
      vertex -3.764071 -0.327943 7.644314
    endloop
  endfacet
  facet normal 0.978148 0.207911 0.000000
    outer loop
      vertex -3.764071 -0.327943 7.644314
      vertex -3.833777 0.000000 8.000000
      vertex -3.502330 -1.559338 7.567045
    endloop
  endfacet
  facet normal 0.947199 0.216192 -0.236800
    outer loop
      vertex -3.764071 -0.327943 7.644314
      vertex -3.502330 -1.559338 7.567045
      vertex -3.829118 -1.844006 6.000000
    endloop
  endfacet
  facet normal 0.947199 0.216192 -0.236800
    outer loop
      vertex -3.829118 -1.844006 6.000000
      vertex -3.502330 -1.559338 7.567045
      vertex -3.433816 -1.653639 7.755005
    endloop
  endfacet
  facet normal 0.947199 0.216192 -0.236800
    outer loop
      vertex -3.833777 0.000000 7.664892
      vertex -3.764071 -0.327943 7.644314
      vertex -3.829118 -1.844006 6.000000
    endloop
  endfacet
  facet normal 0.947199 0.216192 -0.236800
    outer loop
      vertex -4.250000 0.000000 6.000000
      vertex -3.833777 0.000000 7.664892
      vertex -3.829118 -1.844006 6.000000
    endloop
  endfacet
  facet normal 0.850217 -0.526433 0.000000
    outer loop
      vertex -3.195192 2.912802 2.000000
      vertex -3.195192 2.912802 6.000000
      vertex -4.031654 1.561871 6.000000
    endloop
  endfacet
  facet normal 0.850217 -0.526433 0.000000
    outer loop
      vertex -4.031654 1.561871 2.000000
      vertex -3.195192 2.912802 2.000000
      vertex -4.031654 1.561871 6.000000
    endloop
  endfacet
  facet normal 0.982973 -0.183749 0.000000
    outer loop
      vertex -4.031654 1.561871 2.000000
      vertex -4.031654 1.561871 6.000000
      vertex -4.323618 0.000000 6.000000
    endloop
  endfacet
  facet normal 0.982973 -0.183749 0.000000
    outer loop
      vertex -4.323618 0.000000 2.000000
      vertex -4.031654 1.561871 2.000000
      vertex -4.323618 0.000000 6.000000
    endloop
  endfacet
  facet normal 0.982973 0.183749 0.000000
    outer loop
      vertex -4.323618 0.000000 6.000000
      vertex -4.031654 -1.561871 6.000000
      vertex -4.031654 -1.561871 2.000000
    endloop
  endfacet
  facet normal 0.982973 0.183749 0.000000
    outer loop
      vertex -4.323618 0.000000 2.000000
      vertex -4.323618 0.000000 6.000000
      vertex -4.031654 -1.561871 2.000000
    endloop
  endfacet
  facet normal 0.947199 -0.216192 -0.236800
    outer loop
      vertex -3.559865 1.288658 7.584029
      vertex -3.833777 0.000000 7.664892
      vertex -4.250000 0.000000 6.000000
    endloop
  endfacet
  facet normal 0.947199 -0.216192 -0.236800
    outer loop
      vertex -3.829118 1.844006 6.000000
      vertex -3.433816 1.653639 7.755005
      vertex -3.502330 1.559338 7.567045
    endloop
  endfacet
  facet normal 0.947199 -0.216192 -0.236800
    outer loop
      vertex -3.559865 1.288658 7.584029
      vertex -3.829118 1.844006 6.000000
      vertex -3.502330 1.559338 7.567045
    endloop
  endfacet
  facet normal 0.947199 -0.216192 -0.236800
    outer loop
      vertex -3.559865 1.288658 7.584029
      vertex -4.250000 0.000000 6.000000
      vertex -3.829118 1.844006 6.000000
    endloop
  endfacet
  facet normal 0.759595 -0.605757 -0.236800
    outer loop
      vertex -2.693561 2.672512 7.523183
      vertex -3.433816 1.653639 7.755005
      vertex -3.829118 1.844006 6.000000
    endloop
  endfacet
  facet normal 0.759595 -0.605757 -0.236800
    outer loop
      vertex -2.649832 3.322784 6.000000
      vertex -2.364497 2.964985 7.830569
      vertex -2.565298 2.849052 7.483015
    endloop
  endfacet
  facet normal 0.759595 -0.605757 -0.236800
    outer loop
      vertex -2.693561 2.672512 7.523183
      vertex -2.649832 3.322784 6.000000
      vertex -2.565298 2.849052 7.483015
    endloop
  endfacet
  facet normal 0.759595 -0.605757 -0.236800
    outer loop
      vertex -2.693561 2.672512 7.523183
      vertex -3.829118 1.844006 6.000000
      vertex -2.649832 3.322784 6.000000
    endloop
  endfacet
  facet normal 0.602635 -0.798017 0.000000
    outer loop
      vertex -1.927202 3.870344 2.000000
      vertex -1.927202 3.870344 6.000000
      vertex -3.195192 2.912802 6.000000
    endloop
  endfacet
  facet normal 0.602635 -0.798017 0.000000
    outer loop
      vertex -3.195192 2.912802 2.000000
      vertex -1.927202 3.870344 2.000000
      vertex -3.195192 2.912802 6.000000
    endloop
  endfacet
  facet normal -0.759595 -0.605757 -0.236800
    outer loop
      vertex 3.327482 1.746078 7.859631
      vertex 3.101591 2.253438 7.286358
      vertex 2.649832 3.322784 6.000000
    endloop
  endfacet
  facet normal -0.759595 -0.605757 -0.236800
    outer loop
      vertex 2.649832 3.322784 6.000000
      vertex 3.101591 2.253438 7.286358
      vertex 2.342279 2.937125 7.973104
    endloop
  endfacet
  facet normal -0.759595 -0.605757 -0.236800
    outer loop
      vertex 3.380146 1.627793 7.993282
      vertex 3.327482 1.746078 7.859631
      vertex 3.829118 1.844006 6.000000
    endloop
  endfacet
  facet normal -0.759595 -0.605757 -0.236800
    outer loop
      vertex 3.829118 1.844006 6.000000
      vertex 3.327482 1.746078 7.859631
      vertex 2.649832 3.322784 6.000000
    endloop
  endfacet
  facet normal -0.947199 -0.216192 -0.236800
    outer loop
      vertex 3.750000 0.000000 8.000000
      vertex 3.750000 0.797087 7.272281
      vertex 3.829118 1.844006 6.000000
    endloop
  endfacet
  facet normal -0.947199 -0.216192 -0.236800
    outer loop
      vertex 3.829118 1.844006 6.000000
      vertex 3.750000 0.797087 7.272281
      vertex 3.380146 1.627793 7.993282
    endloop
  endfacet
  facet normal -0.947199 -0.216192 -0.236800
    outer loop
      vertex 3.829118 1.844006 6.000000
      vertex 4.250000 0.000000 6.000000
      vertex 3.750000 0.000000 8.000000
    endloop
  endfacet
  facet normal -0.947199 0.216192 -0.236800
    outer loop
      vertex 3.750000 0.000000 8.000000
      vertex 4.250000 0.000000 6.000000
      vertex 3.750000 -0.797087 7.272280
    endloop
  endfacet
  facet normal -0.947199 0.216192 -0.236800
    outer loop
      vertex 3.750000 -0.797087 7.272280
      vertex 4.250000 0.000000 6.000000
      vertex 3.389529 -1.606718 7.974991
    endloop
  endfacet
  facet normal -0.947199 0.216192 -0.236800
    outer loop
      vertex 4.250000 0.000000 6.000000
      vertex 3.829118 -1.844006 6.000000
      vertex 3.389529 -1.606718 7.974991
    endloop
  endfacet
  facet normal -0.947199 0.216192 -0.236800
    outer loop
      vertex 3.389529 -1.606718 7.974991
      vertex 3.829118 -1.844006 6.000000
      vertex 3.380146 -1.627793 7.993282
    endloop
  endfacet
  facet normal -0.932472 0.361242 0.000000
    outer loop
      vertex 4.250000 -0.794463 6.000000
      vertex 4.250000 -0.794463 2.000000
      vertex 3.676014 -2.276091 6.000000
    endloop
  endfacet
  facet normal -0.932472 0.361242 0.000000
    outer loop
      vertex 3.676014 -2.276091 6.000000
      vertex 4.250000 -0.794463 2.000000
      vertex 3.676014 -2.276091 2.000000
    endloop
  endfacet
  facet normal -1.000000 0.000000 0.000000
    outer loop
      vertex 4.250000 0.794463 6.000000
      vertex 4.250000 0.794463 2.000000
      vertex 4.250000 -0.794463 6.000000
    endloop
  endfacet
  facet normal -1.000000 0.000000 0.000000
    outer loop
      vertex 4.250000 -0.794463 6.000000
      vertex 4.250000 0.794463 2.000000
      vertex 4.250000 -0.794463 2.000000
    endloop
  endfacet
  facet normal -0.932472 -0.361242 0.000000
    outer loop
      vertex 4.250000 0.794463 6.000000
      vertex 3.676014 2.276091 6.000000
      vertex 4.250000 0.794463 2.000000
    endloop
  endfacet
  facet normal -0.932472 -0.361242 0.000000
    outer loop
      vertex 4.250000 0.794463 2.000000
      vertex 3.676014 2.276091 6.000000
      vertex 3.676014 2.276091 2.000000
    endloop
  endfacet
  facet normal -0.739009 -0.673696 0.000000
    outer loop
      vertex 3.676014 2.276091 6.000000
      vertex 2.605562 3.450321 6.000000
      vertex 3.676014 2.276091 2.000000
    endloop
  endfacet
  facet normal -0.739009 -0.673696 0.000000
    outer loop
      vertex 3.676014 2.276091 2.000000
      vertex 2.605562 3.450321 6.000000
      vertex 2.605562 3.450321 2.000000
    endloop
  endfacet
  facet normal 0.000000 1.000000 -0.000000
    outer loop
      vertex 0.000000 5.250000 5.350000
      vertex 0.954594 5.250000 4.954594
      vertex -0.954594 5.250000 4.954594
    endloop
  endfacet
  facet normal 0.000000 1.000000 0.000000
    outer loop
      vertex -0.954594 5.250000 4.954594
      vertex 0.954594 5.250000 4.954594
      vertex 1.350000 5.250000 4.000000
    endloop
  endfacet
  facet normal -0.000000 1.000000 0.000000
    outer loop
      vertex -0.954594 5.250000 4.954594
      vertex 1.350000 5.250000 4.000000
      vertex 0.954594 5.250000 3.045406
    endloop
  endfacet
  facet normal -0.000000 1.000000 0.000000
    outer loop
      vertex -0.954594 5.250000 4.954594
      vertex 0.954594 5.250000 3.045406
      vertex 0.000000 5.250000 2.650000
    endloop
  endfacet
  facet normal 0.000000 1.000000 0.000000
    outer loop
      vertex -0.954594 5.250000 4.954594
      vertex 0.000000 5.250000 2.650000
      vertex -0.954594 5.250000 3.045406
    endloop
  endfacet
  facet normal 0.000000 1.000000 0.000000
    outer loop
      vertex -0.954594 5.250000 4.954594
      vertex -0.954594 5.250000 3.045406
      vertex -1.350000 5.250000 4.000000
    endloop
  endfacet
  facet normal 0.000000 0.000000 -1.000000
    outer loop
      vertex 0.196487 4.250000 2.000000
      vertex -0.592850 4.250000 2.000000
      vertex -0.398933 4.305174 2.000000
    endloop
  endfacet
  facet normal -0.273663 0.961826 0.000000
    outer loop
      vertex -0.592850 4.250000 2.000000
      vertex -0.592850 4.250000 6.000000
      vertex -0.398933 4.305174 2.000000
    endloop
  endfacet
  facet normal -0.273663 0.961826 0.000000
    outer loop
      vertex -0.398933 4.305174 2.000000
      vertex -0.592850 4.250000 6.000000
      vertex -0.398933 4.305174 6.000000
    endloop
  endfacet
  facet normal 0.000000 -1.000000 0.000000
    outer loop
      vertex 0.196487 4.250000 2.000000
      vertex 0.196487 4.250000 6.000000
      vertex -0.592850 4.250000 6.000000
    endloop
  endfacet
  facet normal -0.000000 -1.000000 -0.000000
    outer loop
      vertex -0.592850 4.250000 2.000000
      vertex 0.196487 4.250000 2.000000
      vertex -0.592850 4.250000 6.000000
    endloop
  endfacet
  facet normal 0.092269 0.995734 0.000000
    outer loop
      vertex -0.398933 4.305174 2.000000
      vertex -0.398933 4.305174 6.000000
      vertex 0.196487 4.250000 2.000000
    endloop
  endfacet
  facet normal 0.092269 0.995734 0.000000
    outer loop
      vertex 0.196487 4.250000 2.000000
      vertex -0.398933 4.305174 6.000000
      vertex 0.196487 4.250000 6.000000
    endloop
  endfacet
  facet normal 0.000000 -0.000000 1.000000
    outer loop
      vertex -0.398933 4.305174 6.000000
      vertex -0.592850 4.250000 6.000000
      vertex 0.196487 4.250000 6.000000
    endloop
  endfacet
endsolid OpenSCAD_Model
