solid OpenSCAD_Model
  facet normal 0.000000 0.000000 -1.000000
    outer loop
      vertex -10.470707 12.760000 -0.005000
      vertex -10.647322 11.192497 -0.005000
      vertex -10.647322 14.327503 -0.005000
    endloop
  endfacet
  facet normal 0.000000 0.000000 -1.000000
    outer loop
      vertex -10.647322 14.327503 -0.005000
      vertex -10.647322 11.192497 -0.005000
      vertex -11.168311 9.703596 -0.005000
    endloop
  endfacet
  facet normal 0.000000 -0.000000 -1.000000
    outer loop
      vertex -10.647322 14.327503 -0.005000
      vertex -11.168311 9.703596 -0.005000
      vertex -12.007550 8.367955 -0.005000
    endloop
  endfacet
  facet normal 0.000000 0.000000 -1.000000
    outer loop
      vertex -10.647322 14.327503 -0.005000
      vertex -12.007550 8.367955 -0.005000
      vertex -13.122955 7.252550 -0.005000
    endloop
  endfacet
  facet normal 0.000000 -0.000000 -1.000000
    outer loop
      vertex -10.647322 14.327503 -0.005000
      vertex -13.122955 7.252550 -0.005000
      vertex -14.458596 6.413311 -0.005000
    endloop
  endfacet
  facet normal 0.000000 0.000000 -1.000000
    outer loop
      vertex -10.647322 14.327503 -0.005000
      vertex -14.458596 6.413311 -0.005000
      vertex -15.947497 5.892322 -0.005000
    endloop
  endfacet
  facet normal 0.000000 0.000000 -1.000000
    outer loop
      vertex -10.647322 14.327503 -0.005000
      vertex -15.947497 5.892322 -0.005000
      vertex -17.515000 5.715707 -0.005000
    endloop
  endfacet
  facet normal 0.000000 0.000000 -1.000000
    outer loop
      vertex -10.647322 14.327503 -0.005000
      vertex -17.515000 5.715707 -0.005000
      vertex -19.082503 5.892322 -0.005000
    endloop
  endfacet
  facet normal 0.000000 -0.000000 -1.000000
    outer loop
      vertex -15.282245 10.527245 -0.005000
      vertex -19.082503 5.892322 -0.005000
      vertex -20.571404 6.413311 -0.005000
    endloop
  endfacet
  facet normal 0.000000 0.000000 -1.000000
    outer loop
      vertex -16.697755 9.710000 -0.005000
      vertex -20.571404 6.413311 -0.005000
      vertex -21.907045 7.252550 -0.005000
    endloop
  endfacet
  facet normal 0.000000 -0.000000 -1.000000
    outer loop
      vertex -18.332245 9.710000 -0.005000
      vertex -21.907045 7.252550 -0.005000
      vertex -23.022450 8.367955 -0.005000
    endloop
  endfacet
  facet normal 0.000000 0.000000 -1.000000
    outer loop
      vertex -19.747755 10.527245 -0.005000
      vertex -23.022450 8.367955 -0.005000
      vertex -23.861689 9.703596 -0.005000
    endloop
  endfacet
  facet normal 0.000000 -0.000000 -1.000000
    outer loop
      vertex -20.565000 11.942755 -0.005000
      vertex -23.861689 9.703596 -0.005000
      vertex -24.382678 11.192497 -0.005000
    endloop
  endfacet
  facet normal 0.000000 0.000000 -1.000000
    outer loop
      vertex -20.565000 13.577245 -0.005000
      vertex -24.559293 12.760000 -0.005000
      vertex -24.382678 14.327503 -0.005000
    endloop
  endfacet
  facet normal 0.000000 0.000000 -1.000000
    outer loop
      vertex -19.747755 14.992755 -0.005000
      vertex -24.382678 14.327503 -0.005000
      vertex -23.861689 15.816404 -0.005000
    endloop
  endfacet
  facet normal 0.000000 -0.000000 -1.000000
    outer loop
      vertex -18.332245 15.810000 -0.005000
      vertex -23.861689 15.816404 -0.005000
      vertex -23.022450 17.152045 -0.005000
    endloop
  endfacet
  facet normal 0.000000 0.000000 -1.000000
    outer loop
      vertex -16.697755 15.810000 -0.005000
      vertex -23.022450 17.152045 -0.005000
      vertex -21.907045 18.267450 -0.005000
    endloop
  endfacet
  facet normal 0.000000 -0.000000 -1.000000
    outer loop
      vertex -10.647322 14.327503 -0.005000
      vertex -21.907045 18.267450 -0.005000
      vertex -20.571404 19.106689 -0.005000
    endloop
  endfacet
  facet normal 0.000000 0.000000 -1.000000
    outer loop
      vertex -10.647322 14.327503 -0.005000
      vertex -20.571404 19.106689 -0.005000
      vertex -19.082503 19.627678 -0.005000
    endloop
  endfacet
  facet normal 0.000000 -0.000000 -1.000000
    outer loop
      vertex -10.647322 14.327503 -0.005000
      vertex -19.082503 19.627678 -0.005000
      vertex -17.515000 19.804293 -0.005000
    endloop
  endfacet
  facet normal 0.000000 -0.000000 -1.000000
    outer loop
      vertex -10.647322 14.327503 -0.005000
      vertex -17.515000 19.804293 -0.005000
      vertex -15.947497 19.627678 -0.005000
    endloop
  endfacet
  facet normal 0.000000 -0.000000 -1.000000
    outer loop
      vertex -10.647322 14.327503 -0.005000
      vertex -15.947497 19.627678 -0.005000
      vertex -14.458596 19.106689 -0.005000
    endloop
  endfacet
  facet normal 0.000000 0.000000 -1.000000
    outer loop
      vertex -10.647322 14.327503 -0.005000
      vertex -14.458596 19.106689 -0.005000
      vertex -13.122955 18.267450 -0.005000
    endloop
  endfacet
  facet normal 0.000000 -0.000000 -1.000000
    outer loop
      vertex -10.647322 14.327503 -0.005000
      vertex -13.122955 18.267450 -0.005000
      vertex -12.007550 17.152045 -0.005000
    endloop
  endfacet
  facet normal 0.000000 0.000000 -1.000000
    outer loop
      vertex -10.647322 14.327503 -0.005000
      vertex -12.007550 17.152045 -0.005000
      vertex -11.168311 15.816404 -0.005000
    endloop
  endfacet
  facet normal 0.000000 0.000000 -1.000000
    outer loop
      vertex -14.465000 13.577245 -0.005000
      vertex -10.647322 14.327503 -0.005000
      vertex -14.465000 11.942755 -0.005000
    endloop
  endfacet
  facet normal 0.000000 0.000000 -1.000000
    outer loop
      vertex -15.282245 14.992755 -0.005000
      vertex -10.647322 14.327503 -0.005000
      vertex -14.465000 13.577245 -0.005000
    endloop
  endfacet
  facet normal 0.000000 -0.000000 -1.000000
    outer loop
      vertex -16.697755 15.810000 -0.005000
      vertex -10.647322 14.327503 -0.005000
      vertex -15.282245 14.992755 -0.005000
    endloop
  endfacet
  facet normal 0.000000 0.000000 -1.000000
    outer loop
      vertex -18.332245 15.810000 -0.005000
      vertex -23.022450 17.152045 -0.005000
      vertex -16.697755 15.810000 -0.005000
    endloop
  endfacet
  facet normal 0.000000 0.000000 -1.000000
    outer loop
      vertex -10.647322 14.327503 -0.005000
      vertex -16.697755 15.810000 -0.005000
      vertex -21.907045 18.267450 -0.005000
    endloop
  endfacet
  facet normal 0.000000 -0.000000 -1.000000
    outer loop
      vertex -19.747755 14.992755 -0.005000
      vertex -23.861689 15.816404 -0.005000
      vertex -18.332245 15.810000 -0.005000
    endloop
  endfacet
  facet normal 0.000000 -0.000000 -1.000000
    outer loop
      vertex -20.565000 11.942755 -0.005000
      vertex -24.382678 11.192497 -0.005000
      vertex -24.559293 12.760000 -0.005000
    endloop
  endfacet
  facet normal 0.000000 0.000000 -1.000000
    outer loop
      vertex -20.565000 13.577245 -0.005000
      vertex -24.382678 14.327503 -0.005000
      vertex -19.747755 14.992755 -0.005000
    endloop
  endfacet
  facet normal 0.000000 0.000000 -1.000000
    outer loop
      vertex -20.565000 11.942755 -0.005000
      vertex -24.559293 12.760000 -0.005000
      vertex -20.565000 13.577245 -0.005000
    endloop
  endfacet
  facet normal 0.000000 -0.000000 -1.000000
    outer loop
      vertex -16.697755 9.710000 -0.005000
      vertex -21.907045 7.252550 -0.005000
      vertex -18.332245 9.710000 -0.005000
    endloop
  endfacet
  facet normal 0.000000 0.000000 -1.000000
    outer loop
      vertex -18.332245 9.710000 -0.005000
      vertex -23.022450 8.367955 -0.005000
      vertex -19.747755 10.527245 -0.005000
    endloop
  endfacet
  facet normal 0.000000 -0.000000 -1.000000
    outer loop
      vertex -10.647322 14.327503 -0.005000
      vertex -19.082503 5.892322 -0.005000
      vertex -15.282245 10.527245 -0.005000
    endloop
  endfacet
  facet normal 0.000000 -0.000000 -1.000000
    outer loop
      vertex -14.465000 11.942755 -0.005000
      vertex -10.647322 14.327503 -0.005000
      vertex -15.282245 10.527245 -0.005000
    endloop
  endfacet
  facet normal 0.000000 -0.000000 -1.000000
    outer loop
      vertex -15.282245 10.527245 -0.005000
      vertex -20.571404 6.413311 -0.005000
      vertex -16.697755 9.710000 -0.005000
    endloop
  endfacet
  facet normal 0.000000 -0.000000 -1.000000
    outer loop
      vertex -19.747755 10.527245 -0.005000
      vertex -23.861689 9.703596 -0.005000
      vertex -20.565000 11.942755 -0.005000
    endloop
  endfacet
  facet normal 0.993712 -0.111964 0.000000
    outer loop
      vertex -10.647322 11.192497 -0.005000
      vertex -10.470707 12.760000 -0.005000
      vertex -10.470707 12.760000 14.005000
    endloop
  endfacet
  facet normal 0.993712 -0.111964 0.000000
    outer loop
      vertex -10.647322 11.192497 14.005000
      vertex -10.647322 11.192497 -0.005000
      vertex -10.470707 12.760000 14.005000
    endloop
  endfacet
  facet normal 0.993712 0.111964 0.000000
    outer loop
      vertex -10.470707 12.760000 14.005000
      vertex -10.470707 12.760000 -0.005000
      vertex -10.647322 14.327503 -0.005000
    endloop
  endfacet
  facet normal 0.993712 0.111964 0.000000
    outer loop
      vertex -10.647322 14.327503 14.005000
      vertex -10.470707 12.760000 14.005000
      vertex -10.647322 14.327503 -0.005000
    endloop
  endfacet
  facet normal 0.943883 0.330279 0.000000
    outer loop
      vertex -10.647322 14.327503 14.005000
      vertex -10.647322 14.327503 -0.005000
      vertex -11.168311 15.816404 -0.005000
    endloop
  endfacet
  facet normal 0.943883 0.330279 0.000000
    outer loop
      vertex -11.168311 15.816404 14.005000
      vertex -10.647322 14.327503 14.005000
      vertex -11.168311 15.816404 -0.005000
    endloop
  endfacet
  facet normal 0.846724 0.532032 0.000000
    outer loop
      vertex -11.168311 15.816404 14.005000
      vertex -11.168311 15.816404 -0.005000
      vertex -12.007550 17.152045 -0.005000
    endloop
  endfacet
  facet normal 0.846724 0.532032 0.000000
    outer loop
      vertex -12.007550 17.152045 14.005000
      vertex -11.168311 15.816404 14.005000
      vertex -12.007550 17.152045 -0.005000
    endloop
  endfacet
  facet normal 0.707107 0.707107 0.000000
    outer loop
      vertex -12.007550 17.152045 -0.005000
      vertex -13.122955 18.267450 -0.005000
      vertex -12.007550 17.152045 14.005000
    endloop
  endfacet
  facet normal 0.707107 0.707107 0.000000
    outer loop
      vertex -12.007550 17.152045 14.005000
      vertex -13.122955 18.267450 -0.005000
      vertex -13.122955 18.267450 14.005000
    endloop
  endfacet
  facet normal 0.532032 0.846724 0.000000
    outer loop
      vertex -13.122955 18.267450 -0.005000
      vertex -14.458596 19.106689 -0.005000
      vertex -13.122955 18.267450 14.005000
    endloop
  endfacet
  facet normal 0.532032 0.846724 0.000000
    outer loop
      vertex -13.122955 18.267450 14.005000
      vertex -14.458596 19.106689 -0.005000
      vertex -14.458596 19.106689 14.005000
    endloop
  endfacet
  facet normal 0.330279 0.943883 0.000000
    outer loop
      vertex -14.458596 19.106689 -0.005000
      vertex -15.947497 19.627678 -0.005000
      vertex -14.458596 19.106689 14.005000
    endloop
  endfacet
  facet normal 0.330279 0.943883 0.000000
    outer loop
      vertex -14.458596 19.106689 14.005000
      vertex -15.947497 19.627678 -0.005000
      vertex -15.947497 19.627678 14.005000
    endloop
  endfacet
  facet normal 0.111964 0.993712 0.000000
    outer loop
      vertex -15.947497 19.627678 -0.005000
      vertex -17.515000 19.804293 -0.005000
      vertex -15.947497 19.627678 14.005000
    endloop
  endfacet
  facet normal 0.111964 0.993712 0.000000
    outer loop
      vertex -15.947497 19.627678 14.005000
      vertex -17.515000 19.804293 -0.005000
      vertex -17.515000 19.804293 14.005000
    endloop
  endfacet
  facet normal -0.111964 0.993712 -0.000000
    outer loop
      vertex -17.515000 19.804293 -0.005000
      vertex -19.082503 19.627678 -0.005000
      vertex -17.515000 19.804293 14.005000
    endloop
  endfacet
  facet normal -0.111964 0.993712 0.000000
    outer loop
      vertex -17.515000 19.804293 14.005000
      vertex -19.082503 19.627678 -0.005000
      vertex -19.082503 19.627678 14.005000
    endloop
  endfacet
  facet normal -0.330279 0.943883 0.000000
    outer loop
      vertex -19.082503 19.627678 -0.005000
      vertex -20.571404 19.106689 -0.005000
      vertex -19.082503 19.627678 14.005000
    endloop
  endfacet
  facet normal -0.330279 0.943883 0.000000
    outer loop
      vertex -19.082503 19.627678 14.005000
      vertex -20.571404 19.106689 -0.005000
      vertex -20.571404 19.106689 14.005000
    endloop
  endfacet
  facet normal -0.532032 0.846724 0.000000
    outer loop
      vertex -20.571404 19.106689 -0.005000
      vertex -21.907045 18.267450 -0.005000
      vertex -20.571404 19.106689 14.005000
    endloop
  endfacet
  facet normal -0.532032 0.846724 -0.000000
    outer loop
      vertex -20.571404 19.106689 14.005000
      vertex -21.907045 18.267450 -0.005000
      vertex -21.907045 18.267450 14.005000
    endloop
  endfacet
  facet normal -0.707107 0.707107 -0.000000
    outer loop
      vertex -21.907045 18.267450 -0.005000
      vertex -23.022450 17.152045 -0.005000
      vertex -21.907045 18.267450 14.005000
    endloop
  endfacet
  facet normal -0.707107 0.707107 -0.000000
    outer loop
      vertex -21.907045 18.267450 14.005000
      vertex -23.022450 17.152045 -0.005000
      vertex -23.022450 17.152045 14.005000
    endloop
  endfacet
  facet normal -0.846724 0.532032 -0.000000
    outer loop
      vertex -23.022450 17.152045 -0.005000
      vertex -23.861689 15.816404 -0.005000
      vertex -23.022450 17.152045 14.005000
    endloop
  endfacet
  facet normal -0.846724 0.532032 0.000000
    outer loop
      vertex -23.022450 17.152045 14.005000
      vertex -23.861689 15.816404 -0.005000
      vertex -23.861689 15.816404 14.005000
    endloop
  endfacet
  facet normal -0.943883 0.330279 0.000000
    outer loop
      vertex -23.861689 15.816404 -0.005000
      vertex -24.382678 14.327503 -0.005000
      vertex -23.861689 15.816404 14.005000
    endloop
  endfacet
  facet normal -0.943883 0.330279 0.000000
    outer loop
      vertex -23.861689 15.816404 14.005000
      vertex -24.382678 14.327503 -0.005000
      vertex -24.382678 14.327503 14.005000
    endloop
  endfacet
  facet normal -0.993712 0.111964 0.000000
    outer loop
      vertex -24.382678 14.327503 -0.005000
      vertex -24.559293 12.760000 -0.005000
      vertex -24.382678 14.327503 14.005000
    endloop
  endfacet
  facet normal -0.993712 0.111964 -0.000000
    outer loop
      vertex -24.382678 14.327503 14.005000
      vertex -24.559293 12.760000 -0.005000
      vertex -24.559293 12.760000 14.005000
    endloop
  endfacet
  facet normal -0.993712 -0.111964 -0.000000
    outer loop
      vertex -24.382678 11.192497 -0.005000
      vertex -24.382678 11.192497 14.005000
      vertex -24.559293 12.760000 -0.005000
    endloop
  endfacet
  facet normal -0.993712 -0.111964 -0.000000
    outer loop
      vertex -24.559293 12.760000 -0.005000
      vertex -24.382678 11.192497 14.005000
      vertex -24.559293 12.760000 14.005000
    endloop
  endfacet
  facet normal -0.943883 -0.330279 -0.000000
    outer loop
      vertex -23.861689 9.703596 -0.005000
      vertex -23.861689 9.703596 14.005000
      vertex -24.382678 11.192497 -0.005000
    endloop
  endfacet
  facet normal -0.943883 -0.330279 -0.000000
    outer loop
      vertex -24.382678 11.192497 -0.005000
      vertex -23.861689 9.703596 14.005000
      vertex -24.382678 11.192497 14.005000
    endloop
  endfacet
  facet normal -0.846724 -0.532032 -0.000000
    outer loop
      vertex -23.022450 8.367955 -0.005000
      vertex -23.022450 8.367955 14.005000
      vertex -23.861689 9.703596 -0.005000
    endloop
  endfacet
  facet normal -0.846724 -0.532032 -0.000000
    outer loop
      vertex -23.861689 9.703596 -0.005000
      vertex -23.022450 8.367955 14.005000
      vertex -23.861689 9.703596 14.005000
    endloop
  endfacet
  facet normal -0.707107 -0.707107 0.000000
    outer loop
      vertex -23.022450 8.367955 -0.005000
      vertex -21.907045 7.252550 -0.005000
      vertex -21.907045 7.252550 -0.000000
    endloop
  endfacet
  facet normal -0.707107 -0.707107 0.000000
    outer loop
      vertex -22.500000 7.845505 14.000000
      vertex -23.022450 8.367955 -0.005000
      vertex -22.500000 7.845505 -0.000000
    endloop
  endfacet
  facet normal -0.707107 -0.707107 0.000000
    outer loop
      vertex -22.500000 7.845505 -0.000000
      vertex -23.022450 8.367955 -0.005000
      vertex -21.907045 7.252550 -0.000000
    endloop
  endfacet
  facet normal -0.707107 -0.707107 -0.000000
    outer loop
      vertex -23.022450 8.367955 14.005000
      vertex -23.022450 8.367955 -0.005000
      vertex -22.500000 7.845505 14.000000
    endloop
  endfacet
  facet normal -0.707107 -0.707107 0.000000
    outer loop
      vertex -21.907045 7.252550 14.005000
      vertex -22.500000 7.845505 14.000000
      vertex -21.907045 7.252550 14.000000
    endloop
  endfacet
  facet normal -0.707107 -0.707107 -0.000000
    outer loop
      vertex -23.022450 8.367955 14.005000
      vertex -22.500000 7.845505 14.000000
      vertex -21.907045 7.252550 14.005000
    endloop
  endfacet
  facet normal -0.532032 -0.846724 0.000000
    outer loop
      vertex -21.907045 7.252550 -0.005000
      vertex -20.571404 6.413311 -0.005000
      vertex -20.571404 6.413311 -0.000000
    endloop
  endfacet
  facet normal -0.532032 -0.846724 0.000000
    outer loop
      vertex -21.907045 7.252550 -0.000000
      vertex -21.907045 7.252550 -0.005000
      vertex -20.571404 6.413311 -0.000000
    endloop
  endfacet
  facet normal -0.330279 -0.943883 -0.000000
    outer loop
      vertex -20.000000 6.213368 -0.000000
      vertex -19.082503 5.892322 -0.005000
      vertex -19.082503 5.892322 14.005000
    endloop
  endfacet
  facet normal -0.330279 -0.943883 0.000000
    outer loop
      vertex -20.000000 6.213368 -0.000000
      vertex -20.571404 6.413311 -0.000000
      vertex -20.571404 6.413311 -0.005000
    endloop
  endfacet
  facet normal -0.330279 -0.943883 0.000000
    outer loop
      vertex -20.571404 6.413311 14.005000
      vertex -20.571404 6.413311 14.000000
      vertex -19.082503 5.892322 14.005000
    endloop
  endfacet
  facet normal -0.330279 -0.943883 -0.000000
    outer loop
      vertex -20.571404 6.413311 14.000000
      vertex -20.000000 6.213368 14.000000
      vertex -19.082503 5.892322 14.005000
    endloop
  endfacet
  facet normal -0.330279 -0.943883 -0.000000
    outer loop
      vertex -20.571404 6.413311 -0.005000
      vertex -19.082503 5.892322 -0.005000
      vertex -20.000000 6.213368 -0.000000
    endloop
  endfacet
  facet normal -0.330279 -0.943883 0.000000
    outer loop
      vertex -20.000000 6.213368 14.000000
      vertex -20.000000 6.213368 -0.000000
      vertex -19.082503 5.892322 14.005000
    endloop
  endfacet
  facet normal -0.111964 -0.993712 0.000000
    outer loop
      vertex -19.082503 5.892322 -0.005000
      vertex -17.515000 5.715707 -0.005000
      vertex -17.515000 5.715707 14.005000
    endloop
  endfacet
  facet normal -0.111964 -0.993712 -0.000000
    outer loop
      vertex -19.082503 5.892322 14.005000
      vertex -19.082503 5.892322 -0.005000
      vertex -17.515000 5.715707 14.005000
    endloop
  endfacet
  facet normal 0.111964 -0.993712 0.000000
    outer loop
      vertex -17.515000 5.715707 -0.005000
      vertex -15.947497 5.892322 -0.005000
      vertex -15.947497 5.892322 14.005000
    endloop
  endfacet
  facet normal 0.111964 -0.993712 0.000000
    outer loop
      vertex -17.515000 5.715707 14.005000
      vertex -17.515000 5.715707 -0.005000
      vertex -15.947497 5.892322 14.005000
    endloop
  endfacet
  facet normal 0.330279 -0.943883 0.000000
    outer loop
      vertex -15.947497 5.892322 -0.005000
      vertex -14.458596 6.413311 -0.005000
      vertex -14.458596 6.413311 -0.000000
    endloop
  endfacet
  facet normal 0.330279 -0.943883 0.000000
    outer loop
      vertex -15.000000 6.223866 14.000000
      vertex -15.947497 5.892322 -0.005000
      vertex -15.000000 6.223866 -0.000000
    endloop
  endfacet
  facet normal 0.330279 -0.943883 0.000000
    outer loop
      vertex -15.000000 6.223866 -0.000000
      vertex -15.947497 5.892322 -0.005000
      vertex -14.458596 6.413311 -0.000000
    endloop
  endfacet
  facet normal 0.330279 -0.943883 0.000000
    outer loop
      vertex -15.947497 5.892322 14.005000
      vertex -15.947497 5.892322 -0.005000
      vertex -15.000000 6.223866 14.000000
    endloop
  endfacet
  facet normal 0.330279 -0.943883 0.000000
    outer loop
      vertex -14.458596 6.413311 14.005000
      vertex -15.000000 6.223866 14.000000
      vertex -14.458596 6.413311 14.000000
    endloop
  endfacet
  facet normal 0.330279 -0.943883 0.000000
    outer loop
      vertex -15.947497 5.892322 14.005000
      vertex -15.000000 6.223866 14.000000
      vertex -14.458596 6.413311 14.005000
    endloop
  endfacet
  facet normal 0.532032 -0.846724 0.000000
    outer loop
      vertex -14.458596 6.413311 -0.005000
      vertex -13.122955 7.252550 -0.005000
      vertex -13.122955 7.252550 -0.000000
    endloop
  endfacet
  facet normal 0.532032 -0.846724 0.000000
    outer loop
      vertex -14.458596 6.413311 -0.000000
      vertex -14.458596 6.413311 -0.005000
      vertex -13.122955 7.252550 -0.000000
    endloop
  endfacet
  facet normal 0.707107 -0.707107 0.000000
    outer loop
      vertex -12.500000 7.875505 -0.000000
      vertex -12.007550 8.367955 -0.005000
      vertex -12.007550 8.367955 14.005000
    endloop
  endfacet
  facet normal 0.707107 -0.707107 0.000000
    outer loop
      vertex -12.500000 7.875505 -0.000000
      vertex -13.122955 7.252550 -0.000000
      vertex -13.122955 7.252550 -0.005000
    endloop
  endfacet
  facet normal 0.707107 -0.707107 0.000000
    outer loop
      vertex -13.122955 7.252550 14.005000
      vertex -13.122955 7.252550 14.000000
      vertex -12.007550 8.367955 14.005000
    endloop
  endfacet
  facet normal 0.707107 -0.707107 0.000000
    outer loop
      vertex -13.122955 7.252550 14.000000
      vertex -12.500000 7.875505 14.000000
      vertex -12.007550 8.367955 14.005000
    endloop
  endfacet
  facet normal 0.707107 -0.707107 0.000000
    outer loop
      vertex -13.122955 7.252550 -0.005000
      vertex -12.007550 8.367955 -0.005000
      vertex -12.500000 7.875505 -0.000000
    endloop
  endfacet
  facet normal 0.707107 -0.707107 0.000000
    outer loop
      vertex -12.500000 7.875505 14.000000
      vertex -12.500000 7.875505 -0.000000
      vertex -12.007550 8.367955 14.005000
    endloop
  endfacet
  facet normal 0.846724 -0.532032 0.000000
    outer loop
      vertex -12.007550 8.367955 -0.005000
      vertex -11.168311 9.703596 -0.005000
      vertex -11.168311 9.703596 14.005000
    endloop
  endfacet
  facet normal 0.846724 -0.532032 0.000000
    outer loop
      vertex -12.007550 8.367955 14.005000
      vertex -12.007550 8.367955 -0.005000
      vertex -11.168311 9.703596 14.005000
    endloop
  endfacet
  facet normal 0.943883 -0.330279 0.000000
    outer loop
      vertex -11.168311 9.703596 -0.005000
      vertex -10.647322 11.192497 -0.005000
      vertex -10.647322 11.192497 14.005000
    endloop
  endfacet
  facet normal 0.943883 -0.330279 0.000000
    outer loop
      vertex -11.168311 9.703596 14.005000
      vertex -11.168311 9.703596 -0.005000
      vertex -10.647322 11.192497 14.005000
    endloop
  endfacet
  facet normal -1.000000 -0.000000 -0.000000
    outer loop
      vertex -14.465000 11.942755 14.005000
      vertex -14.465000 13.577245 14.005000
      vertex -14.465000 11.942755 -0.005000
    endloop
  endfacet
  facet normal -1.000000 -0.000000 -0.000000
    outer loop
      vertex -14.465000 11.942755 -0.005000
      vertex -14.465000 13.577245 14.005000
      vertex -14.465000 13.577245 -0.005000
    endloop
  endfacet
  facet normal -0.866025 0.500000 -0.000000
    outer loop
      vertex -15.282245 10.527245 14.005000
      vertex -14.465000 11.942755 14.005000
      vertex -15.282245 10.527245 -0.005000
    endloop
  endfacet
  facet normal -0.866025 0.500000 -0.000000
    outer loop
      vertex -15.282245 10.527245 -0.005000
      vertex -14.465000 11.942755 14.005000
      vertex -14.465000 11.942755 -0.005000
    endloop
  endfacet
  facet normal -0.500000 0.866025 -0.000000
    outer loop
      vertex -16.697755 9.710000 14.005000
      vertex -15.282245 10.527245 14.005000
      vertex -16.697755 9.710000 -0.005000
    endloop
  endfacet
  facet normal -0.500000 0.866025 -0.000000
    outer loop
      vertex -16.697755 9.710000 -0.005000
      vertex -15.282245 10.527245 14.005000
      vertex -15.282245 10.527245 -0.005000
    endloop
  endfacet
  facet normal 0.000000 1.000000 -0.000000
    outer loop
      vertex -18.332245 9.710000 14.005000
      vertex -16.697755 9.710000 14.005000
      vertex -18.332245 9.710000 -0.005000
    endloop
  endfacet
  facet normal 0.000000 1.000000 -0.000000
    outer loop
      vertex -18.332245 9.710000 -0.005000
      vertex -16.697755 9.710000 14.005000
      vertex -16.697755 9.710000 -0.005000
    endloop
  endfacet
  facet normal 0.500000 0.866025 0.000000
    outer loop
      vertex -19.747755 10.527245 14.005000
      vertex -18.332245 9.710000 14.005000
      vertex -19.747755 10.527245 -0.005000
    endloop
  endfacet
  facet normal 0.500000 0.866025 -0.000000
    outer loop
      vertex -19.747755 10.527245 -0.005000
      vertex -18.332245 9.710000 14.005000
      vertex -18.332245 9.710000 -0.005000
    endloop
  endfacet
  facet normal 0.866025 0.500000 0.000000
    outer loop
      vertex -20.565000 11.942755 -0.005000
      vertex -20.565000 11.942755 14.005000
      vertex -19.747755 10.527245 14.005000
    endloop
  endfacet
  facet normal 0.866025 0.500000 0.000000
    outer loop
      vertex -19.747755 10.527245 -0.005000
      vertex -20.565000 11.942755 -0.005000
      vertex -19.747755 10.527245 14.005000
    endloop
  endfacet
  facet normal 1.000000 -0.000000 0.000000
    outer loop
      vertex -20.565000 13.577245 14.005000
      vertex -20.565000 11.942755 14.005000
      vertex -20.565000 11.942755 -0.005000
    endloop
  endfacet
  facet normal 1.000000 -0.000000 0.000000
    outer loop
      vertex -20.565000 13.577245 -0.005000
      vertex -20.565000 13.577245 14.005000
      vertex -20.565000 11.942755 -0.005000
    endloop
  endfacet
  facet normal 0.866025 -0.500000 0.000000
    outer loop
      vertex -19.747755 14.992755 14.005000
      vertex -20.565000 13.577245 14.005000
      vertex -20.565000 13.577245 -0.005000
    endloop
  endfacet
  facet normal 0.866025 -0.500000 0.000000
    outer loop
      vertex -19.747755 14.992755 -0.005000
      vertex -19.747755 14.992755 14.005000
      vertex -20.565000 13.577245 -0.005000
    endloop
  endfacet
  facet normal 0.500000 -0.866025 0.000000
    outer loop
      vertex -18.332245 15.810000 14.005000
      vertex -19.747755 14.992755 14.005000
      vertex -19.747755 14.992755 -0.005000
    endloop
  endfacet
  facet normal 0.500000 -0.866025 0.000000
    outer loop
      vertex -18.332245 15.810000 -0.005000
      vertex -18.332245 15.810000 14.005000
      vertex -19.747755 14.992755 -0.005000
    endloop
  endfacet
  facet normal 0.000000 -1.000000 0.000000
    outer loop
      vertex -16.697755 15.810000 14.005000
      vertex -18.332245 15.810000 14.005000
      vertex -18.332245 15.810000 -0.005000
    endloop
  endfacet
  facet normal -0.000000 -1.000000 0.000000
    outer loop
      vertex -16.697755 15.810000 -0.005000
      vertex -16.697755 15.810000 14.005000
      vertex -18.332245 15.810000 -0.005000
    endloop
  endfacet
  facet normal -0.500000 -0.866025 -0.000000
    outer loop
      vertex -15.282245 14.992755 14.005000
      vertex -16.697755 15.810000 14.005000
      vertex -16.697755 15.810000 -0.005000
    endloop
  endfacet
  facet normal -0.500000 -0.866025 -0.000000
    outer loop
      vertex -15.282245 14.992755 -0.005000
      vertex -15.282245 14.992755 14.005000
      vertex -16.697755 15.810000 -0.005000
    endloop
  endfacet
  facet normal -0.866025 -0.500000 -0.000000
    outer loop
      vertex -15.282245 14.992755 14.005000
      vertex -15.282245 14.992755 -0.005000
      vertex -14.465000 13.577245 14.005000
    endloop
  endfacet
  facet normal -0.866025 -0.500000 -0.000000
    outer loop
      vertex -14.465000 13.577245 14.005000
      vertex -15.282245 14.992755 -0.005000
      vertex -14.465000 13.577245 -0.005000
    endloop
  endfacet
  facet normal 0.000000 0.000000 1.000000
    outer loop
      vertex -10.647322 11.192497 14.005000
      vertex -10.470707 12.760000 14.005000
      vertex -10.647322 14.327503 14.005000
    endloop
  endfacet
  facet normal 0.000000 0.000000 1.000000
    outer loop
      vertex -12.007550 17.152045 14.005000
      vertex -10.647322 11.192497 14.005000
      vertex -11.168311 15.816404 14.005000
    endloop
  endfacet
  facet normal 0.000000 0.000000 1.000000
    outer loop
      vertex -11.168311 15.816404 14.005000
      vertex -10.647322 11.192497 14.005000
      vertex -10.647322 14.327503 14.005000
    endloop
  endfacet
  facet normal 0.000000 0.000000 1.000000
    outer loop
      vertex -13.122955 18.267450 14.005000
      vertex -10.647322 11.192497 14.005000
      vertex -12.007550 17.152045 14.005000
    endloop
  endfacet
  facet normal 0.000000 0.000000 1.000000
    outer loop
      vertex -14.458596 19.106689 14.005000
      vertex -10.647322 11.192497 14.005000
      vertex -13.122955 18.267450 14.005000
    endloop
  endfacet
  facet normal -0.000000 -0.000000 1.000000
    outer loop
      vertex -15.947497 19.627678 14.005000
      vertex -10.647322 11.192497 14.005000
      vertex -14.458596 19.106689 14.005000
    endloop
  endfacet
  facet normal 0.000000 0.000000 1.000000
    outer loop
      vertex -17.515000 19.804293 14.005000
      vertex -10.647322 11.192497 14.005000
      vertex -15.947497 19.627678 14.005000
    endloop
  endfacet
  facet normal -0.000000 0.000000 1.000000
    outer loop
      vertex -19.082503 19.627678 14.005000
      vertex -10.647322 11.192497 14.005000
      vertex -17.515000 19.804293 14.005000
    endloop
  endfacet
  facet normal 0.000000 0.000000 1.000000
    outer loop
      vertex -15.282245 14.992755 14.005000
      vertex -10.647322 11.192497 14.005000
      vertex -19.082503 19.627678 14.005000
    endloop
  endfacet
  facet normal 0.000000 0.000000 1.000000
    outer loop
      vertex -20.565000 11.942755 14.005000
      vertex -20.565000 13.577245 14.005000
      vertex -24.382678 14.327503 14.005000
    endloop
  endfacet
  facet normal -0.000000 0.000000 1.000000
    outer loop
      vertex -18.332245 9.710000 14.005000
      vertex -19.747755 10.527245 14.005000
      vertex -23.861689 9.703596 14.005000
    endloop
  endfacet
  facet normal -0.000000 -0.000000 1.000000
    outer loop
      vertex -20.571404 6.413311 14.005000
      vertex -10.647322 11.192497 14.005000
      vertex -21.907045 7.252550 14.005000
    endloop
  endfacet
  facet normal -0.000000 -0.000000 1.000000
    outer loop
      vertex -19.082503 5.892322 14.005000
      vertex -10.647322 11.192497 14.005000
      vertex -20.571404 6.413311 14.005000
    endloop
  endfacet
  facet normal -0.000000 -0.000000 1.000000
    outer loop
      vertex -17.515000 5.715707 14.005000
      vertex -10.647322 11.192497 14.005000
      vertex -19.082503 5.892322 14.005000
    endloop
  endfacet
  facet normal 0.000000 -0.000000 1.000000
    outer loop
      vertex -15.947497 5.892322 14.005000
      vertex -10.647322 11.192497 14.005000
      vertex -17.515000 5.715707 14.005000
    endloop
  endfacet
  facet normal -0.000000 0.000000 1.000000
    outer loop
      vertex -14.458596 6.413311 14.005000
      vertex -10.647322 11.192497 14.005000
      vertex -15.947497 5.892322 14.005000
    endloop
  endfacet
  facet normal -0.000000 0.000000 1.000000
    outer loop
      vertex -13.122955 7.252550 14.005000
      vertex -10.647322 11.192497 14.005000
      vertex -14.458596 6.413311 14.005000
    endloop
  endfacet
  facet normal -0.000000 0.000000 1.000000
    outer loop
      vertex -12.007550 8.367955 14.005000
      vertex -10.647322 11.192497 14.005000
      vertex -13.122955 7.252550 14.005000
    endloop
  endfacet
  facet normal -0.000000 0.000000 1.000000
    outer loop
      vertex -11.168311 9.703596 14.005000
      vertex -10.647322 11.192497 14.005000
      vertex -12.007550 8.367955 14.005000
    endloop
  endfacet
  facet normal 0.000000 -0.000000 1.000000
    outer loop
      vertex -14.465000 11.942755 14.005000
      vertex -15.282245 10.527245 14.005000
      vertex -10.647322 11.192497 14.005000
    endloop
  endfacet
  facet normal 0.000000 0.000000 1.000000
    outer loop
      vertex -20.565000 13.577245 14.005000
      vertex -19.747755 14.992755 14.005000
      vertex -23.861689 15.816404 14.005000
    endloop
  endfacet
  facet normal 0.000000 0.000000 1.000000
    outer loop
      vertex -19.747755 10.527245 14.005000
      vertex -20.565000 11.942755 14.005000
      vertex -24.382678 11.192497 14.005000
    endloop
  endfacet
  facet normal 0.000000 0.000000 1.000000
    outer loop
      vertex -16.697755 9.710000 14.005000
      vertex -18.332245 9.710000 14.005000
      vertex -23.022450 8.367955 14.005000
    endloop
  endfacet
  facet normal 0.000000 0.000000 1.000000
    outer loop
      vertex -21.907045 7.252550 14.005000
      vertex -16.697755 9.710000 14.005000
      vertex -23.022450 8.367955 14.005000
    endloop
  endfacet
  facet normal -0.000000 0.000000 1.000000
    outer loop
      vertex -21.907045 7.252550 14.005000
      vertex -10.647322 11.192497 14.005000
      vertex -16.697755 9.710000 14.005000
    endloop
  endfacet
  facet normal 0.000000 0.000000 1.000000
    outer loop
      vertex -23.022450 8.367955 14.005000
      vertex -18.332245 9.710000 14.005000
      vertex -23.861689 9.703596 14.005000
    endloop
  endfacet
  facet normal 0.000000 0.000000 1.000000
    outer loop
      vertex -23.861689 9.703596 14.005000
      vertex -19.747755 10.527245 14.005000
      vertex -24.382678 11.192497 14.005000
    endloop
  endfacet
  facet normal 0.000000 -0.000000 1.000000
    outer loop
      vertex -15.282245 10.527245 14.005000
      vertex -16.697755 9.710000 14.005000
      vertex -10.647322 11.192497 14.005000
    endloop
  endfacet
  facet normal 0.000000 0.000000 1.000000
    outer loop
      vertex -24.382678 11.192497 14.005000
      vertex -20.565000 11.942755 14.005000
      vertex -24.559293 12.760000 14.005000
    endloop
  endfacet
  facet normal 0.000000 0.000000 1.000000
    outer loop
      vertex -24.382678 14.327503 14.005000
      vertex -20.565000 13.577245 14.005000
      vertex -23.861689 15.816404 14.005000
    endloop
  endfacet
  facet normal 0.000000 0.000000 1.000000
    outer loop
      vertex -20.565000 11.942755 14.005000
      vertex -24.382678 14.327503 14.005000
      vertex -24.559293 12.760000 14.005000
    endloop
  endfacet
  facet normal 0.000000 0.000000 1.000000
    outer loop
      vertex -23.861689 15.816404 14.005000
      vertex -19.747755 14.992755 14.005000
      vertex -23.022450 17.152045 14.005000
    endloop
  endfacet
  facet normal 0.000000 0.000000 1.000000
    outer loop
      vertex -19.747755 14.992755 14.005000
      vertex -18.332245 15.810000 14.005000
      vertex -23.022450 17.152045 14.005000
    endloop
  endfacet
  facet normal 0.000000 0.000000 1.000000
    outer loop
      vertex -23.022450 17.152045 14.005000
      vertex -18.332245 15.810000 14.005000
      vertex -21.907045 18.267450 14.005000
    endloop
  endfacet
  facet normal 0.000000 0.000000 1.000000
    outer loop
      vertex -21.907045 18.267450 14.005000
      vertex -16.697755 15.810000 14.005000
      vertex -20.571404 19.106689 14.005000
    endloop
  endfacet
  facet normal -0.000000 0.000000 1.000000
    outer loop
      vertex -20.571404 19.106689 14.005000
      vertex -15.282245 14.992755 14.005000
      vertex -19.082503 19.627678 14.005000
    endloop
  endfacet
  facet normal -0.000000 -0.000000 1.000000
    outer loop
      vertex -16.697755 15.810000 14.005000
      vertex -15.282245 14.992755 14.005000
      vertex -20.571404 19.106689 14.005000
    endloop
  endfacet
  facet normal 0.000000 0.000000 1.000000
    outer loop
      vertex -15.282245 14.992755 14.005000
      vertex -14.465000 13.577245 14.005000
      vertex -10.647322 11.192497 14.005000
    endloop
  endfacet
  facet normal 0.000000 0.000000 1.000000
    outer loop
      vertex -18.332245 15.810000 14.005000
      vertex -16.697755 15.810000 14.005000
      vertex -21.907045 18.267450 14.005000
    endloop
  endfacet
  facet normal 0.000000 -0.000000 1.000000
    outer loop
      vertex -14.465000 13.577245 14.005000
      vertex -14.465000 11.942755 14.005000
      vertex -10.647322 11.192497 14.005000
    endloop
  endfacet
  facet normal -0.532032 -0.846724 0.000000
    outer loop
      vertex -21.907045 7.252550 14.000000
      vertex -20.571404 6.413311 14.000000
      vertex -20.571404 6.413311 14.005000
    endloop
  endfacet
  facet normal -0.532032 -0.846724 0.000000
    outer loop
      vertex -21.907045 7.252550 14.005000
      vertex -21.907045 7.252550 14.000000
      vertex -20.571404 6.413311 14.005000
    endloop
  endfacet
  facet normal -0.000000 0.000000 1.000000
    outer loop
      vertex -13.122955 7.252550 14.000000
      vertex -12.500000 -2.000000 14.000000
      vertex -12.500000 7.875505 14.000000
    endloop
  endfacet
  facet normal -0.000000 0.000000 1.000000
    outer loop
      vertex -15.000000 1.000000 14.000000
      vertex -12.500000 -2.000000 14.000000
      vertex -13.122955 7.252550 14.000000
    endloop
  endfacet
  facet normal 0.000000 -0.000000 1.000000
    outer loop
      vertex -14.458596 6.413311 14.000000
      vertex -15.000000 1.000000 14.000000
      vertex -13.122955 7.252550 14.000000
    endloop
  endfacet
  facet normal -0.000000 0.000000 1.000000
    outer loop
      vertex -22.500000 -2.000000 14.000000
      vertex -12.500000 -2.000000 14.000000
      vertex -15.000000 1.000000 14.000000
    endloop
  endfacet
  facet normal 0.000000 0.000000 1.000000
    outer loop
      vertex -20.000000 6.213368 14.000000
      vertex -22.500000 -2.000000 14.000000
      vertex -20.000000 1.000000 14.000000
    endloop
  endfacet
  facet normal 0.000000 -0.000000 1.000000
    outer loop
      vertex -20.571404 6.413311 14.000000
      vertex -22.500000 -2.000000 14.000000
      vertex -20.000000 6.213368 14.000000
    endloop
  endfacet
  facet normal 0.000000 -0.000000 1.000000
    outer loop
      vertex -21.907045 7.252550 14.000000
      vertex -22.500000 -2.000000 14.000000
      vertex -20.571404 6.413311 14.000000
    endloop
  endfacet
  facet normal 0.000000 -0.000000 1.000000
    outer loop
      vertex -22.500000 7.845505 14.000000
      vertex -22.500000 -2.000000 14.000000
      vertex -21.907045 7.252550 14.000000
    endloop
  endfacet
  facet normal 0.000000 0.000000 1.000000
    outer loop
      vertex -15.000000 1.000000 14.000000
      vertex -20.000000 1.000000 14.000000
      vertex -22.500000 -2.000000 14.000000
    endloop
  endfacet
  facet normal 0.000000 -0.000000 1.000000
    outer loop
      vertex -15.000000 6.223866 14.000000
      vertex -15.000000 1.000000 14.000000
      vertex -14.458596 6.413311 14.000000
    endloop
  endfacet
  facet normal -1.000000 -0.000000 -0.000000
    outer loop
      vertex -22.500000 -2.000000 -0.000000
      vertex -22.500000 -2.000000 14.000000
      vertex -22.500000 7.845505 -0.000000
    endloop
  endfacet
  facet normal -1.000000 0.000000 0.000000
    outer loop
      vertex -22.500000 7.845505 -0.000000
      vertex -22.500000 -2.000000 14.000000
      vertex -22.500000 7.845505 14.000000
    endloop
  endfacet
  facet normal 0.000000 -0.000000 -1.000000
    outer loop
      vertex -14.458596 6.413311 -0.000000
      vertex -13.122955 7.252550 -0.000000
      vertex -15.000000 1.000000 -0.000000
    endloop
  endfacet
  facet normal 0.000000 -0.000000 -1.000000
    outer loop
      vertex -21.907045 7.252550 -0.000000
      vertex -22.500000 -2.000000 -0.000000
      vertex -22.500000 7.845505 -0.000000
    endloop
  endfacet
  facet normal 0.000000 -0.000000 -1.000000
    outer loop
      vertex -20.571404 6.413311 -0.000000
      vertex -22.500000 -2.000000 -0.000000
      vertex -21.907045 7.252550 -0.000000
    endloop
  endfacet
  facet normal 0.000000 -0.000000 -1.000000
    outer loop
      vertex -20.000000 6.213368 -0.000000
      vertex -22.500000 -2.000000 -0.000000
      vertex -20.571404 6.413311 -0.000000
    endloop
  endfacet
  facet normal 0.000000 -0.000000 -1.000000
    outer loop
      vertex -20.000000 1.000000 -0.000000
      vertex -22.500000 -2.000000 -0.000000
      vertex -20.000000 6.213368 -0.000000
    endloop
  endfacet
  facet normal 0.000000 -0.000000 -1.000000
    outer loop
      vertex -15.000000 6.223866 -0.000000
      vertex -14.458596 6.413311 -0.000000
      vertex -15.000000 1.000000 -0.000000
    endloop
  endfacet
  facet normal 0.000000 -0.000000 -1.000000
    outer loop
      vertex -12.500000 -2.000000 -0.000000
      vertex -22.500000 -2.000000 -0.000000
      vertex -15.000000 1.000000 -0.000000
    endloop
  endfacet
  facet normal 0.000000 -0.000000 -1.000000
    outer loop
      vertex -12.500000 -2.000000 -0.000000
      vertex -15.000000 1.000000 -0.000000
      vertex -12.500000 7.875505 -0.000000
    endloop
  endfacet
  facet normal 0.000000 -0.000000 -1.000000
    outer loop
      vertex -15.000000 1.000000 -0.000000
      vertex -13.122955 7.252550 -0.000000
      vertex -12.500000 7.875505 -0.000000
    endloop
  endfacet
  facet normal 0.000000 -0.000000 -1.000000
    outer loop
      vertex -15.000000 1.000000 -0.000000
      vertex -22.500000 -2.000000 -0.000000
      vertex -20.000000 1.000000 -0.000000
    endloop
  endfacet
  facet normal 1.000000 0.000000 0.000000
    outer loop
      vertex -20.000000 6.213368 -0.000000
      vertex -20.000000 6.213368 14.000000
      vertex -20.000000 1.000000 14.000000
    endloop
  endfacet
  facet normal 1.000000 0.000000 0.000000
    outer loop
      vertex -20.000000 1.000000 -0.000000
      vertex -20.000000 6.213368 -0.000000
      vertex -20.000000 1.000000 14.000000
    endloop
  endfacet
  facet normal 0.532032 -0.846724 0.000000
    outer loop
      vertex -14.458596 6.413311 14.000000
      vertex -13.122955 7.252550 14.000000
      vertex -13.122955 7.252550 14.005000
    endloop
  endfacet
  facet normal 0.532032 -0.846724 0.000000
    outer loop
      vertex -14.458596 6.413311 14.005000
      vertex -14.458596 6.413311 14.000000
      vertex -13.122955 7.252550 14.005000
    endloop
  endfacet
  facet normal -1.000000 0.000000 0.000000
    outer loop
      vertex -15.000000 6.223866 14.000000
      vertex -15.000000 6.223866 -0.000000
      vertex -15.000000 1.000000 14.000000
    endloop
  endfacet
  facet normal -1.000000 0.000000 0.000000
    outer loop
      vertex -15.000000 1.000000 14.000000
      vertex -15.000000 6.223866 -0.000000
      vertex -15.000000 1.000000 -0.000000
    endloop
  endfacet
  facet normal 1.000000 0.000000 0.000000
    outer loop
      vertex -12.500000 -2.000000 14.000000
      vertex -12.500000 -2.000000 -0.000000
      vertex -12.500000 7.875505 -0.000000
    endloop
  endfacet
  facet normal 1.000000 -0.000000 0.000000
    outer loop
      vertex -12.500000 7.875505 14.000000
      vertex -12.500000 -2.000000 14.000000
      vertex -12.500000 7.875505 -0.000000
    endloop
  endfacet
  facet normal -0.000000 -1.000000 0.000000
    outer loop
      vertex -22.500000 -2.000000 -0.000000
      vertex -12.500000 -2.000000 -0.000000
      vertex -12.500000 -2.000000 14.000000
    endloop
  endfacet
  facet normal -0.000000 -1.000000 0.000000
    outer loop
      vertex -22.500000 -2.000000 14.000000
      vertex -22.500000 -2.000000 -0.000000
      vertex -12.500000 -2.000000 14.000000
    endloop
  endfacet
  facet normal 0.000000 1.000000 -0.000000
    outer loop
      vertex -20.000000 1.000000 14.000000
      vertex -15.000000 1.000000 14.000000
      vertex -20.000000 1.000000 -0.000000
    endloop
  endfacet
  facet normal 0.000000 1.000000 -0.000000
    outer loop
      vertex -20.000000 1.000000 -0.000000
      vertex -15.000000 1.000000 14.000000
      vertex -15.000000 1.000000 -0.000000
    endloop
  endfacet
endsolid OpenSCAD_Model
